<svg width="512" height="512" viewBox="0 0 512 512" fill="none" xmlns="http://www.w3.org/2000/svg">
<g clip-path="url(#clip0)">
<path d="M186.668 378.916C277.359 378.916 350.879 305.396 350.879 214.705C350.879 124.014 277.359 50.494 186.668 50.494C95.9768 50.494 22.457 124.014 22.457 214.705C22.457 305.396 95.9768 378.916 186.668 378.916Z" fill="#F9EFDA"/>
<path d="M275.976 76.865C295.005 106.124 304.903 141.649 301.962 179.134C294.868 269.548 215.823 337.092 125.41 329.998C97.164 327.782 71.15 318.543 48.946 304.129C75.814 345.443 120.896 374.26 173.824 378.412C264.238 385.506 343.283 317.961 350.376 227.548C355.254 165.382 324.844 108.589 275.976 76.865Z" fill="#F4DDB1"/>
<path d="M186.668 50.494V214.705H350.88C350.88 124.014 277.36 50.494 186.668 50.494Z" fill="#E4989D"/>
<path d="M186.667 232.879C182.438 232.879 179.011 229.452 179.011 225.223V141.164C179.011 136.935 182.438 133.508 186.667 133.508C190.895 133.508 194.323 136.935 194.323 141.164V225.223C194.323 229.452 190.896 232.879 186.667 232.879Z" fill="#665E66"/>
<path d="M153.582 146.659L184.208 116.033C185.567 114.674 187.77 114.674 189.129 116.033L219.755 146.659C221.947 148.851 220.395 152.599 217.295 152.599H156.043C152.942 152.599 151.39 148.851 153.582 146.659Z" fill="#A298A5"/>
<path d="M219.755 146.659L189.129 116.033C187.77 114.674 185.567 114.674 184.208 116.033L173.837 126.404L200.032 152.599H217.294C220.394 152.599 221.947 148.851 219.755 146.659Z" fill="#8B818E"/>
<path d="M286.772 222.361H202.713C198.484 222.361 195.057 218.934 195.057 214.705C195.057 210.476 198.484 207.049 202.713 207.049H286.772C291 207.049 294.428 210.476 294.428 214.705C294.427 218.934 291 222.361 286.772 222.361Z" fill="#665E66"/>
<path d="M207.438 214.705C207.295 216.528 212.613 220.366 212.126 222.058C208.719 233.9 197.36 242.118 184.596 241.117C170.009 239.973 159.112 227.22 160.257 212.633C161.402 198.046 174.154 187.149 188.741 188.294C199.945 189.173 208.973 196.901 212.038 207.048C212.963 210.111 207.703 211.323 207.438 214.705Z" fill="#756E78"/>
<path d="M193.251 189.047C193.956 191.798 194.235 194.708 194 197.698C192.856 212.285 180.103 223.182 165.516 222.038C163.966 221.916 162.462 221.656 161.005 221.285C163.741 231.958 172.998 240.208 184.595 241.118C199.182 242.262 211.934 231.365 213.079 216.778C214.103 203.74 205.503 192.176 193.251 189.047Z" fill="#665E66"/>
<path d="M301.962 179.134C300.995 191.461 298.681 203.359 295.192 214.705H350.88C350.88 156.96 321.069 106.184 276.004 76.908C295.014 106.159 304.901 141.667 301.962 179.134Z" fill="#E28086"/>
<path d="M281.278 181.619L311.904 212.245C313.263 213.604 313.263 215.807 311.904 217.166L281.278 247.792C279.086 249.984 275.338 248.431 275.338 245.332V184.08C275.339 180.979 279.086 179.427 281.278 181.619Z" fill="#A298A5"/>
<path d="M281.278 181.619L311.904 212.245C313.263 213.604 313.263 215.807 311.904 217.166L281.278 247.792C279.086 249.984 275.338 248.431 275.338 245.332V184.08C275.339 180.979 279.086 179.427 281.278 181.619Z" fill="#A298A5"/>
<path d="M281.278 247.792L311.904 217.166C313.263 215.807 313.263 213.604 311.904 212.245L301.533 201.874L275.338 228.069V245.331C275.339 248.431 279.086 249.983 281.278 247.792Z" fill="#8B818E"/>
<path d="M186.668 401.373C83.739 401.373 0 317.634 0 214.705C0 111.776 83.739 28.037 186.668 28.037C289.597 28.037 373.336 111.776 373.336 214.705C373.336 317.634 289.597 401.373 186.668 401.373ZM186.668 72.95C108.504 72.95 44.913 136.541 44.913 214.705C44.913 292.869 108.503 356.46 186.668 356.46C264.833 356.46 328.423 292.869 328.423 214.705C328.423 136.541 264.832 72.95 186.668 72.95Z" fill="#A298A5"/>
<path d="M307.01 72.131C334.501 104.65 351.104 146.656 351.104 192.473C351.104 295.402 267.365 379.141 164.436 379.141C118.619 379.141 76.613 362.539 44.094 335.047C78.362 375.583 129.556 401.372 186.668 401.372C289.597 401.372 373.336 317.633 373.336 214.704C373.336 157.593 347.546 106.4 307.01 72.131Z" fill="#8B818E"/>
<path d="M436 373.494H147.008C142.919 373.494 140.49 368.926 142.777 365.536L208.587 267.974C210.674 264.88 214.163 263.025 217.895 263.025H506.887C510.976 263.025 513.405 267.593 511.118 270.983L445.308 368.545C443.221 371.639 439.733 373.494 436 373.494Z" fill="#FFD064"/>
<path d="M317.262 483.963H28.27C24.181 483.963 21.752 479.395 24.039 476.005L89.849 378.443C91.936 375.349 95.425 373.494 99.157 373.494H388.149C392.238 373.494 394.667 378.062 392.38 381.452L326.57 479.014C324.483 482.108 320.994 483.963 317.262 483.963Z" fill="#FFD064"/>
<path d="M506.888 263.025H480.33L428.413 339.991C426.326 343.085 422.837 344.94 419.104 344.94H156.67L142.777 365.535C140.49 368.925 142.919 373.493 147.008 373.493H436C439.733 373.493 443.221 371.638 445.309 368.544L511.119 270.982C513.405 267.593 510.977 263.025 506.888 263.025Z" fill="#FFC250"/>
<path d="M388.149 373.494H361.591L309.673 450.46C307.586 453.554 304.097 455.409 300.365 455.409H37.932L24.039 476.005C21.753 479.395 24.181 483.963 28.27 483.963H317.262C320.995 483.963 324.483 482.108 326.57 479.014L392.38 381.452C394.667 378.062 392.238 373.494 388.149 373.494Z" fill="#FFC250"/>
<path d="M240.826 393.48C240.801 393.48 240.775 393.48 240.75 393.48C236.521 393.521 233.127 396.982 233.168 401.209L233.457 431.044L209.869 396.886C207.966 394.129 204.493 392.932 201.29 393.928C198.092 394.925 195.913 397.886 195.913 401.237V455.018C195.913 459.247 199.34 462.674 203.569 462.674C207.797 462.674 211.225 459.247 211.225 455.018V425.795L233.637 458.25C235.852 461.446 239.56 462.802 243.079 461.699C246.665 460.579 248.982 457.243 248.982 453.128L248.479 401.061C248.439 396.86 245.02 393.48 240.826 393.48Z" fill="#A298A5"/>
<path d="M138.19 447.317C134.369 447.338 130.338 447.354 127.021 447.36V401.136C127.021 396.907 123.594 393.48 119.365 393.48C115.136 393.48 111.709 396.907 111.709 401.136V454.973C111.709 458.704 114.399 461.892 118.078 462.52C118.624 462.613 119.004 462.678 125.017 462.678C127.914 462.678 132.118 462.663 138.276 462.629C142.503 462.605 145.911 459.159 145.889 454.931C145.865 450.702 142.441 447.332 138.19 447.317Z" fill="#A298A5"/>
<path d="M167.038 393.48C162.81 393.48 159.382 396.907 159.382 401.136V455.018C159.382 459.247 162.809 462.674 167.038 462.674C171.267 462.674 174.694 459.247 174.694 455.018V401.136C174.694 396.907 171.267 393.48 167.038 393.48Z" fill="#A298A5"/>
<path d="M296.304 447.362H281.462V435.978H294.645C298.874 435.978 302.301 432.551 302.301 428.322C302.301 424.093 298.874 420.666 294.645 420.666H281.462V409.281H296.304C300.533 409.281 303.96 405.854 303.96 401.625C303.96 397.396 300.533 393.969 296.304 393.969H273.807C269.578 393.969 266.151 397.396 266.151 401.625V455.015C266.151 459.244 269.578 462.671 273.807 462.671H296.304C300.533 462.671 303.96 459.244 303.96 455.015C303.96 450.786 300.533 447.362 296.304 447.362Z" fill="#A298A5"/>
<path d="M303.646 290.217C303.62 290.146 303.592 290.076 303.563 290.007C302.188 286.666 298.967 284.509 295.354 284.509C295.35 284.509 295.345 284.509 295.341 284.509C291.724 284.515 288.503 286.682 287.136 290.03C287.113 290.086 287.091 290.143 287.069 290.199L266.836 343.322C265.331 347.273 267.315 351.696 271.265 353.202C275.113 354.698 279.643 352.764 281.145 348.773L284.306 340.472H306.245L309.369 348.751C310.861 352.706 315.28 354.703 319.234 353.21C323.189 351.718 325.186 347.301 323.693 343.345L303.646 290.217ZM290.138 325.161L295.327 311.537L300.468 325.161H290.138Z" fill="#E28086"/>
<path d="M257.438 299.418C261.667 299.418 265.094 295.991 265.094 291.762C265.094 287.534 261.667 284.106 257.438 284.106H235.76C231.532 284.106 228.104 287.533 228.104 291.762V345.249C228.104 349.478 231.531 352.905 235.76 352.905C239.989 352.905 243.416 349.478 243.416 345.249V325.655H255.718C259.947 325.655 263.374 322.228 263.374 317.999C263.374 313.77 259.947 310.343 255.718 310.343H243.416V299.417H257.438V299.418Z" fill="#E28086"/>
<path d="M363.469 311.241C357.008 308.859 350.981 306.266 348.969 305.387C347.997 304.542 347.981 303.428 348.072 302.802C348.183 302.026 348.761 300.124 351.711 299.235C358.807 297.094 365.467 302.315 365.692 302.496C368.93 305.173 373.725 304.746 376.434 301.524C379.154 298.287 378.737 293.458 375.5 290.737C374.976 290.296 362.48 279.998 347.295 284.574C339.51 286.92 334 293.071 332.915 300.627C331.895 307.738 334.978 314.58 340.963 318.481C342.935 319.587 348.423 321.908 358.17 325.606C359.844 326.224 365.256 328.503 364.647 331.917C364.186 334.499 360.802 337.285 356.14 337.285C351.04 337.285 346.141 335.24 343.035 331.813C340.195 328.68 335.355 328.443 332.222 331.283C329.09 334.122 328.852 338.964 331.692 342.096C337.741 348.769 346.652 352.596 356.141 352.596C367.942 352.596 377.859 345.031 379.72 334.608C381.127 326.73 377.597 316.453 363.469 311.241Z" fill="#E28086"/>
<path d="M428.309 283.403H398.552C394.323 283.403 390.896 286.83 390.896 291.059C390.896 295.288 394.323 298.715 398.552 298.715H405.715V344.941C405.715 349.17 409.142 352.597 413.371 352.597C417.6 352.597 421.027 349.17 421.027 344.941V298.715H428.31C432.539 298.715 435.966 295.288 435.966 291.059C435.966 286.83 432.537 283.403 428.309 283.403Z" fill="#E28086"/>
<path d="M235.76 352.905C239.989 352.905 243.416 349.478 243.416 345.249V344.94H228.105V345.249C228.104 349.478 231.531 352.905 235.76 352.905Z" fill="#DA4A54"/>
<path d="M103.283 321.74H54.1919C49.9639 321.74 46.5359 318.313 46.5359 314.084C46.5359 309.855 49.9629 306.428 54.1919 306.428H103.283C107.512 306.428 110.939 309.855 110.939 314.084C110.939 318.313 107.511 321.74 103.283 321.74Z" fill="#E28086"/>
<path d="M133.904 280.385H102.676C98.448 280.385 95.02 276.958 95.02 272.729C95.02 268.501 98.447 265.073 102.676 265.073H133.904C138.133 265.073 141.56 268.5 141.56 272.729C141.56 276.958 138.133 280.385 133.904 280.385Z" fill="#E28086"/>
<path d="M72.141 363.095H11.248C7.02004 363.095 3.59204 359.668 3.59204 355.439C3.59204 351.211 7.01904 347.783 11.248 347.783H72.142C76.37 347.783 79.798 351.21 79.798 355.439C79.797 359.668 76.37 363.095 72.141 363.095Z" fill="#E28086"/>
<path d="M138.276 462.629C142.342 462.606 145.64 459.415 145.867 455.41H111.729C111.93 458.95 114.545 461.917 118.078 462.52C118.624 462.613 119.004 462.678 125.017 462.678C127.914 462.677 132.119 462.662 138.276 462.629Z" fill="#665E66"/>
<path d="M174.674 455.409H159.402C159.607 459.454 162.942 462.673 167.038 462.673C171.134 462.673 174.469 459.454 174.674 455.409Z" fill="#665E66"/>
<path d="M243.08 461.699C245.972 460.796 248.014 458.44 248.705 455.409H231.676L233.638 458.25C235.853 461.446 239.562 462.803 243.08 461.699Z" fill="#665E66"/>
<path d="M211.206 455.409H195.934C196.139 459.454 199.474 462.673 203.57 462.673C207.667 462.673 211.001 459.454 211.206 455.409Z" fill="#665E66"/>
<path d="M273.807 462.673H296.304C300.533 462.673 303.96 459.246 303.96 455.017C303.96 454.944 303.951 454.874 303.949 454.802C302.807 455.187 301.603 455.409 300.365 455.409H266.171C266.376 459.454 269.711 462.673 273.807 462.673Z" fill="#665E66"/>
<path d="M413.37 352.596C417.599 352.596 421.026 349.169 421.026 344.94V344.754C420.395 344.864 419.756 344.94 419.104 344.94H405.715C405.715 349.169 409.142 352.596 413.37 352.596Z" fill="#DA4A54"/>
<path d="M374.492 344.941H334.662C340.483 349.84 348.101 352.596 356.141 352.596C363.484 352.596 370.095 349.665 374.492 344.941Z" fill="#DA4A54"/>
<path d="M271.265 353.201C275.113 354.697 279.643 352.763 281.145 348.772L282.604 344.94H266.419C265.908 348.415 267.849 351.899 271.265 353.201Z" fill="#DA4A54"/>
<path d="M309.37 348.75C310.862 352.705 315.281 354.702 319.235 353.209C322.663 351.916 324.616 348.425 324.104 344.941H307.932L309.37 348.75Z" fill="#DA4A54"/>
</g>
<defs>
<clipPath id="clip0">
<rect width="512" height="512" fill="white"/>
</clipPath>
</defs>
</svg>
