<svg width="512" height="512" viewBox="0 0 512 512" fill="none" xmlns="http://www.w3.org/2000/svg">
<path d="M191.833 364.301H312.621V438.86H191.833V364.301Z" fill="#A298A5"/>
<path d="M282.033 364.301H312.621V438.86H282.033V364.301Z" fill="#8B818E"/>
<path d="M347.957 467.971H156.497V428.32C156.497 423.076 160.748 418.824 165.993 418.824H338.462C343.706 418.824 347.958 423.075 347.958 428.32V467.971H347.957Z" fill="#8B818E"/>
<path d="M338.404 418.824H309.879C315.155 418.824 319.433 423.101 319.433 428.378V467.971H347.958V428.378C347.957 423.102 343.68 418.824 338.404 418.824Z" fill="#756E78"/>
<path d="M441.558 512H62.897C57.374 512 52.897 507.523 52.897 502V462.339C52.897 456.816 57.374 452.339 62.897 452.339H441.558C447.081 452.339 451.558 456.816 451.558 462.339V502C451.558 507.523 447.081 512 441.558 512Z" fill="#A298A5"/>
<path d="M441.558 452.339H426.996V477.437C426.996 482.96 422.519 487.437 416.996 487.437H52.897V502C52.897 507.523 57.374 512 62.897 512H441.558C447.081 512 451.558 507.523 451.558 502V462.339C451.558 456.816 447.081 452.339 441.558 452.339Z" fill="#8B818E"/>
<path d="M327.718 64.57H399.149V151.919H327.718V64.57Z" fill="#A298A5"/>
<path d="M372.583 64.57H399.149V151.919H372.583V64.57Z" fill="#8B818E"/>
<path d="M68.983 148.901H435.472V359.656H68.983V148.901Z" fill="#DDEAFB"/>
<path d="M395.364 148.901V310.493C395.364 315.494 391.31 319.548 386.309 319.548H68.983V359.656H435.472V148.901H395.364Z" fill="#CBE2FF"/>
<path d="M421.375 162.065V346.493H83.08V162.065H421.375ZM431.436 131.881H73.019C61.906 131.881 52.897 140.89 52.897 152.003V356.553C52.897 367.666 61.906 376.675 73.019 376.675H431.436C442.549 376.675 451.558 367.666 451.558 356.553V152.003C451.558 140.89 442.549 131.881 431.436 131.881Z" fill="#756E78"/>
<path d="M435.478 132.288C435.744 133.594 435.885 134.945 435.885 136.33V349.946C435.885 356.052 430.935 361.002 424.829 361.002H57.345C55.96 361.002 54.609 360.861 53.303 360.595C55.174 369.771 63.29 376.675 73.018 376.675H431.435C442.548 376.675 451.557 367.666 451.557 356.553V152.003C451.558 142.275 444.653 134.159 435.478 132.288Z" fill="#665E66"/>
<path d="M443.558 88.762H283.309C278.891 88.762 275.309 85.18 275.309 80.762V15.546C275.309 11.128 278.891 7.54602 283.309 7.54602H443.558C447.976 7.54602 451.558 11.128 451.558 15.546V80.762C451.558 85.18 447.976 88.762 443.558 88.762Z" fill="#DDEAFB"/>
<path d="M443.509 7.54602H418.558V47.714C418.558 52.159 414.955 55.763 410.509 55.763H275.309V80.713C275.309 85.158 278.913 88.762 283.358 88.762H443.509C447.954 88.762 451.558 85.158 451.558 80.713V15.595C451.558 11.149 447.954 7.54602 443.509 7.54602Z" fill="#CBE2FF"/>
<path d="M443.509 96.308H283.358C274.759 96.308 267.763 89.312 267.763 80.713V15.595C267.763 6.996 274.759 0 283.358 0H443.509C452.108 0 459.104 6.996 459.104 15.595V80.713C459.104 89.312 452.108 96.308 443.509 96.308ZM283.358 15.092C283.08 15.092 282.855 15.317 282.855 15.595V80.713C282.855 80.991 283.08 81.216 283.358 81.216H443.509C443.787 81.216 444.012 80.991 444.012 80.713V15.595C444.012 15.317 443.787 15.092 443.509 15.092H283.358Z" fill="#756E78"/>
<path d="M258.613 489.716H125.053C120.886 489.716 117.507 486.338 117.507 482.17C117.507 478.002 120.885 474.624 125.053 474.624H258.614C262.781 474.624 266.16 478.002 266.16 482.17C266.16 486.338 262.781 489.716 258.613 489.716Z" fill="#756E78"/>
<path d="M357.666 491.878C363.028 491.878 367.374 487.532 367.374 482.17C367.374 476.808 363.028 472.462 357.666 472.462C352.304 472.462 347.958 476.808 347.958 482.17C347.958 487.532 352.304 491.878 357.666 491.878Z" fill="#FFD064"/>
<path d="M395.51 491.878C400.872 491.878 405.218 487.532 405.218 482.17C405.218 476.808 400.872 472.462 395.51 472.462C390.148 472.462 385.802 476.808 385.802 482.17C385.802 487.532 390.148 491.878 395.51 491.878Z" fill="#CCF49F"/>
<path d="M372.001 246.354C370.469 245.812 368.906 245.249 367.343 244.666V217.74C370.73 218.863 372.717 220.538 372.87 220.672L372.796 220.605C379.735 226.263 388.994 217.258 383.531 210.165C382.431 208.861 377.698 204.365 367.343 202.202V197.254C367.343 193.087 363.965 189.708 359.797 189.708C355.63 189.708 352.251 193.086 352.251 197.254V202.735C351.622 202.891 350.987 203.063 350.343 203.257C340.938 206.09 333.914 214.124 332.01 224.224C330.267 233.476 333.259 242.419 339.82 247.565C343.025 250.079 346.954 252.383 352.251 254.789V289.993C348.202 289.515 345.273 288.268 340.606 285.215C336.864 282.766 331.751 284.071 329.699 288.204C327.984 291.659 329.328 295.885 332.562 297.987C340.225 302.965 345.626 304.643 352.25 305.153V310.699C352.25 314.866 355.628 318.245 359.796 318.245C363.963 318.245 367.342 314.867 367.342 310.699V304.453C380.814 301.229 389.457 289.809 391.35 278.547C393.795 264.009 386.2 251.373 372.001 246.354ZM349.134 235.69C347.055 234.06 346.155 230.656 346.841 227.019C347.385 224.129 349.081 220.74 352.251 218.799V237.812C351.11 237.122 350.058 236.415 349.134 235.69ZM376.468 276.045C375.661 280.848 372.56 285.912 367.343 288.504V260.725C377.542 264.549 376.913 273.397 376.468 276.045Z" fill="#9DC6FB"/>
<path d="M209.342 190.714H122.691C114.647 190.714 108.102 197.259 108.102 205.303V258.496C108.102 266.54 114.647 273.085 122.691 273.085H209.342C217.386 273.085 223.931 266.54 223.931 258.496V205.303C223.931 197.259 217.386 190.714 209.342 190.714ZM208.839 205.806V224.354H123.194V205.806H208.839ZM123.194 257.992V239.445H208.839V257.992H123.194Z" fill="#9DC6FB"/>
<path d="M312.611 205.806H245.813C241.646 205.806 238.267 202.428 238.267 198.26C238.267 194.092 241.645 190.714 245.813 190.714H312.611C316.778 190.714 320.157 194.092 320.157 198.26C320.157 202.428 316.778 205.806 312.611 205.806Z" fill="#9DC6FB"/>
<path d="M181.429 305.104H114.631C110.464 305.104 107.085 301.726 107.085 297.558C107.085 293.391 110.463 290.012 114.631 290.012H181.429C185.596 290.012 188.975 293.39 188.975 297.558C188.975 301.725 185.596 305.104 181.429 305.104Z" fill="#9DC6FB"/>
<path d="M275.309 236.707H245.814C241.647 236.707 238.268 233.329 238.268 229.161C238.268 224.993 241.646 221.615 245.814 221.615H275.309C279.476 221.615 282.855 224.993 282.855 229.161C282.855 233.329 279.476 236.707 275.309 236.707Z" fill="#9DC6FB"/>
<path d="M415.54 63.309H397.899C393.732 63.309 390.353 59.931 390.353 55.763C390.353 51.595 393.731 48.217 397.899 48.217H415.54C419.707 48.217 423.086 51.595 423.086 55.763C423.086 59.931 419.708 63.309 415.54 63.309Z" fill="#9DC6FB"/>
<path d="M366.47 63.309H348.829C344.662 63.309 341.283 59.931 341.283 55.763C341.283 51.595 344.661 48.217 348.829 48.217H366.47C370.637 48.217 374.016 51.595 374.016 55.763C374.016 59.931 370.638 63.309 366.47 63.309Z" fill="#9DC6FB"/>
</svg>
