<svg width="512" height="512" viewBox="0 0 512 512" fill="none" xmlns="http://www.w3.org/2000/svg">
<path d="M113.558 167.971C130.69 167.971 144.578 154.083 144.578 136.951C144.578 119.819 130.69 105.931 113.558 105.931C96.4261 105.931 82.538 119.819 82.538 136.951C82.538 154.083 96.4261 167.971 113.558 167.971Z" fill="#F9EFDA"/>
<path d="M113.558 105.931C109.851 105.931 106.297 106.584 103.002 107.776C114.937 112.095 123.466 123.526 123.466 136.951C123.466 150.376 114.937 161.807 103.002 166.126C106.297 167.319 109.851 167.971 113.558 167.971C130.69 167.971 144.578 154.083 144.578 136.951C144.578 119.819 130.69 105.931 113.558 105.931Z" fill="#F4DDB1"/>
<path d="M126.233 108.64L97.05 163.209C101.832 166.222 107.489 167.971 113.558 167.971C130.69 167.971 144.578 154.083 144.578 136.951C144.578 124.336 137.044 113.488 126.233 108.64Z" fill="#FFC250"/>
<path d="M103.017 166.12C106.308 167.312 109.855 167.971 113.559 167.971C130.691 167.971 144.579 154.083 144.579 136.951C144.579 124.336 137.045 113.488 126.234 108.64L119.343 121.525C121.957 126.071 123.467 131.331 123.467 136.951C123.467 150.371 114.944 161.797 103.017 166.12Z" fill="#EBB044"/>
<path d="M286.263 423.902H245.228C231.983 423.902 221.209 413.127 221.209 399.883V387.092C221.209 382.938 224.576 379.571 228.73 379.571C232.884 379.571 236.251 382.938 236.251 387.092V399.883C236.251 404.833 240.279 408.861 245.229 408.861H286.264C290.418 408.861 293.785 412.228 293.785 416.382C293.784 420.535 290.417 423.902 286.263 423.902Z" fill="#756E78"/>
<path d="M482.557 303.436L448.346 297.917V264.653L482.557 259.134C487.434 258.347 491.857 262.113 491.857 267.054V295.517C491.857 300.456 487.435 304.222 482.557 303.436Z" fill="#E4989D"/>
<path d="M482.557 259.133L474.513 260.431C476.606 261.866 478.006 264.273 478.006 267.053V295.516C478.006 298.296 476.606 300.703 474.513 302.138L482.557 303.436C487.434 304.223 491.857 300.456 491.857 295.516V267.053C491.857 262.113 487.435 258.346 482.557 259.133Z" fill="#E28086"/>
<path d="M405.163 431.775C440.317 431.775 468.815 403.277 468.815 368.123C468.815 332.969 440.317 304.471 405.163 304.471C370.009 304.471 341.511 332.969 341.511 368.123C341.511 403.277 370.009 431.775 405.163 431.775Z" fill="#756E78"/>
<path d="M405.163 397.308C421.281 397.308 434.348 384.241 434.348 368.123C434.348 352.005 421.281 338.938 405.163 338.938C389.045 338.938 375.978 352.005 375.978 368.123C375.978 384.241 389.045 397.308 405.163 397.308Z" fill="#A298A5"/>
<path d="M418.738 342.288C420.874 346.344 422.088 350.96 422.088 355.863C422.088 371.981 409.021 385.048 392.903 385.048C388.001 385.048 383.384 383.833 379.328 381.698C384.214 390.978 393.947 397.308 405.163 397.308C421.282 397.308 434.348 384.241 434.348 368.123C434.348 356.907 428.018 347.174 418.738 342.288Z" fill="#8B818E"/>
<path d="M155.898 165.343C155.087 165.343 154.265 165.211 153.455 164.934C149.527 163.585 147.435 159.307 148.784 155.379L157.446 130.148C161.877 117.237 174.027 108.561 187.679 108.561H199.308C203.462 108.561 206.829 111.928 206.829 116.082C206.829 120.236 203.462 123.603 199.308 123.603H187.679C180.451 123.603 174.019 128.196 171.673 135.031L163.011 160.263C161.939 163.382 159.021 165.343 155.898 165.343Z" fill="#756E78"/>
<path d="M215.77 144.75C230.624 144.75 242.666 132.708 242.666 117.854C242.666 103 230.624 90.958 215.77 90.958C200.916 90.958 188.874 103 188.874 117.854C188.874 132.708 200.916 144.75 215.77 144.75Z" fill="#DDEAFB"/>
<path d="M226.075 93.012C227.393 96.187 228.129 99.665 228.129 103.317C228.129 118.171 216.087 130.213 201.233 130.213C197.581 130.213 194.103 129.478 190.928 128.159C194.972 137.898 204.568 144.75 215.77 144.75C230.624 144.75 242.666 132.708 242.666 117.854C242.666 106.652 235.814 97.056 226.075 93.012Z" fill="#CBE2FF"/>
<path d="M394.979 382.327H290.985V350.185H394.98C403.564 350.185 410.522 357.144 410.522 365.727V366.784C410.522 375.369 403.563 382.327 394.979 382.327Z" fill="#F9EFDA"/>
<path d="M401.236 351.522C400.791 359.731 394.014 366.256 385.694 366.256H290.985V382.327H394.937C403.545 382.327 410.523 375.349 410.523 366.741V365.77C410.522 359.407 406.703 353.943 401.236 351.522Z" fill="#F4DDB1"/>
<path d="M68.4719 431.775C103.626 431.775 132.124 403.277 132.124 368.123C132.124 332.969 103.626 304.471 68.4719 304.471C33.3179 304.471 4.81995 332.969 4.81995 368.123C4.81995 403.277 33.3179 431.775 68.4719 431.775Z" fill="#756E78"/>
<path d="M439.46 314.513C445.807 324.413 449.502 336.176 449.502 348.809C449.502 383.963 421.004 412.461 385.85 412.461C373.217 412.461 361.454 408.766 351.554 402.419C362.869 420.068 382.643 431.775 405.164 431.775C440.318 431.775 468.816 403.277 468.816 368.123C468.816 345.602 457.109 325.828 439.46 314.513Z" fill="#665E66"/>
<path d="M102.769 314.513C109.116 324.413 112.811 336.176 112.811 348.81C112.811 383.964 84.3129 412.462 49.1589 412.462C36.5259 412.462 24.7629 408.766 14.8619 402.42C26.1769 420.069 45.9509 431.776 68.4719 431.776C103.626 431.776 132.124 403.278 132.124 368.124C132.125 345.602 120.418 325.828 102.769 314.513Z" fill="#665E66"/>
<path d="M68.472 397.308C84.5904 397.308 97.657 384.241 97.657 368.123C97.657 352.005 84.5904 338.938 68.472 338.938C52.3536 338.938 39.287 352.005 39.287 368.123C39.287 384.241 52.3536 397.308 68.472 397.308Z" fill="#A298A5"/>
<path d="M82.047 342.288C84.183 346.344 85.397 350.96 85.397 355.863C85.397 371.981 72.33 385.048 56.212 385.048C51.31 385.048 46.693 383.833 42.637 381.698C47.523 390.978 57.256 397.308 68.472 397.308C84.591 397.308 97.657 384.241 97.657 368.123C97.657 356.907 91.327 347.174 82.047 342.288Z" fill="#8B818E"/>
<path d="M8.02599 338.938H40.626C58.81 338.938 76.614 344.14 91.937 353.931L103.987 361.63C110.623 365.87 118.333 368.123 126.208 368.123C139.813 368.123 148.685 353.834 142.651 341.64L114.149 284.041H74.924C44.383 284.041 16.189 300.422 1.06399 326.954C-1.98201 332.297 1.87599 338.938 8.02599 338.938Z" fill="#FFD064"/>
<path d="M142.652 341.64L114.15 284.041H74.9239C72.3969 284.041 69.8879 284.164 67.3989 284.385L95.7309 341.641C98.2299 346.691 98.1659 352.098 96.2749 356.703L103.988 361.631C110.624 365.871 118.335 368.124 126.209 368.124C139.814 368.123 148.686 353.834 142.652 341.64Z" fill="#FFC250"/>
<path d="M455.834 296.12L451.86 298.483L303.875 386.463C299.878 388.839 295.315 390.093 290.665 390.093H178.539C170.406 390.093 162.747 386.266 157.865 379.761L79.568 275.456C73.571 267.467 72.714 256.737 77.367 247.897L127.289 153.047C132.635 142.89 145.397 139.28 155.271 145.132L159.914 147.883C167.277 152.246 171.255 160.643 169.966 169.104L154.773 268.896C154.235 272.428 154.356 276.03 155.129 279.518L163.182 315.841C166.12 329.092 177.87 338.523 191.443 338.523H266.935C280.942 338.523 289.929 323.635 283.404 311.24L267.479 280.99C260.993 268.671 257.604 254.958 257.604 241.036V232.837H419.612C439.305 232.837 457.16 244.196 465.552 261.875C465.849 262.5 466.134 263.133 466.406 263.773L455.834 296.12Z" fill="#FFD064"/>
<path d="M326.311 305.043C332.08 305.043 336.756 300.367 336.756 294.598C336.756 288.829 332.08 284.153 326.311 284.153C320.542 284.153 315.866 288.829 315.866 294.598C315.866 300.367 320.542 305.043 326.311 305.043Z" fill="#E28086"/>
<path d="M466.408 263.774C463.903 257.89 460.371 252.654 456.074 248.238C454.353 254.486 450.321 260.075 444.384 263.605L292.425 353.948C288.428 356.324 283.865 357.578 279.215 357.578H141.213L157.865 379.762C162.747 386.266 170.406 390.094 178.539 390.094H290.665C295.315 390.094 299.878 388.84 303.875 386.464L455.834 296.121C466.96 289.506 471.478 275.683 466.408 263.774Z" fill="#FFC250"/>
<path d="M359.628 216.37C359.628 206.662 351.758 198.792 342.05 198.792H275.185C265.477 198.792 257.607 206.662 257.607 216.37V241.037C257.607 242.731 257.659 244.422 257.759 246.108L359.629 232.838V216.37H359.628Z" fill="#AA8080"/>
<path d="M342.05 198.792H341.945C342.025 199.471 342.077 200.159 342.077 200.86V208.546C342.077 213.57 338.35 217.813 333.369 218.462L257.607 228.331V241.038C257.607 242.732 257.659 244.423 257.759 246.109L359.629 232.839V216.37C359.628 206.662 351.758 198.792 342.05 198.792Z" fill="#8B5E5E"/>
<path d="M493.275 232.597H378.353C368.011 232.597 359.628 224.213 359.628 213.872V98.95C359.628 88.608 368.012 80.225 378.353 80.225H493.274C503.616 80.225 511.999 88.609 511.999 98.95V213.871C512 224.213 503.616 232.597 493.275 232.597Z" fill="#756E78"/>
<path d="M493.223 80.225H482.806V184.626C482.806 194.996 474.399 203.403 464.029 203.403H359.628V213.82C359.628 224.19 368.035 232.597 378.405 232.597H493.222C503.592 232.597 511.999 224.19 511.999 213.82V99.002C512 88.631 503.593 80.225 493.223 80.225Z" fill="#665E66"/>
<path d="M450.783 123.021C445.699 123.021 440.985 124.589 437.087 127.263C436.316 127.792 435.312 127.792 434.541 127.263C430.644 124.589 425.929 123.021 420.845 123.021C407.449 123.021 396.59 133.88 396.59 147.276C396.59 160.672 407.449 192.62 420.845 192.62C425.929 192.62 430.643 191.052 434.541 188.378C435.312 187.849 436.316 187.849 437.087 188.378C440.984 191.052 445.699 192.62 450.783 192.62C464.179 192.62 475.038 160.672 475.038 147.276C475.038 133.881 464.179 123.021 450.783 123.021Z" fill="#B3E59F"/>
<path d="M435.544 134.784C431.39 134.784 428.023 131.417 428.023 127.263V109.942C428.023 105.788 431.39 102.421 435.544 102.421C439.698 102.421 443.065 105.788 443.065 109.942V127.263C443.065 131.417 439.698 134.784 435.544 134.784Z" fill="#AA8080"/>
</svg>
