<svg width="512" height="512" viewBox="0 0 512 512" fill="none" xmlns="http://www.w3.org/2000/svg">
<g clip-path="url(#clip0)">
<path d="M195.837 55.884C195.837 51.134 197.199 46.484 199.763 42.485L203.382 36.839C205.945 32.84 207.308 28.19 207.308 23.44V10.024C207.308 4.488 202.82 0 197.283 0H160.901C155.365 0 150.877 4.488 150.877 10.024V23.439C150.877 28.189 152.24 32.839 154.803 36.838L158.422 42.484C160.985 46.483 162.348 51.133 162.348 55.883C162.348 64.733 157.638 72.914 149.984 77.356L136.209 85.352C125.394 91.63 118.737 103.19 118.737 115.695V156.1H239.449V115.695C239.449 103.19 232.793 91.63 221.977 85.352L208.202 77.356C200.547 72.915 195.837 64.734 195.837 55.884Z" fill="#CBE2FF"/>
<path d="M221.976 85.354L208.201 77.358C200.547 72.915 195.837 64.734 195.837 55.885C195.837 51.135 197.199 46.485 199.763 42.486L203.382 36.84C205.945 32.841 207.308 28.191 207.308 23.441V10.024C207.308 4.488 202.82 0 197.283 0H171.566C177.102 0 181.59 4.488 181.59 10.024V23.439C181.59 28.189 180.228 32.839 177.664 36.838L174.045 42.484C171.482 46.483 170.119 51.133 170.119 55.883C170.119 64.733 174.829 72.914 182.483 77.356L196.258 85.352C207.073 91.63 213.73 103.19 213.73 115.695V156.1H239.447V115.695C239.448 103.192 232.792 91.631 221.976 85.354Z" fill="#BED8FB"/>
<path d="M271.968 319.254L292.278 259.686C293.535 255.998 294.177 252.128 294.177 248.232C294.177 228.63 278.286 212.739 258.684 212.739H99.842C80.24 212.739 64.349 228.63 64.349 248.232C64.349 252.128 64.991 255.998 66.248 259.686L86.558 319.255C89.09 326.681 89.09 334.737 86.558 342.164L66.788 400.147C65.173 404.885 64.348 409.856 64.348 414.862C64.348 435.07 80.73 451.453 100.939 451.453H257.587C277.795 451.453 294.178 435.071 294.178 414.862C294.178 409.856 293.354 404.885 291.738 400.147L271.968 342.164C269.436 334.736 269.436 326.68 271.968 319.254Z" fill="#DDEAFB"/>
<path d="M271.968 342.163C269.436 334.737 269.436 326.681 271.968 319.254L292.278 259.686C293.535 255.998 294.177 252.128 294.177 248.232C294.177 228.63 278.286 212.739 258.684 212.739H224.861C244.463 212.739 260.354 228.63 260.354 248.232C260.354 252.128 259.712 255.998 258.455 259.686L238.145 319.254C235.613 326.68 235.613 334.736 238.145 342.163L257.915 400.146C259.53 404.884 260.355 409.856 260.355 414.862C260.355 435.07 243.973 451.453 223.764 451.453H257.587C277.795 451.453 294.178 435.071 294.178 414.862C294.178 409.856 293.354 404.884 291.738 400.146L271.968 342.163Z" fill="#CBE2FF"/>
<path d="M273.967 220.661H84.217C73.171 220.661 64.217 211.707 64.217 200.661V147.938C64.217 136.892 73.171 127.938 84.217 127.938H273.967C285.013 127.938 293.967 136.892 293.967 147.938V200.661C293.967 211.706 285.013 220.661 273.967 220.661Z" fill="#F9EFDA"/>
<path d="M273.919 127.937H265.187V180.854C265.187 186.944 260.25 191.881 254.16 191.881H64.217V200.612C64.217 211.684 73.193 220.66 84.265 220.66H273.918C284.99 220.66 293.966 211.684 293.966 200.612V147.985C293.967 136.913 284.991 127.937 273.919 127.937Z" fill="#F4DDB1"/>
<path d="M161.653 302.857C165.805 302.857 169.171 299.491 169.171 295.339C169.171 291.187 165.805 287.821 161.653 287.821H130.265V263.346H145.113C149.265 263.346 152.631 259.98 152.631 255.828C152.631 251.676 149.265 248.31 145.113 248.31H122.746C118.594 248.31 115.228 251.676 115.228 255.828V451.452H130.264V421.39H145.112C149.264 421.39 152.63 418.024 152.63 413.872C152.63 409.72 149.264 406.354 145.112 406.354H130.264V381.879H161.652C165.804 381.879 169.17 378.513 169.17 374.361C169.17 370.209 165.804 366.843 161.652 366.843H130.264V342.368H145.112C149.264 342.368 152.63 339.002 152.63 334.85C152.63 330.698 149.264 327.332 145.112 327.332H130.264V302.857H161.653Z" fill="#9DC6FB"/>
<path d="M64.217 166.118H293.967V181.154H64.217V166.118Z" fill="#F4DDB1"/>
<path d="M265.187 180.854C265.187 180.955 265.175 181.054 265.172 181.155H293.967V166.119H265.187V180.854Z" fill="#EFCB84"/>
<path d="M197.4 490.993C169.39 462.983 169.39 417.408 197.4 389.397C225.41 361.387 270.985 361.387 298.995 389.397C327.005 417.407 327.005 462.982 298.995 490.992C270.985 519.002 225.41 519.003 197.4 490.993ZM277.731 410.661C261.446 394.376 234.949 394.376 218.665 410.661C202.38 426.946 202.38 453.443 218.665 469.727C234.95 486.012 261.447 486.012 277.731 469.727C294.015 453.443 294.015 426.946 277.731 410.661Z" fill="#B3E59F"/>
<path d="M298.995 389.397C292.36 382.762 284.733 377.719 276.594 374.227C277.044 374.654 277.502 375.068 277.943 375.509C305.953 403.519 305.953 449.094 277.943 477.104C256.568 498.479 224.969 503.523 198.748 492.274C226.853 518.974 271.426 518.56 298.995 490.991C327.005 462.982 327.005 417.407 298.995 389.397Z" fill="#95D6A4"/>
<path d="M296.06 417.688L281.512 405.827L266.414 390.729C256.641 380.956 256.641 365.112 266.414 355.339L276.656 345.097L343.295 411.736L333.053 421.978C329.13 425.901 324.228 428.249 319.134 429.023C311.538 430.176 296.06 417.688 296.06 417.688Z" fill="#CCF49F"/>
<path d="M324.66 393.101L314.241 403.52C305.312 412.449 291.317 413.215 281.512 405.827L297.663 421.978C307.436 431.751 323.28 431.751 333.053 421.978L343.294 411.736L324.66 393.101Z" fill="#B3E59F"/>
<path d="M436.952 303.736C452.027 288.661 451.365 263.808 434.967 249.592C421.16 237.622 400.317 237.659 386.548 249.673C378.807 256.428 374.599 265.561 373.924 274.903C373.34 282.977 369.216 290.378 362.656 295.121L307.122 335.272L353.12 381.27L393.269 325.739C398.042 319.137 405.51 315.077 413.633 314.458C422.133 313.81 430.452 310.236 436.952 303.736Z" fill="#F9EFDA"/>
<path d="M413.634 314.457C422.134 313.81 430.452 310.236 436.953 303.736C452.028 288.661 451.366 263.808 434.968 249.592C432.563 247.507 429.941 245.795 427.183 244.438C434.01 258.259 431.683 275.455 420.177 286.961C413.676 293.462 405.358 297.035 396.858 297.683C388.735 298.302 381.267 302.363 376.494 308.964L336.345 364.495L353.121 381.271L393.27 325.74C398.043 319.137 405.511 315.076 413.634 314.457Z" fill="#F4DDB1"/>
<path d="M353.48 429.517L339.497 415.534L333.326 403.765L320.862 396.899L258.875 334.912C249.338 325.376 249.338 309.914 258.875 300.377C268.412 290.84 283.873 290.84 293.41 300.377L388.015 394.982C397.551 404.518 397.551 419.98 388.015 429.517C378.478 439.054 363.016 439.054 353.48 429.517Z" fill="#B3E59F"/>
<path d="M388.014 395.864C378.478 405.4 363.016 405.4 353.479 395.864L258.874 301.259C258.732 301.117 258.613 300.962 258.476 300.818C249.36 310.384 249.479 325.517 258.874 334.912L353.479 429.517C363.015 439.054 378.477 439.054 388.014 429.517C397.409 420.122 397.528 404.989 388.412 395.423C388.275 395.568 388.156 395.722 388.014 395.864Z" fill="#95D6A4"/>
</g>
<defs>
<clipPath id="clip0">
<rect width="512" height="512" fill="white"/>
</clipPath>
</defs>
</svg>
