<svg width="512" height="512" viewBox="0 0 512 512" fill="none" xmlns="http://www.w3.org/2000/svg">
<g clip-path="url(#clip0)">
<path d="M416.639 317.32H350.308C346.153 317.32 342.785 313.952 342.785 309.797C342.785 305.642 346.153 302.274 350.308 302.274H416.639C420.794 302.274 424.162 305.642 424.162 309.797C424.162 313.952 420.794 317.32 416.639 317.32Z" fill="#E4989D"/>
<path d="M392.366 289.169H370.311C366.156 289.169 362.788 285.801 362.788 281.646C362.788 277.491 366.156 274.123 370.311 274.123H392.366C395.984 274.123 399.596 273.248 402.813 271.594L428.314 258.477C432.008 256.578 436.543 258.03 438.445 261.726C440.346 265.421 438.892 269.957 435.197 271.857L409.696 284.974C404.359 287.718 398.367 289.169 392.366 289.169Z" fill="#E4989D"/>
<path d="M269.225 289.169H247.17C241.169 289.169 235.176 287.718 229.841 284.973L204.34 271.856C200.645 269.956 199.191 265.42 201.091 261.725C202.992 258.031 207.528 256.577 211.222 258.476L236.723 271.593C239.939 273.248 243.552 274.122 247.17 274.122H269.225C273.38 274.122 276.748 277.49 276.748 281.645C276.749 285.8 273.381 289.169 269.225 289.169Z" fill="#E4989D"/>
<path d="M307.956 133.331C304.169 133.331 300.91 130.48 300.487 126.63C299.582 118.396 294.597 111.31 287.152 107.676L259.225 94.044C248.383 88.752 241.122 78.433 239.803 66.44C238.241 52.234 245.352 38.66 257.921 31.859C261.577 29.882 266.141 31.241 268.118 34.895C270.096 38.549 268.736 43.115 265.082 45.092C257.921 48.967 253.869 56.701 254.759 64.794C255.511 71.627 259.647 77.506 265.825 80.522L293.752 94.154C305.862 100.064 313.97 111.59 315.443 124.984C315.898 129.114 312.918 132.83 308.787 133.285C308.508 133.316 308.231 133.331 307.956 133.331Z" fill="#DA4A54"/>
<path d="M332.224 133.331C331.95 133.331 331.672 133.316 331.393 133.285C327.262 132.831 324.282 129.114 324.737 124.984C326.21 111.59 334.318 100.064 346.428 94.154L374.355 80.522C380.533 77.506 384.67 71.627 385.421 64.794C386.311 56.701 382.259 48.967 375.098 45.092C371.443 43.114 370.084 38.549 372.062 34.895C374.038 31.242 378.602 29.88 382.259 31.859C394.828 38.661 401.94 52.234 400.377 66.439C399.057 78.432 391.797 88.751 380.955 94.043L353.028 107.675C345.583 111.309 340.598 118.394 339.693 126.629C339.27 130.48 336.01 133.331 332.224 133.331Z" fill="#DA4A54"/>
<path d="M273.936 243.248C267.691 254.017 253.898 257.684 243.13 251.438L201.699 227.41C190.93 221.165 187.263 207.372 193.509 196.604C199.754 185.835 213.547 182.168 224.315 188.414L265.746 212.442C276.514 218.687 280.181 232.479 273.936 243.248Z" fill="#E4989D"/>
<path d="M265.745 212.442L224.314 188.414C213.545 182.169 199.753 185.836 193.508 196.604C191.71 199.705 190.738 203.056 190.516 206.405C197.434 201.815 206.633 201.232 214.301 205.679L255.732 229.707C263.4 234.154 267.463 242.428 266.914 250.712C269.711 248.856 272.137 246.348 273.935 243.247C280.181 232.479 276.514 218.687 265.745 212.442Z" fill="#E28086"/>
<path d="M365.601 243.248C371.846 254.017 385.639 257.684 396.407 251.438L437.838 227.41C448.607 221.165 452.274 207.372 446.028 196.604C439.783 185.835 425.99 182.168 415.222 188.414L373.791 212.442C363.023 218.687 359.356 232.479 365.601 243.248Z" fill="#E4989D"/>
<path d="M446.03 196.604C443.833 192.817 440.702 189.913 437.098 188.004C438.948 197.211 434.883 206.968 426.308 211.941L384.877 235.969C377.896 240.018 369.645 239.896 363.002 236.378C363.475 238.733 364.329 241.053 365.602 243.247C371.847 254.016 385.64 257.683 396.408 251.437L437.839 227.409C448.608 221.165 452.275 207.372 446.03 196.604Z" fill="#E28086"/>
<path d="M365.673 444.817L339.83 407.516H299.706L273.863 444.817C271.811 447.778 271.103 451.54 272.22 454.965C273.772 459.727 278.156 462.8 282.978 462.8H297.72C299.152 462.8 300.399 463.807 300.664 465.214C302.364 474.228 310.26 481.05 319.768 481.05C329.276 481.05 337.172 474.228 338.872 465.214C339.137 463.807 340.384 462.8 341.816 462.8H356.558C361.38 462.8 365.764 459.728 367.316 454.965C368.433 451.54 367.725 447.778 365.673 444.817Z" fill="#E4989D"/>
<path d="M365.673 444.817L339.83 407.516H326.354L349.265 440.585C351.316 443.546 352.025 447.308 350.908 450.733C349.356 455.495 344.972 458.568 340.15 458.568H325.408C323.976 458.568 322.729 459.575 322.464 460.982C320.999 468.75 314.928 474.878 307.194 476.427C310.582 479.308 314.968 481.05 319.767 481.05C329.275 481.05 337.171 474.228 338.871 465.214C339.136 463.807 340.383 462.8 341.815 462.8H356.557C361.379 462.8 365.763 459.728 367.315 454.965C368.433 451.54 367.725 447.778 365.673 444.817Z" fill="#E28086"/>
<path d="M323.293 416.369H316.244C304.473 416.369 294.931 406.827 294.931 395.056V394.924C294.931 383.153 304.473 373.611 316.244 373.611H323.293C335.064 373.611 344.606 383.153 344.606 394.924V395.056C344.607 406.826 335.064 416.369 323.293 416.369Z" fill="#E4989D"/>
<path d="M333.402 387.193H306.136C294.365 387.193 284.823 377.651 284.823 365.88V365.748C284.823 353.977 294.365 344.435 306.136 344.435H333.402C345.173 344.435 354.715 353.977 354.715 365.748V365.88C354.715 377.651 345.173 387.193 333.402 387.193Z" fill="#E4989D"/>
<path d="M341.457 356.827H298.08C286.309 356.827 276.767 347.285 276.767 335.514V335.382C276.767 323.611 286.309 314.069 298.08 314.069H341.457C353.228 314.069 362.77 323.611 362.77 335.382V335.514C362.771 347.285 353.228 356.827 341.457 356.827Z" fill="#E4989D"/>
<path d="M341.391 314.068H319.862C331.67 314.068 341.241 323.64 341.241 335.447C341.241 347.255 331.669 356.826 319.862 356.826H341.391C353.199 356.826 362.77 347.254 362.77 335.447C362.771 323.64 353.199 314.068 341.391 314.068Z" fill="#E28086"/>
<path d="M336.273 135.594V132.01C336.273 132.01 309.008 122.167 307.343 123.397C304.869 125.224 303.265 128.16 303.265 131.472V135.595C303.265 145.371 300.431 154.937 295.106 163.136L278.638 188.489C268.496 204.104 263.098 222.324 263.098 240.944V300.04C263.098 313.89 274.326 325.117 288.175 325.117H351.363C365.213 325.117 376.44 313.889 376.44 300.04V240.944C376.44 222.324 371.042 204.104 360.9 188.489L344.432 163.136C339.107 154.936 336.273 145.37 336.273 135.594Z" fill="#E28086"/>
<path d="M360.9 188.488L344.432 163.135C339.107 154.937 336.273 145.37 336.273 135.594V131.471C336.273 125.931 331.782 121.44 326.242 121.44H313.296C311.067 121.44 309.015 122.176 307.35 123.405C309.824 125.232 311.435 128.159 311.435 131.47V135.593C311.435 145.369 314.269 154.935 319.594 163.134L336.062 188.487C346.204 204.102 351.602 222.322 351.602 240.942V300.038C351.602 313.888 340.374 325.115 326.525 325.115H351.363C365.213 325.115 376.44 313.887 376.44 300.038V240.942C376.44 222.323 371.042 204.103 360.9 188.488Z" fill="#DD636E"/>
<path d="M304.355 195.399C309.56 195.399 313.78 191.179 313.78 185.974C313.78 180.769 309.56 176.549 304.355 176.549C299.15 176.549 294.93 180.769 294.93 185.974C294.93 191.179 299.15 195.399 304.355 195.399Z" fill="#665E66"/>
<path d="M335.182 195.399C340.387 195.399 344.607 191.179 344.607 185.974C344.607 180.769 340.387 176.549 335.182 176.549C329.977 176.549 325.757 180.769 325.757 185.974C325.757 191.179 329.977 195.399 335.182 195.399Z" fill="#665E66"/>
<path d="M488.987 79.044C481.545 62.703 468.515 49.556 452.242 41.968L451.597 41.667C447.547 39.779 443.236 43.729 444.764 47.928L462.366 96.29C467.482 110.346 460.831 125.816 447.445 131.91C447.407 131.927 447.359 131.948 447.301 131.971C444.78 132.989 441.919 131.672 440.989 129.117L425.366 86.193C423.838 81.994 417.996 81.739 416.107 85.789L405.817 107.856C397.377 125.956 394.204 146.076 396.675 165.908C399.068 185.119 410.753 201.837 427.625 211.042C428.75 211.656 440.342 212.071 440.342 212.071C440.342 212.071 445.213 219.338 445.833 219.552C454.76 222.621 464.747 218.515 468.825 209.768L488.587 167.387C501.634 139.415 501.779 107.133 488.987 79.044Z" fill="#E4989D"/>
<path d="M488.987 79.044C481.545 62.703 468.515 49.556 452.242 41.968L451.597 41.667C449.529 40.703 447.399 41.266 446.007 42.601C453.759 49.516 460.07 58 464.441 67.598C477.233 95.687 477.088 127.969 464.044 155.942L444.282 198.323C440.58 206.261 432.013 210.355 423.787 208.753C426.105 210.248 428.534 211.6 431.07 212.782L443.993 218.808C453.347 223.17 464.466 219.123 468.828 209.769L488.59 167.388C501.634 139.415 501.779 107.133 488.987 79.044Z" fill="#E28086"/>
<path d="M199.396 131.055C198.856 132.539 197.215 133.304 195.732 132.764C180.964 127.389 173.349 111.059 178.724 96.291L196.326 47.929C197.854 43.73 193.543 39.78 189.493 41.668L188.848 41.969C172.575 49.557 159.545 62.705 152.104 79.045C139.312 107.134 139.457 139.416 152.501 167.389L172.263 209.77C176.625 219.124 187.744 223.171 197.098 218.809L210.021 212.783C212.927 211.428 215.694 209.857 218.306 208.094C221.801 205.734 221.025 200.16 223.921 197.166C225.931 195.089 231.78 195.743 233.469 193.406C239.451 185.131 243.338 175.343 244.538 164.866C246.771 145.372 243.564 125.64 235.271 107.857L224.981 85.79C223.093 81.74 217.251 81.995 215.722 86.194L199.396 131.055Z" fill="#E4989D"/>
<path d="M185.985 76.34L196.326 47.928C197.854 43.729 193.543 39.779 189.493 41.667L188.848 41.968C183.587 44.421 178.672 47.464 174.168 50.999L185.985 76.34Z" fill="#E28086"/>
<path d="M204.702 116.477L206.86 121.105C215.152 138.888 218.36 158.62 216.127 178.115C214.16 195.285 204.973 210.597 191.182 220.441C193.18 220.228 195.177 219.705 197.1 218.809L210.023 212.783C229.077 203.898 242.147 185.753 244.54 164.867C246.773 145.373 243.566 125.641 235.273 107.858L224.983 85.791C223.095 81.741 217.253 81.996 215.724 86.195L204.702 116.477Z" fill="#E28086"/>
<path d="M440.851 388.508H398.08V369.716L420.536 353.182C431.241 345.3 444.186 341.049 457.48 341.049H505.225C512.041 341.049 514.576 349.99 508.775 353.568L461.704 382.595C455.436 386.461 448.216 388.508 440.851 388.508Z" fill="#BED8FB"/>
<path d="M505.225 341.049H496.914L429.542 382.595C423.273 386.461 416.053 388.508 408.689 388.508H440.851C448.216 388.508 455.435 386.461 461.704 382.595L508.775 353.568C514.576 349.99 512.041 341.049 505.225 341.049Z" fill="#9DC6FB"/>
<path d="M386.111 356.712H357.708C342.814 356.712 328.299 351.779 316.651 342.498C277.17 311.038 210.832 286.728 153.199 286.728C64.387 286.728 0 355.99 0 397.116C0 438.242 86.949 455.474 175.761 455.474C238.814 455.474 300.923 452.601 331.649 432.09C342.654 424.744 355.453 420.539 368.685 420.539H386.111C403.737 420.539 418.025 406.251 418.025 388.625C418.025 371 403.737 356.712 386.111 356.712Z" fill="#BED8FB"/>
<path d="M386.111 356.712H357.708C342.814 356.712 328.299 351.779 316.651 342.498C277.17 311.038 210.832 286.728 153.199 286.728C124.188 286.728 97.783 294.119 75.377 305.505C29.192 328.976 22.635 432.863 56.605 442.291C89.213 451.341 132.263 455.474 175.761 455.474C238.814 455.474 300.923 452.601 331.649 432.09C342.654 424.744 355.453 420.539 368.685 420.539H386.111C403.737 420.539 418.025 406.251 418.025 388.625C418.025 371 403.737 356.712 386.111 356.712Z" fill="#DDEAFB"/>
<path d="M437.906 387.76L423.355 385.702H398.08V404.494L420.536 421.028C431.241 428.91 444.186 433.161 457.48 433.161H505.225C512.041 433.161 514.576 424.22 508.775 420.642L461.704 391.615C458.458 389.613 454.956 388.099 451.312 387.104C447.919 386.177 441.457 387.76 437.906 387.76Z" fill="#BED8FB"/>
<path d="M508.775 420.642L461.704 391.615C455.435 387.749 448.215 385.702 440.851 385.702H408.689C416.054 385.702 423.273 387.749 429.542 391.615L496.914 433.161H505.225C512.041 433.161 514.576 424.219 508.775 420.642Z" fill="#9DC6FB"/>
<path d="M386.111 356.712H384.323C383.419 373.528 369.5 386.887 352.458 386.887H335.032C321.8 386.887 309.001 391.091 297.996 398.437C267.27 418.948 205.161 421.821 142.108 421.821C87.528 421.821 33.66 415.309 0.237 400.747C5.216 439.258 89.61 455.474 175.762 455.474C238.815 455.474 300.924 452.601 331.65 432.09C342.655 424.744 355.455 420.539 368.686 420.539H386.112C403.738 420.539 418.026 406.251 418.026 388.625C418.025 371 403.737 356.712 386.111 356.712Z" fill="#CBE2FF"/>
<path d="M126.759 388.739C126.759 352.326 105.846 320.801 75.379 305.507C29.194 328.979 0 369.425 0 397.116C0 418.099 22.636 432.862 56.606 442.289C91.59 451.998 126.482 425.765 126.757 389.459C126.758 389.22 126.759 388.979 126.759 388.739Z" fill="#CBE2FF"/>
<path d="M0.239014 400.748C2.70501 419.814 24.632 433.416 56.606 442.29C79.979 448.777 103.294 439.207 116.289 421.322C70.966 419.553 28.365 413.001 0.239014 400.748Z" fill="#BED8FB"/>
<path d="M48.585 373.65C53.9306 373.65 58.264 369.317 58.264 363.971C58.264 358.625 53.9306 354.292 48.585 354.292C43.2394 354.292 38.906 358.625 38.906 363.971C38.906 369.317 43.2394 373.65 48.585 373.65Z" fill="#665E66"/>
<path d="M286.483 382.721C289.003 382.859 290.077 385.991 288.169 387.642C276.404 397.822 245.141 421.562 209.429 421.562C179.48 421.562 150.99 402.608 150.99 391.113C150.99 379.618 179.48 379.936 209.429 379.936C232.953 379.935 271.169 381.884 286.483 382.721Z" fill="#CBE2FF"/>
<path d="M286.483 382.721C279.479 382.339 267.678 381.723 254.688 381.168C239.396 392.363 214.206 406.859 186.299 406.859C175.591 406.859 165.078 404.429 155.978 400.79C165.429 410.949 187.019 421.561 209.429 421.561C245.142 421.561 276.404 397.822 288.169 387.641C290.077 385.99 289.002 382.858 286.483 382.721Z" fill="#BED8FB"/>
<path d="M32.203 384.161L4.26001 376.938C2.29401 381.976 0.98401 386.861 0.38501 391.477L28.437 398.728C29.068 398.891 29.702 398.969 30.325 398.969C33.672 398.969 36.727 396.718 37.603 393.327C38.644 389.305 36.225 385.201 32.203 384.161Z" fill="#9DC6FB"/>
</g>
<defs>
<clipPath id="clip0">
<rect width="512" height="512" fill="white"/>
</clipPath>
</defs>
</svg>
