<svg width="512" height="512" viewBox="0 0 512 512" fill="none" xmlns="http://www.w3.org/2000/svg">
<g clip-path="url(#clip0)">
<path d="M479.042 363.416H218.773V288.848H491.042V351.416C491.042 358.043 485.669 363.416 479.042 363.416Z" fill="#A298A5"/>
<path d="M471.885 288.848V333.032C471.885 339.233 466.858 344.259 460.658 344.259H218.773V363.416H478.979C485.641 363.416 491.041 358.015 491.041 351.354V288.849H471.885V288.848Z" fill="#8B818E"/>
<path d="M57.792 386.027H198.48C211.446 386.027 222.09 376.084 223.204 363.408C223.218 363.247 219.021 359.835 219.032 353.829C219.037 351.17 223.252 347.588 223.256 344.26C223.286 321.367 223.3 286.109 223.3 286.109H57.792V386.027Z" fill="#A298A5"/>
<path d="M203.253 286.108L203.185 356.572C203.18 361.78 198.957 365.999 193.749 365.999H57.792V386.027H198.48C211.446 386.027 222.09 376.084 223.204 363.407C223.268 362.682 223.3 286.108 223.3 286.108H203.253Z" fill="#8B818E"/>
<path d="M61.548 328.129C68.095 315.339 81.253 307.292 95.622 307.292H174.548H213.904V148.825H121.565L3.029 241.084L2.333 242.558C0.796 245.807 0 249.356 0 252.95V300.507L6.969 317.486L0 334.464V353.16C0 363.153 8.101 371.254 18.094 371.254H35.17C37.811 371.254 40.23 369.775 41.434 367.424L61.548 328.129Z" fill="#B3E59F"/>
<path d="M81.85 286.059C67.482 286.059 54.323 294.105 47.776 306.896L27.661 346.192C26.457 348.543 24.039 350.022 21.398 350.022H4.321C2.829 350.022 1.387 349.821 0 349.481V353.161C0 363.154 8.101 371.255 18.094 371.255H35.17C37.811 371.255 40.23 369.776 41.433 367.425L61.548 328.129C68.095 315.339 81.253 307.292 95.622 307.292H174.548H213.904V286.059H81.85Z" fill="#95D6A4"/>
<path d="M61.276 148.825C52.334 148.825 44.194 153.981 40.373 162.066L3.029 241.084H25.929C29.485 241.084 33.002 240.341 36.255 238.903L114.98 204.091C118.983 202.321 121.565 198.356 121.565 193.978V148.826H61.276V148.825Z" fill="#DDEAFB"/>
<path d="M96.861 148.825V212.102L114.979 204.09C118.982 202.32 121.564 198.355 121.564 193.977V148.824H96.861V148.825Z" fill="#CBE2FF"/>
<path d="M131.983 272.424H111.147C106.983 272.424 103.608 269.049 103.608 264.885C103.608 260.721 106.983 257.346 111.147 257.346H131.983C136.147 257.346 139.522 260.721 139.522 264.885C139.522 269.049 136.146 272.424 131.983 272.424Z" fill="#756E78"/>
<path d="M13.315 334.464H0V300.507H13.315C22.643 300.507 30.206 308.069 30.206 317.398V317.574C30.206 326.902 22.643 334.464 13.315 334.464Z" fill="#FFD064"/>
<path d="M23.909 304.295C23.954 304.8 23.986 305.31 23.986 305.827C23.986 315.204 16.384 322.806 7.007 322.806H0V334.464H13.227C22.604 334.464 30.206 326.862 30.206 317.485C30.206 312.158 27.748 307.408 23.909 304.295Z" fill="#FFC250"/>
<path d="M111.147 451.208C143.385 451.208 169.519 425.074 169.519 392.836C169.519 360.598 143.385 334.464 111.147 334.464C78.909 334.464 52.775 360.598 52.775 392.836C52.775 425.074 78.909 451.208 111.147 451.208Z" fill="#756E78"/>
<path d="M142.256 343.454C147.943 352.461 151.246 363.124 151.246 374.563C151.246 406.801 125.112 432.935 92.874 432.935C81.434 432.935 70.772 429.632 61.765 423.945C72.104 440.321 90.349 451.208 111.147 451.208C143.385 451.208 169.519 425.074 169.519 392.836C169.519 372.038 158.633 353.793 142.256 343.454Z" fill="#665E66"/>
<path d="M111.147 414.418C123.066 414.418 132.729 404.755 132.729 392.836C132.729 380.917 123.066 371.254 111.147 371.254C99.2276 371.254 89.565 380.917 89.565 392.836C89.565 404.755 99.2276 414.418 111.147 414.418Z" fill="#F9EFDA"/>
<path d="M114.53 371.545C115.702 374.205 116.364 377.139 116.364 380.232C116.364 392.151 106.701 401.814 94.782 401.814C93.628 401.814 92.504 401.697 91.399 401.523C94.743 409.113 102.32 414.418 111.147 414.418C123.066 414.418 132.729 404.755 132.729 392.836C132.729 382.071 124.838 373.173 114.53 371.545Z" fill="#F4DDB1"/>
<path d="M436.785 451.208C469.023 451.208 495.157 425.074 495.157 392.836C495.157 360.598 469.023 334.464 436.785 334.464C404.547 334.464 378.413 360.598 378.413 392.836C378.413 425.074 404.547 451.208 436.785 451.208Z" fill="#756E78"/>
<path d="M467.894 343.454C473.581 352.461 476.884 363.124 476.884 374.563C476.884 406.801 450.75 432.935 418.512 432.935C407.072 432.935 396.41 429.632 387.403 423.945C397.742 440.321 415.987 451.208 436.785 451.208C469.023 451.208 495.157 425.074 495.157 392.836C495.157 372.038 484.271 353.793 467.894 343.454Z" fill="#665E66"/>
<path d="M436.785 414.418C448.704 414.418 458.367 404.755 458.367 392.836C458.367 380.917 448.704 371.254 436.785 371.254C424.866 371.254 415.203 380.917 415.203 392.836C415.203 404.755 424.866 414.418 436.785 414.418Z" fill="#F9EFDA"/>
<path d="M440.168 371.545C441.34 374.205 442.002 377.139 442.002 380.232C442.002 392.151 432.339 401.814 420.42 401.814C419.266 401.814 418.142 401.697 417.037 401.523C420.381 409.113 427.958 414.418 436.785 414.418C448.704 414.418 458.367 404.755 458.367 392.836C458.367 382.071 450.476 373.173 440.168 371.545Z" fill="#F4DDB1"/>
<path d="M502 326.132H174.034C168.511 326.132 164.034 321.655 164.034 316.132V70.791C164.034 65.268 168.511 60.791 174.034 60.791H502C507.523 60.791 512 65.268 512 70.791V316.132C512 321.655 507.523 326.132 502 326.132Z" fill="#F9EFDA"/>
<path d="M501.948 60.791H480.175V284.255C480.175 289.807 475.675 294.307 470.123 294.307H164.034V316.08C164.034 321.632 168.534 326.132 174.086 326.132H501.947C507.499 326.132 511.999 321.632 511.999 316.08V70.844C512 65.292 507.5 60.791 501.948 60.791Z" fill="#F4DDB1"/>
<path d="M319.334 142.968C310.325 142.968 301.97 145.747 295.064 150.485C293.698 151.422 291.918 151.422 290.552 150.485C283.645 145.747 275.291 142.968 266.282 142.968C242.544 142.968 223.3 162.212 223.3 185.95C223.3 209.688 242.544 266.303 266.282 266.303C275.291 266.303 283.646 263.524 290.552 258.786C291.918 257.849 293.698 257.849 295.064 258.786C301.971 263.524 310.325 266.303 319.334 266.303C343.072 266.303 362.316 209.688 362.316 185.95C362.316 162.212 343.072 142.968 319.334 142.968Z" fill="#B3E59F"/>
<path d="M335.388 134.443C322.574 147.257 304.591 151.504 294.97 152.898C291.449 153.408 288.433 150.392 288.943 146.871C290.337 137.25 294.583 119.267 307.398 106.453C320.213 93.639 338.195 89.392 347.816 87.998C351.337 87.488 354.354 90.504 353.843 94.025C352.448 103.646 348.202 121.629 335.388 134.443Z" fill="#95D6A4"/>
<path d="M458.367 205.013H404.374C400.21 205.013 396.835 201.638 396.835 197.474C396.835 193.31 400.21 189.935 404.374 189.935H458.367C462.531 189.935 465.906 193.31 465.906 197.474C465.906 201.638 462.53 205.013 458.367 205.013Z" fill="#EFCB84"/>
<path d="M429.395 243.022H383.601C379.437 243.022 376.062 239.647 376.062 235.483C376.062 231.319 379.437 227.944 383.601 227.944H429.395C433.559 227.944 436.934 231.319 436.934 235.483C436.934 239.647 433.559 243.022 429.395 243.022Z" fill="#EFCB84"/>
<path d="M429.395 167.004H383.601C379.437 167.004 376.062 163.629 376.062 159.465C376.062 155.301 379.437 151.926 383.601 151.926H429.395C433.559 151.926 436.934 155.301 436.934 159.465C436.934 163.629 433.559 167.004 429.395 167.004Z" fill="#EFCB84"/>
<path d="M293.981 160.494C289.817 160.494 286.442 157.119 286.442 152.955C286.442 144.747 282.994 136.836 276.981 131.25L268.104 123.002C265.054 120.168 264.878 115.398 267.712 112.347C270.547 109.297 275.317 109.122 278.367 111.956L287.244 120.204C296.316 128.634 301.519 140.571 301.519 152.955C301.52 157.119 298.145 160.494 293.981 160.494Z" fill="#AA8080"/>
</g>
<defs>
<clipPath id="clip0">
<rect width="512" height="512" fill="white"/>
</clipPath>
</defs>
</svg>
