<svg width="512" height="512" viewBox="0 0 512 512" fill="none" xmlns="http://www.w3.org/2000/svg">
<g clip-path="url(#clip0)">
<path d="M428.786 263.711C428.786 329.338 332.799 333.403 214.393 333.403C95.987 333.403 0 329.339 0 263.711C0 198.083 95.987 107.824 214.393 107.824C332.799 107.824 428.786 198.084 428.786 263.711Z" fill="#AA8080"/>
<path d="M214.393 107.824C205.066 107.824 195.88 108.386 186.867 109.45C292.272 121.892 373.734 203.253 373.734 263.711C373.734 324.169 292.272 332.38 186.867 333.299C195.88 333.377 205.066 333.403 214.393 333.403C332.799 333.403 428.786 329.339 428.786 263.711C428.786 198.084 332.799 107.824 214.393 107.824Z" fill="#9D6B6B"/>
<path d="M214.393 107.824C198.893 107.824 183.783 109.383 169.217 112.219C176.167 153.831 193.771 218.182 214.393 218.182C235.015 218.182 252.619 153.831 259.569 112.219C245.003 109.384 229.893 107.824 214.393 107.824Z" fill="#9D6B6B"/>
<path d="M316.802 208.786C329.326 214.948 353.623 194.044 375.65 169.266C358.311 153.899 337.394 140.138 313.909 129.55C306.419 164.854 303.188 202.088 316.802 208.786Z" fill="#9D6B6B"/>
<path d="M111.983 208.786C125.597 202.088 122.366 164.854 114.876 129.55C91.39 140.137 70.473 153.899 53.135 169.266C75.162 194.043 99.459 214.947 111.983 208.786Z" fill="#9D6B6B"/>
<path d="M256.523 128.503C257.691 122.838 258.712 117.355 259.569 112.22C245.003 109.384 229.893 107.825 214.393 107.825C205.088 107.825 195.927 108.397 186.936 109.46C211.704 112.39 235.147 119.127 256.523 128.503Z" fill="#8B5E5E"/>
<path d="M346.97 197.33C356.2 189.942 366.136 179.968 375.65 169.265C358.311 153.898 337.394 140.137 313.909 129.549C311.77 139.634 309.98 149.874 308.829 159.517C323.849 171.155 336.733 184.024 346.97 197.33Z" fill="#8B5E5E"/>
<path d="M148.907 237.577C153.722 237.577 157.626 233.673 157.626 228.858C157.626 224.043 153.722 220.139 148.907 220.139C144.092 220.139 140.188 224.043 140.188 228.858C140.188 233.673 144.092 237.577 148.907 237.577Z" fill="#665E66"/>
<path d="M154.106 150.768C158.921 150.768 162.825 146.864 162.825 142.049C162.825 137.234 158.921 133.33 154.106 133.33C149.291 133.33 145.387 137.234 145.387 142.049C145.387 146.864 149.291 150.768 154.106 150.768Z" fill="#665E66"/>
<path d="M89.178 143.046C93.9934 143.046 97.897 139.142 97.897 134.327C97.897 129.512 93.9934 125.608 89.178 125.608C84.3626 125.608 80.459 129.512 80.459 134.327C80.459 139.142 84.3626 143.046 89.178 143.046Z" fill="#665E66"/>
<path d="M169.217 212.874C174.032 212.874 177.936 208.97 177.936 204.155C177.936 199.34 174.032 195.436 169.217 195.436C164.402 195.436 160.498 199.34 160.498 204.155C160.498 208.97 164.402 212.874 169.217 212.874Z" fill="#665E66"/>
<path d="M233.716 109.991C238.531 109.991 242.435 106.087 242.435 101.272C242.435 96.4566 238.531 92.553 233.716 92.553C228.901 92.553 224.997 96.4566 224.997 101.272C224.997 106.087 228.901 109.991 233.716 109.991Z" fill="#665E66"/>
<path d="M288.511 120.699C293.326 120.699 297.23 116.795 297.23 111.98C297.23 107.165 293.326 103.261 288.511 103.261C283.696 103.261 279.792 107.165 279.792 111.98C279.792 116.795 283.696 120.699 288.511 120.699Z" fill="#665E66"/>
<path d="M128.641 127.251C133.456 127.251 137.36 123.347 137.36 118.532C137.36 113.717 133.456 109.813 128.641 109.813C123.826 109.813 119.922 113.717 119.922 118.532C119.922 123.347 123.826 127.251 128.641 127.251Z" fill="#665E66"/>
<path d="M205.674 154.284C210.489 154.284 214.393 150.38 214.393 145.565C214.393 140.75 210.489 136.846 205.674 136.846C200.859 136.846 196.955 140.75 196.955 145.565C196.955 150.38 200.859 154.284 205.674 154.284Z" fill="#665E66"/>
<path d="M273.723 172.159C278.538 172.159 282.442 168.255 282.442 163.44C282.442 158.625 278.538 154.721 273.723 154.721C268.908 154.721 265.004 158.625 265.004 163.44C265.004 168.255 268.908 172.159 273.723 172.159Z" fill="#665E66"/>
<path d="M472.979 146.815L410.47 209.324L347.25 254.622L288.148 331.645L189.067 430.726C177.186 442.607 163.006 451.939 147.395 458.15L123.492 467.661C100.329 476.877 77.375 453.923 86.591 430.76L96.102 406.857C102.314 391.245 111.646 377.065 123.526 365.185L138.68 350.031L163.525 337.404L176.575 312.136L210.583 278.128L235.428 263.528L248.478 240.233L282.486 206.225L307.826 194.34L320.381 168.33L354.389 134.322L378.188 120.698L392.284 96.427L407.438 81.273C419.319 69.392 433.499 60.06 449.11 53.849L473.013 44.338C496.176 35.122 519.13 58.076 509.914 81.239L500.403 105.142C494.191 120.754 484.859 134.934 472.979 146.815Z" fill="#FFD064"/>
<path d="M473.013 44.339L472.43 44.571C476.985 51.722 478.451 60.942 474.767 70.201L465.256 94.104C459.044 109.716 449.712 123.895 437.831 135.776L153.921 419.686C142.04 431.567 127.86 440.899 112.249 447.111L88.929 456.39C95.77 467.128 109.589 473.193 123.493 467.661L147.396 458.15C163.008 451.938 177.188 442.606 189.069 430.726L472.98 146.815C484.861 134.934 494.193 120.754 500.404 105.143L509.915 81.24C519.13 58.077 496.176 35.122 473.013 44.339Z" fill="#FFC250"/>
<path d="M354.389 134.323C373.244 150.164 394.384 155.49 403.917 145.956C413.45 136.422 408.125 115.283 392.284 96.428L354.389 134.323Z" fill="#FFC250"/>
<path d="M282.486 206.226C301.341 222.067 322.481 227.393 332.014 217.859C341.547 208.325 336.222 187.186 320.381 168.331L282.486 206.226Z" fill="#FFC250"/>
<path d="M210.584 278.128C229.439 293.969 250.579 299.295 260.112 289.761C269.645 280.227 264.32 259.088 248.479 240.233L210.584 278.128Z" fill="#FFC250"/>
<path d="M138.681 350.031C157.536 365.872 178.676 371.198 188.209 361.664C197.742 352.13 192.417 330.991 176.576 312.136L138.681 350.031Z" fill="#FFC250"/>
<path d="M379.233 109.479C388.119 124.657 389.874 139.443 382.338 146.979C381.604 147.713 380.794 148.348 379.93 148.907C389.897 151.942 398.668 151.206 403.917 145.957C413.451 136.423 408.125 115.284 392.284 96.429L379.233 109.479Z" fill="#EBB044"/>
<path d="M307.331 181.381C316.217 196.559 317.972 211.345 310.436 218.881C309.702 219.615 308.892 220.25 308.028 220.809C317.995 223.844 326.766 223.108 332.015 217.859C341.549 208.325 336.223 187.186 320.382 168.331L307.331 181.381Z" fill="#EBB044"/>
<path d="M235.428 253.284C244.314 268.462 246.069 283.248 238.533 290.784C237.799 291.518 236.989 292.153 236.125 292.712C246.092 295.747 254.863 295.011 260.112 289.762C269.646 280.228 264.32 259.089 248.479 240.234L235.428 253.284Z" fill="#EBB044"/>
<path d="M163.526 325.186C172.412 340.364 174.167 355.15 166.631 362.686C165.897 363.42 165.087 364.055 164.223 364.614C174.19 367.649 182.961 366.913 188.21 361.664C197.744 352.13 192.418 330.991 176.577 312.136L163.526 325.186Z" fill="#EBB044"/>
</g>
<defs>
<clipPath id="clip0">
<rect width="512" height="512" fill="white"/>
</clipPath>
</defs>
</svg>
