<svg width="512" height="512" viewBox="0 0 512 512" fill="none" xmlns="http://www.w3.org/2000/svg">
<g clip-path="url(#clip0)">
<path d="M35.8359 94.973H122.382V162.555H35.8359V94.973Z" fill="#DDEAFB"/>
<path d="M90.656 94.973H122.382V162.555H90.656V94.973Z" fill="#CBE2FF"/>
<path d="M128.371 117.311H29.847C24.324 117.311 19.847 112.834 19.847 107.311V82.635C19.847 77.112 24.324 72.635 29.847 72.635H128.371C133.894 72.635 138.371 77.112 138.371 82.635V107.311C138.371 112.834 133.894 117.311 128.371 117.311Z" fill="#A298A5"/>
<path d="M128.371 72.635H117.371V86.311C117.371 91.834 112.894 96.311 107.371 96.311H19.847V107.311C19.847 112.834 24.324 117.311 29.847 117.311H128.371C133.894 117.311 138.371 112.834 138.371 107.311V82.635C138.371 77.112 133.894 72.635 128.371 72.635Z" fill="#8B818E"/>
<path d="M150.718 199.921C150.718 199.921 156.762 197.418 157.141 196.115C157.849 193.68 158.218 191.138 158.218 188.559V169.159C158.218 160.727 151.382 153.891 142.95 153.891H15.268C6.836 153.891 0 160.727 0 169.159V188.559C0 191.138 0.369 193.68 1.077 196.115C1.456 197.418 7.5 199.921 7.5 199.921H150.718Z" fill="#CBE2FF"/>
<path d="M115.726 169.159V188.559C115.726 192.518 114.856 196.389 113.226 199.921H150.719C150.719 199.921 156.763 197.418 157.142 196.115C157.85 193.68 158.219 191.138 158.219 188.559V169.159C158.219 160.727 151.383 153.891 142.951 153.891H100.458C108.89 153.891 115.726 160.727 115.726 169.159Z" fill="#BED8FB"/>
<path d="M312.544 158.982H212.326L209.326 139.476V84.586H315.544V139.476L312.544 158.982Z" fill="#DDEAFB"/>
<path d="M315.544 160.249V139.475H209.326V160.249C209.326 169.055 206.12 177.559 200.306 184.173L197.605 187.245C191.791 193.859 188.585 202.363 188.585 211.169V234.437L196.469 297.393L188.585 360.735V392.534C188.585 400.966 195.421 407.802 203.853 407.802H321.016C329.449 407.802 336.284 400.966 336.284 392.534V360.735L326.968 297.393L336.284 234.437V211.169C336.284 202.363 333.078 193.859 327.264 187.245L324.563 184.173C318.75 177.559 315.544 169.055 315.544 160.249Z" fill="#CCF49F"/>
<path d="M284.085 84.586V158.982H312.544L315.544 139.476V84.586H284.085Z" fill="#CBE2FF"/>
<path d="M327.265 187.245L324.564 184.173C318.75 177.559 315.544 169.055 315.544 160.249V139.475H284.085V160.249C284.085 169.055 287.292 177.559 293.105 184.173L295.806 187.245C301.62 193.859 304.826 202.363 304.826 211.169V392.534C304.826 400.967 297.99 407.802 289.558 407.802H321.017C329.449 407.802 336.285 400.966 336.285 392.534V360.735L326.969 297.393L336.285 234.437V211.169C336.285 202.364 333.078 193.859 327.265 187.245Z" fill="#B3E59F"/>
<path d="M319.742 35.029L318.858 34.339C316.71 32.661 314.063 31.75 311.338 31.75H213.532C210.807 31.75 208.16 32.661 206.012 34.339L205.128 35.029C194.687 43.186 188.585 55.698 188.585 68.948C188.585 82.198 194.687 94.709 205.128 102.867L206.012 103.557C208.16 105.235 210.807 106.146 213.532 106.146H311.338C314.063 106.146 316.71 105.235 318.858 103.557L319.742 102.867C330.183 94.71 336.285 82.198 336.285 68.948C336.285 55.698 330.183 43.187 319.742 35.029Z" fill="#A298A5"/>
<path d="M319.742 35.029L318.858 34.339C316.71 32.661 314.063 31.75 311.338 31.75H276.984C279.709 31.75 282.356 32.662 284.504 34.339L285.388 35.029C295.829 43.186 301.931 55.698 301.931 68.948C301.931 82.198 295.829 94.709 285.388 102.867L284.504 103.557C282.356 105.235 279.709 106.146 276.984 106.146H311.338C314.063 106.146 316.71 105.234 318.858 103.557L319.742 102.867C330.183 94.71 336.285 82.198 336.285 68.948C336.285 55.698 330.182 43.187 319.742 35.029Z" fill="#8B818E"/>
<path d="M385.041 153.891H491.259V238.341H385.041V153.891Z" fill="#DDEAFB"/>
<path d="M458.053 153.891H491.259V238.341H458.053V153.891Z" fill="#CBE2FF"/>
<path d="M507 166.255H369.3C366.539 166.255 364.3 164.016 364.3 161.255V133.398C364.3 119.591 375.493 108.398 389.3 108.398H487C500.807 108.398 512 119.591 512 133.398V161.255C512 164.016 509.761 166.255 507 166.255Z" fill="#AA8080"/>
<path d="M489.808 108.559C489.911 109.481 489.969 110.417 489.969 111.367V139.224C489.969 141.985 487.73 144.224 484.969 144.224H364.3V161.255C364.3 164.016 366.539 166.255 369.3 166.255H507C509.761 166.255 512 164.016 512 161.255V133.398C512 120.54 502.292 109.955 489.808 108.559Z" fill="#9D6B6B"/>
<path d="M336.285 234.437H300.918C298.696 234.437 296.728 232.995 296.07 230.872C291.623 216.521 278.248 206.095 262.435 206.095C246.622 206.095 233.247 216.52 228.8 230.872C228.142 232.995 226.175 234.437 223.952 234.437H188.585V360.735H336.285V234.437Z" fill="#A298A5"/>
<path d="M491.202 322.075C491.202 322.075 503.152 293.569 505.633 283.413C506.047 281.72 506.491 280.053 506.965 278.416C510.184 267.3 512 255.825 512 244.252C512 229.93 500.39 218.32 486.068 218.32H390.232C375.91 218.32 364.3 229.93 364.3 244.252C364.3 255.825 366.116 267.3 369.335 278.416C372.653 289.873 374.516 302.753 374.516 316.371C374.516 329.988 372.653 342.869 369.335 354.326C366.116 365.442 364.3 376.917 364.3 388.49V388.572C364.3 398.639 372.461 406.799 382.527 406.799H493.773C503.84 406.799 512 398.638 512 388.572V388.49C512 379.127 510.811 369.828 508.653 360.732C508.143 358.584 491.202 322.075 491.202 322.075Z" fill="#CCF49F"/>
<path d="M512 244.252C512 229.93 500.39 218.32 486.068 218.32H458.053C472.375 218.32 483.985 229.93 483.985 244.252C483.985 255.825 482.169 267.3 478.95 278.416C475.632 289.873 473.769 302.753 473.769 316.371C473.769 329.988 475.632 342.869 478.95 354.326C482.169 365.442 483.985 376.917 483.985 388.49V388.572C483.985 398.639 475.824 406.799 465.758 406.799H493.773C503.84 406.799 512 398.638 512 388.572V388.49C512 379.127 510.811 369.828 508.653 360.732C508.143 358.585 491.202 322.076 491.202 322.076C491.202 322.076 503.152 293.57 505.633 283.414C506.047 281.721 506.491 280.054 506.965 278.417C510.184 267.3 512 255.825 512 244.252Z" fill="#B3E59F"/>
<path d="M497.49 199.921H378.81C374.593 199.921 371.176 196.503 371.176 192.287C371.176 188.071 374.594 184.653 378.81 184.653H497.49C501.707 184.653 505.124 188.071 505.124 192.287C505.124 196.503 501.707 199.921 497.49 199.921Z" fill="#BED8FB"/>
<path d="M304.826 234.437H336.285V360.735H304.826V234.437Z" fill="#8B818E"/>
<path d="M150.859 207.13C153.82 203.981 155.958 200.198 157.143 196.115H1.075C2.26 200.198 4.398 203.98 7.359 207.13L22.277 222.998C36.092 237.692 36.109 260.593 22.316 275.308L7.331 291.294C2.621 296.319 0 302.948 0 309.835V392.534C0 400.967 6.836 407.802 15.268 407.802H142.95C151.383 407.802 158.218 400.966 158.218 392.534V309.835C158.218 302.948 155.597 296.318 150.887 291.293L135.903 275.307C122.11 260.592 122.127 237.691 135.942 222.997L150.859 207.13Z" fill="#F4DDB1"/>
<path d="M100.457 407.803H142.95C151.383 407.803 158.218 400.967 158.218 392.535V309.836C158.218 302.949 155.597 296.319 150.887 291.294L135.903 275.308C122.11 260.593 122.127 237.692 135.942 222.998L150.859 207.13C153.82 203.981 155.958 200.198 157.143 196.115H114.65C113.465 200.198 111.327 203.98 108.366 207.13L93.448 222.998C79.633 237.692 79.6159 260.593 93.4089 275.308L108.393 291.294C113.103 296.319 115.724 302.948 115.724 309.836V392.535C115.726 400.967 108.89 407.803 100.457 407.803Z" fill="#EFCB84"/>
<path d="M79.1091 338.413C96.5933 338.413 110.767 326.979 110.767 312.874C110.767 298.769 96.5933 287.335 79.1091 287.335C61.6248 287.335 47.451 298.769 47.451 312.874C47.451 326.979 61.6248 338.413 79.1091 338.413Z" fill="#AA8080"/>
<path d="M120.294 377.218H37.924C33.707 377.218 30.29 373.8 30.29 369.584C30.29 365.368 33.707 361.95 37.924 361.95H120.294C124.511 361.95 127.928 365.368 127.928 369.584C127.928 373.8 124.511 377.218 120.294 377.218Z" fill="#AA8080"/>
<path d="M120.294 377.218C124.511 377.218 127.928 373.8 127.928 369.584C127.928 365.368 124.511 361.95 120.294 361.95H115.725V377.218H120.294Z" fill="#9D6B6B"/>
<path d="M296.8 288.558H228.07C223.853 288.558 220.436 285.14 220.436 280.924C220.436 276.708 223.853 273.29 228.07 273.29H296.8C301.017 273.29 304.434 276.708 304.434 280.924C304.434 285.14 301.017 288.558 296.8 288.558Z" fill="#756E78"/>
<path d="M296.8 320.193H228.07C223.853 320.193 220.436 316.775 220.436 312.559C220.436 308.343 223.853 304.925 228.07 304.925H296.8C301.017 304.925 304.434 308.343 304.434 312.559C304.434 316.775 301.017 320.193 296.8 320.193Z" fill="#756E78"/>
<path d="M405.152 283.415C402.341 283.415 400.063 285.694 400.063 288.504V355.645C400.063 358.456 402.342 360.734 405.152 360.734H508.636C508.126 358.587 507.58 356.447 506.965 354.324C503.647 342.867 501.784 329.987 501.784 316.369C501.784 304.696 503.162 293.571 505.643 283.414H405.152V283.415Z" fill="#F9EFDA"/>
<path d="M506.965 354.325C503.647 342.868 501.784 329.988 501.784 316.37C501.784 304.697 503.162 293.572 505.643 283.415H477.628C475.147 293.573 473.769 304.697 473.769 316.37C473.769 329.987 475.632 342.868 478.95 354.325C479.565 356.448 480.111 358.588 480.621 360.735H508.636C508.126 358.588 507.58 356.448 506.965 354.325Z" fill="#EFCB84"/>
<path d="M434.172 382.636C431.393 382.636 428.713 381.113 427.364 378.466C425.449 374.71 426.943 370.112 430.7 368.198C441.265 362.815 449.101 353.64 452.765 342.364C456.429 331.088 455.483 319.059 450.1 308.495C448.185 304.739 449.68 300.141 453.436 298.227C457.194 296.313 461.79 297.807 463.704 301.563C470.939 315.761 472.21 331.927 467.287 347.082C462.363 362.238 451.831 374.568 437.633 381.802C436.522 382.368 435.338 382.636 434.172 382.636Z" fill="#95D6A4"/>
<path d="M411.373 353.689L411.335 353.69C401.667 354.063 392.649 358.566 386.452 365.996C357.71 400.453 310.292 416.529 265.1 403.688C251.891 399.935 239.898 394.077 229.359 386.595C222.351 381.619 213.188 388.839 216.39 396.816C230.516 432.012 259.547 460.931 298.414 473.603C359.901 493.652 425.171 466.98 455.499 412.074C460.579 402.876 460.999 391.809 456.793 382.18C448.958 364.241 430.933 352.935 411.373 353.689Z" fill="#DD636E"/>
<path d="M456.792 382.18C451.694 370.506 442.278 361.646 430.934 357.085C433.138 365.42 432.149 374.363 427.923 382.014C397.596 436.919 332.326 463.591 270.839 443.543C255.278 438.469 241.299 430.786 229.217 421.144C245.168 445.065 268.964 464 298.414 473.603C359.901 493.652 425.171 466.98 455.498 412.074C460.578 402.877 460.998 391.809 456.792 382.18Z" fill="#DA4A54"/>
</g>
<defs>
<clipPath id="clip0">
<rect width="512" height="512" fill="white"/>
</clipPath>
</defs>
</svg>
