<svg width="512" height="512" viewBox="0 0 512 512" fill="none" xmlns="http://www.w3.org/2000/svg">
<path d="M346.546 241.208L295.998 305.758H265.626L273.248 229.263L346.546 241.208Z" fill="#F4DDB1"/>
<path d="M274.147 305.758H295.998L346.546 241.208L344.079 216.453L274.147 305.758Z" fill="#EFCB84"/>
<path d="M328.658 27.206H299.617C296.076 27.206 293.111 29.89 292.76 33.414L273.248 229.263C272.934 232.412 273.897 235.555 275.92 237.988L332.28 305.759H362.653L335.515 33.414C335.164 29.89 332.199 27.206 328.658 27.206Z" fill="#F9EFDA"/>
<path d="M335.515 33.414C335.164 29.89 332.199 27.206 328.658 27.206H311.492C315.033 27.206 317.998 29.89 318.349 33.414L345.486 305.758H362.652L335.515 33.414Z" fill="#F4DDB1"/>
<path d="M309.302 442.16C309.302 437.143 307.141 432.636 303.702 429.506C301.808 427.781 300.671 425.38 300.671 422.818V379.976V305.985C300.671 301.673 297.175 298.178 292.864 298.178H269.264C265.1 298.178 261.336 300.66 259.696 304.487L233.972 364.503C229.963 373.857 222.45 381.184 213.143 385.304C191.284 394.981 176.03 416.853 176.03 442.297C176.03 476.716 203.932 504.617 238.35 504.617C266.009 504.617 289.456 486.597 297.6 461.659C298.268 459.614 299.527 457.779 301.342 456.626C306.126 453.587 309.302 448.246 309.302 442.16ZM238.351 476.63C219.735 476.63 204.644 461.539 204.644 442.923C204.644 424.307 219.735 409.216 238.351 409.216C256.967 409.216 272.058 424.307 272.058 442.923C272.058 461.539 256.967 476.63 238.351 476.63Z" fill="#B3E59F"/>
<path d="M309.302 442.16C309.302 437.143 307.141 432.636 303.702 429.506C301.808 427.781 300.671 425.38 300.671 422.818V379.976V305.985C300.671 301.673 297.175 298.178 292.864 298.178H272.644C276.956 298.178 280.451 301.673 280.451 305.985V379.976V422.818V442.297C280.451 473.272 257.849 498.957 228.24 503.789C231.532 504.326 234.906 504.618 238.35 504.618C266.009 504.618 289.456 486.598 297.6 461.66C298.268 459.615 299.527 457.78 301.342 456.627C306.126 453.587 309.302 448.246 309.302 442.16Z" fill="#95D6A4"/>
<path d="M313.815 257.442C326.659 257.442 337.072 247.029 337.072 234.185C337.072 221.34 326.659 210.928 313.815 210.928C300.97 210.928 290.558 221.34 290.558 234.185C290.558 247.029 300.97 257.442 313.815 257.442Z" fill="#CCF49F"/>
<path d="M323.953 213.249C325.44 216.313 326.274 219.752 326.274 223.387C326.274 236.232 315.861 246.644 303.017 246.644C299.383 246.644 295.943 245.809 292.879 244.323C296.646 252.088 304.605 257.442 313.815 257.442C326.66 257.442 337.072 247.029 337.072 234.185C337.072 224.975 331.718 217.016 323.953 213.249Z" fill="#B3E59F"/>
<path d="M326.935 456.625C328.751 457.778 330.009 459.613 330.677 461.658C338.821 486.597 362.269 504.616 389.927 504.616C424.346 504.616 452.247 476.714 452.247 442.296C452.247 416.851 436.994 394.98 415.134 385.303C405.828 381.183 398.315 373.856 394.305 364.502L368.581 304.486C366.941 300.659 363.177 298.177 359.013 298.177H335.413C331.101 298.177 327.606 301.673 327.606 305.984V379.975V422.817C327.606 425.379 326.469 427.78 324.575 429.505C321.136 432.636 318.975 437.142 318.975 442.159C318.976 448.246 322.152 453.587 326.935 456.625ZM356.22 442.923C356.22 424.307 371.311 409.216 389.927 409.216C408.543 409.216 423.634 424.307 423.634 442.923C423.634 461.539 408.543 476.63 389.927 476.63C371.311 476.63 356.22 461.539 356.22 442.923Z" fill="#B3E59F"/>
<path d="M415.135 385.303C405.829 381.183 398.316 373.856 394.306 364.502L368.582 304.486C366.942 300.659 363.178 298.177 359.014 298.177H337.039C341.203 298.177 344.967 300.659 346.607 304.486L372.331 364.502C376.34 373.856 383.853 381.183 393.16 385.303C415.019 394.98 430.273 416.852 430.273 442.296C430.273 472.971 408.104 498.451 378.917 503.635C382.492 504.273 386.169 504.616 389.927 504.616C424.346 504.616 452.247 476.714 452.247 442.296C452.248 416.852 436.994 394.98 415.135 385.303Z" fill="#95D6A4"/>
<path d="M67.1359 234.213C65.2459 234.213 63.3569 233.492 61.9149 232.051C59.0319 229.168 59.0309 224.493 61.9149 221.61L73.5679 209.956C76.1269 207.397 77.5359 203.996 77.5359 200.377V102.719C77.5359 87.107 90.2369 74.406 105.849 74.406H120.756C124.834 74.406 128.139 77.711 128.139 81.789C128.139 85.867 124.833 89.172 120.756 89.172H105.849C98.3799 89.172 92.3029 95.249 92.3029 102.719V200.377C92.3029 207.941 89.3579 215.051 84.0099 220.397L72.3569 232.05C70.9149 233.492 69.0249 234.213 67.1359 234.213Z" fill="#FFC250"/>
<path d="M155.299 512C151.221 512 147.916 508.695 147.916 504.617V471.605C147.916 467.527 151.222 464.222 155.299 464.222C159.376 464.222 162.682 467.527 162.682 471.605V504.617C162.682 508.695 159.376 512 155.299 512Z" fill="#756E78"/>
<path d="M175.32 83.195H133.103V9C133.103 4.029 137.132 0 142.103 0H166.32C171.291 0 175.32 4.029 175.32 9V83.195Z" fill="#FFD064"/>
<path d="M166.32 0H147.917C152.888 0 156.917 4.029 156.917 9V83.195H175.32V9C175.32 4.029 171.29 0 166.32 0Z" fill="#FFC250"/>
<path d="M196.431 359.488H114.167L111.167 380.449V383.028C111.167 387.387 111.811 391.722 113.077 395.893L137.317 475.742C138.368 479.205 141.561 481.572 145.18 481.572H165.419C169.038 481.572 172.23 479.205 173.282 475.742L197.522 395.893C198.788 391.722 199.432 387.387 199.432 383.028V380.449L196.431 359.488Z" fill="#FFD064"/>
<path d="M175.317 359.488V383.028C175.317 387.387 174.673 391.722 173.407 395.893L149.167 475.742C148.309 478.567 146.018 480.638 143.242 481.314C143.869 481.467 144.513 481.572 145.179 481.572H165.418C169.037 481.572 172.229 479.205 173.281 475.742L197.521 395.893C198.787 391.722 199.431 387.387 199.431 383.028V380.449L196.431 359.488H175.317Z" fill="#FFC250"/>
<path d="M199.431 164.335V150.988L191.745 134.376L199.431 117.764V63.09C199.431 56.683 194.237 51.49 187.831 51.49H122.767C116.36 51.49 111.167 56.684 111.167 63.09V117.763L116.933 134.375L111.167 150.987V164.334C111.167 178.154 113.174 191.901 117.124 205.144C121.074 218.387 123.081 232.134 123.081 245.954V266.888C123.081 279.663 121.366 292.381 117.983 304.7C113.724 318.982 111.068 333.837 111.167 348.765V380.447H199.431V348.765C199.531 333.839 196.874 318.98 192.615 304.7C189.231 292.381 187.517 279.663 187.517 266.888V245.954C187.517 232.134 189.524 218.387 193.474 205.144C197.424 191.901 199.431 178.155 199.431 164.335Z" fill="#756E78"/>
<path d="M193.474 205.145C197.424 191.902 199.431 178.155 199.431 164.335V150.988L187.374 134.376L199.431 117.764V63.09C199.431 56.683 194.237 51.49 187.831 51.49H163.717C170.124 51.49 175.317 56.684 175.317 63.09V164.335C175.317 178.155 173.31 191.902 169.36 205.145C165.41 218.388 163.403 232.135 163.403 245.955V266.889C163.403 279.665 165.118 292.382 168.501 304.701C172.76 318.981 175.416 333.84 175.317 348.766V380.448H199.431V348.766C199.531 333.84 196.874 318.981 192.615 304.701C189.231 292.382 187.517 279.664 187.517 266.889V245.955C187.517 232.135 189.523 218.388 193.474 205.145Z" fill="#665E66"/>
<path d="M111.167 117.763H199.431V150.988H111.167V117.763Z" fill="#FFD064"/>
<path d="M175.317 117.763H199.431V150.988H175.317V117.763Z" fill="#FFC250"/>
</svg>
