<svg width="512" height="512" viewBox="0 0 512 512" fill="none" xmlns="http://www.w3.org/2000/svg">
<g clip-path="url(#clip0)">
<path d="M277.163 48.81L274.892 7.90799C274.679 4.06499 278.705 1.43199 282.14 3.16899L310.969 17.745C314.404 19.482 314.671 24.286 311.449 26.392L277.163 48.81Z" fill="#DD636E"/>
<path d="M310.969 17.745L300.761 12.584L276.048 28.743L277.162 48.81L311.449 26.392C314.671 24.285 314.404 19.481 310.969 17.745Z" fill="#DA4A54"/>
<path d="M226.585 236.101L300.248 90.408C309.977 71.166 302.265 47.68 283.023 37.951C263.781 28.222 240.295 35.934 230.566 55.176L219.897 76.277L218.166 95.103L203.867 107.983L156.903 200.871L226.585 236.101Z" fill="#DD636E"/>
<path d="M293.994 46.189C293.304 49.362 292.206 52.5 290.673 55.532L217.01 201.225L168.998 176.95L156.905 200.869L226.587 236.1L300.25 90.407C307.835 75.403 304.815 57.82 293.994 46.189Z" fill="#DA4A54"/>
<path d="M219.898 76.277L232.976 82.889C235.739 84.286 238.887 84.807 241.929 84.229C247.36 83.198 253.159 83.882 258.474 86.569C263.789 89.256 267.778 93.521 270.167 98.506C271.505 101.298 273.791 103.525 276.554 104.922L289.581 111.509L273.551 143.214L260.524 136.627C257.761 135.23 254.613 134.709 251.571 135.287C246.14 136.318 240.341 135.634 235.026 132.947C229.711 130.26 225.722 125.995 223.333 121.01C221.995 118.218 219.709 115.991 216.946 114.594L203.868 107.982L219.898 76.277Z" fill="#F4DDB1"/>
<path d="M270.167 98.506C269.975 98.105 269.755 97.716 269.542 97.325L250.249 135.484C250.69 135.423 251.133 135.37 251.57 135.287C254.612 134.709 257.76 135.23 260.523 136.627L273.55 143.214L289.58 111.509L276.553 104.923C273.79 103.525 271.505 101.298 270.167 98.506Z" fill="#EFCB84"/>
<path d="M140.723 98.073V78.787L137.723 73.875H97.587L94.587 78.787V98.073C94.587 102.22 92.41 106.027 88.907 108.247C73.863 117.781 63.874 134.572 63.874 153.701V238.003C63.874 246.808 71.012 253.945 79.816 253.945H155.493C164.298 253.945 171.435 246.807 171.435 238.003V153.701C171.435 134.573 161.446 117.781 146.402 108.247C142.9 106.027 140.723 102.221 140.723 98.073Z" fill="#B3E59F"/>
<path d="M146.403 108.247C142.9 106.027 140.723 102.22 140.723 98.073V78.787L137.723 73.875H116.175V98.073C116.175 102.22 118.352 106.027 121.855 108.247C136.899 117.781 146.888 134.572 146.888 153.701V238.003C146.888 246.808 139.75 253.945 130.946 253.945H155.494C164.299 253.945 171.436 246.807 171.436 238.003V153.701C171.436 134.573 161.447 117.781 146.403 108.247Z" fill="#95D6A4"/>
<path d="M94.5869 20.708H140.723V78.787H94.5869V20.708Z" fill="#A298A5"/>
<path d="M116.174 20.708H140.722V78.787H116.174V20.708Z" fill="#8B818E"/>
<path d="M137.167 33.381H98.1428C93.7248 33.381 90.1428 29.799 90.1428 25.381V8.093C90.1428 3.675 93.7248 0.0930023 98.1428 0.0930023H137.166C141.584 0.0930023 145.166 3.675 145.166 8.093V25.381C145.167 29.799 141.585 33.381 137.167 33.381Z" fill="#756E78"/>
<path d="M137.102 0.0930023H132.68V12.83C132.68 17.284 129.07 20.894 124.616 20.894H90.1428V25.316C90.1428 29.77 93.7528 33.38 98.2068 33.38H137.102C141.556 33.38 145.166 29.769 145.166 25.316V8.157C145.167 3.704 141.556 0.0930023 137.102 0.0930023Z" fill="#665E66"/>
<path d="M424.973 91.701L175.982 340.692C165.562 351.112 153.127 359.296 139.435 364.743L118.472 373.084C98.158 381.167 78.027 361.036 86.11 340.722L94.451 319.759C99.899 306.068 108.083 293.632 118.502 283.212L257.91 143.805L281.708 132.563L291.144 110.571L367.493 34.222C377.913 23.802 390.348 15.618 404.04 10.171L425.003 1.83001C445.317 -6.25299 465.448 13.878 457.365 34.192L449.024 55.155C443.576 68.846 435.392 81.282 424.973 91.701Z" fill="#FFD064"/>
<path d="M425.003 1.829L424.492 2.032C428.487 8.303 429.773 16.389 426.542 24.509L418.201 45.472C412.753 59.163 404.569 71.599 394.15 82.019L145.158 331.011C134.738 341.431 122.303 349.615 108.611 355.062L88.1599 363.2C94.1589 372.617 106.279 377.937 118.472 373.085L139.435 364.744C153.126 359.296 165.562 351.112 175.982 340.693L424.973 91.702C435.393 81.282 443.577 68.846 449.024 55.155L457.365 34.192C465.448 13.878 445.317 -6.253 425.003 1.829Z" fill="#FFC250"/>
<path d="M320.969 80.746C337.505 94.639 356.044 99.309 364.405 90.948C372.766 82.587 368.096 64.047 354.203 47.512L320.969 80.746Z" fill="#FFC250"/>
<path d="M257.91 143.805C274.446 157.698 292.985 162.368 301.346 154.007C309.707 145.646 305.037 127.106 291.144 110.571L257.91 143.805Z" fill="#FFC250"/>
<path d="M342.758 58.958C350.551 72.269 352.09 85.237 345.481 91.845C344.838 92.488 344.127 93.045 343.369 93.536C352.11 96.198 359.802 95.552 364.405 90.949C372.766 82.588 368.096 64.048 354.203 47.513L342.758 58.958Z" fill="#EBB044"/>
<path d="M279.699 122.016C287.492 135.327 289.031 148.295 282.422 154.903C281.779 155.546 281.068 156.103 280.31 156.594C289.051 159.256 296.743 158.61 301.346 154.007C309.707 145.646 305.037 127.106 291.144 110.571L279.699 122.016Z" fill="#EBB044"/>
<path d="M290.066 512H60.8049C56.3869 512 52.8049 508.418 52.8049 504V160.904C52.8049 156.486 56.3869 152.904 60.8049 152.904H94.8799L109.76 160.5L125.121 152.904H218.758L234.354 160.5L248.998 152.904H290.065V512H290.066Z" fill="#AA8080"/>
<path d="M339.095 489.38L369.73 510.25C371.403 511.39 373.381 512 375.405 512H380.508C382.178 512 383.532 510.646 383.532 508.976V160.968C383.532 156.514 379.922 152.904 375.468 152.904H286.712V512H294.839C296.864 512 298.841 511.39 300.514 510.25L331.149 489.38C333.546 487.747 336.698 487.747 339.095 489.38Z" fill="#9D6B6B"/>
<path d="M288.163 491.304H56.4099C55.1369 491.304 53.9259 491.058 52.8049 490.628V503.936C52.8049 508.39 56.4149 512 60.8689 512H290.065V491.115C289.441 491.236 288.805 491.304 288.163 491.304Z" fill="#9D6B6B"/>
<path d="M375.468 152.904H362.836V478.132C362.836 478.942 361.93 479.421 361.26 478.965L339.114 463.877C336.708 462.238 333.541 462.245 331.142 463.895L293.875 489.529C292.194 490.685 290.203 491.304 288.163 491.304H286.712V512H294.839C296.864 512 298.841 511.39 300.515 510.25L331.149 489.38C333.546 487.747 336.698 487.747 339.095 489.38L369.73 510.251C371.403 511.391 373.381 512.001 375.405 512.001H380.508C382.178 512.001 383.532 510.647 383.532 508.977V160.968C383.532 156.514 379.922 152.904 375.468 152.904Z" fill="#8B5E5E"/>
<path d="M375.468 152.904H335.122V462.653L339.542 476.437L335.122 488.155C336.509 488.155 337.896 488.563 339.095 489.38L369.73 510.25C371.403 511.39 373.381 512 375.406 512H380.509C382.179 512 383.533 510.646 383.533 508.976V160.968C383.532 156.514 379.922 152.904 375.468 152.904Z" fill="#AA8080"/>
<path d="M375.468 152.904H362.836V478.132C362.836 478.942 361.93 479.421 361.26 478.965L339.114 463.877C337.91 463.057 336.515 462.649 335.122 462.653V488.155C336.509 488.155 337.896 488.563 339.095 489.38L369.73 510.25C371.403 511.39 373.381 512 375.406 512H380.509C382.179 512 383.533 510.646 383.533 508.976V160.968C383.532 156.514 379.922 152.904 375.468 152.904Z" fill="#9D6B6B"/>
<path d="M191.55 264.861H152.33C120.653 264.861 94.8809 239.089 94.8809 207.411V152.903H125.122V207.411C125.122 222.414 137.328 234.62 152.33 234.62H191.55C206.553 234.62 218.758 222.414 218.758 207.411V152.903H248.999V207.411C248.999 239.09 223.227 264.861 191.55 264.861Z" fill="#9D6B6B"/>
<path d="M233.122 152.904V207.412C233.122 239.09 207.35 264.862 175.673 264.862H191.549C223.227 264.862 248.998 239.09 248.998 207.412V152.904H233.122Z" fill="#8B5E5E"/>
<path d="M171.94 428.904C214.424 428.904 248.864 408.722 248.864 383.826C248.864 358.93 214.424 338.748 171.94 338.748C129.456 338.748 95.0159 358.93 95.0159 383.826C95.0159 408.722 129.456 428.904 171.94 428.904Z" fill="#F9EFDA"/>
<path d="M171.436 377.92H137.607C133.432 377.92 130.047 374.536 130.047 370.36C130.047 366.184 133.432 362.8 137.607 362.8H171.436C175.611 362.8 178.996 366.184 178.996 370.36C178.996 374.536 175.611 377.92 171.436 377.92Z" fill="#EFCB84"/>
<path d="M205.264 406.869H137.607C133.432 406.869 130.047 403.485 130.047 399.309C130.047 395.133 133.432 391.749 137.607 391.749H205.264C209.439 391.749 212.824 395.133 212.824 399.309C212.825 403.485 209.44 406.869 205.264 406.869Z" fill="#EFCB84"/>
</g>
<defs>
<clipPath id="clip0">
<rect width="512" height="512" fill="white"/>
</clipPath>
</defs>
</svg>
