<svg width="512" height="512" viewBox="0 0 512 512" fill="none" xmlns="http://www.w3.org/2000/svg">
<g clip-path="url(#clip0)">
<path d="M247.721 179.371H262.739V238.478H247.721V179.371Z" fill="#95D6A4"/>
<path d="M434.276 304.384C430.129 304.384 426.767 301.023 426.767 296.875V58.99C426.767 54.842 430.129 51.481 434.276 51.481C438.423 51.481 441.785 54.842 441.785 58.99V296.875C441.785 301.022 438.423 304.384 434.276 304.384Z" fill="#CCF49F"/>
<path d="M435.148 304.385C434.329 304.385 433.495 304.25 432.678 303.965C428.762 302.601 426.693 298.321 428.057 294.404L454.913 217.315C463.147 193.679 465.865 168.058 462.773 143.22L452.401 59.918C451.889 55.803 454.809 52.051 458.924 51.539C463.041 51.024 466.791 53.947 467.303 58.062L477.675 141.364C481.051 168.48 478.084 196.452 469.094 222.256L442.238 299.345C441.16 302.444 438.254 304.385 435.148 304.385Z" fill="#CCF49F"/>
<path d="M433.403 304.385C430.297 304.385 427.392 302.443 426.313 299.345L399.457 222.256C390.467 196.452 387.5 168.48 390.876 141.364L401.248 58.062C401.761 53.947 405.507 51.031 409.627 51.539C413.742 52.051 416.663 55.803 416.15 59.918L405.778 143.22C402.686 168.058 405.404 193.68 413.638 217.315L440.494 294.404C441.858 298.321 439.79 302.601 435.873 303.965C435.056 304.251 434.223 304.385 433.403 304.385Z" fill="#CCF49F"/>
<path d="M447.693 182.833H435.148C431.001 182.833 427.639 179.472 427.639 175.324C427.639 171.176 431.001 167.815 435.148 167.815H447.693C451.84 167.815 455.202 171.176 455.202 175.324C455.202 179.472 451.84 182.833 447.693 182.833Z" fill="#CCF49F"/>
<path d="M433.018 199.852H420.473C416.326 199.852 412.964 196.491 412.964 192.343C412.964 188.195 416.326 184.834 420.473 184.834H433.018C437.165 184.834 440.527 188.195 440.527 192.343C440.527 196.49 437.165 199.852 433.018 199.852Z" fill="#CCF49F"/>
<path d="M447.693 217.292H435.148C431.001 217.292 427.639 213.931 427.639 209.783C427.639 205.635 431.001 202.274 435.148 202.274H447.693C451.84 202.274 455.202 205.635 455.202 209.783C455.202 213.931 451.84 217.292 447.693 217.292Z" fill="#CCF49F"/>
<path d="M447.693 113.916H435.148C431.001 113.916 427.639 110.555 427.639 106.407C427.639 102.259 431.001 98.898 435.148 98.898H447.693C451.84 98.898 455.202 102.259 455.202 106.407C455.202 110.555 451.84 113.916 447.693 113.916Z" fill="#CCF49F"/>
<path d="M447.693 148.375H435.148C431.001 148.375 427.639 145.014 427.639 140.866C427.639 136.718 431.001 133.357 435.148 133.357H447.693C451.84 133.357 455.202 136.718 455.202 140.866C455.202 145.014 451.84 148.375 447.693 148.375Z" fill="#CCF49F"/>
<path d="M461.766 86.368H454.695C450.548 86.368 447.186 83.007 447.186 78.859C447.186 74.711 450.548 71.35 454.695 71.35H461.766C465.913 71.35 469.275 74.711 469.275 78.859C469.275 83.007 465.913 86.368 461.766 86.368Z" fill="#CCF49F"/>
<path d="M405.909 229.038H393.364C389.217 229.038 385.855 225.677 385.855 221.529C385.855 217.381 389.217 214.02 393.364 214.02H405.909C410.056 214.02 413.418 217.381 413.418 221.529C413.418 225.677 410.056 229.038 405.909 229.038Z" fill="#CCF49F"/>
<path d="M415.209 265.081H408.671C404.524 265.081 401.162 261.72 401.162 257.572C401.162 253.424 404.524 250.063 408.671 250.063H415.209C419.356 250.063 422.718 253.424 422.718 257.572C422.718 261.72 419.356 265.081 415.209 265.081Z" fill="#CCF49F"/>
<path d="M475.799 146.64C472.082 146.64 468.854 143.882 468.362 140.098C467.828 135.986 470.728 132.218 474.84 131.684L487.281 130.067C491.401 129.528 495.161 132.434 495.695 136.545C496.229 140.657 493.329 144.425 489.217 144.959L476.776 146.576C476.447 146.619 476.121 146.64 475.799 146.64Z" fill="#CCF49F"/>
<path d="M471.332 112.287C467.616 112.287 464.387 109.53 463.895 105.746C463.36 101.634 466.261 97.866 470.373 97.331L482.813 95.713C486.925 95.18 490.693 98.078 491.228 102.19C491.763 106.302 488.862 110.07 484.75 110.605L472.31 112.223C471.981 112.267 471.654 112.287 471.332 112.287Z" fill="#CCF49F"/>
<path d="M458.221 166.088C454.505 166.088 451.276 163.331 450.784 159.547C450.249 155.435 453.15 151.667 457.262 151.132L469.702 149.514C473.816 148.972 477.581 151.88 478.117 155.991C478.652 160.103 475.751 163.871 471.639 164.406L459.199 166.024C458.87 166.067 458.544 166.088 458.221 166.088Z" fill="#CCF49F"/>
<path d="M470.887 199.45C467.17 199.45 463.942 196.692 463.45 192.908C462.916 188.796 465.816 185.028 469.928 184.494L482.368 182.877C486.484 182.335 490.248 185.243 490.782 189.355C491.316 193.467 488.416 197.235 484.304 197.769L471.864 199.386C471.536 199.429 471.209 199.45 470.887 199.45Z" fill="#CCF49F"/>
<path d="M466.203 248.256H454.702C450.555 248.256 447.193 244.895 447.193 240.747C447.193 236.599 450.555 233.238 454.702 233.238H466.203C470.35 233.238 473.712 236.599 473.712 240.747C473.712 244.895 470.35 248.256 466.203 248.256Z" fill="#CCF49F"/>
<path d="M479.552 330.552C479.552 353.417 459.281 511.875 434.276 511.875C409.271 511.875 389 353.417 389 330.552C389 307.687 409.271 289.151 434.276 289.151C459.281 289.151 479.552 307.687 479.552 330.552Z" fill="#ECB780"/>
<path d="M434.276 289.151C430.454 289.151 426.745 289.589 423.2 290.404C442.85 294.923 457.401 311.182 457.401 330.552C457.401 349.923 442.852 466.609 423.2 501.819C426.745 508.17 430.455 511.875 434.276 511.875C459.281 511.875 479.552 353.417 479.552 330.552C479.552 307.687 459.281 289.151 434.276 289.151Z" fill="#E49542"/>
<path d="M432.631 352.131H420.858C416.711 352.131 413.349 348.77 413.349 344.622C413.349 340.474 416.711 337.113 420.858 337.113H432.631C436.778 337.113 440.14 340.474 440.14 344.622C440.14 348.77 436.778 352.131 432.631 352.131Z" fill="#E49542"/>
<path d="M447.693 388.978H435.92C431.773 388.978 428.411 385.617 428.411 381.469C428.411 377.321 431.773 373.96 435.92 373.96H447.693C451.84 373.96 455.202 377.321 455.202 381.469C455.202 385.617 451.84 388.978 447.693 388.978Z" fill="#E49542"/>
<path d="M432.631 422.373H420.858C416.711 422.373 413.349 419.012 413.349 414.864C413.349 410.716 416.711 407.355 420.858 407.355H432.631C436.778 407.355 440.14 410.716 440.14 414.864C440.14 419.012 436.778 422.373 432.631 422.373Z" fill="#E49542"/>
<path d="M260.515 227.848L306.784 181.579L317.401 192.197L271.133 238.466L260.515 227.848Z" fill="#95D6A4"/>
<path d="M415.491 83.553C398.136 66.198 372.006 64.192 357.126 79.071C349.829 86.368 342.628 100.342 339.227 114.737C338.064 119.659 333.403 122.939 328.379 122.362C320.236 121.426 312.869 123.329 307.811 128.387C299.323 136.875 297.848 172.689 297.656 190.793C297.643 192.021 307.024 201.402 308.252 201.389C326.357 201.197 362.17 199.722 370.658 191.234C375.716 186.176 377.619 178.809 376.683 170.666C376.106 165.642 379.386 160.981 384.308 159.818C398.703 156.417 412.676 149.216 419.974 141.919C434.852 127.038 432.845 100.908 415.491 83.553Z" fill="#B3E59F"/>
<path d="M415.491 83.553C412.444 80.506 409.123 77.944 405.644 75.851C411.794 90.718 409.816 107.194 399.136 117.874C391.839 125.171 377.865 132.372 363.47 135.773C358.548 136.936 355.268 141.597 355.845 146.621C356.781 154.764 354.878 162.131 349.82 167.189C342.781 174.228 316.955 176.443 298.016 177.104C297.731 183.788 297.645 189.836 297.632 194.217C297.621 198.198 300.844 201.422 304.826 201.41C321.372 201.363 361.594 200.296 370.658 191.232C375.716 186.173 377.619 178.807 376.683 170.664C376.106 165.64 379.386 160.979 384.308 159.816C398.703 156.415 412.677 149.214 419.974 141.917C434.852 127.038 432.845 100.908 415.491 83.553Z" fill="#95D6A4"/>
<path d="M198.078 192.207L208.696 181.589L254.965 227.858L244.347 238.476L198.078 192.207Z" fill="#95D6A4"/>
<path d="M207.772 128.387C202.714 123.329 195.347 121.426 187.204 122.362C182.18 122.939 177.519 119.659 176.356 114.737C172.955 100.342 165.754 86.368 158.457 79.071C143.578 64.192 117.447 66.198 100.092 83.553C82.737 100.908 80.731 127.038 95.61 141.918C102.907 149.215 116.881 156.416 131.276 159.817C136.198 160.98 139.478 165.641 138.901 170.665C137.965 178.808 139.868 186.175 144.926 191.233C153.414 199.721 189.227 201.196 207.332 201.388C208.56 201.401 217.941 191.993 217.928 190.748C217.733 172.631 216.254 136.868 207.772 128.387Z" fill="#B3E59F"/>
<path d="M207.772 128.387C202.714 123.328 195.347 121.426 187.204 122.362C182.18 122.939 177.519 119.659 176.356 114.737C172.955 100.342 165.754 86.368 158.457 79.071C143.578 64.192 117.447 66.198 100.092 83.553C96.143 87.502 92.998 91.908 90.656 96.53C106.032 89.324 123.537 90.979 134.704 102.146C142.001 109.443 149.202 123.417 152.603 137.812C153.766 142.734 158.427 146.014 163.451 145.437C171.594 144.501 178.961 146.404 184.019 151.462C190.785 158.228 193.094 182.355 193.85 201.037C200.451 201.315 206.42 201.4 210.756 201.412C214.737 201.423 217.961 198.2 217.95 194.219C217.903 177.673 216.836 137.451 207.772 128.387Z" fill="#95D6A4"/>
<path d="M374.363 300.325C374.363 234.53 321.025 229.892 255.23 229.892C189.435 229.892 136.097 234.53 136.097 300.325C136.097 345.414 161.148 384.647 198.09 404.877C212.042 412.517 223.808 423.596 231.761 437.372L250.399 469.654C252.546 473.373 257.914 473.373 260.061 469.654L278.699 437.372C286.652 423.596 298.419 412.517 312.37 404.877C349.312 384.647 374.363 345.414 374.363 300.325Z" fill="#E28086"/>
<path d="M306.794 232.24C321.839 242.557 330.763 259.232 330.763 286.139C330.763 331.228 305.712 370.461 268.77 390.691C254.818 398.331 243.052 409.41 235.099 423.186L229.247 433.322C230.119 434.647 230.964 435.993 231.761 437.373L250.399 469.656C252.546 473.375 257.914 473.375 260.061 469.656L278.699 437.373C286.652 423.597 298.419 412.518 312.37 404.878C349.312 384.648 374.363 345.415 374.363 300.326C374.363 253.001 346.769 237.316 306.794 232.24Z" fill="#DD636E"/>
<path d="M197.423 332.825C189.716 332.825 182.565 328.654 178.763 321.94C176.72 318.331 177.988 313.749 181.597 311.705C185.207 309.661 189.788 310.93 191.831 314.539C192.972 316.554 195.115 317.807 197.423 317.807C199.731 317.807 201.874 316.555 203.015 314.539C205.059 310.93 209.641 309.66 213.249 311.705C216.858 313.748 218.126 318.331 216.083 321.94C212.281 328.654 205.131 332.825 197.423 332.825Z" fill="#DA4A54"/>
<path d="M306.459 359.539C298.753 359.539 291.603 355.368 287.8 348.655C285.756 345.046 287.024 340.465 290.632 338.42C294.24 336.377 298.822 337.643 300.866 341.252C302.008 343.269 304.152 344.522 306.459 344.522C308.767 344.522 310.91 343.27 312.053 341.252C314.096 337.644 318.68 336.374 322.288 338.42C325.896 340.464 327.164 345.046 325.12 348.655C321.316 355.368 314.166 359.539 306.459 359.539Z" fill="#DA4A54"/>
<path d="M228.503 359.539C220.797 359.539 213.646 355.368 209.843 348.655C207.799 345.046 209.067 340.465 212.674 338.42C216.283 336.377 220.864 337.643 222.909 341.252C224.051 343.269 226.195 344.522 228.503 344.522C230.81 344.522 232.954 343.27 234.096 341.252C236.14 337.644 240.723 336.374 244.33 338.42C247.938 340.464 249.206 345.046 247.162 348.655C243.359 355.368 236.209 359.539 228.503 359.539Z" fill="#DA4A54"/>
<path d="M247.316 300.8C239.61 300.8 232.46 296.629 228.657 289.916C226.613 286.307 227.881 281.726 231.489 279.681C235.096 277.638 239.679 278.905 241.723 282.513C242.865 284.53 245.009 285.783 247.316 285.783C249.624 285.783 251.767 284.531 252.91 282.513C254.953 278.905 259.535 277.634 263.145 279.681C266.753 281.725 268.021 286.307 265.976 289.916C262.173 296.629 255.023 300.8 247.316 300.8Z" fill="#DA4A54"/>
<path d="M300.002 2.367C290.514 -1.942 279.332 -0.186001 268.811 6.147C260.424 11.196 250.036 11.196 241.648 6.147C231.127 -0.186001 219.946 -1.941 210.457 2.367C190.971 11.215 186.014 42.261 199.386 71.71C201.845 77.127 205.485 83.177 209.748 89.406C212.466 93.377 211.857 98.663 208.478 102.089C202.767 107.878 199.444 114.79 199.444 122.219C199.444 137.912 232.5 173.158 247.72 188.555C248.104 188.944 262.375 188.922 262.771 188.521C278.006 173.106 311.014 137.9 311.014 122.219C311.014 114.79 307.691 107.877 301.98 102.089C298.601 98.663 297.992 93.377 300.71 89.406C304.973 83.178 308.613 77.127 311.072 71.71C324.445 42.261 319.488 11.215 300.002 2.367Z" fill="#B3E59F"/>
<path d="M311.073 71.711C324.445 42.262 319.488 11.216 300.002 2.368C290.514 -1.941 279.332 -0.185003 268.811 6.147C268.788 6.161 268.765 6.172 268.742 6.185C283.083 18.208 285.658 45.581 273.793 71.71C271.334 77.126 267.694 83.177 263.431 89.406C260.713 93.377 261.322 98.664 264.701 102.089C270.412 107.878 273.735 114.79 273.735 122.219C273.735 134.706 252.809 159.567 236.59 176.964C241.269 181.982 245.559 186.384 248.838 189.683C252.364 193.23 258.094 193.23 261.621 189.683C276.269 174.95 311.015 138.309 311.015 122.22C311.015 114.791 307.692 107.878 301.981 102.09C298.602 98.664 297.993 93.378 300.711 89.407C304.974 83.178 308.614 77.127 311.073 71.711Z" fill="#95D6A4"/>
<path d="M145.193 411.858L135.378 402.126C127.794 394.606 123.528 384.369 123.528 373.688V341.436C123.528 337.565 120.39 334.428 116.52 334.428H86.095C82.224 334.428 79.087 337.566 79.087 341.436V373.688C79.087 384.368 74.821 394.606 67.237 402.125L56.911 412.364C51.732 417.499 45.774 421.848 39.108 424.806C25.095 431.025 15.491 445.375 16.288 461.869C17.251 481.819 33.726 497.892 53.693 498.396C58.142 498.508 62.426 497.864 66.425 496.584C68.345 495.969 70.453 496.568 71.742 498.118C78.793 506.599 89.418 512 101.308 512C113.354 512 124.103 506.458 131.152 497.787C132.474 496.161 134.677 495.551 136.654 496.246C141.641 497.998 147.095 498.756 152.786 498.262C171.468 496.641 186.431 481.411 187.728 462.704C188.929 445.376 178.637 430.286 163.713 424.285C156.752 421.486 150.52 417.14 145.193 411.858Z" fill="#F9EFDA"/>
<path d="M163.712 424.284C156.752 421.486 150.52 417.14 145.194 411.858L135.379 402.126C127.795 394.606 123.529 384.369 123.529 373.689V341.437C123.529 337.566 120.391 334.429 116.521 334.429H86.095C85.898 334.429 85.704 334.442 85.511 334.458V363.103C85.511 373.783 89.777 384.02 97.361 391.54L107.176 401.272C112.503 406.554 118.735 410.9 125.694 413.698C140.618 419.699 150.91 434.789 149.709 452.117C148.413 470.824 133.449 486.054 114.767 487.676C109.076 488.17 103.622 487.412 98.635 485.66C96.658 484.965 94.455 485.575 93.133 487.201C88.146 493.336 81.303 497.891 73.463 500.04C80.465 507.402 90.344 512 101.306 512C113.352 512 124.101 506.458 131.15 497.787C132.472 496.161 134.675 495.551 136.652 496.246C141.639 497.999 147.093 498.756 152.784 498.262C171.466 496.641 186.429 481.411 187.726 462.704C188.927 445.375 178.636 430.285 163.712 424.284Z" fill="#F4DDB1"/>
</g>
<defs>
<clipPath id="clip0">
<rect width="512" height="512" fill="white"/>
</clipPath>
</defs>
</svg>
