<svg width="512" height="512" viewBox="0 0 512 512" fill="none" xmlns="http://www.w3.org/2000/svg">
<path d="M410.688 118.498L399.352 115.498H10C4.477 115.498 0 119.975 0 125.498V386.503C0 392.026 4.477 396.503 10 396.503H399.352L410.688 393.503V118.498Z" fill="#F9EFDA"/>
<path d="M410.688 374.726H0V386.434C0 391.995 4.508 396.502 10.069 396.502H399.352L410.688 393.502V374.726Z" fill="#F4DDB1"/>
<path d="M378.076 367.807H353.084C348.913 367.807 345.533 364.427 345.533 360.256C345.533 356.085 348.914 352.705 353.084 352.705H378.076C382.247 352.705 385.627 356.085 385.627 360.256C385.628 364.427 382.247 367.807 378.076 367.807ZM323.286 367.807H298.294C294.124 367.807 290.743 364.427 290.743 360.256C290.743 356.085 294.124 352.705 298.294 352.705H323.286C327.456 352.705 330.837 356.085 330.837 360.256C330.837 364.427 327.457 367.807 323.286 367.807ZM268.496 367.807H243.505C239.335 367.807 235.954 364.427 235.954 360.256C235.954 356.085 239.335 352.705 243.505 352.705H268.496C272.667 352.705 276.047 356.085 276.047 360.256C276.047 364.427 272.666 367.807 268.496 367.807ZM213.706 367.807H188.714C184.544 367.807 181.163 364.427 181.163 360.256C181.163 356.085 184.544 352.705 188.714 352.705H213.706C217.876 352.705 221.257 356.085 221.257 360.256C221.258 364.427 217.877 367.807 213.706 367.807ZM158.916 367.807H133.924C129.754 367.807 126.373 364.427 126.373 360.256C126.373 356.085 129.754 352.705 133.924 352.705H158.916C163.086 352.705 166.467 356.085 166.467 360.256C166.468 364.427 163.087 367.807 158.916 367.807ZM104.126 367.807H79.134C74.964 367.807 71.583 364.427 71.583 360.256C71.583 356.085 74.964 352.705 79.134 352.705H104.126C108.296 352.705 111.677 356.085 111.677 360.256C111.678 364.427 108.297 367.807 104.126 367.807Z" fill="#EFCB84"/>
<path d="M49.3359 367.807H41.2809C34.3409 367.807 28.6949 362.161 28.6949 355.221V347.166C28.6949 342.995 32.0759 339.615 36.2459 339.615C40.4159 339.615 43.7969 342.995 43.7969 347.166V352.704H49.3349C53.5049 352.704 56.8859 356.084 56.8859 360.255C56.8879 364.427 53.5069 367.807 49.3359 367.807Z" fill="#EFCB84"/>
<path d="M36.2469 326.651C32.0769 326.651 28.6959 323.271 28.6959 319.1V295.56C28.6959 291.389 32.0769 288.009 36.2469 288.009C40.4169 288.009 43.7979 291.389 43.7979 295.56V319.1C43.7979 323.27 40.4169 326.651 36.2469 326.651ZM36.2469 275.045C32.0769 275.045 28.6959 271.665 28.6959 267.494V243.954C28.6959 239.783 32.0769 236.403 36.2469 236.403C40.4169 236.403 43.7979 239.783 43.7979 243.954V267.494C43.7979 271.664 40.4169 275.045 36.2469 275.045ZM36.2469 223.438C32.0769 223.438 28.6959 220.058 28.6959 215.887V192.347C28.6959 188.176 32.0769 184.796 36.2469 184.796C40.4169 184.796 43.7979 188.176 43.7979 192.347V215.887C43.7979 220.058 40.4169 223.438 36.2469 223.438Z" fill="#EFCB84"/>
<path d="M36.2469 171.832C32.0769 171.832 28.6959 168.452 28.6959 164.281V156.226C28.6959 149.286 34.3419 143.64 41.2819 143.64H49.3369C53.5069 143.64 56.8879 147.02 56.8879 151.191C56.8879 155.362 53.5069 158.742 49.3369 158.742H43.7989V164.28C43.7979 168.452 40.4169 171.832 36.2469 171.832Z" fill="#EFCB84"/>
<path d="M378.076 158.743H353.084C348.913 158.743 345.533 155.363 345.533 151.192C345.533 147.021 348.914 143.641 353.084 143.641H378.076C382.247 143.641 385.627 147.021 385.627 151.192C385.628 155.362 382.247 158.743 378.076 158.743ZM323.286 158.743H298.294C294.124 158.743 290.743 155.363 290.743 151.192C290.743 147.021 294.124 143.641 298.294 143.641H323.286C327.456 143.641 330.837 147.021 330.837 151.192C330.837 155.362 327.457 158.743 323.286 158.743ZM268.496 158.743H243.505C239.335 158.743 235.954 155.363 235.954 151.192C235.954 147.021 239.335 143.641 243.505 143.641H268.496C272.667 143.641 276.047 147.021 276.047 151.192C276.047 155.362 272.666 158.743 268.496 158.743ZM213.706 158.743H188.714C184.544 158.743 181.163 155.363 181.163 151.192C181.163 147.021 184.544 143.641 188.714 143.641H213.706C217.876 143.641 221.257 147.021 221.257 151.192C221.258 155.362 217.877 158.743 213.706 158.743ZM158.916 158.743H133.924C129.754 158.743 126.373 155.363 126.373 151.192C126.373 147.021 129.754 143.641 133.924 143.641H158.916C163.086 143.641 166.467 147.021 166.467 151.192C166.468 155.362 163.087 158.743 158.916 158.743ZM104.126 158.743H79.134C74.964 158.743 71.583 155.363 71.583 151.192C71.583 147.021 74.964 143.641 79.134 143.641H104.126C108.296 143.641 111.677 147.021 111.677 151.192C111.678 155.362 108.297 158.743 104.126 158.743Z" fill="#EFCB84"/>
<path d="M102.676 278.359C93.342 278.359 92.594 278.109 91.603 277.778C89.198 276.978 87.319 275.069 86.582 272.675C85.337 268.632 87.306 266.054 90.286 262.152C92.632 259.08 97 253.362 104.324 242.896C106.663 239.555 107.622 237.213 108.009 235.763C108.493 233.295 106.272 231.012 103.8 231.035C101.738 231.035 99.954 232.497 99.559 234.511C98.755 238.603 94.785 241.27 90.693 240.466C86.601 239.662 83.935 235.693 84.739 231.601C86.522 222.523 94.539 215.933 103.8 215.933C114.511 215.933 123.225 224.648 123.225 235.358C122.866 241.31 120.64 245.711 116.698 251.556C113.343 256.349 110.59 260.175 108.357 263.223C111.336 263.204 114.508 263.174 117.547 263.136C121.685 263.062 125.14 266.421 125.193 270.591C125.245 274.762 121.907 278.185 117.737 278.237C111.115 278.322 106.261 278.359 102.676 278.359Z" fill="#E4989D"/>
<path d="M153.503 279.065C141.94 279.065 132.533 269.658 132.533 258.095V236.635C132.533 225.072 141.94 215.665 153.503 215.665C165.066 215.665 174.473 225.072 174.473 236.635V258.095C174.473 269.658 165.066 279.065 153.503 279.065ZM153.503 230.768C150.268 230.768 147.635 233.4 147.635 236.635V258.095C147.635 261.33 150.267 263.962 153.503 263.962C156.738 263.962 159.37 261.33 159.37 258.095V236.635C159.37 233.401 156.738 230.768 153.503 230.768Z" fill="#E4989D"/>
<path d="M73.509 259.062H66.604C62.434 259.062 59.053 255.682 59.053 251.511C59.053 247.34 62.434 243.96 66.604 243.96H73.509C77.679 243.96 81.06 247.34 81.06 251.511C81.06 255.682 77.68 259.062 73.509 259.062Z" fill="#E4989D"/>
<path d="M313.824 229.427C317.995 229.427 321.375 226.047 321.375 221.875C321.375 217.704 317.994 214.324 313.824 214.324H293.345C289.175 214.324 285.794 217.704 285.794 221.875V272.403C285.794 276.574 289.175 279.954 293.345 279.954C297.516 279.954 300.896 276.574 300.896 272.403V254.212H312.197C316.367 254.212 319.748 250.832 319.748 246.661C319.748 242.49 316.367 239.11 312.197 239.11H300.896V229.428H313.824V229.427Z" fill="#E4989D"/>
<path d="M360.435 239.109H349.134V229.427H362.061C366.231 229.427 369.612 226.047 369.612 221.875C369.612 217.704 366.231 214.324 362.061 214.324H341.582C337.412 214.324 334.031 217.704 334.031 221.875V272.403C334.031 276.574 337.412 279.954 341.582 279.954C345.753 279.954 349.133 276.574 349.133 272.403V254.212H360.434C364.605 254.212 367.985 250.832 367.985 246.661C367.985 242.49 364.606 239.109 360.435 239.109Z" fill="#E4989D"/>
<path d="M238.42 214.138C220.223 214.138 205.418 228.942 205.418 247.139C205.418 265.336 220.222 280.141 238.42 280.141C256.617 280.141 271.422 265.336 271.422 247.139C271.422 228.942 256.617 214.138 238.42 214.138ZM238.42 265.039C228.551 265.039 220.521 257.01 220.521 247.14C220.521 237.271 228.55 229.242 238.42 229.242C248.29 229.242 256.319 237.271 256.319 247.14C256.319 257.01 248.29 265.039 238.42 265.039Z" fill="#E4989D"/>
<path d="M501.931 115.498H399.351V396.503H501.931C507.492 396.503 512 391.995 512 386.434V125.566C512 120.006 507.492 115.498 501.931 115.498Z" fill="#FFD064"/>
<path d="M512 386.434V125.566C512 120.005 507.492 115.497 501.931 115.497H490.223V364.657C490.223 370.218 485.715 374.726 480.154 374.726H399.351V396.502H501.931C507.492 396.502 512 391.994 512 386.434Z" fill="#FFC250"/>
<path d="M474.746 324.876H435.596C431.425 324.876 428.045 321.496 428.045 317.325C428.045 313.154 431.426 309.774 435.596 309.774H474.746C478.917 309.774 482.297 313.154 482.297 317.325C482.298 321.496 478.917 324.876 474.746 324.876Z" fill="#756E78"/>
<path d="M474.746 295.319H435.596C431.425 295.319 428.045 291.939 428.045 287.768C428.045 283.597 431.426 280.217 435.596 280.217H474.746C478.917 280.217 482.297 283.597 482.297 287.768C482.298 291.939 478.917 295.319 474.746 295.319Z" fill="#756E78"/>
<path d="M474.746 254.916H435.596C431.425 254.916 428.045 251.536 428.045 247.365C428.045 243.194 431.426 239.814 435.596 239.814H474.746C478.917 239.814 482.297 243.194 482.297 247.365C482.297 251.536 478.917 254.916 474.746 254.916Z" fill="#756E78"/>
<path d="M474.746 228.06H435.596C431.425 228.06 428.045 224.68 428.045 220.509C428.045 216.338 431.426 212.958 435.596 212.958H474.746C478.917 212.958 482.297 216.338 482.297 220.509C482.297 224.68 478.917 228.06 474.746 228.06Z" fill="#756E78"/>
<path d="M474.746 201.674H435.596C431.425 201.674 428.045 198.294 428.045 194.123C428.045 189.952 431.426 186.572 435.596 186.572H474.746C478.917 186.572 482.297 189.952 482.297 194.123C482.298 198.293 478.917 201.674 474.746 201.674Z" fill="#756E78"/>
</svg>
