<svg width="512" height="512" viewBox="0 0 512 512" fill="none" xmlns="http://www.w3.org/2000/svg">
<g clip-path="url(#clip0)">
<path d="M354.237 195.347C354.849 191.332 355.085 187.193 354.907 182.968C353.534 150.391 327.139 123.885 294.567 122.387C258.195 120.714 228.182 149.707 228.182 185.71C228.182 189.032 228.438 192.295 228.93 195.48C232.483 218.447 225.875 241.724 210.356 259.024C197.08 273.823 189.187 292.353 189.187 312.464C189.187 360.932 235.027 400.223 291.573 400.223C348.119 400.223 393.959 360.932 393.959 312.464C393.959 292.431 386.127 273.967 372.945 259.197C357.396 241.773 350.715 218.433 354.237 195.347Z" fill="#B3E59F"/>
<path d="M372.945 259.196C357.395 241.773 350.715 218.433 354.236 195.347C354.848 191.332 355.084 187.193 354.906 182.968C353.533 150.391 327.137 123.885 294.566 122.387C285.885 121.988 277.574 123.352 269.939 126.125C293.452 134.702 310.603 156.882 311.703 182.968C311.881 187.193 311.645 191.332 311.033 195.347C307.512 218.432 314.192 241.773 329.742 259.196C342.924 273.966 350.756 292.43 350.756 312.463C350.756 354.578 316.143 389.758 269.972 398.259C276.937 399.541 284.162 400.222 291.574 400.222C348.12 400.222 393.96 360.931 393.96 312.463C393.959 292.43 386.127 273.966 372.945 259.196Z" fill="#95D6A4"/>
<path d="M160.832 217.32C147.473 217.32 135.083 221.441 124.84 228.468C122.815 229.857 120.174 229.857 118.149 228.468C107.907 221.441 95.517 217.32 82.157 217.32C46.954 217.32 18.416 245.858 18.416 281.061C18.416 316.264 46.954 400.222 82.157 400.222C95.516 400.222 107.907 396.101 118.149 389.074C120.174 387.685 122.815 387.685 124.84 389.074C135.082 396.101 147.472 400.222 160.832 400.222C196.035 400.222 224.573 316.264 224.573 281.061C224.573 245.858 196.035 217.32 160.832 217.32Z" fill="#DD636E"/>
<path d="M160.832 217.32C153.279 217.32 146.037 218.639 139.317 221.054C163.929 229.882 181.537 253.412 181.537 281.061C181.537 310.639 161.39 374.626 134.071 394.324C142.208 398.101 151.269 400.222 160.831 400.222C196.034 400.222 224.572 316.264 224.572 281.061C224.572 245.858 196.035 217.32 160.832 217.32Z" fill="#DA4A54"/>
<path d="M71.915 178.235C96.478 189.139 111.938 211.762 118.995 224.334C121.578 228.935 119.011 234.717 113.866 235.887C99.808 239.086 72.659 242.793 48.096 231.889C23.533 220.985 8.07296 198.362 1.01596 185.79C-1.56704 181.189 0.999958 175.407 6.14496 174.237C20.203 171.038 47.353 167.331 71.915 178.235Z" fill="#B3E59F"/>
<path d="M1.01602 185.79C3.18501 189.655 6.15202 194.47 9.93002 199.602C24.863 197.367 46.15 196.742 65.79 205.461C82.802 213.013 95.445 226.186 103.956 237.748C107.699 237.188 111.049 236.528 113.866 235.887C119.011 234.716 121.578 228.935 118.995 224.334C111.938 211.762 96.478 189.139 71.915 178.235C47.352 167.331 20.203 171.038 6.14501 174.237C1.00001 175.407 -1.56598 181.189 1.01602 185.79Z" fill="#95D6A4"/>
<path d="M112.658 410.871C111.385 410.871 110.096 410.547 108.914 409.865C105.326 407.793 104.097 403.206 106.169 399.619L115 384.325C116.34 382.004 118.816 380.575 121.496 380.575C124.176 380.575 126.652 382.005 127.992 384.325L136.822 399.619C138.894 403.207 137.664 407.794 134.077 409.865C130.489 411.937 125.902 410.708 123.831 407.12L121.497 403.077L119.162 407.12C117.771 409.525 115.25 410.87 112.658 410.871Z" fill="#9D6B6B"/>
<path d="M121.495 244.32C117.352 244.32 113.994 240.962 113.994 236.819V198.299C113.994 194.156 117.352 190.798 121.495 190.798C125.638 190.798 128.996 194.156 128.996 198.299V236.819C128.996 240.962 125.638 244.32 121.495 244.32Z" fill="#9D6B6B"/>
<path d="M190.176 350.357C187.909 350.357 185.669 349.333 184.193 347.387C163.939 320.67 159.183 277.178 158.99 275.339C158.558 271.219 161.548 267.529 165.668 267.098C169.784 266.669 173.475 269.654 173.909 273.773C173.952 274.182 178.446 314.975 196.147 338.325C198.65 341.626 198.002 346.331 194.701 348.833C193.347 349.861 191.755 350.357 190.176 350.357Z" fill="#FFD064"/>
<path d="M280.553 404.951C294.612 404.951 306.009 398.154 306.009 389.769C306.009 381.384 294.612 374.587 280.553 374.587C266.494 374.587 255.097 381.384 255.097 389.769C255.097 398.154 266.494 404.951 280.553 404.951Z" fill="#F9EFDA"/>
<path d="M299.393 379.56C298.6 387.519 287.531 393.828 273.987 393.828C266.52 393.828 259.803 391.91 255.147 388.856C255.117 389.159 255.097 389.463 255.097 389.77C255.097 398.155 266.494 404.952 280.553 404.952C294.612 404.952 306.009 398.155 306.009 389.77C306.008 385.838 303.503 382.256 299.393 379.56Z" fill="#F4DDB1"/>
<path d="M291.573 136.569C287.43 136.569 284.072 133.211 284.072 129.068V110.186C284.072 96.694 289.986 83.964 300.296 75.262L312.372 65.072C315.538 62.4 320.271 62.801 322.941 65.967C325.613 69.133 325.213 73.865 322.046 76.536L309.972 86.726C303.045 92.572 299.073 101.123 299.073 110.186V129.068C299.074 133.211 295.716 136.569 291.573 136.569Z" fill="#9D6B6B"/>
<path d="M479.519 334.637C479.519 334.637 473.573 334.216 470.541 335.443C432.758 350.737 389.024 359.487 342.396 359.487C281.661 359.487 225.816 344.66 181.662 319.84C177.76 317.647 172.929 320.364 172.74 324.837C172.69 326.023 172.665 327.214 172.665 328.409C172.665 394.842 248.656 448.697 342.396 448.697C418.928 448.697 483.612 412.796 504.784 363.464C505.954 360.738 504.89 355.167 504.89 355.167L479.519 334.637Z" fill="#FFD064"/>
<path d="M483.711 335.114C461.703 383.458 397.709 418.433 322.171 418.433C262.846 418.433 210.64 396.858 180.295 364.181C201.786 413.145 266.232 448.697 342.394 448.697C418.926 448.697 483.61 412.796 504.782 363.464C505.952 360.738 504.888 355.167 504.888 355.167L483.711 335.114Z" fill="#FFC250"/>
<path d="M502.529 323.194C501.166 322.108 499.297 321.947 497.759 322.766C489.096 327.381 479.993 331.6 470.535 335.428L504.784 363.463C508.94 353.78 511.431 343.583 511.994 333.034C512.068 331.639 511.437 330.294 510.345 329.423L502.529 323.194Z" fill="#9D6B6B"/>
<path d="M510.345 329.424L502.529 323.194C501.166 322.108 499.297 321.947 497.759 322.766C494.076 324.728 490.298 326.603 486.463 328.422C484.643 333.397 482.389 338.248 479.724 342.95L504.784 363.464C508.94 353.781 511.431 343.584 511.994 333.035C512.069 331.64 511.437 330.295 510.345 329.424Z" fill="#8B5E5E"/>
</g>
<defs>
<clipPath id="clip0">
<rect width="512" height="512" fill="white"/>
</clipPath>
</defs>
</svg>
