<svg width="512" height="512" viewBox="0 0 512 512" fill="none" xmlns="http://www.w3.org/2000/svg">
<path d="M387.157 482.624C380.073 482.624 373.972 477.626 372.578 470.681L364.771 431.792H409.542L401.735 470.681C400.342 477.626 394.241 482.624 387.157 482.624Z" fill="#E4989D"/>
<path d="M394.637 431.792L386.83 470.681C385.966 474.983 383.294 478.535 379.704 480.617C381.91 481.896 384.461 482.624 387.157 482.624C394.241 482.624 400.342 477.626 401.736 470.681L409.543 431.792H394.637Z" fill="#E28086"/>
<path d="M124.843 482.624C117.759 482.624 111.658 477.626 110.264 470.681L102.457 431.792H147.228L139.421 470.681C138.028 477.626 131.927 482.624 124.843 482.624Z" fill="#E4989D"/>
<path d="M132.323 431.792L124.516 470.681C123.652 474.983 120.98 478.535 117.39 480.617C119.596 481.896 122.147 482.624 124.843 482.624C131.927 482.624 138.028 477.626 139.422 470.681L147.229 431.792H132.323Z" fill="#E28086"/>
<path d="M386.855 230.83V389.445C386.855 397.335 380.459 403.731 372.569 403.731H139.431C131.541 403.731 125.145 397.335 125.145 389.445V230.83H44.835V311.287C44.835 320.829 46.259 330.318 49.06 339.44L74.473 422.214C79.209 437.639 93.455 448.167 109.591 448.167H129.063L137.032 443.435L144.063 448.167H391.469L399.438 443.998C399.438 443.998 405.078 448.095 406.388 447.953C420.847 446.385 433.185 436.358 437.528 422.214L462.941 339.44C465.742 330.318 467.166 320.829 467.166 311.287V230.83H386.855Z" fill="#E4989D"/>
<path d="M439.103 230.83V306.652C439.103 314.757 437.894 322.817 435.515 330.566L411.617 408.402C408.967 417.032 400.997 422.923 391.969 422.923H74.707C79.658 437.958 93.705 448.167 109.591 448.167H402.409C418.544 448.167 432.791 437.638 437.527 422.214L462.94 339.44C465.741 330.318 467.165 320.829 467.165 311.287V230.83H439.103Z" fill="#E28086"/>
<path d="M150.686 233.462H165.992V410.474H150.686V233.462Z" fill="#E4989D"/>
<path d="M183.24 233.462H198.546V410.474H183.24V233.462Z" fill="#E4989D"/>
<path d="M215.793 233.462H231.099V410.474H215.793V233.462Z" fill="#E4989D"/>
<path d="M248.347 233.462H263.653V410.474H248.347V233.462Z" fill="#E4989D"/>
<path d="M280.9 233.462H296.206V410.474H280.9V233.462Z" fill="#E4989D"/>
<path d="M313.454 233.462H328.76V410.474H313.454V233.462Z" fill="#E4989D"/>
<path d="M346.007 233.462H361.313V410.474H346.007V233.462Z" fill="#E4989D"/>
<path d="M274.737 209.454H237.262V35.376C237.262 32.062 239.948 29.376 243.262 29.376H268.737C272.051 29.376 274.737 32.062 274.737 35.376V209.454Z" fill="#756E78"/>
<path d="M268.615 29.376H251.026C254.407 29.376 257.149 32.117 257.149 35.499V209.455H274.738V35.499C274.737 32.117 271.996 29.376 268.615 29.376Z" fill="#665E66"/>
<path d="M504 248.067H8C3.582 248.067 0 244.485 0 240.067V204.856C0 200.438 3.582 196.856 8 196.856H504C508.418 196.856 512 200.438 512 204.856V240.067C512 244.485 508.418 248.067 504 248.067Z" fill="#E28086"/>
<path d="M504 196.856H489.989V218.055C489.989 222.473 486.407 226.055 481.989 226.055H0V240.066C0 244.484 3.582 248.066 8 248.066H504C508.418 248.066 512 244.484 512 240.066V204.856C512 200.438 508.418 196.856 504 196.856Z" fill="#DD636E"/>
<path d="M256 258.207C268.997 258.207 279.534 247.67 279.534 234.673C279.534 221.676 268.997 211.139 256 211.139C243.003 211.139 232.466 221.676 232.466 234.673C232.466 247.67 243.003 258.207 256 258.207Z" fill="#F9EFDA"/>
<path d="M265.519 213.151C266.808 216.062 267.53 219.281 267.53 222.67C267.53 235.667 256.994 246.204 243.996 246.204C240.607 246.204 237.389 245.482 234.477 244.193C238.133 252.447 246.391 258.208 255.999 258.208C268.996 258.208 279.533 247.672 279.533 234.674C279.534 225.065 273.772 216.807 265.519 213.151Z" fill="#F4DDB1"/>
<path d="M108.557 352.696H399.498V368.002H108.557V352.696Z" fill="#E4989D"/>
</svg>
