<svg width="512" height="512" viewBox="0 0 512 512" fill="none" xmlns="http://www.w3.org/2000/svg">
<path d="M297.691 441.974H180.275C171.991 441.974 165.275 435.258 165.275 426.974V390.883H312.691V426.974C312.691 435.258 305.975 441.974 297.691 441.974Z" fill="#F4DDB1"/>
<path d="M295.069 390.883V409.505C295.069 417.705 288.422 424.352 280.222 424.352H165.275V427.127C165.275 435.327 171.922 441.974 180.122 441.974H297.844C306.044 441.974 312.691 435.327 312.691 427.127V390.883H295.069Z" fill="#EFCB84"/>
<path d="M412.314 153.77C381.415 154.241 356.875 180.029 356.875 210.932C356.875 210.932 354.72 220.478 355.191 224.844C356.505 237.027 366.626 246.647 378.858 247.373C393.568 248.246 405.769 236.575 405.769 222.055C405.769 215.472 403.26 209.478 399.146 204.972C394.873 200.291 395.796 192.873 401.261 189.664C405.128 187.394 409.694 186.192 414.553 186.466C427.162 187.178 436.839 197.996 436.839 210.626V259.651C436.839 260.228 436.829 260.804 436.809 261.377C435.943 286.016 415.645 305.56 391.007 306.478L337.072 308.487L322.596 359.893H341.361L415 336.777C447.599 325.229 469.501 294.234 469.501 259.649V210.077C469.502 178.734 443.764 153.29 412.314 153.77Z" fill="#F9EFDA"/>
<path d="M442.742 162.176C448.563 171.039 451.964 181.625 451.964 192.998V242.57C451.964 277.154 430.062 308.15 397.463 319.698L327.753 341.58L322.596 359.892H341.361L415 336.777C447.599 325.229 469.501 294.234 469.501 259.649V210.077C469.502 189.86 458.785 172.11 442.742 162.176Z" fill="#F4DDB1"/>
<path d="M238.983 115.705C259.578 115.705 276.274 99.0093 276.274 78.414C276.274 57.8188 259.578 41.123 238.983 41.123C218.388 41.123 201.692 57.8188 201.692 78.414C201.692 99.0093 218.388 115.705 238.983 115.705Z" fill="#F4DDB1"/>
<path d="M238.983 41.124C234.989 41.124 231.146 41.759 227.539 42.921C242.534 47.752 253.385 61.813 253.385 78.415C253.385 95.017 242.533 109.078 227.539 113.909C231.146 115.071 234.99 115.706 238.983 115.706C259.578 115.706 276.274 99.01 276.274 78.415C276.274 57.819 259.578 41.124 238.983 41.124Z" fill="#EFCB84"/>
<path d="M145.764 241.131C123.983 197.382 83.766 165.676 36.141 154.707L21.553 151.347C19.891 150.964 18.149 151.464 16.943 152.67L1.45 168.165C-0.397 170.012 -0.491 172.978 1.237 174.937L21.536 197.96C30.893 208.573 36.983 221.665 39.071 235.659L45.058 275.781C50.917 315.045 84.635 344.105 124.334 344.105H157.268L168.49 286.776L145.764 241.131Z" fill="#F4DDB1"/>
<path d="M145.764 241.131C123.983 197.382 83.766 165.676 36.141 154.707L21.553 151.347C19.891 150.964 18.149 151.464 16.943 152.67L1.45 168.165C0.431 169.184 -0.034 170.542 0.026 171.885L5.218 173.081C52.843 184.05 93.059 215.756 114.841 259.505L137.566 305.15L129.941 344.106H157.268L168.49 286.777L145.764 241.131Z" fill="#EFCB84"/>
<path d="M272.453 103.859H205.512C155.66 103.859 115.246 144.272 115.246 194.125V272.464C115.246 316.098 129.001 358.426 154.265 393.564C158.758 399.813 165.944 403.567 173.641 403.567H304.323C312.02 403.567 319.206 399.813 323.699 393.564C348.962 358.426 362.718 316.098 362.718 272.464V194.124C362.719 144.272 322.306 103.859 272.453 103.859Z" fill="#F9EFDA"/>
<path d="M272.453 103.859H226.521C276.373 103.859 316.787 144.272 316.787 194.125V272.465C316.787 316.099 303.032 358.427 277.768 393.565C273.275 399.814 266.089 403.568 258.392 403.568H304.324C312.021 403.568 319.207 399.814 323.7 393.565C348.963 358.427 362.719 316.099 362.719 272.465V194.125C362.719 144.272 322.306 103.859 272.453 103.859Z" fill="#F4DDB1"/>
<path d="M225.573 347.277V366.401C225.573 400.602 243.677 432.249 273.16 449.584L305.425 468.555C308.01 470.075 310.955 470.877 313.954 470.877H379.955C382.954 470.877 385.898 470.076 388.484 468.555L420.749 449.584C450.232 432.249 468.336 400.602 468.336 366.401V347.277H225.573Z" fill="#AA8080"/>
<path d="M421.567 347.277V366.401C421.567 400.602 403.463 432.249 373.98 449.584L341.715 468.555C339.13 470.075 336.185 470.877 333.186 470.877H379.953C382.952 470.877 385.896 470.075 388.482 468.555L420.747 449.584C450.23 432.249 468.334 400.602 468.334 366.401V347.277H421.567Z" fill="#9D6B6B"/>
<path d="M456.977 411.813C456.037 411.917 454.986 411.974 453.764 411.974C448.663 411.974 446.467 410.997 443.427 409.645C439.811 408.037 435.31 406.035 427.057 406.035C418.804 406.035 414.304 408.037 410.688 409.645C407.648 410.996 405.452 411.974 400.352 411.974C395.252 411.974 393.056 410.997 390.016 409.645C386.4 408.037 381.899 406.035 373.646 406.035C365.393 406.035 360.893 408.037 357.277 409.645C354.237 410.996 352.041 411.974 346.941 411.974C341.841 411.974 339.646 410.997 336.606 409.645C332.99 408.037 328.491 406.035 320.239 406.035C311.987 406.035 307.487 408.037 303.872 409.645C300.833 410.997 298.637 411.974 293.538 411.974C288.44 411.974 286.244 410.998 283.206 409.645C279.59 408.037 275.091 406.035 266.839 406.035C258.587 406.035 254.087 408.037 250.471 409.645C247.431 410.996 245.236 411.974 240.136 411.974C238.918 411.974 237.869 411.917 236.931 411.814C239.663 416.936 242.861 421.804 246.477 426.364C250.936 425.68 253.945 424.349 256.504 423.211C259.544 421.86 261.739 420.882 266.839 420.882C271.937 420.882 274.133 421.858 277.171 423.211C280.787 424.819 285.286 426.821 293.538 426.821C301.79 426.821 306.29 424.819 309.905 423.211C312.944 421.859 315.14 420.882 320.239 420.882C325.338 420.882 327.534 421.858 330.573 423.211C334.189 424.819 338.688 426.821 346.941 426.821C355.194 426.821 359.694 424.819 363.31 423.211C366.35 421.86 368.546 420.882 373.646 420.882C378.747 420.882 380.943 421.859 383.983 423.211C387.599 424.819 392.099 426.821 400.352 426.821C408.605 426.821 413.105 424.819 416.721 423.211C419.761 421.86 421.957 420.882 427.057 420.882C432.158 420.882 434.354 421.859 437.394 423.211C439.954 424.35 442.965 425.682 447.43 426.365C451.046 421.805 454.244 416.936 456.977 411.813Z" fill="#9D6B6B"/>
<path d="M456.977 411.813C456.037 411.917 454.986 411.974 453.764 411.974C448.663 411.974 446.467 410.997 443.427 409.645C439.811 408.037 435.31 406.035 427.057 406.035C419.415 406.035 414.992 407.751 411.508 409.282C408.42 415.506 404.666 421.388 400.305 426.819C400.321 426.819 400.336 426.82 400.352 426.82C408.605 426.82 413.105 424.818 416.721 423.21C419.761 421.859 421.957 420.881 427.057 420.881C432.158 420.881 434.354 421.858 437.394 423.21C439.954 424.349 442.965 425.681 447.43 426.364C451.046 421.805 454.244 416.936 456.977 411.813Z" fill="#8B5E5E"/>
<path d="M495.779 372.658H198.129C189.17 372.658 181.908 365.396 181.908 356.437C181.908 347.478 189.17 340.216 198.129 340.216H495.779C504.738 340.216 512 347.478 512 356.437C512 365.396 504.738 372.658 495.779 372.658Z" fill="#9D6B6B"/>
<path d="M497.23 340.29C497.19 349.215 489.947 356.438 481.013 356.438H183.362C182.872 356.438 182.39 356.407 181.911 356.365C181.911 356.39 181.907 356.413 181.907 356.438C181.907 365.396 189.169 372.659 198.128 372.659H495.778C504.736 372.659 511.999 365.397 511.999 356.438C512 347.969 505.507 341.025 497.23 340.29Z" fill="#8B5E5E"/>
<path d="M328.176 275.156L305.993 216.374C305.967 216.305 305.941 216.237 305.913 216.169C304.553 212.867 301.369 210.735 297.799 210.735C297.796 210.735 297.793 210.735 297.79 210.735C294.217 210.738 291.033 212.877 289.677 216.184C289.654 216.241 289.632 216.298 289.609 216.356L267.223 275.135C265.763 278.966 267.687 283.254 271.519 284.714C275.344 286.172 279.638 284.25 281.098 280.419L284.852 270.562H310.573L314.285 280.399C317.613 289.493 331.696 284.089 328.176 275.156ZM290.507 255.715L297.772 236.639L304.971 255.715H290.507Z" fill="#EFCB84"/>
<path d="M245.834 225.244C249.934 225.244 253.257 221.921 253.257 217.821C253.257 213.721 249.934 210.398 245.834 210.398H220.942C216.842 210.398 213.519 213.721 213.519 217.821V276.896C213.519 280.996 216.842 284.32 220.942 284.32H245.834C249.934 284.32 253.257 280.997 253.257 276.896C253.257 272.796 249.934 269.473 245.834 269.473H228.366V254.782H243.999C248.099 254.782 251.422 251.459 251.422 247.359C251.422 243.259 248.099 239.936 243.999 239.936H228.366V225.246H245.834V225.244Z" fill="#EFCB84"/>
<path d="M188.814 210.126H155.889C151.789 210.126 148.466 213.449 148.466 217.549C148.466 221.649 151.789 224.973 155.889 224.973H164.861V277.168C164.861 281.268 168.184 284.591 172.284 284.591C176.384 284.591 179.707 281.268 179.707 277.168V224.973H188.813C192.913 224.973 196.236 221.65 196.236 217.549C196.237 213.449 192.914 210.126 188.814 210.126Z" fill="#EFCB84"/>
</svg>
