<svg width="512" height="512" viewBox="0 0 512 512" fill="none" xmlns="http://www.w3.org/2000/svg">
<g clip-path="url(#clip0)">
<path d="M128.444 66.556L125.444 76.795V492.672C125.444 495.737 126.837 498.635 129.231 500.549L142.166 510.894C144.008 512.367 146.624 512.367 148.466 510.894L169.838 493.799C171.68 492.326 174.297 492.326 176.139 493.799L197.512 510.894C199.354 512.367 201.971 512.367 203.813 510.894L225.184 493.799C227.026 492.326 229.643 492.326 231.485 493.799L252.856 510.894C254.698 512.367 257.315 512.367 259.157 510.894L280.53 493.799C282.372 492.326 284.989 492.326 286.831 493.799L308.202 510.894C310.044 512.367 312.661 512.367 314.503 510.894L335.875 493.799C337.717 492.326 340.334 492.326 342.175 493.799L363.547 510.894C365.389 512.367 368.006 512.367 369.848 510.894L382.773 500.555C385.166 498.641 386.559 495.743 386.559 492.678V76.795L383.559 66.556H128.444Z" fill="#F9EFDA"/>
<path d="M346.946 492.225C346.946 493.728 346.618 495.189 346.021 496.522L363.545 510.869C365.387 512.377 368.004 512.377 369.846 510.869L382.771 500.287C385.164 498.328 386.557 495.362 386.557 492.225V76.795L383.557 66.556H346.947V492.225H346.946Z" fill="#F4DDB1"/>
<path d="M382.769 11.45L369.834 1.10499C367.992 -0.368006 365.375 -0.368006 363.534 1.10499L342.162 18.2C340.32 19.673 337.703 19.673 335.861 18.2L314.489 1.10499C312.647 -0.368006 310.03 -0.368006 308.189 1.10499L286.817 18.2C284.975 19.673 282.358 19.673 280.516 18.2L259.145 1.10499C257.303 -0.368006 254.686 -0.368006 252.845 1.10499L231.472 18.2C229.63 19.673 227.013 19.673 225.172 18.2L203.8 1.10499C201.958 -0.368006 199.341 -0.368006 197.5 1.10499L176.128 18.2C174.286 19.673 171.669 19.673 169.827 18.2L148.455 1.10499C146.613 -0.368006 143.996 -0.368006 142.154 1.10499L129.23 11.444C126.837 13.358 125.444 16.256 125.444 19.321V76.796H386.556V19.327C386.556 16.263 385.163 13.364 382.769 11.45Z" fill="#A298A5"/>
<path d="M346.946 76.795H386.556V19.327C386.556 16.262 385.163 13.364 382.769 11.45L369.834 1.10499C367.992 -0.368006 365.375 -0.368006 363.534 1.10499L346.946 14.374V76.795Z" fill="#8B818E"/>
<path d="M161.32 468.922C157.142 468.922 153.755 465.535 153.755 461.357V409.291C153.755 405.113 157.142 401.726 161.32 401.726C165.498 401.726 168.885 405.113 168.885 409.291V461.357C168.885 465.535 165.498 468.922 161.32 468.922Z" fill="#756E78"/>
<path d="M186.332 468.922C182.154 468.922 178.767 465.535 178.767 461.357V409.291C178.767 405.113 182.153 401.726 186.332 401.726C190.511 401.726 193.897 405.113 193.897 409.291V461.357C193.897 465.535 190.51 468.922 186.332 468.922Z" fill="#756E78"/>
<path d="M224.992 468.922C220.814 468.922 217.427 465.535 217.427 461.357V409.291C217.427 405.113 220.813 401.726 224.992 401.726C229.171 401.726 232.557 405.113 232.557 409.291V461.357C232.557 465.535 229.17 468.922 224.992 468.922Z" fill="#756E78"/>
<path d="M245.969 468.922C241.791 468.922 238.404 465.535 238.404 461.357V409.291C238.404 405.113 241.79 401.726 245.969 401.726C250.148 401.726 253.534 405.113 253.534 409.291V461.357C253.534 465.535 250.147 468.922 245.969 468.922Z" fill="#756E78"/>
<path d="M273.092 468.922C268.914 468.922 265.527 465.535 265.527 461.357V409.291C265.527 405.113 268.913 401.726 273.092 401.726C277.27 401.726 280.657 405.113 280.657 409.291V461.357C280.657 465.535 277.27 468.922 273.092 468.922Z" fill="#756E78"/>
<path d="M321.634 468.922C317.456 468.922 314.069 465.535 314.069 461.357V409.291C314.069 405.113 317.456 401.726 321.634 401.726C325.812 401.726 329.199 405.113 329.199 409.291V461.357C329.199 465.535 325.812 468.922 321.634 468.922Z" fill="#756E78"/>
<path d="M350.68 468.922C346.502 468.922 343.115 465.535 343.115 461.357V409.291C343.115 405.113 346.502 401.726 350.68 401.726C354.858 401.726 358.245 405.113 358.245 409.291V461.357C358.245 465.535 354.858 468.922 350.68 468.922Z" fill="#756E78"/>
<path d="M202.919 119.957H161.32C157.142 119.957 153.755 116.57 153.755 112.392C153.755 108.214 157.142 104.827 161.32 104.827H202.919C207.097 104.827 210.484 108.214 210.484 112.392C210.484 116.57 207.098 119.957 202.919 119.957Z" fill="#EFCB84"/>
<path d="M224.992 155.812H161.32C157.142 155.812 153.755 152.425 153.755 148.247C153.755 144.069 157.142 140.682 161.32 140.682H224.992C229.17 140.682 232.557 144.069 232.557 148.247C232.557 152.425 229.17 155.812 224.992 155.812Z" fill="#EFCB84"/>
<path d="M193.156 191.666H161.32C157.142 191.666 153.755 188.279 153.755 184.101C153.755 179.923 157.142 176.536 161.32 176.536H193.156C197.334 176.536 200.721 179.923 200.721 184.101C200.721 188.279 197.334 191.666 193.156 191.666Z" fill="#EFCB84"/>
<path d="M193.156 354.501H161.32C157.142 354.501 153.755 351.114 153.755 346.936C153.755 342.758 157.142 339.371 161.32 339.371H193.156C197.334 339.371 200.721 342.758 200.721 346.936C200.721 351.114 197.334 354.501 193.156 354.501Z" fill="#EFCB84"/>
<path d="M218.806 269.337H161.32C157.142 269.337 153.755 265.95 153.755 261.772C153.755 257.594 157.142 254.207 161.32 254.207H218.806C222.984 254.207 226.371 257.594 226.371 261.772C226.371 265.95 222.984 269.337 218.806 269.337Z" fill="#EFCB84"/>
<path d="M349.883 230.502H325.102C320.924 230.502 317.537 227.115 317.537 222.937C317.537 218.759 320.924 215.372 325.102 215.372H349.883C354.061 215.372 357.448 218.759 357.448 222.937C357.448 227.115 354.062 230.502 349.883 230.502ZM295.554 230.502H270.773C266.595 230.502 263.208 227.115 263.208 222.937C263.208 218.759 266.595 215.372 270.773 215.372H295.554C299.732 215.372 303.119 218.759 303.119 222.937C303.119 227.115 299.733 230.502 295.554 230.502ZM241.226 230.502H216.445C212.267 230.502 208.88 227.115 208.88 222.937C208.88 218.759 212.266 215.372 216.445 215.372H241.226C245.404 215.372 248.791 218.759 248.791 222.937C248.791 227.115 245.404 230.502 241.226 230.502ZM186.897 230.502H162.116C157.938 230.502 154.551 227.115 154.551 222.937C154.551 218.759 157.937 215.372 162.116 215.372H186.897C191.075 215.372 194.462 218.759 194.462 222.937C194.462 227.115 191.075 230.502 186.897 230.502Z" fill="#EFCB84"/>
<path d="M349.883 308.172H325.102C320.924 308.172 317.537 304.785 317.537 300.607C317.537 296.429 320.924 293.042 325.102 293.042H349.883C354.061 293.042 357.448 296.429 357.448 300.607C357.448 304.785 354.062 308.172 349.883 308.172ZM295.554 308.172H270.773C266.595 308.172 263.208 304.785 263.208 300.607C263.208 296.429 266.595 293.042 270.773 293.042H295.554C299.732 293.042 303.119 296.429 303.119 300.607C303.119 304.785 299.733 308.172 295.554 308.172ZM241.226 308.172H216.445C212.267 308.172 208.88 304.785 208.88 300.607C208.88 296.429 212.266 293.042 216.445 293.042H241.226C245.404 293.042 248.791 296.429 248.791 300.607C248.791 304.785 245.404 308.172 241.226 308.172ZM186.897 308.172H162.116C157.938 308.172 154.551 304.785 154.551 300.607C154.551 296.429 157.937 293.042 162.116 293.042H186.897C191.075 293.042 194.462 296.429 194.462 300.607C194.462 304.785 191.075 308.172 186.897 308.172Z" fill="#EFCB84"/>
<path d="M351.996 354.649H308.45C304.272 354.649 300.885 351.262 300.885 347.084C300.885 342.906 304.271 339.519 308.45 339.519H351.996C356.174 339.519 359.561 342.906 359.561 347.084C359.561 351.262 356.174 354.649 351.996 354.649Z" fill="#DA4A54"/>
<path d="M306.1 55.599H205.9C201.722 55.599 198.335 52.212 198.335 48.034C198.335 43.856 201.722 40.469 205.9 40.469H306.1C310.278 40.469 313.665 43.856 313.665 48.034C313.665 52.212 310.278 55.599 306.1 55.599Z" fill="#756E78"/>
</g>
<defs>
<clipPath id="clip0">
<rect width="512" height="512" fill="white"/>
</clipPath>
</defs>
</svg>
