<svg width="512" height="512" viewBox="0 0 512 512" fill="none" xmlns="http://www.w3.org/2000/svg">
<path d="M401.534 322.683C427.52 322.683 448.586 301.617 448.586 275.631C448.586 249.645 427.52 228.579 401.534 228.579C375.548 228.579 354.482 249.645 354.482 275.631C354.482 301.617 375.548 322.683 401.534 322.683Z" fill="#FFD064"/>
<path d="M448.586 441.448C474.572 441.448 495.638 420.382 495.638 394.396C495.638 368.41 474.572 347.344 448.586 347.344C422.6 347.344 401.534 368.41 401.534 394.396C401.534 420.382 422.6 441.448 448.586 441.448Z" fill="#FFD064"/>
<path d="M422.257 233.385C425.33 239.639 427.063 246.67 427.063 254.109C427.063 280.095 405.997 301.161 380.011 301.161C372.572 301.161 365.541 299.429 359.287 296.355C366.951 311.948 382.985 322.683 401.533 322.683C427.519 322.683 448.585 301.617 448.585 275.631C448.586 257.083 437.85 241.049 422.257 233.385Z" fill="#FFC250"/>
<path d="M469.31 352.15C472.384 358.403 474.116 365.435 474.116 372.874C474.116 398.86 453.05 419.926 427.064 419.926C419.625 419.926 412.594 418.194 406.34 415.12C414.004 430.713 430.039 441.448 448.586 441.448C474.572 441.448 495.638 420.382 495.638 394.396C495.638 375.848 484.902 359.814 469.31 352.15Z" fill="#FFC250"/>
<path d="M401.534 330.224C371.431 330.224 346.941 305.734 346.941 275.631C346.941 245.529 371.431 221.039 401.534 221.039C431.636 221.039 456.126 245.529 456.126 275.631C456.126 305.733 431.636 330.224 401.534 330.224ZM401.534 236.12C379.747 236.12 362.022 253.844 362.022 275.631C362.022 297.418 379.746 315.143 401.534 315.143C423.32 315.143 441.045 297.419 441.045 275.631C441.045 253.844 423.32 236.12 401.534 236.12Z" fill="#F9EFDA"/>
<path d="M448.585 448.989C418.483 448.989 393.993 424.499 393.993 394.396C393.993 364.294 418.483 339.804 448.585 339.804C478.688 339.804 503.178 364.294 503.178 394.396C503.178 424.498 478.688 448.989 448.585 448.989ZM448.585 354.885C426.799 354.885 409.074 372.609 409.074 394.396C409.074 416.183 426.798 433.908 448.585 433.908C470.372 433.908 488.097 416.184 488.097 394.396C488.097 372.609 470.373 354.885 448.585 354.885Z" fill="#F9EFDA"/>
<path d="M502 159.287H10C4.477 159.287 0 154.81 0 149.287V73.011C0 67.488 4.477 63.011 10 63.011H502C507.523 63.011 512 67.488 512 73.011V149.287C512 154.81 507.523 159.287 502 159.287Z" fill="#A298A5"/>
<path d="M502 159.287H10C4.477 159.287 0 154.81 0 149.287V73.011C0 67.488 4.477 63.011 10 63.011H502C507.523 63.011 512 67.488 512 73.011V149.287C512 154.81 507.523 159.287 502 159.287Z" fill="#A298A5"/>
<path d="M502 63.011H482.188V119.474C482.188 124.997 477.711 129.474 472.188 129.474H0V149.286C0 154.809 4.477 159.286 10 159.286H502C507.523 159.286 512 154.809 512 149.286V73.011C512 67.489 507.523 63.011 502 63.011Z" fill="#8B818E"/>
<path d="M415.887 126.504H96.113C87.633 126.504 80.759 119.63 80.759 111.15C80.759 102.67 87.633 95.796 96.113 95.796H133.417L256 109.186L378.583 95.794H415.887C424.367 95.794 431.241 102.668 431.241 111.148C431.241 119.629 424.367 126.504 415.887 126.504Z" fill="#756E78"/>
<path d="M417.697 95.911C416.107 102.696 410.032 107.754 402.762 107.754H82.988C82.374 107.754 81.773 107.708 81.178 107.638C80.913 108.768 80.759 109.939 80.759 111.149C80.759 119.629 87.633 126.503 96.113 126.503H415.887C424.367 126.503 431.241 119.628 431.241 111.149C431.241 103.283 425.323 96.808 417.697 95.911Z" fill="#665E66"/>
<path d="M351.041 328.092H160.959C154.332 328.092 148.959 322.719 148.959 316.092V100.911L170.618 95.911H208.109L256 102.343L303.891 95.911H341.382L363.041 100.911V316.093C363.041 322.72 357.668 328.092 351.041 328.092Z" fill="#CCF49F"/>
<path d="M341.382 95.829V271.518C341.382 272.974 340.58 274.297 339.316 275.02C327.033 282.046 316.816 292.263 309.79 304.546C309.067 305.81 307.745 306.612 306.288 306.612H205.712C204.256 306.612 202.934 305.81 202.21 304.546C195.184 292.263 184.967 282.046 172.684 275.02C171.42 274.297 170.618 272.975 170.618 271.518V95.829H133.418V331.748C133.418 338.411 138.82 343.813 145.483 343.813H366.518C373.181 343.813 378.583 338.411 378.583 331.748V95.829H341.382Z" fill="#B3E59F"/>
<path d="M358.37 95.829V311.536C358.37 318.199 352.968 323.601 346.305 323.601H133.417V331.748C133.417 338.411 138.819 343.813 145.482 343.813H366.517C373.18 343.813 378.582 338.411 378.582 331.748V95.829H358.37Z" fill="#95D6A4"/>
<path d="M196.45 143.893C196.45 188.563 223.111 224.775 256 224.775C275.15 224.775 292.189 212.498 303.082 193.422C310.897 179.737 295.77 95.829 295.77 95.829H208.109C200.786 109.267 196.45 125.891 196.45 143.893Z" fill="#B3E59F"/>
<path d="M315.55 143.893C315.55 125.891 311.215 109.267 303.892 95.829H295.77C284.076 101.231 275.504 112.242 273.523 125.418C273.283 127.012 271.229 127.526 270.304 126.207C264.569 118.03 254.849 112.855 243.96 113.515C228.655 114.442 216.394 127.114 215.936 142.44C215.43 159.371 229.004 173.255 245.82 173.255C255.938 173.255 264.877 168.226 270.285 160.533C271.221 159.201 273.281 159.684 273.523 161.294C275.898 177.084 287.73 189.773 303.068 193.414C310.884 179.728 315.55 162.555 315.55 143.893Z" fill="#95D6A4"/>
</svg>
