<svg width="512" height="512" viewBox="0 0 512 512" fill="none" xmlns="http://www.w3.org/2000/svg">
<g clip-path="url(#clip0)">
<path d="M47.721 135.413C45.923 135.413 44.126 134.768 42.701 133.478L10.069 103.947C3.67 98.155 0 89.884 0 81.254V34.159C0 17.283 13.73 3.55299 30.606 3.55299H64.837C81.713 3.55299 95.443 17.283 95.443 34.159V81.254C95.443 89.884 91.773 98.156 85.373 103.947L52.741 133.478C51.316 134.768 49.519 135.413 47.721 135.413ZM30.606 18.515C21.98 18.515 14.962 25.532 14.962 34.159V81.254C14.962 85.666 16.838 89.894 20.109 92.854L47.721 117.842L75.333 92.854C78.604 89.893 80.481 85.665 80.481 81.254V34.159C80.481 25.533 73.463 18.515 64.837 18.515H30.606ZM80.353 98.401H80.363H80.353Z" fill="#756E78"/>
<path d="M417.091 232.649H165.904C160.381 232.649 155.904 228.172 155.904 222.649V85.55C155.904 80.027 160.381 75.55 165.904 75.55H417.092C422.615 75.55 427.092 80.027 427.092 85.55V222.65C427.091 228.172 422.614 232.649 417.091 232.649Z" fill="#F9EFDA"/>
<path d="M417.117 75.55H396.494V192.077C396.494 197.586 392.028 202.052 386.519 202.052H155.904V222.675C155.904 228.184 160.37 232.65 165.879 232.65H417.118C422.627 232.65 427.093 228.184 427.093 222.675V85.524C427.091 80.015 422.626 75.55 417.117 75.55Z" fill="#F4DDB1"/>
<path d="M457.299 429.77H217.152C211.629 429.77 207.152 425.293 207.152 419.77V242.65C207.152 237.127 211.629 232.65 217.152 232.65H457.299C462.822 232.65 467.299 237.127 467.299 242.65V419.77C467.299 425.292 462.822 429.77 457.299 429.77Z" fill="#F9EFDA"/>
<path d="M457.324 232.649H436.701V389.197C436.701 394.706 432.235 399.172 426.726 399.172H207.152V419.795C207.152 425.304 211.618 429.77 217.127 429.77H457.325C462.834 429.77 467.3 425.304 467.3 419.795V242.624C467.299 237.115 462.833 232.649 457.324 232.649Z" fill="#F4DDB1"/>
<path d="M439.53 508.447C454.489 508.447 466.616 496.32 466.616 481.361C466.616 466.402 454.489 454.275 439.53 454.275C424.571 454.275 412.444 466.402 412.444 481.361C412.444 496.32 424.571 508.447 439.53 508.447Z" fill="#756E78"/>
<path d="M385.358 508.447C400.317 508.447 412.444 496.32 412.444 481.361C412.444 466.402 400.317 454.275 385.358 454.275C370.399 454.275 358.272 466.402 358.272 481.361C358.272 496.32 370.399 508.447 385.358 508.447Z" fill="#756E78"/>
<path d="M448.13 455.677C449.035 458.38 449.532 461.269 449.532 464.277C449.532 479.236 437.405 491.363 422.446 491.363C419.439 491.363 416.549 490.866 413.846 489.961C417.441 500.703 427.578 508.447 439.53 508.447C454.489 508.447 466.616 496.32 466.616 481.361C466.616 469.409 458.871 459.272 448.13 455.677Z" fill="#665E66"/>
<path d="M393.958 455.677C394.863 458.38 395.36 461.269 395.36 464.277C395.36 479.236 383.233 491.363 368.274 491.363C365.267 491.363 362.377 490.866 359.674 489.961C363.269 500.703 373.406 508.447 385.358 508.447C400.317 508.447 412.444 496.32 412.444 481.361C412.444 469.409 404.7 459.272 393.958 455.677Z" fill="#665E66"/>
<path d="M135.32 399.353H65.292C61.16 399.353 57.811 396.004 57.811 391.872C57.811 387.74 61.16 384.391 65.292 384.391H135.32C139.452 384.391 142.801 387.74 142.801 391.872C142.801 396.004 139.451 399.353 135.32 399.353Z" fill="#756E78"/>
<path d="M65.177 355.175H30.266V94.524C30.266 90.668 33.392 87.542 37.248 87.542H58.195C62.051 87.542 65.177 90.668 65.177 94.524V355.175Z" fill="#756E78"/>
<path d="M58.195 87.542H40.739C44.595 87.542 47.721 90.668 47.721 94.524V355.175H65.177V94.524C65.177 90.668 62.051 87.542 58.195 87.542Z" fill="#665E66"/>
<path d="M80.5989 471.231L19.6669 404.924C14.8249 399.655 12.1379 392.76 12.1379 385.604V344.926C12.1379 341.07 15.2639 337.944 19.1199 337.944H73.6159C77.4719 337.944 80.5979 341.07 80.5979 344.926V471.231H80.5989Z" fill="#A298A5"/>
<path d="M73.617 337.944H50.996C54.852 337.944 57.978 341.07 57.978 344.926V446.614L80.599 471.231V344.926C80.599 341.07 77.473 337.944 73.617 337.944Z" fill="#8B818E"/>
<path d="M50.616 508.446C75.6483 508.446 95.941 488.153 95.941 463.121C95.941 438.089 75.6483 417.796 50.616 417.796C25.5837 417.796 5.29102 438.089 5.29102 463.121C5.29102 488.153 25.5837 508.446 50.616 508.446Z" fill="#756E78"/>
<path d="M74.1729 424.393C78.3579 431.258 80.7699 439.322 80.7699 447.95C80.7699 472.982 60.4769 493.275 35.4449 493.275C26.8169 493.275 18.7529 490.863 11.8879 486.678C19.8439 499.73 34.2119 508.446 50.6159 508.446C75.6479 508.446 95.9409 488.153 95.9409 463.121C95.9409 446.717 87.2259 432.35 74.1729 424.393Z" fill="#665E66"/>
<path d="M50.616 480.947C60.4611 480.947 68.442 472.966 68.442 463.121C68.442 453.276 60.4611 445.295 50.616 445.295C40.771 445.295 32.79 453.276 32.79 463.121C32.79 472.966 40.771 480.947 50.616 480.947Z" fill="#F9EFDA"/>
<path d="M56.362 446.259C56.977 448.064 57.326 449.991 57.326 452.004C57.326 461.849 49.345 469.831 39.499 469.831C37.486 469.831 35.559 469.482 33.754 468.867C36.147 475.89 42.784 480.948 50.616 480.948C60.461 480.948 68.442 472.967 68.442 463.121C68.443 455.289 63.384 448.652 56.362 446.259Z" fill="#F4DDB1"/>
<path d="M207.152 439.778L155.086 284.352C153.588 279.88 149.399 276.865 144.682 276.865H63.9621C60.6571 276.865 57.9771 279.544 57.9771 282.85V321.085C57.9771 324.39 60.6561 327.07 63.9621 327.07H98.34C100.703 327.07 102.741 328.728 103.223 331.041L125.847 439.778H207.152Z" fill="#E28086"/>
<path d="M155.086 284.352C153.588 279.88 149.399 276.865 144.682 276.865H119.494C124.211 276.865 128.4 279.88 129.898 284.352L181.964 439.778H207.152L155.086 284.352Z" fill="#DD636E"/>
<path d="M417.117 75.55H343.492V232.65H417.117C422.626 232.65 427.092 228.184 427.092 222.675V85.524C427.091 80.015 422.626 75.55 417.117 75.55Z" fill="#F4DDB1"/>
<path d="M457.324 232.649H384.26V429.769H457.324C462.833 429.769 467.299 425.303 467.299 419.794V242.624C467.299 237.115 462.833 232.649 457.324 232.649Z" fill="#F4DDB1"/>
<path d="M417.117 75.55H396.494V192.077C396.494 197.586 392.028 202.052 386.519 202.052H343.492V232.65H417.117C422.626 232.65 427.092 228.184 427.092 222.675V85.524C427.091 80.015 422.626 75.55 417.117 75.55Z" fill="#EFCB84"/>
<path d="M457.324 232.649H436.701V389.197C436.701 394.706 432.235 399.172 426.726 399.172H384.26V429.77H457.324C462.833 429.77 467.299 425.304 467.299 419.795V242.624C467.299 237.115 462.833 232.649 457.324 232.649Z" fill="#EFCB84"/>
<path d="M276.738 172.615H155.904V117.069H276.738C280.604 117.069 283.738 120.203 283.738 124.069V165.615C283.738 169.481 280.604 172.615 276.738 172.615Z" fill="#F4DDB1"/>
<path d="M228.192 152.323H186.392C182.26 152.323 178.911 148.974 178.911 144.842C178.911 140.71 182.26 137.361 186.392 137.361H228.192C232.324 137.361 235.673 140.71 235.673 144.842C235.673 148.974 232.324 152.323 228.192 152.323Z" fill="#EFCB84"/>
<path d="M306.568 355.175H242.766C238.9 355.175 235.766 352.041 235.766 348.175V284.373C235.766 280.507 238.9 277.373 242.766 277.373H306.568C310.434 277.373 313.568 280.507 313.568 284.373V348.175C313.568 352.041 310.434 355.175 306.568 355.175Z" fill="#F4DDB1"/>
<path d="M287.149 310.668H262.186C258.054 310.668 254.705 307.319 254.705 303.187C254.705 299.055 258.054 295.706 262.186 295.706H287.149C291.281 295.706 294.63 299.055 294.63 303.187C294.63 307.319 291.28 310.668 287.149 310.668Z" fill="#EFCB84"/>
<path d="M287.149 335.045H262.186C258.054 335.045 254.705 331.696 254.705 327.564C254.705 323.432 258.054 320.083 262.186 320.083H287.149C291.281 320.083 294.63 323.432 294.63 327.564C294.63 331.696 291.28 335.045 287.149 335.045Z" fill="#EFCB84"/>
<path d="M503 471.759H124.136C119.165 471.759 115.136 467.73 115.136 462.759V438.77C115.136 433.799 119.165 429.77 124.136 429.77H503C507.971 429.77 512 433.799 512 438.77V462.759C512 467.729 507.971 471.759 503 471.759Z" fill="#E4989D"/>
<path d="M503.023 429.77H490.467V441.249C490.467 446.207 486.448 450.226 481.49 450.226H115.136V462.782C115.136 467.74 119.155 471.759 124.113 471.759H503.022C507.98 471.759 511.999 467.74 511.999 462.782V438.747C512 433.789 507.981 429.77 503.023 429.77Z" fill="#E28086"/>
<path d="M150.081 400.631C154.918 400.631 158.839 396.71 158.839 391.873C158.839 387.036 154.918 383.115 150.081 383.115C145.244 383.115 141.323 387.036 141.323 391.873C141.323 396.71 145.244 400.631 150.081 400.631Z" fill="#665E66"/>
</g>
<defs>
<clipPath id="clip0">
<rect width="512" height="512" fill="white"/>
</clipPath>
</defs>
</svg>
