<svg width="512" height="512" viewBox="0 0 512 512" fill="none" xmlns="http://www.w3.org/2000/svg">
<path d="M65.4609 240.707H15.8069L12.8069 216.996V178.055C12.8069 173.821 14.1589 169.697 16.6659 166.285L43.0249 130.414C45.9749 126.4 52.0859 126.774 54.5249 131.118L61.2289 143.061C65.9709 151.509 68.4609 161.033 68.4609 170.721V216.997L65.4609 240.707Z" fill="#DD636E"/>
<path d="M61.2289 143.06L54.5249 131.117C52.0869 126.773 45.9749 126.399 43.0249 130.413L37.1799 138.367L39.8139 143.059C44.5559 151.507 47.0459 161.031 47.0459 170.719V240.705H65.4599L68.4599 216.994V170.72C68.4609 161.033 65.9709 151.508 61.2289 143.06Z" fill="#DA4A54"/>
<path d="M12.8069 216.996H68.4609V346.802H12.8069V216.996Z" fill="#FFD064"/>
<path d="M47.0471 216.996H68.4611V346.802H47.0471V216.996Z" fill="#FFC250"/>
<path d="M319.184 82.126H386.984V97.132H319.184V82.126Z" fill="#A298A5"/>
<path d="M340.368 433.026H218.068C209.784 433.026 203.068 426.31 203.068 418.026V369.703H355.368V418.026C355.368 426.31 348.652 433.026 340.368 433.026Z" fill="#FFD064"/>
<path d="M336.946 369.703V406.572C336.946 411.008 333.35 414.604 328.914 414.604H203.068V418.026C203.068 426.31 209.784 433.026 218.068 433.026H340.368C348.652 433.026 355.368 426.31 355.368 418.026V369.703H336.946Z" fill="#FFC250"/>
<path d="M433.684 148.754C476.937 148.754 512 122.283 512 89.629C512 56.9752 476.937 30.504 433.684 30.504C390.431 30.504 355.368 56.9752 355.368 89.629C355.368 122.283 390.431 148.754 433.684 148.754Z" fill="#F9EFDA"/>
<path d="M476.768 40.261C478.636 45.322 479.656 50.649 479.656 56.16C479.656 88.814 444.593 115.285 401.34 115.285C385.419 115.285 370.617 111.689 358.256 105.528C367.457 130.457 397.73 148.754 433.684 148.754C476.937 148.754 512 122.283 512 89.629C512 68.994 497.99 50.839 476.768 40.261Z" fill="#F4DDB1"/>
<path d="M74.268 433.026H7C3.134 433.026 0 429.892 0 426.026V294.196C0 290.33 3.134 287.196 7 287.196H74.268C78.134 287.196 81.268 290.33 81.268 294.196V426.025C81.268 429.892 78.134 433.026 74.268 433.026Z" fill="#756E78"/>
<path d="M74.266 287.196H61.432V406.186C61.432 410.054 58.297 413.189 54.429 413.189H0V426.022C0 429.89 3.135 433.025 7.003 433.025H74.266C78.134 433.025 81.269 429.89 81.269 426.022V294.199C81.268 290.332 78.133 287.196 74.266 287.196Z" fill="#665E66"/>
<path d="M268.05 34.339L231.192 61.118C226.636 64.428 224.729 70.296 226.469 75.652L244.813 132.11H313.621L331.965 75.652C333.705 70.296 331.799 64.428 327.242 61.118L290.384 34.339C283.727 29.501 274.709 29.501 268.05 34.339Z" fill="#A298A5"/>
<path d="M327.244 61.118L290.386 34.339C283.727 29.501 274.709 29.501 268.05 34.339L258.268 41.446C258.862 41.786 259.448 42.148 260.011 42.557L296.869 69.336C301.425 72.646 303.332 78.514 301.592 83.87L285.918 132.109H313.623L331.967 75.651C333.707 70.296 331.8 64.428 327.244 61.118Z" fill="#8B818E"/>
<path d="M279.218 406.079C349.003 406.079 405.575 349.507 405.575 279.722C405.575 209.937 349.003 153.365 279.218 153.365C209.433 153.365 152.861 209.937 152.861 279.722C152.861 349.507 209.433 406.079 279.218 406.079Z" fill="#E4989D"/>
<path d="M339.313 168.545C348.994 186.417 354.493 206.886 354.493 228.64C354.493 298.425 297.921 354.997 228.136 354.997C206.382 354.997 185.914 349.498 168.041 339.817C189.416 379.279 231.187 406.079 279.218 406.079C349.003 406.079 405.575 349.507 405.575 279.722C405.575 231.691 378.774 189.92 339.313 168.545Z" fill="#E28086"/>
<path d="M264.193 100.257C270.063 100.257 274.821 95.4987 274.821 89.629C274.821 83.7593 270.063 79.001 264.193 79.001C258.323 79.001 253.565 83.7593 253.565 89.629C253.565 95.4987 258.323 100.257 264.193 100.257Z" fill="#665E66"/>
<path d="M433.134 100.257C439.004 100.257 443.762 95.4987 443.762 89.629C443.762 83.7593 439.004 79.001 433.134 79.001C427.264 79.001 422.506 83.7593 422.506 89.629C422.506 95.4987 427.264 100.257 433.134 100.257Z" fill="#EFCB84"/>
<path d="M463.534 119.885C469.404 119.885 474.162 115.127 474.162 109.257C474.162 103.387 469.404 98.629 463.534 98.629C457.664 98.629 452.906 103.387 452.906 109.257C452.906 115.127 457.664 119.885 463.534 119.885Z" fill="#EFCB84"/>
<path d="M463.534 80.628C469.404 80.628 474.162 75.8697 474.162 70C474.162 64.1303 469.404 59.372 463.534 59.372C457.664 59.372 452.906 64.1303 452.906 70C452.906 75.8697 457.664 80.628 463.534 80.628Z" fill="#EFCB84"/>
<path d="M315.66 162.418H242.777C233.446 162.418 225.882 154.854 225.882 145.523C225.882 136.192 233.446 128.628 242.777 128.628H315.66C324.991 128.628 332.555 136.192 332.555 145.523C332.555 154.853 324.991 162.418 315.66 162.418Z" fill="#FFD064"/>
<path d="M316.788 128.684C315.851 137.128 308.698 143.697 300.004 143.697H227.12C226.739 143.697 226.367 143.665 225.992 143.64C225.923 144.259 225.881 144.885 225.881 145.522C225.881 154.853 233.445 162.417 242.776 162.417H315.659C324.99 162.417 332.554 154.853 332.554 145.522C332.555 136.572 325.59 129.267 316.788 128.684Z" fill="#FFC250"/>
<path d="M296.87 239.024C288.79 239.024 281.573 242.703 276.793 248.474C275.766 249.714 273.878 249.714 272.851 248.474C268.07 242.703 260.853 239.024 252.774 239.024C238.376 239.024 226.705 250.696 226.705 265.093C226.705 288.954 259.598 317.436 270.992 326.586C273.231 328.384 276.414 328.384 278.653 326.586C290.047 317.436 322.94 288.954 322.94 265.093C322.939 250.696 311.267 239.024 296.87 239.024Z" fill="#F9EFDA"/>
<path d="M203.892 456.214H73.0599C53.0209 456.214 36.7759 439.969 36.7759 419.93V356.466C36.7759 336.427 53.0209 320.182 73.0599 320.182H203.892C223.931 320.182 240.176 336.427 240.176 356.466V419.93C240.176 439.968 223.931 456.214 203.892 456.214Z" fill="#DDEAFB"/>
<path d="M203.877 320.181H200.058V397.95C200.058 407.971 191.934 416.095 181.913 416.095H36.7759V419.914C36.7759 439.962 53.0279 456.213 73.0749 456.213H203.876C223.924 456.213 240.175 439.961 240.175 419.914V356.48C240.176 336.433 223.924 320.181 203.877 320.181Z" fill="#CBE2FF"/>
<path d="M203.877 463.717H73.0749C48.9219 463.717 29.2729 444.067 29.2729 419.915V356.48C29.2729 332.327 48.9229 312.678 73.0749 312.678H203.877C228.03 312.678 247.679 332.328 247.679 356.48V419.914C247.679 444.067 228.029 463.717 203.877 463.717ZM73.0749 327.684C57.1969 327.684 44.2789 340.602 44.2789 356.48V419.914C44.2789 435.792 57.1969 448.71 73.0749 448.71H203.877C219.755 448.71 232.673 435.792 232.673 419.914V356.48C232.673 340.602 219.755 327.684 203.877 327.684H73.0749Z" fill="#9DC6FB"/>
<path d="M223.301 481.496H53.6509C44.3309 481.496 36.7759 473.941 36.7759 464.621V464.607C36.7759 455.287 44.3309 447.732 53.6509 447.732H223.301C232.621 447.732 240.176 455.287 240.176 464.607V464.621C240.176 473.941 232.621 481.496 223.301 481.496Z" fill="#756E78"/>
<path d="M223.294 447.732H220.891C219.794 455.995 212.737 462.376 204.174 462.376H36.9409C36.8439 463.11 36.7759 463.853 36.7759 464.614C36.7759 473.938 44.3339 481.496 53.6579 481.496H223.294C232.618 481.496 240.176 473.938 240.176 464.614C240.176 455.29 232.618 447.732 223.294 447.732Z" fill="#665E66"/>
</svg>
