<svg width="512" height="512" viewBox="0 0 512 512" fill="none" xmlns="http://www.w3.org/2000/svg">
<g clip-path="url(#clip0)">
<path d="M80.4669 400.51L33.6399 373.474C30.3069 371.55 26.1399 373.955 26.1399 377.804V423.215C26.1399 427.064 30.3069 429.47 33.6399 427.545L80.4669 400.51Z" fill="#DD636E"/>
<path d="M56.2439 386.525L26.1399 403.906V423.392C26.1399 427.162 30.2219 429.519 33.4869 427.634L80.4669 400.51L56.2439 386.525Z" fill="#DA4A54"/>
<path d="M308.973 137.182L247.662 119.012L280.843 7.047C283.021 -0.302995 292.396 -2.448 297.554 3.223L328.029 36.729C333.046 42.244 334.816 49.98 332.697 57.128L308.973 137.182Z" fill="#F9EFDA"/>
<path d="M328.029 36.729L297.554 3.223C292.396 -2.448 283.022 -0.301997 280.843 7.047L278.681 14.343L302.552 40.588C307.569 46.103 309.339 53.839 307.22 60.987L286.604 130.552L308.972 137.181L332.697 57.128C334.816 49.98 333.046 42.245 328.029 36.729Z" fill="#F4DDB1"/>
<path d="M253.84 98.163L185.33 329.332C174.244 366.74 187.582 407.099 218.777 430.533L302.294 493.274C342.052 523.142 398.242 516.616 430.097 478.431L464.183 437.571C485.091 412.507 491.397 378.347 480.814 347.47L463.126 295.863L455.749 291.374L458.208 281.516L436.543 218.305L431.186 213.093C431.186 213.093 432.993 208.744 431.062 204.675C418.294 177.771 395.897 156.397 368.045 144.979L345.226 135.625L337.342 135.843L331.602 130.04L253.84 98.163Z" fill="#E4989D"/>
<path d="M480.814 347.471L463.126 295.864L456.124 290.719L458.208 281.517L436.543 218.306L431.186 213.094C431.186 213.094 432.993 208.745 431.062 204.676C418.294 177.772 395.897 156.398 368.045 144.98L345.226 135.626L337.342 135.844L331.602 130.041L310.858 121.537C324.444 135.249 334.947 151.98 341.348 170.655L389.382 310.8C400.771 344.029 393.985 380.792 371.483 407.765L334.801 451.738C322.206 466.836 306.074 477.329 288.585 482.976L302.295 493.275C342.053 523.143 398.243 516.617 430.098 478.432L464.184 437.572C485.091 412.508 491.397 378.348 480.814 347.471Z" fill="#E28086"/>
<path d="M345.227 135.626L331.603 130.041L321.48 160.03C316.563 174.598 319.165 190.615 328.44 202.878C337.569 214.948 336.871 231.893 326.779 243.171L287.573 286.985C279.604 295.889 267.472 299.544 255.916 296.525L238.509 291.98C234.586 290.956 230.57 293.307 229.544 297.233C228.519 301.158 230.871 305.173 234.797 306.198L252.203 310.743C256.126 311.767 260.091 312.266 264.017 312.266C277.019 312.266 289.568 306.79 298.522 296.784L337.729 252.969C352.495 236.468 353.517 211.674 340.159 194.013C333.819 185.632 332.041 174.685 335.403 164.729L345.227 135.626Z" fill="#F9EFDA"/>
<path d="M370.438 461.528H214.948L187.185 447.125L159.422 461.528H122.468C88.769 461.528 61.45 434.209 61.45 400.51C61.45 366.811 88.769 339.492 122.468 339.492H159.422L187.185 346.219L214.948 339.492H370.438V461.528Z" fill="#DD636E"/>
<path d="M85.0959 424.156C78.0119 424.156 71.2159 422.935 64.8899 420.716C73.2299 444.482 95.8519 461.528 122.467 461.528H159.421L187.184 447.125L214.947 461.528H370.437V424.156H85.0959Z" fill="#DA4A54"/>
<path d="M420.353 400.51C420.353 434.209 404.494 449.438 370.795 449.438C348.612 449.438 329.194 449.691 318.512 431.988C312.967 422.798 309.776 412.026 309.776 400.51C309.776 366.811 337.095 339.492 370.794 339.492C382.31 339.492 393.081 342.682 402.272 348.228C419.976 358.908 420.353 378.327 420.353 400.51Z" fill="#F4C3C6"/>
<path d="M402.271 348.231C407.816 357.421 411.01 368.19 411.01 379.706C411.01 413.405 383.691 440.724 349.992 440.724C338.476 440.724 327.707 437.53 318.516 431.985C329.197 449.688 348.612 461.527 370.795 461.527C404.494 461.527 431.813 434.208 431.813 400.509C431.814 378.327 419.974 358.912 402.271 348.231Z" fill="#E4989D"/>
<path d="M346.375 410.006C351.595 410.006 355.827 405.774 355.827 400.554C355.827 395.334 351.595 391.102 346.375 391.102C341.155 391.102 336.923 395.334 336.923 400.554C336.923 405.774 341.155 410.006 346.375 410.006Z" fill="#F9EFDA"/>
<path d="M386.391 385.915C391.611 385.915 395.843 381.683 395.843 376.463C395.843 371.243 391.611 367.011 386.391 367.011C381.171 367.011 376.939 371.243 376.939 376.463C376.939 381.683 381.171 385.915 386.391 385.915Z" fill="#F9EFDA"/>
<path d="M386.391 419.458C391.611 419.458 395.843 415.226 395.843 410.006C395.843 404.786 391.611 400.554 386.391 400.554C381.171 400.554 376.939 404.786 376.939 410.006C376.939 415.226 381.171 419.458 386.391 419.458Z" fill="#F9EFDA"/>
<path d="M159.421 339.492V362.395C159.421 367.234 157.927 371.992 154.976 375.827C149.708 382.674 146.572 391.246 146.572 400.554C146.572 409.862 149.708 418.434 154.976 425.281C157.927 429.116 159.421 433.874 159.421 438.713V461.528H214.947V438.713C214.947 433.874 216.441 429.116 219.392 425.281C224.66 418.434 227.796 409.862 227.796 400.554C227.796 391.246 224.66 382.674 219.392 375.827C216.441 371.992 214.947 367.234 214.947 362.395V339.492H159.421Z" fill="#F4DDB1"/>
<path d="M154.146 424.156C154.418 424.535 154.693 424.912 154.977 425.281C157.928 429.116 159.421 433.874 159.421 438.713V461.528H214.947V438.713C214.947 433.874 216.441 429.116 219.392 425.281C219.676 424.912 219.951 424.535 220.223 424.156H154.146Z" fill="#EFCB84"/>
<path d="M436.545 218.306L436.182 217.247C434.706 212.94 432.989 208.748 431.058 204.679C417.308 210.105 407.549 223.515 407.549 239.17V251.621C407.549 255.679 410.838 258.968 414.896 258.968C418.954 258.968 422.243 255.679 422.243 251.621V239.17C422.242 229.678 428.186 221.553 436.545 218.306Z" fill="#F4DDB1"/>
<path d="M458.209 281.517L439.46 293.815C432.986 298.062 424.524 296.968 419.341 291.215L416.044 287.555C408.819 279.534 398.483 274.933 387.688 274.933C379.913 274.933 372.47 277.337 366.163 281.885L353.194 291.238C349.902 293.611 349.159 298.203 351.532 301.494C353.905 304.785 358.5 305.528 361.788 303.155L374.757 293.803C378.546 291.07 383.017 289.626 387.688 289.626C394.327 289.626 400.684 292.455 405.127 297.388L408.424 301.048C414.384 307.665 422.574 311.109 430.875 311.109C436.601 311.109 442.382 309.469 447.519 306.101L463.126 295.864L458.209 281.517Z" fill="#F9EFDA"/>
<path d="M458.209 281.517L439.46 293.815C432.986 298.062 424.524 296.968 419.341 291.215L416.044 287.555C408.819 279.534 398.483 274.933 387.688 274.933C384.226 274.933 380.838 275.436 377.579 276.366L382.349 290.282C384.08 289.852 385.868 289.626 387.688 289.626C394.327 289.626 400.684 292.455 405.127 297.388L408.424 301.048C414.384 307.665 422.574 311.109 430.875 311.109C436.601 311.109 442.382 309.469 447.519 306.101L463.126 295.864L458.209 281.517Z" fill="#F4DDB1"/>
<path d="M331.604 130.041L327.497 142.208C331.118 147.791 334.324 153.669 337.067 159.804L345.228 135.626L331.604 130.041Z" fill="#F4DDB1"/>
</g>
<defs>
<clipPath id="clip0">
<rect width="512" height="512" fill="white"/>
</clipPath>
</defs>
</svg>
