<svg width="512" height="512" viewBox="0 0 512 512" fill="none" xmlns="http://www.w3.org/2000/svg">
<path d="M187.369 265.462C185.36 265.818 183.26 265.912 181.104 265.701C170.374 264.652 161.691 255.968 160.643 245.237C160.433 243.081 160.526 240.982 160.883 238.973C161.414 235.98 160.549 232.912 158.4 230.762L123.921 196.279C120.739 193.097 115.298 195.35 115.298 199.85V436.64H364.252L195.579 267.947C193.43 265.797 190.362 264.932 187.369 265.462Z" fill="#FFD064"/>
<path d="M195.579 267.947C193.43 265.798 190.362 264.932 187.369 265.463C185.36 265.819 183.26 265.913 181.104 265.702C170.374 264.653 161.691 255.969 160.643 245.238C160.433 243.082 160.526 240.983 160.883 238.974C161.414 235.981 160.549 232.913 158.4 230.763L123.921 196.28C120.739 193.098 115.298 195.351 115.298 199.851V218.119L127.941 230.764C130.09 232.913 130.956 235.982 130.424 238.975C130.067 240.984 129.974 243.084 130.184 245.239C131.231 255.969 139.914 264.654 150.645 265.703C152.801 265.914 154.901 265.82 156.91 265.464C159.903 264.933 162.971 265.799 165.12 267.948L333.793 436.64H364.252L195.579 267.947Z" fill="#FFC250"/>
<path d="M459.693 477.303H261.266C252.982 477.303 246.266 470.587 246.266 462.303V130.313H474.692V462.303C474.693 470.587 467.977 477.303 459.693 477.303Z" fill="#DDEAFB"/>
<path d="M437.514 130.313V427.101C437.514 435.47 430.73 442.254 422.361 442.254H246.266V462.151C246.266 470.52 253.05 477.304 261.419 477.304H459.54C467.909 477.304 474.693 470.52 474.693 462.151V130.313H437.514Z" fill="#CBE2FF"/>
<path d="M391.33 0H329.629C321.345 0 314.629 6.716 314.629 15V43.501H406.33V15C406.33 6.716 399.614 0 391.33 0V0Z" fill="#CBE2FF"/>
<path d="M391.33 0H365.314C373.598 0 380.314 6.716 380.314 15V43.501H406.33V15C406.33 6.716 399.614 0 391.33 0V0Z" fill="#BED8FB"/>
<path d="M474.693 128.97V144.708H246.266V128.97C246.266 125.431 247.504 122.004 249.767 119.283L311.586 44.923C313.505 42.614 316.352 41.279 319.354 41.279H401.605C404.607 41.279 407.454 42.614 409.373 44.923L471.192 119.283C473.454 122.005 474.693 125.432 474.693 128.97Z" fill="#CBE2FF"/>
<path d="M471.192 119.283L409.373 44.923C407.454 42.614 404.607 41.279 401.605 41.279H362.447L434.014 127.364C436.276 130.085 437.515 133.512 437.515 137.051V144.707H474.693V128.97C474.693 125.432 473.454 122.005 471.192 119.283Z" fill="#BED8FB"/>
<path d="M337.994 477.303H261.266C252.982 477.303 246.266 470.587 246.266 462.303V130.313H337.994V477.303Z" fill="#CBE2FF"/>
<path d="M246.266 442.253V462.15C246.266 470.519 253.05 477.303 261.419 477.303H337.994V442.253H246.266Z" fill="#9DC6FB"/>
<path d="M341.495 119.283L403.314 44.923C404.162 43.902 405.199 43.085 406.343 42.476C404.899 41.708 403.279 41.279 401.604 41.279H319.354C316.352 41.279 313.505 42.614 311.586 44.923L249.767 119.283C247.505 122.004 246.266 125.431 246.266 128.97V144.708H337.994V128.97C337.994 125.432 339.232 122.005 341.495 119.283Z" fill="#BED8FB"/>
<path d="M305.865 130.313H337.994V477.303H305.865V130.313Z" fill="#BED8FB"/>
<path d="M401.605 41.28H373.682L309.366 119.284C307.104 122.005 305.865 125.432 305.865 128.971V144.709H337.994V128.97C337.994 125.431 339.233 122.004 341.495 119.283L403.314 44.923C404.162 43.902 405.199 43.085 406.343 42.476C404.899 41.709 403.279 41.28 401.605 41.28Z" fill="#9DC6FB"/>
<path d="M301.81 117.129C318.501 117.129 332.032 103.598 332.032 86.907C332.032 70.2158 318.501 56.685 301.81 56.685C285.119 56.685 271.588 70.2158 271.588 86.907C271.588 103.598 285.119 117.129 301.81 117.129Z" fill="#DDEAFB"/>
<path d="M312.823 58.764C315.184 63.07 316.528 68.012 316.528 73.27C316.528 89.961 302.997 103.492 286.306 103.492C282.419 103.492 278.706 102.75 275.293 101.413C280.427 110.778 290.376 117.129 301.81 117.129C318.501 117.129 332.032 103.598 332.032 86.907C332.032 74.103 324.066 63.167 312.823 58.764Z" fill="#CBE2FF"/>
<path d="M303.663 226.604H275.294C271.11 226.604 267.718 223.212 267.718 219.028C267.718 214.844 271.11 211.452 275.294 211.452H303.663C307.847 211.452 311.239 214.844 311.239 219.028C311.239 223.212 307.847 226.604 303.663 226.604Z" fill="#BED8FB"/>
<path d="M303.663 259.578H275.294C271.11 259.578 267.718 256.186 267.718 252.002C267.718 247.818 271.11 244.426 275.294 244.426H303.663C307.847 244.426 311.239 247.818 311.239 252.002C311.239 256.186 307.847 259.578 303.663 259.578Z" fill="#BED8FB"/>
<path d="M303.663 293.102H275.294C271.11 293.102 267.718 289.71 267.718 285.526C267.718 281.342 271.11 277.95 275.294 277.95H303.663C307.847 277.95 311.239 281.342 311.239 285.526C311.239 289.71 307.847 293.102 303.663 293.102Z" fill="#BED8FB"/>
<path d="M305.865 278.277V292.774C308.975 291.83 311.239 288.943 311.239 285.525C311.239 282.108 308.975 279.221 305.865 278.277Z" fill="#9DC6FB"/>
<path d="M171.837 436.976C171.837 464.451 150.297 486.724 123.726 486.724C97.155 486.724 75.615 464.451 75.615 436.976C75.615 409.501 97.155 353.834 123.726 353.834C150.297 353.834 171.837 409.501 171.837 436.976Z" fill="#F9EFDA"/>
<path d="M123.726 353.834C118.803 353.834 114.054 355.748 109.582 359.036C129.25 373.496 143.549 414.591 143.549 436.976C143.549 459.36 129.25 478.288 109.582 484.535C114.055 485.956 118.803 486.724 123.726 486.724C150.297 486.724 171.837 464.451 171.837 436.976C171.837 409.501 150.297 353.834 123.726 353.834Z" fill="#F4DDB1"/>
<path d="M294.176 436.976C294.176 464.451 272.636 486.724 246.065 486.724C219.494 486.724 197.954 464.451 197.954 436.976C197.954 409.501 219.494 353.834 246.065 353.834C272.636 353.834 294.176 409.501 294.176 436.976Z" fill="#F9EFDA"/>
<path d="M246.065 353.834C241.142 353.834 236.393 355.748 231.921 359.036C251.589 373.496 265.888 414.591 265.888 436.976C265.888 459.36 251.589 478.288 231.921 484.535C236.394 485.956 241.142 486.724 246.065 486.724C272.636 486.724 294.176 464.451 294.176 436.976C294.176 409.501 272.636 353.834 246.065 353.834Z" fill="#F4DDB1"/>
<path d="M416.629 436.976C416.629 464.451 395.089 486.724 368.518 486.724C341.947 486.724 320.407 464.451 320.407 436.976C320.407 409.501 341.947 353.834 368.518 353.834C395.089 353.834 416.629 409.501 416.629 436.976Z" fill="#F9EFDA"/>
<path d="M368.518 353.834C363.595 353.834 358.846 355.748 354.374 359.036C374.042 373.496 388.341 414.591 388.341 436.976C388.341 459.36 374.042 478.288 354.374 484.535C358.847 485.956 363.595 486.724 368.518 486.724C395.089 486.724 416.629 464.451 416.629 436.976C416.629 409.501 395.089 353.834 368.518 353.834Z" fill="#F4DDB1"/>
<path d="M91.675 450.078V479.271C91.675 489.307 99.811 497.443 109.847 497.443H152.981C161.756 490.68 172.744 486.649 184.679 486.649C196.614 486.649 207.602 490.681 216.377 497.443H275.62C284.395 490.68 295.383 486.649 307.318 486.649C319.253 486.649 330.241 490.681 339.016 497.443H382.051C392.087 497.443 400.223 489.307 400.223 479.271V450.078H91.675Z" fill="#AA8080"/>
<path d="M123.726 512C96.154 512 73.802 489.648 73.802 462.076V446.273H173.65V462.076C173.65 489.648 151.299 512 123.726 512Z" fill="#9D6B6B"/>
<path d="M246.122 512C218.55 512 196.198 489.648 196.198 462.076V446.273H296.046V462.076C296.046 489.648 273.695 512 246.122 512Z" fill="#9D6B6B"/>
<path d="M368.518 512C340.946 512 318.594 489.648 318.594 462.076V446.273H418.442V462.076C418.442 489.648 396.09 512 368.518 512Z" fill="#9D6B6B"/>
<path d="M146.376 446.273V462.076C146.376 484.918 131.03 504.163 110.089 510.099C114.425 511.328 118.996 512 123.726 512C151.298 512 173.65 489.648 173.65 462.076V446.273H146.376Z" fill="#8B5E5E"/>
<path d="M268.771 446.273V462.076C268.771 484.918 253.425 504.163 232.484 510.099C236.82 511.328 241.391 512 246.121 512C273.693 512 296.045 489.648 296.045 462.076V446.273H268.771Z" fill="#8B5E5E"/>
<path d="M391.167 446.273V462.076C391.167 484.918 375.821 504.163 354.88 510.099C359.216 511.328 363.787 512 368.517 512C396.089 512 418.441 489.648 418.441 462.076V446.273H391.167Z" fill="#8B5E5E"/>
<path d="M439.548 457.075H52.582C44.146 457.075 37.308 450.236 37.308 441.801C37.308 433.365 44.147 426.527 52.582 426.527H439.548C447.984 426.527 454.822 433.366 454.822 441.801C454.822 450.237 447.984 457.075 439.548 457.075Z" fill="#9D6B6B"/>
<path d="M443.545 427.073C443.255 435.254 436.55 441.801 428.298 441.801H41.332C39.947 441.801 38.611 441.6 37.335 441.254C37.329 441.437 37.307 441.616 37.307 441.801C37.307 450.237 44.146 457.075 52.581 457.075H439.547C447.983 457.075 454.821 450.236 454.821 441.801C454.822 434.75 450.038 428.832 443.545 427.073Z" fill="#8B5E5E"/>
<path d="M406.343 277.902C428.921 277.902 447.224 259.599 447.224 237.021C447.224 214.443 428.921 196.14 406.343 196.14C383.765 196.14 365.462 214.443 365.462 237.021C365.462 259.599 383.765 277.902 406.343 277.902Z" fill="#CBE2FF"/>
<path d="M437.514 263.458C443.566 256.329 447.224 247.105 447.224 237.022C447.224 226.939 443.566 217.714 437.514 210.586V263.458Z" fill="#BED8FB"/>
<path d="M146.716 312.064C151.276 312.064 154.972 308.368 154.972 303.808C154.972 299.248 151.276 295.552 146.716 295.552C142.156 295.552 138.46 299.248 138.46 303.808C138.46 308.368 142.156 312.064 146.716 312.064Z" fill="#FFC250"/>
<path d="M178.365 346.437C188.214 346.437 196.198 338.453 196.198 328.604C196.198 318.755 188.214 310.771 178.365 310.771C168.516 310.771 160.532 318.755 160.532 328.604C160.532 338.453 168.516 346.437 178.365 346.437Z" fill="#FFC250"/>
<path d="M184.327 311.814C184.99 313.681 185.37 315.682 185.37 317.776C185.37 327.625 177.386 335.609 167.537 335.609C165.443 335.609 163.442 335.229 161.575 334.566C164.031 341.478 170.61 346.437 178.365 346.437C188.214 346.437 196.198 338.453 196.198 328.604C196.198 320.849 191.239 314.269 184.327 311.814Z" fill="#EBB044"/>
<path d="M305.865 244.753V259.25C308.975 258.306 311.239 255.419 311.239 252.001C311.239 248.583 308.975 245.696 305.865 244.753Z" fill="#9DC6FB"/>
<path d="M305.865 211.779V226.276C308.975 225.332 311.239 222.445 311.239 219.027C311.239 215.61 308.975 212.723 305.865 211.779Z" fill="#9DC6FB"/>
</svg>
