<svg width="512" height="512" viewBox="0 0 512 512" fill="none" xmlns="http://www.w3.org/2000/svg">
<g clip-path="url(#clip0)">
<path d="M265.374 290.868V163.925C265.374 149.381 259.804 135.39 249.81 124.825L209.75 82.481C204.236 76.652 201.163 68.933 201.163 60.909V33.799H139.135V60.909C139.135 68.933 136.062 76.652 130.548 82.481L90.489 124.825C80.494 135.39 74.925 149.381 74.925 163.925V290.868C74.925 299.685 77.823 308.258 83.172 315.267L100.596 338.099C107.612 347.292 111.412 358.537 111.412 370.102V370.235C111.412 382.781 106.941 394.916 98.8 404.462L84.54 421.186C78.334 428.464 74.925 437.716 74.925 447.282V482.572C74.925 498.824 88.1 512 104.353 512H236.274C252.527 512 265.702 498.824 265.702 482.572V447.383C265.702 437.757 262.249 428.449 255.971 421.152L241.65 404.507C233.415 394.936 228.886 382.729 228.886 370.102C228.886 358.537 232.686 347.293 239.702 338.099L257.126 315.267C262.476 308.258 265.374 299.685 265.374 290.868Z" fill="#DDEAFB"/>
<path d="M255.971 421.152L241.65 404.507C233.415 394.936 228.886 382.728 228.886 370.102C228.886 358.537 232.686 347.293 239.702 338.099L257.126 315.267C262.475 308.258 265.373 299.685 265.373 290.868V163.925C265.373 149.381 259.803 135.39 249.809 124.825L209.75 82.481C204.236 76.652 201.163 68.933 201.163 60.909V33.799H172.105V60.909C172.105 68.933 175.178 76.652 180.692 82.481L220.751 124.825C230.746 135.39 236.315 149.381 236.315 163.925V290.868C236.315 299.685 233.417 308.258 228.068 315.267L210.644 338.099C203.628 347.292 199.828 358.537 199.828 370.102C199.828 382.728 204.357 394.935 212.592 404.507L226.913 421.152C233.191 428.449 236.644 437.756 236.644 447.383V482.572C236.644 498.825 223.468 512 207.216 512H236.274C252.527 512 265.702 498.824 265.702 482.572V447.383C265.702 437.756 262.249 428.449 255.971 421.152Z" fill="#CBE2FF"/>
<path d="M201.011 43.361H139.287C135.421 43.361 132.287 40.227 132.287 36.361V7C132.287 3.134 135.421 0 139.287 0H201.011C204.877 0 208.011 3.134 208.011 7V36.361C208.011 40.227 204.877 43.361 201.011 43.361Z" fill="#A298A5"/>
<path d="M201.011 0H189.144V17.494C189.144 21.36 186.01 24.494 182.144 24.494H132.287V36.361C132.287 40.227 135.421 43.361 139.287 43.361H201.011C204.877 43.361 208.011 40.227 208.011 36.361V7C208.011 3.134 204.877 0 201.011 0V0Z" fill="#8B818E"/>
<path d="M74.925 279.511H210.262C216.889 279.511 222.262 274.138 222.262 267.511V183.323C222.262 176.696 216.889 171.323 210.262 171.323H74.925V279.511Z" fill="#CBE2FF"/>
<path d="M170.314 485C183.853 485 194.829 474.024 194.829 460.485C194.829 446.946 183.853 435.97 170.314 435.97C156.775 435.97 145.799 446.946 145.799 460.485C145.799 474.024 156.775 485 170.314 485Z" fill="#CBE2FF"/>
<path d="M83.927 435.969C81.231 435.969 78.639 436.411 76.213 437.215C75.369 440.481 74.925 443.86 74.925 447.282V482.572C74.925 482.814 74.937 483.053 74.943 483.294C77.726 484.391 80.754 485 83.927 485C97.466 485 108.442 474.024 108.442 460.485C108.442 446.945 97.466 435.969 83.927 435.969Z" fill="#CBE2FF"/>
<path d="M256.7 435.969C259.396 435.969 261.988 436.411 264.414 437.215C265.258 440.481 265.702 443.86 265.702 447.282V482.572C265.702 482.814 265.69 483.053 265.684 483.294C262.901 484.391 259.873 485 256.7 485C243.161 485 232.185 474.024 232.185 460.485C232.185 446.945 243.161 435.969 256.7 435.969Z" fill="#CBE2FF"/>
<path d="M265.634 445.165C265.478 442.48 265.077 439.806 264.386 437.207C261.967 436.409 259.386 435.969 256.7 435.969C248.394 435.969 241.057 440.104 236.623 446.424C236.631 446.744 236.644 447.062 236.644 447.383V474.576C241.081 480.878 248.407 485 256.7 485C259.873 485 262.901 484.391 265.684 483.294C265.69 483.053 265.702 482.814 265.702 482.572V447.383C265.691 446.643 265.677 445.902 265.634 445.165Z" fill="#BED8FB"/>
<path d="M175.032 217.12H105.852C101.709 217.12 98.3521 213.762 98.3521 209.62C98.3521 205.478 101.709 202.12 105.852 202.12H175.032C179.175 202.12 182.532 205.478 182.532 209.62C182.532 213.762 179.175 217.12 175.032 217.12Z" fill="#9DC6FB"/>
<path d="M148.594 248.713H105.853C101.71 248.713 98.353 245.355 98.353 241.213C98.353 237.071 101.71 233.713 105.853 233.713H148.594C152.737 233.713 156.094 237.071 156.094 241.213C156.094 245.355 152.736 248.713 148.594 248.713Z" fill="#9DC6FB"/>
<path d="M321.824 191.572H410.746V283.64H321.824V191.572Z" fill="#DDEAFB"/>
<path d="M385.257 191.572H410.747V283.64H385.257V191.572Z" fill="#CBE2FF"/>
<path d="M437.075 283.64C437.075 263.896 421.069 247.89 401.325 247.89H331.245C311.501 247.89 295.495 263.896 295.495 283.64C295.495 297.413 303.286 309.361 314.699 315.329C319.061 317.61 321.823 322.093 321.823 327.016V336.772C321.823 344.042 315.929 349.936 308.659 349.936C301.389 349.936 295.495 355.83 295.495 363.1V495.122C295.495 504.443 303.051 512 312.373 512H420.197C429.518 512 437.075 504.444 437.075 495.122V461.388L424.529 426.117L437.075 390.846V363.1C437.075 355.83 431.181 349.936 423.911 349.936C416.641 349.936 410.747 344.042 410.747 336.772V327.016C410.747 322.093 413.509 317.611 417.871 315.329C429.284 309.361 437.075 297.413 437.075 283.64Z" fill="#FFD064"/>
<path d="M417.871 315.33C429.285 309.361 437.075 297.413 437.075 283.641C437.075 263.897 421.069 247.891 401.325 247.891H368.03C387.774 247.891 403.78 263.897 403.78 283.641C403.78 297.414 395.989 309.362 384.576 315.33C380.214 317.611 377.452 322.094 377.452 327.017V336.773C377.452 344.043 383.346 349.937 390.616 349.937C397.886 349.937 403.78 355.831 403.78 363.101V495.123C403.78 504.444 396.224 512.001 386.902 512.001H420.197C429.518 512.001 437.075 504.445 437.075 495.123V461.389L424.529 426.118L437.075 390.847V363.1C437.075 355.83 431.181 349.936 423.911 349.936C416.641 349.936 410.747 344.042 410.747 336.772V327.016C410.747 322.093 413.509 317.611 417.871 315.33Z" fill="#FFC250"/>
<path d="M414.169 164.546H318.403C315.642 164.546 313.403 166.785 313.403 169.546V193.764C313.403 196.525 315.642 198.764 318.403 198.764H414.169C416.93 198.764 419.169 196.525 419.169 193.764V169.546C419.169 166.785 416.93 164.546 414.169 164.546Z" fill="#DD636E"/>
<path d="M414.169 164.546H402.269V176.864C402.269 179.625 400.03 181.864 397.269 181.864H313.402V193.764C313.402 196.525 315.641 198.764 318.402 198.764H414.168C416.929 198.764 419.168 196.525 419.168 193.764V169.546C419.169 166.785 416.93 164.546 414.169 164.546Z" fill="#DA4A54"/>
<path d="M437.075 390.847C428.06 387.887 417.782 386.204 406.865 386.204C371.225 386.204 342.333 404.074 342.333 426.118C342.333 448.162 371.225 466.032 406.865 466.032C417.782 466.032 428.06 464.349 437.075 461.389V390.847Z" fill="#F9EFDA"/>
<path d="M437.075 390.847C428.06 387.887 417.782 386.204 406.865 386.204C405.83 386.204 404.803 386.222 403.78 386.252V465.984C404.803 466.014 405.83 466.032 406.865 466.032C417.782 466.032 428.06 464.349 437.075 461.389V390.847Z" fill="#F4DDB1"/>
</g>
<defs>
<clipPath id="clip0">
<rect width="512" height="512" fill="white"/>
</clipPath>
</defs>
</svg>
