<svg width="512" height="512" viewBox="0 0 512 512" fill="none" xmlns="http://www.w3.org/2000/svg">
<g clip-path="url(#clip0)">
<path d="M70.446 446.5L67.446 459.239V497C67.446 505.284 74.162 512 82.446 512H229.728C238.012 512 244.728 505.284 244.728 497V459.239L241.728 446.5H70.446Z" fill="#756E78"/>
<path d="M219.832 446.5V471.746C219.832 480.228 212.956 487.105 204.473 487.105H67.446V497C67.446 505.284 74.162 512 82.446 512H229.728C238.012 512 244.728 505.284 244.728 497V459.239L241.728 446.5H219.832Z" fill="#665E66"/>
<path d="M414.675 451.137C410.433 451.137 406.996 447.699 406.996 443.458V423.588C406.996 419.346 410.434 415.909 414.675 415.909C418.917 415.909 422.354 419.347 422.354 423.588V443.458C422.354 447.699 418.917 451.137 414.675 451.137Z" fill="#665E66"/>
<path d="M433.553 429.661H140.335C134.26 429.661 129.335 424.736 129.335 418.661V11C129.335 4.925 134.26 0 140.335 0H433.554C439.629 0 444.554 4.925 444.554 11V418.661C444.553 424.736 439.629 429.661 433.553 429.661Z" fill="#A298A5"/>
<path d="M433.553 0H418.598V393.466C418.598 399.121 414.014 403.705 408.359 403.705H129.335V418.66C129.335 424.735 134.26 429.66 140.335 429.66H433.554C439.629 429.66 444.554 424.735 444.554 418.66V11C444.553 4.925 439.629 0 433.553 0V0Z" fill="#8B818E"/>
<path d="M286.944 336.012C342.206 336.012 387.005 291.213 387.005 235.951C387.005 180.689 342.206 135.89 286.944 135.89C231.682 135.89 186.883 180.689 186.883 235.951C186.883 291.213 231.682 336.012 286.944 336.012Z" fill="#DDEAFB"/>
<path d="M334.973 148.154C342.789 162.411 347.236 178.777 347.236 196.183C347.236 251.445 302.437 296.244 247.175 296.244C229.769 296.244 213.403 291.796 199.146 283.981C216.144 314.988 249.087 336.013 286.943 336.013C342.205 336.013 387.004 291.214 387.004 235.952C387.005 198.095 365.98 165.153 334.973 148.154Z" fill="#CBE2FF"/>
<path d="M286.944 117.972C221.89 117.972 168.965 170.898 168.965 235.951C168.965 301.004 221.89 353.93 286.944 353.93C351.998 353.93 404.923 301.004 404.923 235.951C404.923 170.898 351.998 117.972 286.944 117.972ZM286.944 318.093C240.17 318.093 202.401 278.795 204.921 231.482C207.17 189.253 241.758 155.335 284.022 153.86C311.336 152.906 335.828 165.379 351.441 185.167C352.488 186.494 352.287 188.442 350.951 189.476C339.368 198.439 331.52 215.709 331.52 235.556C331.52 255.605 339.529 273.024 351.305 281.906C352.659 282.928 352.877 284.882 351.836 286.222C336.798 305.594 313.31 318.093 286.944 318.093Z" fill="#756E78"/>
<path d="M361.325 144.446C377.866 164.757 387.799 190.652 387.799 218.827C387.799 283.881 334.873 336.806 269.82 336.806C241.645 336.806 215.749 326.873 195.439 310.332C217.09 336.917 250.066 353.93 286.945 353.93C351.999 353.93 404.924 301.004 404.924 235.951C404.923 199.072 387.91 166.097 361.325 144.446Z" fill="#665E66"/>
<path d="M129.334 78.955H444.553V94.314H129.334V78.955Z" fill="#8B818E"/>
<path d="M129.334 378.459H444.553V393.818H129.334V378.459Z" fill="#8B818E"/>
<path d="M418.598 393.466C418.598 393.585 418.584 393.7 418.58 393.818H444.553V378.459H418.598V393.466Z" fill="#756E78"/>
<path d="M408.361 57.223H345.725C342.964 57.223 340.725 54.984 340.725 52.223V28.17C340.725 25.409 342.964 23.17 345.725 23.17H408.361C411.122 23.17 413.361 25.409 413.361 28.17V52.223C413.361 54.984 411.122 57.223 408.361 57.223Z" fill="#CBE2FF"/>
<path d="M408.361 23.17H401.408V40.27C401.408 43.031 399.169 45.27 396.408 45.27H340.725V52.223C340.725 54.984 342.964 57.223 345.725 57.223H408.361C411.122 57.223 413.361 54.984 413.361 52.223V28.17C413.361 25.408 411.122 23.17 408.361 23.17Z" fill="#BED8FB"/>
<path d="M285.995 61.888C297.975 61.888 307.687 52.1762 307.687 40.196C307.687 28.2158 297.975 18.504 285.995 18.504C274.015 18.504 264.303 28.2158 264.303 40.196C264.303 52.1762 274.015 61.888 285.995 61.888Z" fill="#756E78"/>
<path d="M294.353 20.175C295.428 22.748 296.024 25.571 296.024 28.533C296.024 40.513 286.312 50.225 274.332 50.225C271.369 50.225 268.546 49.629 265.974 48.554C269.247 56.385 276.978 61.888 285.995 61.888C297.975 61.888 307.687 52.176 307.687 40.196C307.687 31.178 302.184 23.448 294.353 20.175Z" fill="#665E66"/>
<path d="M200.559 48.692H170.38C166.138 48.692 162.701 45.254 162.701 41.013C162.701 36.772 166.139 33.334 170.38 33.334H200.559C204.801 33.334 208.238 36.772 208.238 41.013C208.238 45.254 204.8 48.692 200.559 48.692Z" fill="#665E66"/>
<path d="M229.833 49.254C234.836 49.254 238.891 45.1986 238.891 40.196C238.891 35.1934 234.836 31.138 229.833 31.138C224.83 31.138 220.775 35.1934 220.775 40.196C220.775 45.1986 224.83 49.254 229.833 49.254Z" fill="#B3E59F"/>
<path d="M173.687 492.836H144.739C140.497 492.836 137.06 489.398 137.06 485.157C137.06 480.915 140.498 477.478 144.739 477.478H173.687C177.929 477.478 181.366 480.916 181.366 485.157C181.366 489.398 177.928 492.836 173.687 492.836Z" fill="#A298A5"/>
<path d="M244.728 459.239H67.446V227.155C67.446 218.871 74.162 212.155 82.446 212.155H229.728C238.012 212.155 244.728 218.871 244.728 227.155V459.239Z" fill="#CBE2FF"/>
<path d="M229.728 212.155H219.832V459.239H244.728V227.155C244.728 218.871 238.012 212.155 229.728 212.155Z" fill="#BED8FB"/>
<path d="M120.434 294.083C130.931 294.083 139.44 285.574 139.44 275.077C139.44 264.58 130.931 256.071 120.434 256.071C109.937 256.071 101.428 264.58 101.428 275.077C101.428 285.574 109.937 294.083 120.434 294.083Z" fill="#B3E59F"/>
<path d="M134.441 363.359H106.428C103.667 363.359 101.428 361.12 101.428 358.359V330.346C101.428 327.585 103.667 325.346 106.428 325.346H134.441C137.202 325.346 139.441 327.585 139.441 330.346V358.359C139.441 361.12 137.202 363.359 134.441 363.359Z" fill="#E4989D"/>
<path d="M193.643 293.464H165.63C162.869 293.464 160.63 291.225 160.63 288.464V260.451C160.63 257.69 162.869 255.451 165.63 255.451H193.643C196.404 255.451 198.643 257.69 198.643 260.451V288.464C198.643 291.225 196.404 293.464 193.643 293.464Z" fill="#9DC6FB"/>
<path d="M180.362 428.258H165.63C162.869 428.258 160.63 426.019 160.63 423.258V408.526C160.63 398.43 168.815 390.245 178.911 390.245H193.643C196.404 390.245 198.643 392.484 198.643 395.245V409.977C198.643 420.074 190.458 428.258 180.362 428.258Z" fill="#F9EFDA"/>
<path d="M418.598 78.955H444.553V94.314H418.598V78.955Z" fill="#756E78"/>
</g>
<defs>
<clipPath id="clip0">
<rect width="512" height="512" fill="white"/>
</clipPath>
</defs>
</svg>
