<svg width="512" height="512" viewBox="0 0 512 512" fill="none" xmlns="http://www.w3.org/2000/svg">
<g clip-path="url(#clip0)">
<path d="M67.533 489.074C101.554 489.074 129.134 481.488 129.134 472.131C129.134 462.774 101.554 455.188 67.533 455.188C33.5117 455.188 5.93201 462.774 5.93201 472.131C5.93201 481.488 33.5117 489.074 67.533 489.074Z" fill="#B3E59F"/>
<path d="M123.55 465.083C113.825 470.921 92.408 474.979 67.533 474.979C42.658 474.979 21.241 470.921 11.516 465.083C7.94001 467.23 5.93201 469.615 5.93201 472.13C5.93201 481.487 33.512 489.073 67.533 489.073C101.554 489.073 129.134 481.487 129.134 472.13C129.135 469.615 127.126 467.23 123.55 465.083Z" fill="#95D6A4"/>
<path d="M129.89 479.69C138.395 475.779 133.763 447.538 119.542 416.612C105.321 385.687 86.8971 363.788 78.3912 367.699C69.8854 371.611 74.5183 399.851 88.7392 430.777C102.96 461.702 121.384 483.601 129.89 479.69Z" fill="#B3E59F"/>
<path d="M119.296 416.532C105.092 385.618 86.684 363.724 78.181 367.631C76.645 368.337 75.544 369.846 74.844 372.01C83.811 379.761 94.975 396.193 104.32 416.532C115.959 441.863 121.158 465.381 117.981 475.202C122.643 479.232 126.711 480.918 129.62 479.581C138.122 475.675 133.5 447.447 119.296 416.532Z" fill="#95D6A4"/>
<path d="M270.449 110.976V97.472L267.449 88.312H219.374L215.374 97.472V110.976C215.374 125.927 208.82 140.126 197.443 149.826L181.789 163.172C173.965 169.842 169.458 179.607 169.458 189.888V307.326L180.468 337.202L169.458 367.078V490.99C169.458 502.268 178.601 511.411 189.879 511.411H295.944C307.222 511.411 316.365 502.268 316.365 490.99V367.079L304.5 337.203L316.365 307.327V189.889C316.365 179.608 311.858 169.843 304.034 163.173L288.38 149.827C277.003 140.127 270.449 125.927 270.449 110.976Z" fill="#B3E59F"/>
<path d="M304.035 163.172L288.381 149.826C277.004 140.126 270.45 125.927 270.45 110.976V97.472L267.45 88.312H236.528V110.976C236.528 125.927 243.082 140.126 254.459 149.826L270.113 163.172C277.937 169.842 282.444 179.607 282.444 189.888V490.99C282.444 502.268 273.301 511.411 262.023 511.411H295.945C307.223 511.411 316.366 502.268 316.366 490.99V367.079L304.5 337.203L316.365 307.327V189.888C316.365 179.607 311.859 169.843 304.035 163.172Z" fill="#95D6A4"/>
<path d="M297.062 481.934C289.233 481.934 281.791 478.439 276.873 472.347C268.875 462.439 256.637 456.1 242.911 456.1C229.186 456.1 216.947 462.439 208.949 472.347C204.032 478.439 196.589 481.934 188.76 481.934H169.457V490.99C169.457 502.268 178.6 511.411 189.878 511.411H295.943C307.221 511.411 316.364 502.268 316.364 490.99V481.934H297.062Z" fill="#CCF49F"/>
<path d="M297.062 481.934C291.796 481.934 286.709 480.347 282.443 477.457V490.99C282.443 502.268 273.3 511.411 262.022 511.411H295.944C307.222 511.411 316.365 502.268 316.365 490.99V481.934H297.062Z" fill="#B3E59F"/>
<path d="M316.365 307.327H291.869C287.851 307.327 283.94 305.805 281.125 302.939C271.565 293.206 257.982 287.125 242.912 287.125C227.841 287.125 214.258 293.206 204.699 302.939C201.884 305.805 197.973 307.327 193.955 307.327H169.459V367.079H193.955C197.973 367.079 201.884 368.601 204.699 371.467C214.259 381.2 227.842 387.281 242.912 387.281C257.983 387.281 271.566 381.2 281.125 371.467C283.94 368.601 287.851 367.079 291.869 367.079H316.365V307.327Z" fill="#F9EFDA"/>
<path d="M316.365 307.327H291.869C288.443 307.327 285.101 306.211 282.443 304.108V370.299C285.101 368.196 288.443 367.08 291.869 367.08H316.365V307.327Z" fill="#F4DDB1"/>
<path d="M265.562 332.606H222.735C218.506 332.606 215.077 329.177 215.077 324.948C215.077 320.719 218.506 317.29 222.735 317.29H265.562C269.792 317.29 273.22 320.719 273.22 324.948C273.22 329.177 269.792 332.606 265.562 332.606Z" fill="#EFCB84"/>
<path d="M254.678 362.35H233.619C229.39 362.35 225.961 358.921 225.961 354.692C225.961 350.463 229.39 347.034 233.619 347.034H254.678C258.908 347.034 262.336 350.463 262.336 354.692C262.336 358.921 258.908 362.35 254.678 362.35Z" fill="#EFCB84"/>
<path d="M440.858 378.331L419.199 356.672L469.324 306.547C473.267 302.604 475.437 297.363 475.437 291.787C475.437 280.277 466.074 270.913 454.564 270.913H411.872V240.282H454.564C482.964 240.282 506.068 263.387 506.068 291.787C506.068 305.545 500.71 318.479 490.983 328.207L440.858 378.331Z" fill="#FFD064"/>
<path d="M484.477 249.899C490.522 258.339 494.095 268.664 494.095 279.814C494.095 293.572 488.737 306.506 479.01 316.234L428.885 366.358L440.859 378.332L490.984 328.208C500.712 318.481 506.069 305.547 506.069 291.788C506.068 274.537 497.535 259.251 484.477 249.899Z" fill="#FFC250"/>
<path d="M435.949 511.411H358.869C346.155 511.411 335.848 501.104 335.848 488.39C335.848 475.676 346.155 465.369 358.869 465.369H435.949C448.663 465.369 458.97 475.676 458.97 488.39C458.97 501.104 448.663 511.411 435.949 511.411Z" fill="#FFD064"/>
<path d="M447.378 468.409C447.506 469.393 447.579 470.394 447.579 471.413C447.579 484.127 437.272 494.434 424.558 494.434H347.478C343.317 494.434 339.417 493.324 336.049 491.393C337.522 502.687 347.173 511.41 358.869 511.41H435.949C448.663 511.41 458.97 501.103 458.97 488.389C458.97 479.836 454.302 472.378 447.378 468.409Z" fill="#FFC250"/>
<path d="M423.14 320.803L423.395 223.74C423.401 221.509 424.03 219.309 425.28 217.46C430.453 209.809 424.968 199.51 415.754 199.51H354.505C345.624 199.51 341.902 210.851 349.055 216.114L359.238 223.606C367.157 229.432 371.832 238.677 371.832 248.508V320.754C371.832 333.614 364.005 345.293 351.98 349.853C320.728 361.706 299.404 385.404 299.404 412.71C299.404 451.882 343.282 483.636 397.408 483.636C451.534 483.636 495.412 451.881 495.412 412.71C495.412 385.424 474.12 361.741 442.906 349.88C430.904 345.319 423.107 333.643 423.14 320.803Z" fill="#FFD064"/>
<path d="M442.907 349.88C430.904 345.319 423.107 333.643 423.141 320.803L423.396 223.74C423.402 221.509 424.031 219.309 425.281 217.46C430.454 209.809 424.969 199.51 415.755 199.51H385.725C394.939 199.51 400.424 209.809 395.251 217.46C394.001 219.309 393.372 221.509 393.366 223.74L393.111 320.803C393.077 333.643 400.875 345.319 412.877 349.88C444.091 361.741 465.383 385.425 465.383 412.71C465.383 448.186 429.392 477.579 382.394 482.808C387.289 483.353 392.303 483.636 397.409 483.636C451.535 483.636 495.413 451.881 495.413 412.71C495.413 385.425 474.121 361.741 442.907 349.88Z" fill="#FFC250"/>
<path d="M215.375 19.794H270.45V97.472H215.375V19.794Z" fill="#756E78"/>
<path d="M236.528 19.794H270.45V97.472H236.528V19.794Z" fill="#665E66"/>
<path d="M253.786 0H232.038C219.309 0 208.99 10.319 208.99 23.048V42.692C208.99 45.453 211.229 47.692 213.99 47.692H215.437L242.912 39.188L270.449 47.692H271.833C274.594 47.692 276.833 45.453 276.833 42.692V23.048C276.834 10.319 266.515 0 253.786 0V0Z" fill="#A298A5"/>
<path d="M260.688 1.052C261.371 3.231 261.74 5.549 261.74 7.953V27.597C261.74 30.358 259.501 32.597 256.74 32.597H208.99V42.691C208.99 45.452 211.229 47.691 213.99 47.691H271.834C274.595 47.691 276.834 45.452 276.834 42.691V23.048C276.834 12.723 270.045 3.985 260.688 1.052Z" fill="#756E78"/>
<path d="M133.455 480.033C142.812 480.033 150.398 452.453 150.398 418.432C150.398 384.411 142.812 356.831 133.455 356.831C124.098 356.831 116.512 384.411 116.512 418.432C116.512 452.453 124.098 480.033 133.455 480.033Z" fill="#B3E59F"/>
<path d="M133.455 356.83C130.864 356.83 128.41 358.952 126.214 362.733C131.948 372.605 135.916 393.831 135.916 418.431C135.916 443.032 131.949 464.257 126.214 474.129C128.41 477.91 130.864 480.032 133.455 480.032C142.812 480.032 150.398 452.452 150.398 418.431C150.398 384.41 142.812 356.83 133.455 356.83Z" fill="#95D6A4"/>
<path d="M178.864 499.176C192.096 485.945 195.631 468.028 186.762 459.158C177.892 450.289 159.975 453.824 146.744 467.056C133.513 480.287 129.977 498.203 138.847 507.073C147.717 515.943 165.633 512.407 178.864 499.176Z" fill="#756E78"/>
<path d="M186.834 459.189C184.758 457.113 182.182 455.725 179.291 454.973C179.683 463.791 175.179 474.44 166.53 483.088C156.394 493.224 143.512 497.663 134.049 495.202C134.257 499.876 135.838 504.037 138.912 507.111C147.783 515.982 165.703 512.446 178.936 499.213C192.169 485.98 195.705 468.06 186.834 459.189Z" fill="#665E66"/>
<path d="M112.911 512C131.626 512 146.797 501.83 146.797 489.284C146.797 476.738 131.626 466.568 112.911 466.568C94.1963 466.568 79.025 476.738 79.025 489.284C79.025 501.83 94.1963 512 112.911 512Z" fill="#A298A5"/>
<path d="M133.991 471.504C134.027 471.933 134.049 472.364 134.049 472.799C134.049 485.345 118.878 495.515 100.163 495.515C92.192 495.515 84.87 493.665 79.084 490.578C80.086 502.522 94.845 512 112.911 512C131.626 512 146.797 501.829 146.797 489.284C146.797 482.081 141.791 475.666 133.991 471.504Z" fill="#8B818E"/>
<path d="M371.832 295.819V320.754C371.832 333.614 364.005 345.293 351.98 349.853C320.728 361.706 299.404 385.404 299.404 412.71C299.404 451.882 343.282 483.636 397.408 483.636C451.534 483.636 495.412 451.881 495.412 412.71C495.412 385.424 474.12 361.741 442.906 349.88C430.903 345.319 423.106 333.643 423.14 320.803L423.206 295.819H371.832Z" fill="#FFC250"/>
<path d="M382.393 482.809C387.288 483.354 392.302 483.637 397.408 483.637C451.534 483.637 495.412 451.882 495.412 412.711C495.412 385.425 474.12 361.742 442.906 349.881C430.903 345.32 423.106 333.644 423.14 320.804L423.206 295.82H393.176L393.11 320.804C393.076 333.644 400.874 345.32 412.876 349.881C444.09 361.742 465.382 385.426 465.382 412.711C465.382 448.187 429.392 477.579 382.393 482.809Z" fill="#EBB044"/>
<path d="M397.409 434.51C423.375 434.51 444.424 423.846 444.424 410.692C444.424 397.538 423.375 386.874 397.409 386.874C371.443 386.874 350.394 397.538 350.394 410.692C350.394 423.846 371.443 434.51 397.409 434.51Z" fill="#F9EFDA"/>
<path d="M402.872 154.023H382.104C377.133 154.023 373.104 158.052 373.104 163.023V222.74C373.104 227.711 377.133 231.74 382.104 231.74H402.872C407.843 231.74 411.872 227.711 411.872 222.74V163.023C411.872 158.053 407.843 154.023 402.872 154.023Z" fill="#9D6B6B"/>
<path d="M402.872 154.023H388.219C393.294 154.023 397.408 158.137 397.408 163.212V222.55C397.408 227.625 393.294 231.739 388.219 231.739H402.872C407.843 231.739 411.872 227.71 411.872 222.739V163.022C411.872 158.053 407.843 154.023 402.872 154.023Z" fill="#8B5E5E"/>
<path d="M411.872 222.74V199.51H373.104V222.74C373.104 227.711 377.133 231.74 382.104 231.74H402.872C407.843 231.74 411.872 227.711 411.872 222.74Z" fill="#AA8080"/>
<path d="M397.409 199.51V222.551C397.409 227.626 393.295 231.74 388.22 231.74H402.873C407.844 231.74 411.873 227.711 411.873 222.74V199.51H397.409Z" fill="#9D6B6B"/>
</g>
<defs>
<clipPath id="clip0">
<rect width="512" height="512" fill="white"/>
</clipPath>
</defs>
</svg>
