<svg width="512" height="512" viewBox="0 0 512 512" fill="none" xmlns="http://www.w3.org/2000/svg">
<path d="M436.185 32.138H404.875C388.51 32.138 374.818 43.877 372.319 60.05L366.763 96.012L12.214 178.895C4.214 180.763 -1.07 188.587 0.184 196.708L17.899 311.38C19.098 319.143 25.671 324.778 33.527 324.778H158.013L93.981 365.397C87.832 369.298 84.16 375.974 84.16 383.256V401.426C84.16 405.571 87.519 408.93 91.664 408.93C95.809 408.93 99.168 405.571 99.168 401.426V383.256C99.168 381.142 100.234 379.202 102.02 378.069L119.169 367.191H248.529L266.067 378.316C271.163 381.548 277.046 383.256 283.079 383.256H358.828L363.603 406.503C364.332 410.054 367.457 412.499 370.946 412.499C371.446 412.499 371.954 412.448 372.463 412.344C376.523 411.51 379.137 407.543 378.304 403.484L362.537 326.725C361.011 319.295 355.635 313.412 348.768 310.983L387.15 62.342C388.51 53.536 395.965 47.145 404.874 47.145H436.184C440.329 47.145 443.688 43.786 443.688 39.641C443.688 35.496 440.329 32.138 436.185 32.138ZM297.151 127.697L323.277 121.59L316.399 175.638L292.018 179.404L297.151 127.697ZM320.915 259.05L341.854 257.434L333.874 309.089C333.813 309.485 333.478 309.771 333.078 309.771H314.461L320.915 259.05ZM290.489 194.824L314.429 191.126L307.57 245.027L285.335 246.743L290.489 194.824ZM305.636 260.229C305.636 260.229 299.492 309.18 299.561 309.772H279.073C279.078 309.729 279.088 309.687 279.092 309.644L283.83 261.912L305.636 260.229ZM255.191 137.506L281.713 131.306L276.704 181.768L251.985 185.586L255.191 137.506ZM250.962 200.929L275.173 197.19L270.138 247.917L247.714 249.647L250.962 200.929ZM246.706 264.776L268.633 263.084C268.633 263.084 264.114 309.246 264.175 309.772H243.688L246.706 264.776ZM213.868 147.166L239.911 141.078L236.787 187.933L212.353 191.707L213.868 147.166ZM211.836 206.972L235.766 203.276L232.597 250.813L210.287 252.534L211.836 206.972ZM209.774 267.625L231.588 265.942L228.796 309.771H208.311L209.774 267.625ZM172.985 156.723L198.732 150.704L197.259 194.038L172.985 197.787V156.723ZM172.985 212.972L196.74 209.303L195.231 253.696L172.985 255.413V212.972ZM172.985 270.464L194.718 268.787C194.718 268.787 193.375 309.402 193.418 309.771H172.93C172.964 309.486 172.985 270.464 172.985 270.464ZM84.118 262.27L62.478 263.94L59.07 230.567L81.792 227.058L84.118 262.27ZM80.8 212.025L57.544 215.617L54.362 184.454L78.605 178.787L80.8 212.025ZM15.015 194.417C14.951 194.003 15.22 193.604 15.628 193.508L39.618 187.9L42.639 217.919L19.205 221.538L15.015 194.417ZM21.496 236.369L44.144 232.871L47.388 265.103L26.188 266.739L21.496 236.369ZM32.73 309.088L28.486 281.614L48.891 280.04L51.883 309.772H33.527C33.127 309.771 32.791 309.484 32.73 309.088ZM67.158 309.771L64.003 278.873L85.107 277.245L87.274 309.771H67.158ZM93.416 175.324L117.647 169.66L118.942 206.135L95.688 209.727L93.416 175.324ZM96.681 224.757L119.479 221.236L120.836 259.436L99.083 261.114L96.681 224.757ZM102.167 309.771L100.071 276.09L121.368 274.447L122.652 309.771H102.167ZM132.54 166.178L157.978 160.231V200.105L133.877 203.827L132.54 166.178ZM134.413 218.93L157.978 215.29V256.57L135.811 258.28L134.413 218.93ZM137.545 309.771L136.344 273.291L157.978 271.622L158.032 309.771H137.545ZM142.826 352.184L183.849 326.161L224.871 352.184H142.826ZM355.745 368.25H283.079C279.897 368.25 276.793 367.348 274.105 365.644L209.686 324.779H341.746C344.684 324.779 347.245 326.868 347.836 329.745L355.745 368.25ZM352.994 185.328L344.208 242.201L322.849 243.849L329.861 188.743L353.01 185.168C353.005 185.221 352.998 185.275 352.994 185.328ZM355.392 169.615L331.832 173.254L338.87 117.944L364.293 112.001L355.392 169.615Z" fill="#756E78"/>
<path d="M382.141 496.451C404.344 496.451 422.343 478.452 422.343 456.249C422.343 434.046 404.344 416.047 382.141 416.047C359.938 416.047 341.939 434.046 341.939 456.249C341.939 478.452 359.938 496.451 382.141 496.451Z" fill="#756E78"/>
<path d="M401.18 420.836C404.233 426.503 405.969 432.986 405.969 439.875C405.969 462.078 387.97 480.077 365.767 480.077C358.878 480.077 352.396 478.342 346.728 475.288C353.516 487.887 366.827 496.451 382.141 496.451C404.344 496.451 422.343 478.452 422.343 456.249C422.342 440.935 413.778 427.624 401.18 420.836Z" fill="#665E66"/>
<path d="M380.13 455.249C373.83 455.249 368.071 451.69 365.254 446.055L346.56 408.667C344.897 405.341 347.316 401.427 351.034 401.427H391.759C394.522 401.427 396.761 403.667 396.761 406.429V438.617C396.761 447.802 389.315 455.249 380.13 455.249Z" fill="#E4989D"/>
<path d="M391.759 401.427H373.613C376.376 401.427 378.615 403.667 378.615 406.429V438.617C378.615 444.453 375.604 449.577 371.056 452.546C373.707 454.273 376.842 455.249 380.129 455.249C389.315 455.249 396.761 447.803 396.761 438.617V406.429C396.761 403.666 394.522 401.427 391.759 401.427Z" fill="#E28086"/>
<path d="M102.07 496.451C124.273 496.451 142.272 478.452 142.272 456.249C142.272 434.046 124.273 416.047 102.07 416.047C79.867 416.047 61.868 434.046 61.868 456.249C61.868 478.452 79.867 496.451 102.07 496.451Z" fill="#756E78"/>
<path d="M121.109 420.836C124.162 426.503 125.898 432.986 125.898 439.875C125.898 462.078 107.899 480.077 85.696 480.077C78.807 480.077 72.325 478.342 66.657 475.288C73.445 487.887 86.756 496.451 102.07 496.451C124.273 496.451 142.272 478.452 142.272 456.249C142.272 440.935 133.708 427.624 121.109 420.836Z" fill="#665E66"/>
<path d="M100.059 455.249C93.759 455.249 88 451.69 85.183 446.055L66.489 408.667C64.826 405.341 67.245 401.427 70.963 401.427H111.688C114.451 401.427 116.69 403.667 116.69 406.429V438.617C116.691 447.802 109.245 455.249 100.059 455.249Z" fill="#E4989D"/>
<path d="M111.688 401.427H93.543C96.306 401.427 98.545 403.667 98.545 406.429V438.617C98.545 444.453 95.534 449.577 90.986 452.546C93.637 454.273 96.772 455.249 100.059 455.249C109.245 455.249 116.691 447.803 116.691 438.617V406.429C116.691 403.666 114.451 401.427 111.688 401.427Z" fill="#E28086"/>
<path d="M490.252 59.065H446.484C434.473 59.065 424.736 49.328 424.736 37.317V37.296C424.736 25.285 434.473 15.548 446.484 15.548H490.252C502.263 15.548 512 25.285 512 37.296V37.317C512 49.329 502.263 59.065 490.252 59.065Z" fill="#E4989D"/>
<path d="M499.518 17.624C498.473 28.667 489.177 37.307 477.861 37.307H434.114C430.795 37.307 427.652 36.561 424.838 35.232C424.773 35.915 424.737 36.607 424.737 37.307C424.737 49.324 434.479 59.065 446.495 59.065H490.242C502.259 59.065 512 49.324 512 37.307C512 28.609 506.894 21.106 499.518 17.624Z" fill="#E28086"/>
</svg>
