<svg width="512" height="512" viewBox="0 0 512 512" fill="none" xmlns="http://www.w3.org/2000/svg">
<g clip-path="url(#clip0)">
<path d="M294.779 111.678L280.31 55.442C279.369 51.783 278.892 48.021 278.892 44.243V9.988C278.892 4.472 274.42 0 268.904 0H227.883L193.401 14.625L158.919 0H118.025C112.509 0 108.037 4.472 108.037 9.988V43.75C108.037 47.528 107.561 51.29 106.619 54.949L92.023 111.679C90.914 115.988 90.353 120.42 90.353 124.869V379.876C90.353 400.69 107.226 417.563 128.04 417.563H258.761C279.575 417.563 296.448 400.69 296.448 379.876V124.869C296.448 120.419 295.887 115.987 294.779 111.678Z" fill="#AA8080"/>
<path d="M294.779 111.678L280.31 55.442C279.369 51.783 278.892 48.021 278.892 44.243V9.988C278.892 4.472 274.42 0 268.904 0H241.053C246.569 0 251.041 4.472 251.041 9.988V44.244C251.041 48.022 251.517 51.784 252.459 55.443L266.928 111.678C268.037 115.987 268.598 120.419 268.598 124.869V379.876C268.598 400.69 251.725 417.563 230.911 417.563H258.762C279.576 417.563 296.449 400.69 296.449 379.876V124.869C296.448 120.419 295.887 115.987 294.779 111.678Z" fill="#9D6B6B"/>
<path d="M106.62 54.949L92.024 111.679C90.915 115.988 90.354 120.42 90.354 124.869V143.561H296.448V124.869C296.448 120.419 295.887 115.988 294.778 111.678L280.31 55.442C279.802 53.467 279.441 51.46 279.206 49.438H107.674C107.438 51.294 107.087 53.134 106.62 54.949Z" fill="#9D6B6B"/>
<path d="M105.385 367.219C83.445 389.159 53.373 394.659 38.218 379.503C23.063 364.348 28.562 334.276 50.502 312.336C62.601 300.237 77.173 293.137 90.353 291.745C93.997 291.36 94.682 294.998 98.031 295.501C100.89 295.93 106.465 293.1 108.999 294.196C112.229 295.593 115.154 297.538 117.669 300.053C132.825 315.207 127.325 345.279 105.385 367.219Z" fill="#9D6B6B"/>
<path d="M294.779 111.678L280.31 55.442C279.802 53.467 279.441 51.46 279.206 49.438H251.355C251.59 51.46 251.951 53.466 252.459 55.442L266.928 111.677C268.037 115.986 268.598 120.418 268.598 124.868V143.56H296.449V124.868C296.448 120.419 295.887 115.987 294.779 111.678Z" fill="#8B5E5E"/>
<path d="M117.67 300.052C116.299 298.681 114.801 297.484 113.203 296.448C112.923 310.589 105.678 326.87 92.38 340.168C72.426 360.123 45.748 366.472 29.68 356.057C29.498 365.246 32.25 373.534 38.219 379.504C53.374 394.66 83.446 389.16 105.386 367.22C127.325 345.279 132.825 315.207 117.67 300.052Z" fill="#8B5E5E"/>
<path d="M224.702 207.176L198.138 187.627C195.321 185.554 191.483 185.554 188.666 187.627L162.102 207.176C160.783 208.147 158.92 207.205 158.92 205.567V0H227.884V49.439L216.438 96.5L227.883 143.561V205.567C227.883 207.204 226.021 208.146 224.702 207.176Z" fill="#F9EFDA"/>
<path d="M158.919 49.439H227.883V143.561H158.919V49.439Z" fill="#F4DDB1"/>
<path d="M108.994 294.208C92.754 287.186 68.803 294.036 50.502 312.336C28.562 334.276 23.062 364.348 38.218 379.503C41.829 383.114 46.293 385.539 51.285 386.861C55.621 384.789 60.032 381.772 64.564 377.241C89.988 351.817 68.306 330.135 93.729 304.712C98.955 299.487 104.02 296.271 108.994 294.208Z" fill="#AA8080"/>
<path d="M331.492 287.062C327.355 287.062 324.001 283.708 324.001 279.571V245.08C324.001 226.825 338.853 211.973 357.109 211.973H361.523C371.517 211.973 379.648 203.842 379.648 193.847C379.648 175.592 394.5 160.74 412.756 160.74H426.166C430.303 160.74 433.657 164.094 433.657 168.231C433.657 172.368 430.304 175.722 426.166 175.722H412.756C402.762 175.722 394.63 183.853 394.63 193.848C394.63 212.103 379.778 226.955 361.523 226.955H357.109C347.115 226.955 338.983 235.086 338.983 245.08V279.571C338.982 283.708 335.629 287.062 331.492 287.062Z" fill="#756E78"/>
<path d="M472.342 198.448H431.91C426.387 198.448 421.91 193.971 421.91 188.448V148.016C421.91 142.493 426.387 138.016 431.91 138.016H472.342C477.865 138.016 482.342 142.493 482.342 148.016V188.448C482.342 193.971 477.865 198.448 472.342 198.448Z" fill="#CCF49F"/>
<path d="M472.355 138.016H460.71V166.828C460.71 172.344 456.238 176.816 450.722 176.816H421.91V188.46C421.91 193.976 426.382 198.448 431.898 198.448H472.355C477.871 198.448 482.343 193.976 482.343 188.46V148.003C482.342 142.488 477.871 138.016 472.355 138.016Z" fill="#B3E59F"/>
<path d="M87.17 395.958C87.17 372.324 97.251 352.098 111.528 343.801C113.497 342.656 116.122 344.121 118.235 343.453C119.989 342.898 121.214 340.133 123.048 339.935C124.015 339.83 124.992 339.777 125.978 339.777C147.411 339.777 164.786 364.93 164.786 395.958C164.786 426.986 147.411 452.139 125.978 452.139C104.545 452.139 87.17 426.985 87.17 395.958Z" fill="#AA8080"/>
<path d="M125.978 339.777C124.992 339.777 124.015 339.831 123.048 339.936C119.902 340.279 116.526 343.846 117.756 344.64C131.314 353.398 140.767 373.075 140.767 395.957C140.767 420.915 129.522 442.059 113.969 449.382C117.752 451.163 121.786 452.138 125.979 452.138C147.412 452.138 164.787 426.985 164.787 395.957C164.786 364.93 147.411 339.777 125.978 339.777Z" fill="#9D6B6B"/>
<path d="M136.245 450.136C152.694 443.618 164.786 421.838 164.786 395.958C164.786 364.93 147.411 339.777 125.978 339.777C124.992 339.777 124.015 339.831 123.048 339.936C121.63 340.091 120.918 342.098 119.547 342.468C117.875 342.919 115.558 341.783 113.968 342.533C113.144 342.922 112.333 343.349 111.534 343.813C109.933 348.344 108.947 353.596 108.947 360.005C108.947 395.96 139.61 395.96 139.61 431.914C139.611 439.304 138.303 445.16 136.245 450.136Z" fill="#9D6B6B"/>
<path d="M125.978 339.777C121.79 339.777 117.764 340.761 113.986 342.541C129.53 349.872 140.766 371.009 140.766 395.957C140.766 403.719 139.678 411.113 137.712 417.838C138.901 421.877 139.61 426.48 139.61 431.913C139.61 439.303 138.302 445.158 136.244 450.135C152.693 443.617 164.785 421.837 164.785 395.957C164.786 364.93 147.411 339.777 125.978 339.777Z" fill="#8B5E5E"/>
<path d="M29.679 356.056C29.497 365.246 32.248 373.533 38.218 379.503C41.829 383.114 46.292 385.539 51.285 386.862C55.621 384.79 60.032 381.773 64.563 377.242C73.468 368.337 76.592 359.891 77.987 351.583C60.883 362.128 42.109 364.113 29.679 356.056Z" fill="#9D6B6B"/>
<path d="M193.401 297.09C230.161 297.09 259.961 283.724 259.961 267.236C259.961 250.748 230.161 237.382 193.401 237.382C156.641 237.382 126.841 250.748 126.841 267.236C126.841 283.724 156.641 297.09 193.401 297.09Z" fill="#FFD064"/>
<path d="M211.985 274.726H174.817C170.68 274.726 167.326 271.372 167.326 267.235C167.326 263.098 170.679 259.744 174.817 259.744H211.985C216.122 259.744 219.476 263.098 219.476 267.235C219.476 271.373 216.123 274.726 211.985 274.726Z" fill="#FFC250"/>
<path d="M209.299 0V195.841L224.701 207.176C226.02 208.147 227.882 207.205 227.882 205.567V143.56L216.438 96.5L227.883 49.439V0H209.299Z" fill="#F4DDB1"/>
<path d="M209.299 49.439H227.883V143.561H209.299V49.439Z" fill="#EFCB84"/>
<path d="M427.312 428.24L426.049 420.857L340.978 273.509C337.129 266.842 327.506 266.842 323.657 273.509L238.585 420.858L237.323 428.24H427.312Z" fill="#DDEAFB"/>
<path d="M388.248 428.24H427.312L426.049 420.857L340.967 273.49C337.123 266.832 327.512 266.832 323.668 273.49L311.973 293.746L386.577 422.964C387.541 424.634 388.079 426.433 388.248 428.24Z" fill="#CBE2FF"/>
<path d="M371.335 413.73C351.823 413.73 351.823 424.093 332.312 424.093C312.8 424.093 312.8 413.73 293.288 413.73C273.777 413.73 273.777 424.093 254.265 424.093C247.008 424.093 242.452 422.659 238.585 420.858L230.831 434.289C227.37 440.283 229.22 447.938 235.035 451.691L325.278 509.926C329.564 512.692 335.072 512.692 339.358 509.926L429.6 451.691C435.415 447.938 437.265 440.283 433.804 434.289L426.049 420.857C422.181 422.659 417.623 424.094 410.363 424.094C390.849 424.094 390.849 413.73 371.335 413.73Z" fill="#CCF49F"/>
<path d="M433.805 434.289L426.05 420.857C422.182 422.659 417.625 424.094 410.364 424.094C395.264 424.094 391.843 417.892 382.028 415.084L386.577 422.964C390.038 428.958 388.188 436.613 382.373 440.366L299.929 493.568L325.278 509.926C329.564 512.692 335.072 512.692 339.358 509.926L429.6 451.691C435.416 447.938 437.265 440.283 433.805 434.289Z" fill="#B3E59F"/>
<path d="M376.67 430.303C385.823 430.303 393.243 422.883 393.243 413.73C393.243 404.577 385.823 397.157 376.67 397.157C367.517 397.157 360.097 404.577 360.097 413.73C360.097 422.883 367.517 430.303 376.67 430.303Z" fill="#B3E59F"/>
<path d="M326.257 484.076C335.41 484.076 342.83 476.656 342.83 467.503C342.83 458.35 335.41 450.93 326.257 450.93C317.104 450.93 309.684 458.35 309.684 467.503C309.684 476.656 317.104 484.076 326.257 484.076Z" fill="#B3E59F"/>
<path d="M381.466 397.868C381.925 399.387 382.177 400.996 382.177 402.664C382.177 411.817 374.757 419.237 365.604 419.237C363.935 419.237 362.327 418.985 360.808 418.526C362.866 425.339 369.186 430.303 376.67 430.303C385.823 430.303 393.243 422.883 393.243 413.73C393.243 406.246 388.279 399.926 381.466 397.868Z" fill="#95D6A4"/>
<path d="M331.053 451.641C331.512 453.16 331.764 454.769 331.764 456.437C331.764 465.59 324.344 473.01 315.191 473.01C313.522 473.01 311.914 472.758 310.395 472.299C312.453 479.112 318.773 484.076 326.257 484.076C335.41 484.076 342.83 476.656 342.83 467.503C342.83 460.018 337.867 453.699 331.053 451.641Z" fill="#95D6A4"/>
<path d="M387.003 458.855C397.039 448.819 400.729 436.237 395.245 430.753C389.761 425.269 377.179 428.959 367.143 438.995C357.107 449.031 353.417 461.613 358.901 467.097C364.385 472.581 376.966 468.891 387.003 458.855Z" fill="#B3E59F"/>
<path d="M395.336 430.758C393.418 428.84 390.622 428.067 387.381 428.272C387 434.301 383.18 441.895 376.652 448.423C370.124 454.951 362.53 458.771 356.501 459.152C356.296 462.393 357.069 465.189 358.987 467.107C364.472 472.592 377.055 468.901 387.093 458.864C397.13 448.826 400.821 436.243 395.336 430.758Z" fill="#95D6A4"/>
<path d="M314.919 442.462C322.676 442.462 328.964 430.954 328.964 416.759C328.964 402.564 322.676 391.056 314.919 391.056C307.162 391.056 300.874 402.564 300.874 416.759C300.874 430.954 307.162 442.462 314.919 442.462Z" fill="#B3E59F"/>
<path d="M314.919 391.057C312.36 391.057 309.963 392.316 307.896 394.504C312.093 398.949 314.919 407.248 314.919 416.76C314.919 426.272 312.093 434.571 307.896 439.016C309.962 441.204 312.36 442.463 314.919 442.463C322.676 442.463 328.964 430.956 328.964 416.76C328.964 402.564 322.676 391.057 314.919 391.057Z" fill="#95D6A4"/>
<path d="M293.449 448.371C298.933 442.887 295.243 430.305 285.207 420.269C275.171 410.233 262.589 406.543 257.105 412.027C251.621 417.511 255.311 430.093 265.347 440.129C275.383 450.165 287.965 453.855 293.449 448.371Z" fill="#B3E59F"/>
<path d="M285.284 420.283C275.247 410.246 262.663 406.555 257.178 412.04C255.883 413.335 255.117 415.035 254.808 416.994C260.541 417.891 267.381 421.589 273.335 427.542C281.003 435.21 284.95 444.354 283.949 450.694C287.881 451.309 291.297 450.62 293.528 448.389C299.012 442.904 295.321 430.321 285.284 420.283Z" fill="#95D6A4"/>
</g>
<defs>
<clipPath id="clip0">
<rect width="512" height="512" fill="white"/>
</clipPath>
</defs>
</svg>
