<svg width="512" height="512" viewBox="0 0 512 512" fill="none" xmlns="http://www.w3.org/2000/svg">
<path d="M319.423 417.771H192.436C188.57 417.771 185.436 414.637 185.436 410.771V102.487C185.436 98.621 188.57 95.487 192.436 95.487H319.422C323.288 95.487 326.422 98.621 326.422 102.487V410.771C326.423 414.637 323.289 417.771 319.423 417.771Z" fill="#F9EFDA"/>
<path d="M226.12 160.672V95.487H291.304L226.12 160.672Z" fill="#EFCB84"/>
<path d="M417.571 512H290.584C286.718 512 283.584 508.866 283.584 505V357.76C283.584 353.894 286.718 350.76 290.584 350.76H417.57C421.436 350.76 424.57 353.894 424.57 357.76V505C424.571 508.866 421.437 512 417.571 512Z" fill="#F9EFDA"/>
<path d="M324.353 415.73V350.76H389.322L324.353 415.73Z" fill="#EFCB84"/>
<path d="M263.227 95.487L226.12 132.595V160.672L291.304 95.487H263.227Z" fill="#DAB46B"/>
<path d="M361.245 350.76L324.353 387.652V415.729L389.322 350.76H361.245Z" fill="#DAB46B"/>
<path d="M221.416 162.499H94.429C90.563 162.499 87.429 159.365 87.429 155.499V7C87.429 3.134 90.563 0 94.429 0H221.415C225.281 0 228.415 3.134 228.415 7V155.499C228.416 159.365 225.282 162.499 221.416 162.499Z" fill="#F9EFDA"/>
<path d="M319.423 95.487H302.716V387.064C302.716 390.93 299.582 394.064 295.716 394.064H185.437V410.771C185.437 414.637 188.571 417.771 192.437 417.771H319.423C323.289 417.771 326.423 414.637 326.423 410.771V102.487C326.423 98.621 323.289 95.487 319.423 95.487Z" fill="#F4DDB1"/>
<path d="M417.571 350.76H400.864V481.293C400.864 485.159 397.73 488.293 393.864 488.293H283.584V505C283.584 508.866 286.718 512 290.584 512H417.57C421.436 512 424.57 508.866 424.57 505V357.76C424.571 353.894 421.437 350.76 417.571 350.76Z" fill="#F4DDB1"/>
<path d="M221.416 0H204.709V131.791C204.709 135.657 201.575 138.791 197.709 138.791H87.429V155.498C87.429 159.364 90.563 162.498 94.429 162.498H221.415C225.281 162.498 228.415 159.364 228.415 155.498V7C228.416 3.134 225.282 0 221.416 0Z" fill="#F4DDB1"/>
<path d="M125.968 108.34C121.825 108.34 118.468 104.983 118.468 100.84V48.804H113.242C109.099 48.804 105.742 45.447 105.742 41.304C105.742 37.161 109.099 33.804 113.242 33.804H125.968C130.111 33.804 133.468 37.161 133.468 41.304V100.84C133.468 104.982 130.111 108.34 125.968 108.34Z" fill="#EFCB84"/>
<path d="M340.107 498.417C340.086 498.417 340.063 498.417 340.042 498.417C335.899 498.381 332.571 494.994 332.606 490.853C332.632 487.774 332.66 484.383 332.686 480.845H310.464C307.811 480.845 305.355 479.443 304.006 477.157C302.656 474.873 302.615 472.045 303.897 469.721C308.618 461.165 324.285 432.923 327.712 428.718C331.038 424.636 335.599 422.994 339.905 424.329C344.235 425.67 347.305 429.812 347.727 434.883C347.905 437.007 347.869 451.62 347.788 465.844H347.85C351.993 465.844 355.35 469.201 355.35 473.344C355.35 477.487 351.993 480.844 347.85 480.844H347.687C347.655 484.993 347.625 488.542 347.605 490.981C347.57 495.102 344.219 498.417 340.107 498.417ZM323.214 465.845H332.784C332.818 459.722 332.845 453.805 332.853 448.872C330.073 453.675 326.694 459.632 323.214 465.845Z" fill="#EFCB84"/>
<path d="M230.36 274.844C218.691 274.844 217.796 274.546 216.803 274.215C214.34 273.394 212.502 271.527 211.754 269.096C210.491 264.986 212.385 262.506 216.158 257.566C219.178 253.612 224.799 246.252 234.22 232.791C236.832 229.06 238.585 225.615 239.308 222.802C240.201 218.301 236.281 214.085 231.754 214.129C228.066 214.129 224.874 216.748 224.165 220.357C223.367 224.421 219.425 227.065 215.36 226.271C211.296 225.473 208.648 221.531 209.446 217.466C211.533 206.841 220.915 199.129 231.754 199.129C244.29 199.129 254.488 209.327 254.488 221.863C254.03 228.957 251.254 234.334 246.509 241.392C240.816 249.527 236.479 255.482 233.248 259.825C238.211 259.809 243.97 259.763 249.417 259.694C249.449 259.693 249.481 259.693 249.514 259.693C253.612 259.693 256.959 262.989 257.011 267.098C257.064 271.241 253.748 274.64 249.607 274.692C241.116 274.799 234.917 274.844 230.36 274.844Z" fill="#EFCB84"/>
<path d="M255.893 328.521C255.893 315.985 245.695 305.787 233.159 305.787C222.32 305.787 212.938 313.498 210.851 324.123C210.052 328.187 212.701 332.129 216.765 332.928C220.832 333.724 224.772 331.078 225.57 327.014C226.279 323.407 229.47 320.787 233.159 320.787C237.424 320.787 240.893 324.257 240.893 328.521C240.893 332.785 237.423 336.255 233.159 336.255C229.016 336.255 225.659 339.612 225.659 343.755C225.659 347.898 229.016 351.255 233.159 351.255C237.424 351.255 240.893 354.725 240.893 358.989C240.893 363.253 237.423 366.723 233.159 366.723C228.94 366.75 225.382 363.197 225.426 358.989C225.426 354.846 222.069 351.489 217.926 351.489C212.286 351.428 209.415 357.123 210.645 362.151C212.203 373.309 221.882 381.723 233.16 381.723C245.696 381.723 255.894 371.525 255.894 358.989C255.894 353.134 253.668 347.789 250.019 343.755C253.667 339.72 255.893 334.376 255.893 328.521Z" fill="#EFCB84"/>
<path d="M195.032 64.75H154.922C150.779 64.75 147.422 61.393 147.422 57.25C147.422 53.107 150.779 49.75 154.922 49.75H195.032C199.175 49.75 202.532 53.107 202.532 57.25C202.532 61.393 199.175 64.75 195.032 64.75Z" fill="#EFCB84"/>
<path d="M185.108 96.379H154.922C150.779 96.379 147.422 93.022 147.422 88.879C147.422 84.736 150.779 81.379 154.922 81.379H185.108C189.251 81.379 192.608 84.736 192.608 88.879C192.608 93.022 189.25 96.379 185.108 96.379Z" fill="#EFCB84"/>
<path d="M185.108 127.474H154.922C150.779 127.474 147.422 124.117 147.422 119.974C147.422 115.831 150.779 112.474 154.922 112.474H185.108C189.251 112.474 192.608 115.831 192.608 119.974C192.608 124.117 189.25 127.474 185.108 127.474Z" fill="#EFCB84"/>
<path d="M301.352 244.54H271.166C267.023 244.54 263.666 241.183 263.666 237.04C263.666 232.897 267.023 229.54 271.166 229.54H301.352C305.495 229.54 308.852 232.897 308.852 237.04C308.852 241.183 305.494 244.54 301.352 244.54Z" fill="#EFCB84"/>
<path d="M402.477 464.188H372.291C368.148 464.188 364.791 460.831 364.791 456.688C364.791 452.545 368.148 449.188 372.291 449.188H402.477C406.62 449.188 409.977 452.545 409.977 456.688C409.977 460.831 406.619 464.188 402.477 464.188Z" fill="#EFCB84"/>
<path d="M301.352 335.513H271.166C267.023 335.513 263.666 332.156 263.666 328.013C263.666 323.87 267.023 320.513 271.166 320.513H301.352C305.495 320.513 308.852 323.87 308.852 328.013C308.852 332.156 305.494 335.513 301.352 335.513Z" fill="#EFCB84"/>
<path d="M301.352 366.997H271.166C267.023 366.997 263.666 363.64 263.666 359.497C263.666 355.354 267.023 351.997 271.166 351.997H301.352C305.495 351.997 308.852 355.354 308.852 359.497C308.852 363.64 305.494 366.997 301.352 366.997Z" fill="#EFCB84"/>
</svg>
