<svg width="512" height="512" viewBox="0 0 512 512" fill="none" xmlns="http://www.w3.org/2000/svg">
<g clip-path="url(#clip0)">
<path d="M350.107 418.634L324.42 392.947C324.42 392.947 321.567 393.799 321.14 394.224C298.306 416.953 274.084 438.245 248.614 457.977C236.24 467.564 235.085 485.833 246.153 496.901C257.221 507.969 275.491 506.815 285.077 494.44C304.809 468.97 326.101 444.748 348.83 421.914C349.255 421.487 350.107 418.634 350.107 418.634Z" fill="#AA8080"/>
<path d="M335.941 406.467C312.732 429.676 291.012 454.327 270.911 480.274C263.508 489.829 250.931 492.687 240.487 488.401C241.752 491.482 243.632 494.38 246.153 496.901C257.221 507.969 275.491 506.815 285.077 494.441C304.809 468.971 326.101 444.749 348.83 421.915C349.255 421.488 350.107 418.635 350.107 418.635L335.941 406.467Z" fill="#9D6B6B"/>
<path d="M58.1 71.564L33.115 96.549L213.074 299.031L260.582 251.524L58.1 71.564Z" fill="#B3E59F"/>
<path d="M246.151 265.955L260.582 251.523L58.0999 71.564L43.6689 85.995L246.151 265.955Z" fill="#95D6A4"/>
<path d="M3.80198 97.541L0.175979 110.97C-0.730021 114.326 1.97998 117.559 5.44298 117.254L39.312 114.266C41.651 114.06 43.844 113.036 45.504 111.376L73.426 83.454C75.087 81.793 76.11 79.601 76.316 77.262L79.304 43.393C79.609 39.93 76.376 37.22 73.02 38.126L59.591 41.752C32.392 49.096 11.145 70.342 3.80198 97.541Z" fill="#A298A5"/>
<path d="M73.021 38.127L63.217 40.774L58.377 95.632C58.243 97.152 57.759 98.607 56.984 99.897L73.425 83.456C75.085 81.796 76.109 79.604 76.315 77.265L79.303 43.394C79.61 39.93 76.377 37.221 73.021 38.127Z" fill="#8B818E"/>
<path d="M420.462 236.771L398.545 214.854L471.98 141.419C477.799 135.6 481.004 127.862 481.004 119.632V69.292C481.004 52.303 467.182 38.481 450.193 38.481H278.187C261.198 38.481 247.376 52.303 247.376 69.292V114.541H216.38V69.293C216.38 35.213 244.106 7.48599 278.186 7.48599H450.193C484.273 7.48599 511.999 35.212 511.999 69.293V119.633C511.999 136.142 505.57 151.664 493.896 163.337L420.462 236.771Z" fill="#B3E59F"/>
<path d="M473.489 12.059C487.37 23.402 496.25 40.646 496.25 59.928V110.268C496.25 126.777 489.821 142.299 478.147 153.972L407.904 224.214L420.461 236.771L493.896 163.336C505.571 151.663 512 136.142 512 119.633V69.293C512 43.452 496.053 21.277 473.489 12.059Z" fill="#95D6A4"/>
<path d="M386.278 367.069H261.141C226.347 367.069 198.141 338.863 198.141 304.069V111.724C198.141 103.44 204.857 96.724 213.141 96.724H434.277C442.561 96.724 449.277 103.44 449.277 111.724V164.122L444.437 172.575L449.277 182.841V304.069C449.278 338.863 421.072 367.069 386.278 367.069Z" fill="#CCF49F"/>
<path d="M434.278 96.724H415.473V270.264C415.473 305.058 387.267 333.264 352.473 333.264H227.336C218.713 333.264 210.498 331.527 203.013 328.392C212.53 351.109 234.97 367.069 261.141 367.069H386.277C421.071 367.069 449.277 338.863 449.277 304.069V111.724C449.278 103.44 442.562 96.724 434.278 96.724Z" fill="#B3E59F"/>
<path d="M198.141 298.276V304.069C198.141 307.197 198.377 310.268 198.817 313.274H448.601C449.041 310.269 449.277 307.197 449.277 304.069V298.276H198.141Z" fill="#B3E59F"/>
<path d="M402.06 432.31L340.485 405.34L310.88 341.051C309.514 338.084 310.14 334.58 312.45 332.27L368.952 275.768C386.117 258.603 408.857 248.143 433.061 246.28L495.602 241.467C499.01 241.205 501.849 244.044 501.587 247.452L496.774 309.993C494.911 334.197 484.452 356.936 467.286 374.102L410.707 430.681C408.435 432.952 405.003 433.599 402.06 432.31Z" fill="#756E78"/>
<path d="M495.602 241.467L466.615 243.698L462.551 296.495C460.688 320.699 450.229 343.439 433.063 360.604L373.754 419.913L402.058 432.31C405.001 433.599 408.434 432.952 410.706 430.68L467.285 374.101C484.451 356.936 494.91 334.196 496.773 309.992L501.586 247.451C501.849 244.044 499.01 241.205 495.602 241.467Z" fill="#665E66"/>
<path d="M323.71 269.221C319.568 269.221 316.211 265.864 316.211 261.722V219.728C316.211 215.586 319.568 212.229 323.71 212.229C327.852 212.229 331.209 215.586 331.209 219.728V261.722C331.209 265.864 327.851 269.221 323.71 269.221Z" fill="#95D6A4"/>
<path d="M292.856 200.866L320.699 144.902C321.936 142.416 325.483 142.416 326.72 144.902L354.563 200.866H292.856Z" fill="#E28086"/>
<path d="M323.71 234.603C297.226 234.603 275.757 213.134 275.757 186.65V152.339C275.757 149.23 279.614 147.786 281.655 150.131L320.693 194.965C322.287 196.796 325.131 196.796 326.726 194.965L365.764 150.131C367.806 147.786 371.662 149.23 371.662 152.339V186.65C371.663 213.133 350.193 234.603 323.71 234.603Z" fill="#E4989D"/>
<path d="M348.828 421.913L321.141 394.226L373.819 341.548C381.465 333.902 393.861 333.902 401.506 341.548C409.152 349.194 409.152 361.59 401.506 369.235L348.828 421.913Z" fill="#A298A5"/>
<path d="M401.506 341.548C398.914 338.956 395.771 337.265 392.458 336.43C394.085 342.891 392.394 350.015 387.34 355.069C387.34 355.069 335.098 407.329 334.672 407.757L348.828 421.913L401.506 369.235C409.152 361.589 409.152 349.193 401.506 341.548Z" fill="#8B818E"/>
<path d="M56.6429 185.64C56.6429 196.119 48.1479 204.614 37.6689 204.614C27.1899 204.614 18.6949 196.119 18.6949 185.64C18.6949 177.449 30.2879 157.493 35.3499 149.169C36.4079 147.429 38.9289 147.429 39.9869 149.169C45.0509 157.493 56.6429 177.449 56.6429 185.64Z" fill="#DDEAFB"/>
<path d="M56.6429 272.978C56.6429 283.457 48.1479 291.952 37.6689 291.952C27.1899 291.952 18.6949 283.457 18.6949 272.978C18.6949 264.787 30.2879 244.831 35.3499 236.507C36.4079 234.767 38.9289 234.767 39.9869 236.507C45.0509 244.831 56.6429 264.787 56.6429 272.978Z" fill="#DDEAFB"/>
<path d="M39.9879 149.169C38.9299 147.429 36.4089 147.429 35.3509 149.169C34.2289 151.014 32.7859 153.431 31.2199 156.163C33.9819 162.044 36.0449 167.588 36.0449 171.041C36.0449 180.803 28.6709 188.835 19.1909 189.89C21.1229 198.32 28.6539 204.615 37.6699 204.615C48.1489 204.615 56.6439 196.12 56.6439 185.641C56.6429 177.449 45.0509 157.493 39.9879 149.169Z" fill="#CBE2FF"/>
<path d="M39.9879 236.507C38.9299 234.767 36.4089 234.767 35.3509 236.507C34.2289 238.352 32.7859 240.769 31.2199 243.501C33.9819 249.382 36.0449 254.926 36.0449 258.379C36.0449 268.141 28.6709 276.173 19.1909 277.228C21.1229 285.658 28.6539 291.953 37.6699 291.953C48.1489 291.953 56.6439 283.458 56.6439 272.979C56.6429 264.787 45.0509 244.831 39.9879 236.507Z" fill="#CBE2FF"/>
</g>
<defs>
<clipPath id="clip0">
<rect width="512" height="512" fill="white"/>
</clipPath>
</defs>
</svg>
