<svg width="512" height="512" viewBox="0 0 512 512" fill="none" xmlns="http://www.w3.org/2000/svg">
<path d="M255.21 60.014L251.108 77.756C243.156 112.155 221.864 141.986 191.917 160.687L186.847 163.853C184.933 165.048 185.86 168.007 188.113 167.897L190.933 167.759C235.346 165.588 275.328 140.172 296.143 100.878L304.62 84.876L255.21 60.014Z" fill="#B3E59F"/>
<path d="M283.218 74.107L276.831 86.164C262.936 112.395 240.492 132.429 213.897 143.504C207.24 149.936 199.889 155.71 191.917 160.688L186.847 163.854C184.933 165.049 185.86 168.008 188.113 167.897L190.933 167.759C235.346 165.588 275.328 140.172 296.143 100.878L304.62 84.876L283.218 74.107Z" fill="#95D6A4"/>
<path d="M450.189 106.767L406.32 20.661C399.861 7.983 386.835 0 372.606 0H244.48L237 3V60.811L244.48 65.481L257.483 68.383C267.664 70.655 274.904 79.689 274.904 90.12V119.691C274.904 125.735 279.804 130.635 285.848 130.635H435.563C447.82 130.635 455.754 117.689 450.189 106.767Z" fill="#DDEAFB"/>
<path d="M418.099 303.875L413.886 291.016C410.928 283.811 409.34 275.999 409.34 267.969V259.067C409.34 244.418 399.611 232.047 386.264 228.048C383.306 227.162 381.282 224.439 381.282 221.35V162.253H306.688V221.35C306.688 224.438 304.664 227.162 301.706 228.048C288.358 232.047 278.63 244.417 278.63 259.067V267.969C278.63 275.999 277.042 283.811 274.084 291.016L269.871 303.875H418.099Z" fill="#DDEAFB"/>
<path d="M346.9 228.049C360.248 232.048 369.976 244.418 369.976 259.068V267.97C369.976 281.085 374.21 293.617 381.734 303.876H418.099L413.886 291.017C410.928 283.812 409.34 276 409.34 267.97V259.068C409.34 244.419 399.611 232.048 386.264 228.049C383.306 227.163 381.282 224.44 381.282 221.351V162.254H341.917V221.351C341.918 224.44 343.941 227.163 346.9 228.049Z" fill="#CBE2FF"/>
<path d="M343.985 303.875C339.84 303.875 336.48 300.515 336.48 296.37V179.917C336.48 175.772 339.84 172.412 343.985 172.412C348.13 172.412 351.49 175.772 351.49 179.917V296.37C351.491 300.515 348.131 303.875 343.985 303.875Z" fill="#9DC6FB"/>
<path d="M450.19 106.767L406.32 20.661C399.861 7.983 386.835 0 372.606 0H338.254C352.483 0 365.509 7.983 371.968 20.661L415.837 106.767C421.401 117.689 413.467 130.635 401.21 130.635H435.562C447.82 130.635 455.754 117.689 450.19 106.767Z" fill="#CBE2FF"/>
<path d="M244.48 0H199.123C194.288 0 190.368 3.92 190.368 8.755V46.386C190.368 50.487 193.214 54.038 197.216 54.931L244.48 65.48V0Z" fill="#B3E59F"/>
<path d="M225.904 0V61.334L244.48 65.48V0H225.904Z" fill="#95D6A4"/>
<path d="M391.139 190.097H296.832C291.309 190.097 286.832 185.62 286.832 180.097V140.755C286.832 135.232 291.309 130.755 296.832 130.755H391.139C396.662 130.755 401.139 135.232 401.139 140.755V180.097C401.139 185.62 396.661 190.097 391.139 190.097Z" fill="#CCF49F"/>
<path d="M391.132 130.755H384.779V163.729C384.779 169.256 380.299 173.736 374.772 173.736H286.833V180.089C286.833 185.616 291.313 190.096 296.84 190.096H391.133C396.66 190.096 401.14 185.616 401.14 180.089V140.761C401.139 135.235 396.658 130.755 391.132 130.755Z" fill="#B3E59F"/>
<path d="M336.48 130.755H351.491V190.097H336.48V130.755Z" fill="#B3E59F"/>
<path d="M366.552 130.755H381.563V190.097H366.552V130.755Z" fill="#B3E59F"/>
<path d="M306.26 130.755H321.271V190.097H306.26V130.755Z" fill="#B3E59F"/>
<path d="M306.26 173.736H321.27V190.097H306.26V173.736Z" fill="#95D6A4"/>
<path d="M336.48 173.736H351.49V190.097H336.48V173.736Z" fill="#95D6A4"/>
<path d="M381.562 171.064C379.777 172.717 377.396 173.736 374.771 173.736H366.552V190.097H381.562V171.064Z" fill="#95D6A4"/>
<path d="M249.823 319.62C231.917 330.68 221.016 350.224 221.016 371.27V481.979C221.016 498.559 234.457 512 251.037 512H436.932C453.512 512 466.953 498.559 466.953 481.979V454.641L447.271 415.24L466.953 375.839V371.27C466.953 350.224 456.053 330.679 438.146 319.62C427.072 312.78 418.682 302.693 413.889 291.015H274.081C269.287 302.693 260.897 312.78 249.823 319.62Z" fill="#9DC6FB"/>
<path d="M438.147 319.62C427.073 312.78 418.683 302.693 413.89 291.015H374.525C379.319 302.693 387.709 312.78 398.782 319.62C416.688 330.68 427.589 350.224 427.589 371.27V481.979C427.589 498.559 414.148 512 397.568 512H436.932C453.512 512 466.953 498.559 466.953 481.979V454.641L447.271 415.24L466.953 375.839V371.27C466.954 350.224 456.053 330.679 438.147 319.62Z" fill="#80B4FB"/>
<path d="M343.985 456.649C339.84 456.649 336.48 453.289 336.48 449.144V291.014H351.49V449.143C351.491 453.289 348.13 456.649 343.985 456.649Z" fill="#80B4FB"/>
<path d="M466.954 454.641V375.839C460.676 374.541 453.984 373.831 447.03 373.831C411.279 373.831 382.297 392.37 382.297 415.24C382.297 438.109 411.279 456.649 447.03 456.649C453.984 456.649 460.676 455.939 466.954 454.641Z" fill="#F9EFDA"/>
<path d="M466.954 454.641V375.839C460.676 374.541 453.984 373.831 447.03 373.831C440.256 373.831 433.726 374.499 427.589 375.734V454.745C433.726 455.98 440.256 456.648 447.03 456.648C453.984 456.649 460.676 455.939 466.954 454.641Z" fill="#F4DDB1"/>
<path d="M286.336 512H68.145C64.831 512 62.145 509.314 62.145 506V455.711H292.336V506C292.336 509.314 289.649 512 286.336 512Z" fill="#F9EFDA"/>
<path d="M275.473 455.711V489.138C275.473 492.452 272.787 495.138 269.473 495.138H62.145V506C62.145 509.314 64.831 512 68.145 512H286.336C289.65 512 292.336 509.314 292.336 506V455.711H275.473Z" fill="#F4DDB1"/>
<path d="M219.205 320.754H135.274C85.4419 320.754 45.0459 361.151 45.0459 410.982V443.765C45.0459 453.16 52.6619 460.777 62.0579 460.777H292.422C301.817 460.777 309.434 453.161 309.434 443.765V410.983C309.434 361.151 269.037 320.754 219.205 320.754ZM75.0669 410.983C75.0669 377.731 102.023 350.775 135.275 350.775H219.204C252.456 350.775 279.412 377.731 279.412 410.983V411.965C279.412 414.176 277.62 415.968 275.409 415.968H79.0699C76.8589 415.968 75.0669 414.176 75.0669 411.965V410.983Z" fill="#E4989D"/>
<path d="M274.992 340.063C286.711 355.287 293.684 374.352 293.684 395.049V427.831C293.684 437.226 286.067 444.843 276.672 444.843H46.3079C45.8989 444.843 45.4989 444.81 45.0969 444.782C45.6259 453.701 53.0059 460.777 62.0579 460.777H292.422C301.817 460.777 309.434 453.161 309.434 443.765V410.983C309.434 382.21 295.966 356.585 274.992 340.063Z" fill="#E28086"/>
<path d="M95.0718 512H80.0608V495.989C80.0608 491.844 83.4208 488.484 87.5658 488.484C91.7108 488.484 95.0708 491.844 95.0708 495.989V512H95.0718Z" fill="#F4DDB1"/>
<path d="M124.718 512H109.708V495.989C109.708 491.844 113.068 488.484 117.213 488.484C121.358 488.484 124.718 491.844 124.718 495.989V512Z" fill="#F4DDB1"/>
<path d="M154.363 512H139.353V495.989C139.353 491.844 142.713 488.484 146.858 488.484C151.003 488.484 154.363 491.844 154.363 495.989V512Z" fill="#F4DDB1"/>
<path d="M184.009 512H168.999V495.989C168.999 491.844 172.359 488.484 176.504 488.484C180.649 488.484 184.009 491.844 184.009 495.989V512Z" fill="#F4DDB1"/>
<path d="M213.655 512H198.645V495.989C198.645 491.844 202.005 488.484 206.15 488.484C210.295 488.484 213.655 491.844 213.655 495.989V512Z" fill="#F4DDB1"/>
<path d="M243.301 512H228.291V495.989C228.291 491.844 231.651 488.484 235.796 488.484C239.941 488.484 243.301 491.844 243.301 495.989V512Z" fill="#F4DDB1"/>
<path d="M272.946 512H257.936V495.989C257.936 491.844 261.296 488.484 265.441 488.484C269.586 488.484 272.946 491.844 272.946 495.989V512Z" fill="#F4DDB1"/>
<path d="M154.312 495.138H139.405C139.373 495.418 139.353 495.701 139.353 495.989V512H154.363V495.989C154.363 495.701 154.344 495.417 154.312 495.138Z" fill="#EFCB84"/>
<path d="M213.603 495.138H198.696C198.664 495.418 198.644 495.701 198.644 495.989V512H213.654V495.989C213.655 495.701 213.635 495.417 213.603 495.138Z" fill="#EFCB84"/>
<path d="M243.249 495.138H228.342C228.31 495.418 228.29 495.701 228.29 495.989V512H243.3V495.989C243.301 495.701 243.281 495.417 243.249 495.138Z" fill="#EFCB84"/>
<path d="M95.0718 495.989C95.0718 495.701 95.0518 495.418 95.0198 495.138H80.1128C80.0808 495.418 80.0608 495.701 80.0608 495.989V512H95.0708V495.989H95.0718Z" fill="#EFCB84"/>
<path d="M124.718 495.989C124.718 495.701 124.698 495.418 124.666 495.138H109.759C109.727 495.418 109.707 495.701 109.707 495.989V512H124.717V495.989H124.718Z" fill="#EFCB84"/>
<path d="M183.958 495.138H169.05C169.018 495.418 168.998 495.701 168.998 495.989V512H184.008V495.989C184.009 495.701 183.989 495.417 183.958 495.138Z" fill="#EFCB84"/>
<path d="M272.718 494.18C271.782 494.784 270.67 495.138 269.473 495.138H257.987C257.955 495.418 257.935 495.701 257.935 495.989V512H272.945V495.989C272.946 495.364 272.862 494.76 272.718 494.18Z" fill="#EFCB84"/>
</svg>
