<svg width="512" height="390" viewBox="0 0 512 390" fill="none" xmlns="http://www.w3.org/2000/svg">
<path d="M493.515 310.543H280.546V202.917L292.811 165.732L280.546 128.547V15.3019H493.515V128.547L478.606 165.732L493.515 202.917V310.543Z" fill="#E4989D"/>
<path d="M463.696 15.3019V251.861C463.696 260.145 456.98 266.861 448.696 266.861H280.546V310.544H493.515V202.917L478.606 165.732L493.515 128.547V15.3019H463.696Z" fill="#E28086"/>
<path d="M496.976 30.326H277.557C269.441 30.326 262.434 24.09 262.077 15.982C261.697 7.37496 268.563 0.277954 277.086 0.277954H496.505C504.621 0.277954 511.628 6.51396 511.985 14.622C512.365 23.229 505.499 30.326 496.976 30.326Z" fill="#F9EFDA"/>
<path d="M501.219 1.00995C500.836 8.96695 494.272 15.302 486.221 15.302H266.801C265.168 15.302 263.585 15.0389 262.087 14.57C262.065 15.0359 262.055 15.506 262.076 15.982C262.434 24.09 269.44 30.3259 277.556 30.3259H496.975C505.498 30.3259 512.364 23.229 511.984 14.622C511.699 8.14495 507.166 2.87295 501.219 1.00995Z" fill="#F4DDB1"/>
<path d="M496.976 325.568H277.557C269.441 325.568 262.434 319.332 262.077 311.224C261.697 302.617 268.563 295.52 277.086 295.52H496.505C504.621 295.52 511.628 301.756 511.985 309.864C512.365 318.47 505.499 325.568 496.976 325.568Z" fill="#F9EFDA"/>
<path d="M501.223 296.253C501.148 304.487 494.471 311.143 486.22 311.143H266.801C265.166 311.143 263.582 310.879 262.082 310.409C262.08 310.68 262.063 310.948 262.076 311.223C262.434 319.331 269.44 325.567 277.556 325.567H496.975C505.498 325.567 512.364 318.47 511.984 309.863C511.699 303.388 507.168 298.117 501.223 296.253Z" fill="#F4DDB1"/>
<path d="M493.515 128.547H459.817C453.006 128.547 446.488 125.507 442.315 120.124C429.526 103.622 409.525 92.9929 387.031 92.9929C364.537 92.9929 344.535 103.621 331.747 120.124C327.575 125.508 321.057 128.547 314.245 128.547H280.547V202.917H319.168C325.345 202.917 331.241 205.507 335.406 210.067C348.19 224.065 366.581 232.852 387.032 232.852C407.483 232.852 425.874 224.065 438.658 210.067C442.823 205.506 448.719 202.917 454.896 202.917H493.517V128.547H493.515Z" fill="#FFD064"/>
<path d="M463.696 128.547H493.515V202.917H463.696V128.547Z" fill="#FFC250"/>
<path d="M409.795 144.51H364.265C360.116 144.51 356.753 141.147 356.753 136.998C356.753 132.849 360.116 129.486 364.265 129.486H409.795C413.944 129.486 417.307 132.849 417.307 136.998C417.307 141.147 413.945 144.51 409.795 144.51Z" fill="#E28086"/>
<path d="M434.416 177.872H339.645C335.496 177.872 332.133 174.509 332.133 170.36C332.133 166.211 335.496 162.848 339.645 162.848H434.416C438.565 162.848 441.928 166.211 441.928 170.36C441.928 174.509 438.565 177.872 434.416 177.872Z" fill="#E28086"/>
<path d="M326.275 382.211H57.512C29.898 382.211 7.51196 359.825 7.51196 332.211V209.978C7.51196 182.364 29.898 159.978 57.512 159.978H326.275C353.889 159.978 376.275 182.364 376.275 209.978V332.211C376.275 359.825 353.889 382.211 326.275 382.211Z" fill="#F4DDB1"/>
<path d="M327.784 160.018C327.801 160.547 327.824 161.074 327.824 161.607V317.831C327.824 326.628 320.693 333.759 311.896 333.759H9.141C8.608 333.759 8.081 333.735 7.552 333.719C8.393 360.641 30.467 382.21 57.593 382.21H326.195C353.854 382.21 376.276 359.788 376.276 332.129V210.059C376.275 182.933 354.705 160.86 327.784 160.018Z" fill="#EFCB84"/>
<path d="M326.195 389.723H57.593C25.836 389.723 0 363.887 0 332.13V210.059C0 178.302 25.836 152.466 57.593 152.466H326.195C357.952 152.466 383.788 178.302 383.788 210.059V332.13C383.788 363.887 357.952 389.723 326.195 389.723ZM57.593 167.49C34.121 167.49 15.024 186.586 15.024 210.059V332.13C15.024 355.602 34.12 374.699 57.593 374.699H326.195C349.667 374.699 368.764 355.603 368.764 332.13V210.059C368.764 186.587 349.668 167.49 326.195 167.49H57.593Z" fill="#F9EFDA"/>
<path d="M265.438 326.097H118.388C103.295 326.097 91.016 313.817 91.016 298.725V242.901C91.016 227.808 103.296 215.529 118.388 215.529H265.438C280.531 215.529 292.81 227.809 292.81 242.901V298.725C292.811 313.818 280.531 326.097 265.438 326.097ZM118.388 230.553C111.579 230.553 106.04 236.092 106.04 242.901V298.725C106.04 305.534 111.579 311.073 118.388 311.073H265.438C272.247 311.073 277.786 305.534 277.786 298.725V242.901C277.786 236.092 272.247 230.553 265.438 230.553H118.388Z" fill="#EFCB84"/>
<path d="M118.844 225.914C91.6239 225.914 64.5979 230.498 38.8999 239.473C28.7459 243.019 21.9449 252.598 21.9449 263.354V278.836C21.9449 289.591 28.7459 299.171 38.8999 302.717C64.5979 311.692 91.6239 316.275 118.844 316.275C132.673 316.275 143.884 305.064 143.884 291.235V250.955C143.885 237.125 132.674 225.914 118.844 225.914ZM123.647 277.295C123.647 285.946 116.634 292.959 107.983 292.959C99.3319 292.959 92.3189 285.946 92.3189 277.295V264.33C92.3189 255.679 99.3319 248.666 107.983 248.666C116.634 248.666 123.647 255.679 123.647 264.33V277.295Z" fill="#A298A5"/>
<path d="M128.138 227.703C128.985 230.216 129.452 232.905 129.452 235.704V275.984C129.452 289.814 118.241 301.025 104.412 301.025C77.192 301.025 50.166 296.442 24.468 287.467C24.076 287.33 23.698 287.168 23.316 287.013C25.782 294.223 31.427 300.107 38.901 302.717C64.599 311.692 91.625 316.275 118.845 316.275C132.674 316.275 143.885 305.064 143.885 291.234V250.954C143.885 240.41 137.364 231.395 128.138 227.703Z" fill="#8B818E"/>
<path d="M50.122 280.308C55.2107 280.308 59.336 276.183 59.336 271.094C59.336 266.005 55.2107 261.88 50.122 261.88C45.0332 261.88 40.908 266.005 40.908 271.094C40.908 276.183 45.0332 280.308 50.122 280.308Z" fill="#756E78"/>
<path d="M208.485 278.627H175.342C171.193 278.627 167.83 275.264 167.83 271.115C167.83 266.966 171.193 263.603 175.342 263.603H208.485C212.634 263.603 215.997 266.966 215.997 271.115C215.997 275.264 212.634 278.627 208.485 278.627Z" fill="#EFCB84"/>
</svg>
