<svg width="340" height="512" viewBox="0 0 340 512" fill="none" xmlns="http://www.w3.org/2000/svg">
<path d="M26.8901 236.962C26.4281 234.84 28.2521 232.924 30.3831 233.344C41.3611 235.508 68.7491 243.224 78.0451 267.36C92.8711 305.852 148.374 264.786 103.019 226.672C68.4421 197.615 84.2161 178.963 93.1411 144.039C103.019 105.385 83.2351 98.562 93.3901 60.58C104.044 20.729 158.913 3.79402 176.309 0.0480204C178.14 -0.34598 179.493 1.71402 178.399 3.23402C156.302 33.916 153.892 84.342 185.133 119.069C209.747 146.43 240.391 153.397 272.623 180.397C322.867 222.485 343.516 276.707 338.301 349.796C334.695 439.987 260.453 512 169.379 512C80.8241 512 8.18106 443.915 0.914062 357.238C0.914062 275.268 34.1661 270.411 26.8901 236.962Z" fill="#FFD064"/>
<path d="M272.623 180.398C240.391 153.398 209.747 146.431 185.133 119.07C153.892 84.342 156.301 33.917 178.399 3.235C179.494 1.715 178.14 -0.345003 176.309 0.048997C167.493 1.947 149.054 7.236 131.622 17.175C117.584 47.72 119.543 89.197 146.416 119.07C171.03 146.431 201.674 153.398 233.906 180.398C284.15 222.486 304.799 276.708 299.584 349.797C296.237 433.507 232.035 501.546 150.007 510.893C156.365 511.618 162.827 512 169.378 512C260.452 512 334.695 439.987 338.301 349.797C343.516 276.708 322.867 222.486 272.623 180.398Z" fill="#FFC250"/>
<path d="M170.37 439.158C233.578 439.158 284.819 387.917 284.819 324.709C284.819 261.501 233.578 210.26 170.37 210.26C107.162 210.26 55.921 261.501 55.921 324.709C55.921 387.917 107.162 439.158 170.37 439.158Z" fill="#E4989D"/>
<path d="M229.781 226.87C240.32 244.189 246.391 264.525 246.391 286.281C246.391 349.489 195.15 400.73 131.942 400.73C110.187 400.73 89.85 394.659 72.531 384.12C92.612 417.119 128.917 439.158 170.37 439.158C233.578 439.158 284.819 387.917 284.819 324.709C284.819 283.256 262.78 246.951 229.781 226.87Z" fill="#E28086"/>
<path d="M170.37 446.658C103.127 446.658 48.421 391.952 48.421 324.709C48.421 257.466 103.127 202.76 170.37 202.76C237.613 202.76 292.319 257.466 292.319 324.709C292.319 391.952 237.613 446.658 170.37 446.658ZM170.37 217.76C111.398 217.76 63.421 265.737 63.421 324.709C63.421 383.681 111.398 431.658 170.37 431.658C229.341 431.658 277.319 383.681 277.319 324.709C277.319 265.737 229.342 217.76 170.37 217.76Z" fill="#F9EFDA"/>
<path d="M147.056 388.768C141.839 388.867 138.002 383.163 140.144 378.364L187.661 265.14C189.264 261.321 193.662 259.524 197.479 261.127C201.298 262.73 203.095 267.126 201.493 270.945L153.975 384.169C152.77 387.039 149.987 388.768 147.056 388.768Z" fill="#F9EFDA"/>
<path d="M137.963 319.061C122.251 319.061 109.468 304.751 109.468 287.163C109.468 269.575 122.251 255.265 137.963 255.265C153.676 255.265 166.459 269.575 166.459 287.163C166.459 304.751 153.676 319.061 137.963 319.061ZM137.963 270.265C130.522 270.265 124.467 277.846 124.467 287.163C124.467 296.48 130.521 304.061 137.963 304.061C145.405 304.061 151.459 296.48 151.459 287.163C151.459 277.846 145.405 270.265 137.963 270.265Z" fill="#F9EFDA"/>
<path d="M202.138 396.474C186.425 396.474 173.642 382.164 173.642 364.576C173.642 346.988 186.425 332.678 202.138 332.678C217.851 332.678 230.634 346.988 230.634 364.576C230.634 382.165 217.85 396.474 202.138 396.474ZM202.138 347.678C194.697 347.678 188.642 355.259 188.642 364.576C188.642 373.894 194.697 381.474 202.138 381.474C209.579 381.474 215.634 373.893 215.634 364.576C215.634 355.259 209.579 347.678 202.138 347.678Z" fill="#F9EFDA"/>
<path d="M251.473 317.178C248.971 317.171 247.562 320.042 249.1 322.015C255.47 330.181 267.222 347.544 263.786 360.734C260.123 374.798 250.642 382.806 244.242 398.127C234.266 422.01 236.871 444.773 251.972 469.456C255.028 474.821 258.741 479.595 262.937 483.761C288.18 466.955 308.644 443.545 321.865 415.997C341.56 374.96 316.905 326.804 272.053 319.048C263.383 317.548 256.207 317.192 251.473 317.178Z" fill="#FFE07D"/>
<path d="M272.053 319.047C263.383 317.548 256.208 317.191 251.473 317.177C248.972 317.17 247.562 320.041 249.1 322.014C249.739 322.833 250.433 323.748 251.159 324.738C284.195 340.469 299.87 380.843 282.999 415.996C274.407 433.899 262.74 450.039 248.705 463.769C249.722 465.654 250.805 467.548 251.972 469.455C255.028 474.82 258.741 479.594 262.937 483.76C288.18 466.954 308.644 443.544 321.865 415.996C341.56 374.959 316.905 326.804 272.053 319.047Z" fill="#FFD064"/>
<path d="M50.632 172.763C52.495 184.312 41.745 193.901 30.291 193.901C18.326 193.901 5.88904 184.728 5.88904 167.155C5.88904 147.804 21.425 137.183 28.497 133.351C29.896 132.593 31.569 133.705 31.43 135.291C31.065 139.453 31.105 146.448 34.392 152.09C39.934 161.598 48.638 160.399 50.632 172.763Z" fill="#FFD064"/>
<path d="M50.6321 172.763C48.6381 160.399 39.9331 161.598 34.3931 152.09C31.1051 146.448 31.0651 139.453 31.4311 135.291C31.5701 133.705 29.8971 132.593 28.4981 133.351C25.0431 135.223 19.5691 138.722 14.8711 144.062C15.2951 146.759 16.1131 149.56 17.5881 152.09C23.1281 161.598 31.8331 160.399 33.8271 172.763C35.2311 181.469 29.4671 189.06 21.6371 192.27C24.4251 193.351 27.3721 193.902 30.2921 193.902C41.7461 193.901 52.4951 184.311 50.6321 172.763Z" fill="#FFC250"/>
<path d="M60.3191 74.951C60.3191 89.796 51.0891 100.05 47.0971 103.791C46.0801 104.744 44.5001 104.748 43.4781 103.8C39.4801 100.091 30.2661 89.917 30.2661 74.95C30.2661 60.239 39.1681 48.32 43.2681 43.61C44.3391 42.379 46.2391 42.384 47.3061 43.619C51.4021 48.361 60.3191 60.36 60.3191 74.951Z" fill="#FFD064"/>
<path d="M47.3061 43.619C46.2391 42.384 44.3391 42.38 43.2681 43.61C41.8261 45.266 39.7921 47.828 37.7591 51.074C41.5221 57.087 45.2931 65.463 45.2931 74.951C45.2931 84.442 41.5211 92.044 37.7561 97.28C39.8911 100.248 42.0281 102.455 43.4781 103.801C44.5001 104.749 46.0801 104.745 47.0971 103.792C51.0891 100.051 60.3191 89.796 60.3191 74.952C60.3191 60.36 51.4021 48.361 47.3061 43.619Z" fill="#FFC250"/>
</svg>
