<svg width="512" height="474" viewBox="0 0 512 474" fill="none" xmlns="http://www.w3.org/2000/svg">
<path d="M255.321 159.359C253.266 160.22 251.188 158.055 249.086 158.864C221.138 169.621 189.12 175.739 155.078 175.739C109.041 175.739 66.689 164.565 33.118 145.839C29.883 144.035 25.828 146.273 25.709 149.975C25.687 150.663 25.676 151.353 25.676 152.045C25.676 202.693 83.611 243.752 155.078 243.752C211.724 243.752 259.862 217.956 277.392 182.036C278.399 179.973 276.304 177.878 277.105 175.751L255.321 159.359Z" fill="#FFD064"/>
<path d="M261.008 160.809C242.747 195.758 195.325 220.678 139.66 220.678C94.431 220.678 54.629 204.229 31.495 179.316C47.879 216.646 97.013 243.75 155.079 243.75C211.725 243.75 259.863 217.954 277.393 182.034C278.4 179.971 276.305 177.876 277.106 175.749L261.008 160.809Z" fill="#FFC250"/>
<path d="M39.029 170.559C36.761 170.559 34.522 169.535 33.046 167.589C17.309 146.828 13.629 113.192 13.48 111.77C13.048 107.65 16.038 103.961 20.158 103.53C24.27 103.095 27.963 106.085 28.398 110.202C28.431 110.509 31.814 141.132 45.001 158.528C47.503 161.829 46.855 166.533 43.555 169.036C42.199 170.063 40.607 170.559 39.029 170.559Z" fill="#FFD064"/>
<path d="M277.163 148.069C276.124 147.241 274.699 147.118 273.526 147.743C265.801 151.858 257.631 155.575 249.085 158.864L277.392 182.036C281.463 173.695 283.885 164.809 284.378 155.572C284.435 154.508 283.954 153.484 283.121 152.82L277.163 148.069Z" fill="#9D6B6B"/>
<path d="M277.393 182.035C281.464 173.694 283.886 164.808 284.379 155.571C284.436 154.507 283.955 153.483 283.122 152.819L277.163 148.069C276.124 147.241 274.699 147.118 273.526 147.743C270.722 149.237 267.839 150.659 264.921 152.047C264.919 152.048 264.918 152.049 264.916 152.05C263.136 156.916 260.802 161.622 257.974 166.139L277.393 182.035Z" fill="#8B5E5E"/>
<path d="M330.694 76.855H423.315V318.281H330.694V76.855Z" fill="#A298A5"/>
<path d="M394.67 76.855H423.315V318.281H394.67V76.855Z" fill="#8B818E"/>
<path d="M469.625 299.984H47.75V259.789C47.75 248.743 56.704 239.789 67.75 239.789H449.625C460.671 239.789 469.625 248.743 469.625 259.789V299.984Z" fill="#756E78"/>
<path d="M449.625 239.789H445.836V252.684C445.836 260.231 439.718 266.349 432.171 266.349H47.75V299.984H469.625V259.789C469.625 248.743 460.671 239.789 449.625 239.789Z" fill="#665E66"/>
<path d="M497 433.265H15C6.716 433.265 0 426.549 0 418.265V305.048C0 296.764 6.716 290.048 15 290.048H72.064L168.324 310.064L264.697 290.048H497C505.284 290.048 512 296.764 512 305.048V418.264C512 426.549 505.284 433.265 497 433.265Z" fill="#A298A5"/>
<path d="M497 290.048H485.037V391.301C485.037 399.585 478.321 406.301 470.037 406.301H0V418.264C0 426.548 6.716 433.264 15 433.264H497C505.284 433.264 512 426.548 512 418.264V305.048C512 296.764 505.284 290.048 497 290.048Z" fill="#8B818E"/>
<path d="M438.607 473.547H332.183C329.422 473.547 327.183 471.308 327.183 468.547V360.908H443.607V468.546C443.607 471.308 441.369 473.547 438.607 473.547Z" fill="#F9EFDA"/>
<path d="M418.717 360.908V443.656C418.717 446.417 416.478 448.656 413.717 448.656H327.183V468.546C327.183 471.307 329.422 473.546 332.183 473.546H438.607C441.368 473.546 443.607 471.307 443.607 468.546V360.908H418.717Z" fill="#F4DDB1"/>
<path d="M456.494 369.157H312.946C308.804 369.157 305.446 365.799 305.446 361.657C305.446 357.515 308.804 354.157 312.946 354.157H456.494C460.636 354.157 463.994 357.515 463.994 361.657C463.994 365.799 460.636 369.157 456.494 369.157Z" fill="#756E78"/>
<path d="M254.696 399.73H82.064C76.541 399.73 72.064 395.253 72.064 389.73V290.048H264.697V389.73C264.696 395.253 260.219 399.73 254.696 399.73Z" fill="#DDEAFB"/>
<path d="M242.743 290.048V367.777C242.743 373.3 238.266 377.777 232.743 377.777H72.064V389.73C72.064 395.253 76.541 399.73 82.064 399.73H254.697C260.22 399.73 264.697 395.253 264.697 389.73V290.048H242.743Z" fill="#CBE2FF"/>
<path d="M284.384 15.453H469.625V99.642H284.384V15.453Z" fill="#DDEAFB"/>
<path d="M428.833 15.453V44.936C428.833 52.621 422.603 58.851 414.918 58.851H284.384V99.643H469.625V15.453H428.833Z" fill="#CBE2FF"/>
<path d="M469.625 114.643H284.384C276.1 114.643 269.384 107.927 269.384 99.643V15.453C269.384 7.169 276.1 0.453003 284.384 0.453003H469.625C477.909 0.453003 484.625 7.169 484.625 15.453V99.642C484.625 107.927 477.909 114.643 469.625 114.643ZM301.384 84.643H452.625C453.73 84.643 454.625 83.748 454.625 82.643V32.453C454.625 31.348 453.73 30.453 452.625 30.453H301.384C300.279 30.453 299.384 31.348 299.384 32.453V82.642C299.384 83.747 300.279 84.643 301.384 84.643Z" fill="#756E78"/>
<path d="M469.625 0.453003H467.881V90.947C467.881 94.786 464.769 97.899 460.929 97.899H269.384V99.643C269.384 107.927 276.1 114.643 284.384 114.643H469.625C477.909 114.643 484.625 107.927 484.625 99.643V15.453C484.625 7.169 477.909 0.453003 469.625 0.453003Z" fill="#665E66"/>
<path d="M384.72 452.207C380.578 452.207 377.22 448.849 377.22 444.707V415.281C377.22 411.139 380.578 407.781 384.72 407.781C388.862 407.781 392.22 411.139 392.22 415.281V444.707C392.22 448.849 388.862 452.207 384.72 452.207Z" fill="#756E78"/>
<path d="M357.425 452.207C353.283 452.207 349.925 448.849 349.925 444.707V415.281C349.925 411.139 353.283 407.781 357.425 407.781C361.567 407.781 364.925 411.139 364.925 415.281V444.707C364.925 448.849 361.567 452.207 357.425 452.207Z" fill="#756E78"/>
<path d="M413.365 452.207C409.223 452.207 405.865 448.849 405.865 444.707V415.281C405.865 411.139 409.223 407.781 413.365 407.781C417.507 407.781 420.865 411.139 420.865 415.281V444.707C420.865 448.849 417.507 452.207 413.365 452.207Z" fill="#756E78"/>
<path d="M219.519 290.048V317.136H195.313V290.048H180.313V317.136H156.334V290.048H141.334V317.136H117.242V290.048H102.242V360.757C102.242 367.098 107.401 372.257 113.742 372.257H223.019C229.36 372.257 234.519 367.098 234.519 360.757V290.048H219.519ZM141.334 357.258H117.242V332.137H141.334V357.258ZM180.312 357.258H156.333V332.137H180.312V357.258ZM219.519 357.258H195.313V332.137H219.519V357.258Z" fill="#9DC6FB"/>
<path d="M405.992 334.778C411.321 334.778 415.641 330.458 415.641 325.129C415.641 319.8 411.321 315.48 405.992 315.48C400.663 315.48 396.343 319.8 396.343 325.129C396.343 330.458 400.663 334.778 405.992 334.778Z" fill="#CCF49F"/>
<path d="M443.607 334.778C448.936 334.778 453.256 330.458 453.256 325.129C453.256 319.8 448.936 315.48 443.607 315.48C438.278 315.48 433.958 319.8 433.958 325.129C433.958 330.458 438.278 334.778 443.607 334.778Z" fill="#E4989D"/>
</svg>
