<svg width="484" height="512" viewBox="0 0 484 512" fill="none" xmlns="http://www.w3.org/2000/svg">
<path d="M441.77 506.513L412.237 483.486L476.805 443.719L482.79 482.424C486.332 505.323 460.043 520.761 441.77 506.513Z" fill="#FFD064"/>
<path d="M482.791 482.424L476.806 443.719L459.392 454.444L463.284 479.612C465.484 493.839 456.168 505.179 444.416 508.317C462.466 519.264 486.164 504.241 482.791 482.424Z" fill="#FFC250"/>
<path d="M166.603 506.513L196.136 483.486L131.568 443.719L125.583 482.424C122.04 505.323 148.329 520.761 166.603 506.513Z" fill="#FFD064"/>
<path d="M127.708 468.672L172.376 502.011L196.135 483.486L131.567 443.719L127.708 468.672Z" fill="#FFC250"/>
<path d="M209.181 345.242L174.889 359.75C155.642 367.893 140.583 383.582 133.235 403.146L126.277 421.672C122.75 431.063 125.855 441.655 133.894 447.655L186.173 486.675C194.297 492.738 205.469 492.631 213.475 486.414L256.841 452.737L209.181 345.242Z" fill="#FFD064"/>
<path d="M209.181 345.242L174.889 359.75C159.037 366.456 146.039 378.289 137.837 393.182C139.101 395.999 140.719 398.696 142.689 401.205L207.794 484.131C208.868 485.499 210.04 486.751 211.288 487.895C212.037 487.443 212.772 486.961 213.476 486.414L256.842 452.737L209.181 345.242Z" fill="#FFC250"/>
<path d="M314.381 304.928C326.487 283.697 333.407 259.127 333.407 232.938C333.407 152.55 268.239 87.382 187.851 87.382C107.463 87.382 42.295 152.55 42.295 232.938C42.295 259.127 49.216 283.697 61.322 304.928H314.381Z" fill="#E4989D"/>
<path d="M187.851 87.382C179.654 87.382 171.618 88.071 163.791 89.373C232.728 100.842 285.287 160.747 285.287 232.938C285.287 259.127 278.366 283.697 266.26 304.928H314.381C326.487 283.697 333.408 259.127 333.408 232.938C333.407 152.55 268.24 87.382 187.851 87.382Z" fill="#E28086"/>
<path d="M314.813 343.742H60.89C35.445 343.742 14.818 323.115 14.818 297.67C14.818 280.242 28.946 266.114 46.374 266.114H329.328C346.756 266.114 360.884 280.242 360.884 297.67C360.885 323.115 340.258 343.742 314.813 343.742Z" fill="#9D6B6B"/>
<path d="M342.341 268.923C342.151 294.205 321.605 314.643 296.278 314.643H42.355C32.372 314.643 23.139 311.458 15.594 306.062C19.541 327.497 38.312 343.742 60.889 343.742H314.812C340.257 343.742 360.884 323.115 360.884 297.67C360.885 284.883 353.275 273.881 342.341 268.923Z" fill="#8B5E5E"/>
<path d="M40.799 211.197C40.263 211.197 39.729 211.208 39.198 211.228C37.576 211.291 36.198 212.41 35.709 213.958C32.142 225.252 23.815 234.432 13.08 239.142C2.239 243.899 -2.707 256.698 2.619 267.271C10.025 281.517 24.155 286.825 41.118 287.125C57.127 287.409 70.746 281.41 77.405 269.756C78.067 268.597 76.667 266.347 77.187 265.077C77.776 263.638 80.264 263.165 80.659 261.586C81.294 259.043 81.668 256.318 81.754 253.415C82.442 230.218 63.842 211.197 40.799 211.197Z" fill="#F9EFDA"/>
<path d="M114.166 211.197C113.63 211.197 113.096 211.208 112.565 211.228C110.943 211.291 109.565 212.41 109.076 213.958C105.509 225.252 97.1819 234.432 86.4469 239.142C75.6059 243.899 70.6599 256.698 75.9859 267.271C83.3919 281.517 97.5219 286.825 114.485 287.125C130.492 287.409 144.11 281.411 150.77 269.76C151.415 268.632 150.224 266.452 150.735 265.218C151.299 263.855 153.548 263.427 153.936 261.937C154.625 259.294 155.031 256.451 155.121 253.415C155.808 230.218 137.208 211.197 114.166 211.197Z" fill="#F9EFDA"/>
<path d="M187.532 211.197C186.996 211.197 186.462 211.208 185.931 211.228C184.309 211.291 182.931 212.41 182.442 213.958C178.875 225.252 170.548 234.432 159.813 239.142C148.972 243.899 144.026 256.698 149.352 267.271C156.758 281.517 170.888 286.825 187.851 287.125C203.86 287.409 217.478 281.41 224.137 269.757C224.799 268.598 223.62 266.347 224.14 265.077C224.682 263.753 226.917 263.405 227.295 261.962C227.989 259.311 228.396 256.461 228.487 253.414C229.174 230.218 210.574 211.197 187.532 211.197Z" fill="#F9EFDA"/>
<path d="M260.898 211.197C260.362 211.197 259.828 211.208 259.297 211.228C257.675 211.291 256.297 212.41 255.808 213.958C252.241 225.252 243.914 234.432 233.179 239.142C222.338 243.899 217.392 256.698 222.718 267.271C230.124 281.517 244.254 286.825 261.217 287.125C283.524 287.521 301.191 275.716 301.852 253.415C302.54 230.218 283.941 211.197 260.898 211.197Z" fill="#F9EFDA"/>
<path d="M334.264 211.197C333.728 211.197 333.194 211.208 332.663 211.228C331.041 211.291 329.663 212.41 329.174 213.958C325.607 225.252 317.279 234.432 306.545 239.142C295.704 243.899 290.758 256.698 296.084 267.271C303.49 281.517 317.62 286.825 334.583 287.125C356.89 287.521 374.557 275.716 375.218 253.415C375.907 230.218 357.307 211.197 334.264 211.197Z" fill="#F9EFDA"/>
<path d="M55.246 213.82C56.968 218.556 57.853 223.695 57.694 229.062C57.033 251.363 39.366 263.168 17.059 262.772C11.172 262.668 5.63797 261.942 0.594971 260.467C0.852971 262.77 1.50997 265.069 2.61997 267.271C10.026 281.517 24.156 286.825 41.119 287.125C63.426 287.521 81.093 275.716 81.754 253.415C82.29 235.338 71.111 219.799 55.246 213.82Z" fill="#F4DDB1"/>
<path d="M128.612 213.82C130.334 218.556 131.219 223.695 131.06 229.062C130.399 251.363 112.732 263.168 90.4249 262.772C84.5379 262.668 79.0039 261.942 73.9609 260.467C74.2189 262.77 74.8759 265.069 75.9859 267.271C83.3919 281.517 97.5219 286.825 114.485 287.125C136.792 287.521 154.459 275.716 155.12 253.415C155.656 235.338 144.478 219.799 128.612 213.82Z" fill="#F4DDB1"/>
<path d="M201.979 213.82C203.701 218.556 204.586 223.695 204.427 229.062C203.766 251.363 186.099 263.168 163.792 262.772C157.905 262.668 152.371 261.942 147.328 260.467C147.586 262.77 148.243 265.069 149.353 267.271C156.759 281.517 170.889 286.825 187.852 287.125C210.159 287.521 227.826 275.716 228.487 253.415C229.023 235.338 217.844 219.799 201.979 213.82Z" fill="#F4DDB1"/>
<path d="M275.345 213.82C277.067 218.556 277.952 223.695 277.793 229.062C277.132 251.363 259.465 263.168 237.158 262.772C231.271 262.668 225.737 261.942 220.694 260.467C220.952 262.77 221.609 265.069 222.719 267.271C230.125 281.517 244.255 286.825 261.218 287.125C283.525 287.521 301.192 275.716 301.853 253.415C302.389 235.338 291.21 219.799 275.345 213.82Z" fill="#F4DDB1"/>
<path d="M348.711 213.82C350.433 218.556 351.318 223.695 351.159 229.062C350.498 251.363 332.831 263.168 310.524 262.772C304.637 262.668 299.103 261.942 294.06 260.467C294.318 262.77 294.975 265.069 296.085 267.271C303.491 281.517 317.621 286.825 334.584 287.125C356.891 287.521 374.558 275.716 375.219 253.415C375.755 235.338 364.576 219.799 348.711 213.82Z" fill="#F4DDB1"/>
<path d="M241.237 77.4689C232.839 79.4169 224.452 74.1889 222.504 65.7909C220.556 57.3929 225.784 49.0069 234.182 47.0579C240.889 45.5019 260.862 51.0889 268.632 53.4019C270.037 53.8199 270.452 55.6089 269.375 56.6039C263.417 62.1019 247.944 75.9129 241.237 77.4689Z" fill="#B3E59F"/>
<path d="M269.375 56.605C270.453 55.611 270.038 53.822 268.632 53.403C266.159 52.667 262.447 51.599 258.322 50.535C251.394 56.47 242.75 63.224 238.178 64.285C232.146 65.684 226.133 63.368 222.494 58.847C221.994 61.067 221.955 63.426 222.504 65.791C224.452 74.189 232.839 79.417 241.237 77.469C247.944 75.913 263.417 62.102 269.375 56.605Z" fill="#95D6A4"/>
<path d="M192.516 28.748C190.568 37.146 195.796 45.532 204.194 47.481C212.592 49.429 220.979 44.201 222.927 35.803C224.483 29.096 218.896 9.12299 216.583 1.35299C216.165 -0.0520144 214.376 -0.467014 213.381 0.609986C207.882 6.56799 194.072 22.041 192.516 28.748Z" fill="#B3E59F"/>
<path d="M222.926 35.803C224.482 29.096 218.895 9.12299 216.582 1.35299C216.164 -0.0520144 214.375 -0.467014 213.38 0.609986C211.696 2.43499 209.232 5.15299 206.581 8.23699C208.993 17.341 211.621 29.179 210.493 34.043C209.16 39.787 204.814 44.045 199.514 45.541C200.924 46.414 202.49 47.086 204.195 47.481C212.591 49.428 220.978 44.2 222.926 35.803Z" fill="#95D6A4"/>
<path d="M236.391 55.6679C230.295 61.7639 220.412 61.7639 214.317 55.6679C208.221 49.5719 208.221 39.6889 214.317 33.5939C219.185 28.7259 239.09 22.9009 246.908 20.7529C248.322 20.3649 249.621 21.6629 249.232 23.0769C247.084 30.8949 241.26 50.7999 236.391 55.6679Z" fill="#B3E59F"/>
<path d="M249.232 23.077C249.62 21.663 248.322 20.364 246.908 20.753C244.42 21.437 240.705 22.494 236.642 23.773C233.902 32.474 230.14 42.779 226.821 46.098C222.442 50.477 216.114 51.692 210.634 49.78C211.384 51.929 212.599 53.951 214.316 55.668C220.412 61.764 230.295 61.764 236.39 55.668C241.26 50.8 247.084 30.895 249.232 23.077Z" fill="#95D6A4"/>
<path d="M231.261 109.17C214.525 125.906 156.464 144.625 140.023 128.184C123.582 111.743 142.301 53.682 159.037 36.946C175.773 20.21 196.17 32.149 216.114 52.093C236.058 72.037 247.997 92.435 231.261 109.17Z" fill="#DD636E"/>
<path d="M216.114 52.0929C212.78 48.7589 209.434 45.6569 206.094 42.8669C219.994 59.5079 225.953 75.9859 212.015 89.9239C198.479 103.46 157.91 118.291 134.193 114.768C135.026 120.374 136.88 125.041 140.023 128.184C156.464 144.625 214.525 125.906 231.261 109.17C247.997 92.4339 236.058 72.0379 216.114 52.0929Z" fill="#DA4A54"/>
<path d="M175.999 65.1129C180.147 65.1129 183.51 61.7502 183.51 57.6019C183.51 53.4537 180.147 50.0909 175.999 50.0909C171.851 50.0909 168.488 53.4537 168.488 57.6019C168.488 61.7502 171.851 65.1129 175.999 65.1129Z" fill="#E4989D"/>
<path d="M197.654 86.768C201.802 86.768 205.165 83.4052 205.165 79.257C205.165 75.1088 201.802 71.746 197.654 71.746C193.506 71.746 190.143 75.1088 190.143 79.257C190.143 83.4052 193.506 86.768 197.654 86.768Z" fill="#E4989D"/>
<path d="M166.574 117.848C170.722 117.848 174.085 114.485 174.085 110.337C174.085 106.189 170.722 102.826 166.574 102.826C162.426 102.826 159.063 106.189 159.063 110.337C159.063 114.485 162.426 117.848 166.574 117.848Z" fill="#E4989D"/>
<path d="M171.385 91.382C175.533 91.382 178.896 88.0192 178.896 83.871C178.896 79.7228 175.533 76.36 171.385 76.36C167.237 76.36 163.874 79.7228 163.874 83.871C163.874 88.0192 167.237 91.382 171.385 91.382Z" fill="#E4989D"/>
<path d="M193.04 113.037C197.188 113.037 200.551 109.674 200.551 105.526C200.551 101.378 197.188 98.015 193.04 98.015C188.892 98.015 185.529 101.378 185.529 105.526C185.529 109.674 188.892 113.037 193.04 113.037Z" fill="#E4989D"/>
<path d="M399.191 345.242L433.483 359.75C452.73 367.893 467.789 383.582 475.137 403.146L482.095 421.672C485.214 429.976 483.147 439.22 477.068 445.397C476.272 446.205 467.938 447.562 467.938 447.562L460.012 458.452L422.198 486.675C414.074 492.738 402.902 492.631 394.896 486.414L351.53 452.737L399.191 345.242Z" fill="#FFD064"/>
<path d="M482.095 421.673L480.084 416.319C478.571 419.045 476.488 421.49 473.871 423.443L413.291 468.659C410.072 471.062 405.644 471.02 402.472 468.556L359.361 435.078L351.53 452.74L394.896 486.417C402.902 492.634 414.074 492.741 422.198 486.678L474.477 447.658C482.516 441.655 485.622 431.064 482.095 421.673Z" fill="#FFC250"/>
<path d="M159.391 344.19C172.434 325.413 193.391 313.68 216.216 312.375L248.975 310.503L293.912 466.13L265.268 481.286C252.717 487.927 237.408 485.291 227.791 475.174C227.46 474.826 228.325 473.71 228.008 473.344C227.672 472.957 226.155 473.319 225.836 472.912L160.731 389.986C150.277 376.67 149.734 358.094 159.391 344.19Z" fill="#FFD064"/>
<path d="M248.975 310.504L216.216 312.376C210.364 312.71 204.637 313.735 199.132 315.383L237.933 449.759C240.354 458.144 236.561 467.077 228.847 471.159L225.747 472.799L225.836 472.912C235.228 484.871 251.832 488.396 265.272 481.284L293.912 466.13L248.975 310.504Z" fill="#FFC250"/>
<path d="M456.546 344.19C443.503 325.413 422.546 313.68 399.721 312.375L366.962 310.503L322.025 466.13L350.669 481.286C361.748 487.148 374.976 485.782 384.541 478.422C386.579 476.853 388.005 467.554 388.005 467.554L396.912 464.236L455.207 389.984C465.66 376.67 466.203 358.094 456.546 344.19Z" fill="#FFD064"/>
<path d="M456.546 344.19C454.359 341.041 451.944 338.095 449.34 335.358C451.96 346.521 449.53 358.565 442.139 367.979L369.727 460.212C364.568 466.784 355.444 468.721 348.059 464.814L325.805 453.039L322.025 466.131L350.669 481.287C364.109 488.398 380.712 484.872 390.101 472.912L455.206 389.986C465.66 376.67 466.203 358.094 456.546 344.19Z" fill="#FFC250"/>
<path d="M367.779 278.898L354.798 272.82C325.146 258.937 290.862 258.93 261.205 272.803L248.169 278.901C237.054 284.1 229.952 295.262 229.952 307.533C229.952 329.723 233.241 351.791 239.712 373.017L267.211 463.217C270.451 473.845 280.257 481.107 291.368 481.107H324.569C330.37 481.107 335.815 479.128 340.155 475.724C341.85 474.395 340.389 470.152 341.703 468.421C343.133 466.537 347.298 467.132 348.166 464.854C348.37 464.318 348.557 463.772 348.726 463.217L376.225 373.017C382.696 351.791 385.985 329.723 385.985 307.533V307.525C385.985 295.259 378.889 284.1 367.779 278.898Z" fill="#FFD064"/>
<path d="M367.779 278.898L354.797 272.82C333.759 262.97 310.39 260.114 287.996 264.235C297.179 265.925 306.199 268.781 314.825 272.82L327.807 278.898C338.916 284.1 346.013 295.259 346.013 307.525V307.533C346.013 329.723 342.724 351.791 336.253 373.017L308.754 463.217C305.848 472.749 297.656 479.555 287.982 480.861C289.094 481.011 290.221 481.107 291.367 481.107H324.568C335.679 481.107 345.485 473.845 348.725 463.217L376.224 373.017C382.695 351.791 385.984 329.723 385.984 307.533V307.525C385.985 295.259 378.888 284.1 367.779 278.898Z" fill="#FFC250"/>
</svg>
