<svg width="428" height="512" viewBox="0 0 428 512" fill="none" xmlns="http://www.w3.org/2000/svg">
<path d="M389.014 145.208L373.282 129.476C371.573 127.767 368.803 127.767 367.095 129.476L351.363 145.208C349.927 146.644 347.98 147.451 345.949 147.451H317.38C314.012 147.451 311.907 151.097 313.591 154.014L370.188 252.043L426.785 154.014C428.469 151.097 426.364 147.451 422.996 147.451H394.427C392.397 147.45 390.45 146.643 389.014 145.208Z" fill="#DD636E"/>
<path d="M422.997 147.45H401.043L355.423 226.466L370.189 252.041L426.786 154.012C428.47 151.096 426.365 147.45 422.997 147.45Z" fill="#DA4A54"/>
<path d="M400.059 358.755H340.317C326.233 358.755 314.816 347.338 314.816 333.254V291.836C314.816 279.843 320.161 268.473 329.397 260.822L370.189 227.028L410.98 260.822C420.216 268.473 425.561 279.843 425.561 291.836V333.254C425.561 347.338 414.143 358.755 400.059 358.755Z" fill="#DD636E"/>
<path d="M410.98 260.822L370.188 227.027L346.296 246.821L378.713 273.677C387.949 281.328 393.294 292.698 393.294 304.691V346.109C393.294 350.712 392.068 355.027 389.934 358.755H400.059C414.143 358.755 425.56 347.337 425.56 333.254V291.836C425.561 279.842 420.215 268.473 410.98 260.822Z" fill="#DA4A54"/>
<path d="M391.106 241.409H349.27C345.135 241.409 341.784 238.057 341.784 233.923C341.784 229.789 345.135 226.437 349.27 226.437H391.106C395.241 226.437 398.592 229.789 398.592 233.923C398.592 238.057 395.241 241.409 391.106 241.409Z" fill="#EFCB84"/>
<path d="M0.621948 83.731V15C0.621948 6.716 7.33795 0 15.6219 0H84.3529V83.731H0.621948Z" fill="#AA8080"/>
<path d="M56.4059 0V45.803C56.4059 51.316 51.937 55.785 46.424 55.785H0.621948V83.731H84.3529V0H56.4059Z" fill="#9D6B6B"/>
<path d="M84.3519 83.731V167.462H0.620926V83.731H84.3519Z" fill="#AA8080"/>
<path d="M56.4059 83.731V129.534C56.4059 135.047 51.937 139.516 46.424 139.516H0.621948V167.462H84.3529V83.731H56.4059Z" fill="#9D6B6B"/>
<path d="M3.62195 251.192L0.621948 245.245V167.461H84.3519V251.192H3.62195Z" fill="#AA8080"/>
<path d="M56.4059 167.461V213.264C56.4059 218.777 51.937 223.246 46.424 223.246H0.621948V245.245L3.62195 251.192H84.3529V167.461H56.4059Z" fill="#9D6B6B"/>
<path d="M168.083 0V83.731H84.3519V0H168.083Z" fill="#AA8080"/>
<path d="M140.137 0V45.803C140.137 51.316 135.668 55.785 130.155 55.785H84.3519V83.731H168.083V0H140.137Z" fill="#9D6B6B"/>
<path d="M168.083 83.73V167.461H84.3519V83.73H168.083Z" fill="#AA8080"/>
<path d="M140.137 83.731V129.534C140.137 135.047 135.668 139.516 130.155 139.516H84.3519V167.462H168.083V83.731H140.137Z" fill="#9D6B6B"/>
<path d="M168.083 167.461V251.192H84.3519V167.461H168.083Z" fill="#AA8080"/>
<path d="M140.137 167.461V213.264C140.137 218.777 135.668 223.246 130.155 223.246H84.3519V251.192H168.083V167.461H140.137Z" fill="#9D6B6B"/>
<path d="M168.083 83.731V0H236.814C245.098 0 251.814 6.716 251.814 15V83.731H168.083Z" fill="#AA8080"/>
<path d="M223.868 0V45.803C223.868 51.316 219.399 55.785 213.886 55.785H168.083V83.731H251.814V14.973C251.814 6.704 245.11 0 236.841 0L223.868 0Z" fill="#9D6B6B"/>
<path d="M251.813 83.731V167.462H168.082V83.731H251.813Z" fill="#AA8080"/>
<path d="M223.868 83.731V129.534C223.868 135.047 219.399 139.516 213.886 139.516H168.083V167.462H251.814V83.731H223.868Z" fill="#9D6B6B"/>
<path d="M251.814 167.461V251.192H168.083V167.461H251.814Z" fill="#AA8080"/>
<path d="M223.868 167.461V213.264C223.868 218.777 219.399 223.246 213.886 223.246H168.083V251.192H251.814V167.461H223.868Z" fill="#9D6B6B"/>
<path d="M76.866 0H91.839V251.192H76.866V0Z" fill="#8B5E5E"/>
<path d="M160.596 0H175.569V251.192H160.596V0Z" fill="#8B5E5E"/>
<path d="M0.621948 76.244H251.813V91.217H0.621948V76.244Z" fill="#8B5E5E"/>
<path d="M0.621948 159.975H251.813V174.948H0.621948V159.975Z" fill="#8B5E5E"/>
<path d="M287.368 229.643L227.305 169.58C224.966 167.241 221.174 167.241 218.835 169.58L168.141 220.274C165.802 222.613 162.01 222.613 159.671 220.274L130.601 191.205C128.262 188.866 124.47 188.866 122.131 191.205L69.8449 243.491C68.7219 244.614 67.1979 245.245 65.6099 245.245H0.621948V287.904L6.62195 336.176H247.11L252.11 287.904V275.852C252.11 274.264 252.741 272.74 253.864 271.617L287.367 238.114C289.707 235.774 289.707 231.982 287.368 229.643Z" fill="#DDEAFB"/>
<path d="M287.368 229.643L227.305 169.58C224.966 167.241 221.174 167.241 218.835 169.58L203.398 185.017L248.024 229.643C250.363 231.982 250.363 235.774 248.024 238.113L226.191 259.946C225.068 261.069 224.437 262.593 224.437 264.181V336.177H247.111L252.111 287.904V275.852C252.111 274.264 252.742 272.74 253.865 271.617L287.368 238.114C289.707 235.774 289.707 231.982 287.368 229.643Z" fill="#CBE2FF"/>
<path d="M231.11 450.394H21.6219C10.0239 450.394 0.621948 440.992 0.621948 429.394V287.904H252.11V429.394C252.11 440.992 242.708 450.394 231.11 450.394Z" fill="#E4989D"/>
<path d="M224.436 287.904V401.758C224.436 413.335 215.051 422.72 203.474 422.72H0.621948V429.432C0.621948 441.009 10.0069 450.394 21.5839 450.394H231.148C242.725 450.394 252.11 441.009 252.11 429.432V287.904H224.436Z" fill="#E28086"/>
<path d="M126.218 389.925C156.763 389.925 181.524 375.47 181.524 357.64C181.524 339.809 156.763 325.355 126.218 325.355C95.6733 325.355 70.912 339.809 70.912 357.64C70.912 375.47 95.6733 389.925 126.218 389.925Z" fill="#F9EFDA"/>
<path d="M358.311 451.293L304.308 500.334C298.218 505.864 288.924 505.864 282.834 500.334L228.831 451.293C214.704 438.464 206.649 420.269 206.649 401.186V371.201C206.649 346.867 226.375 327.141 250.709 327.141H336.432C360.766 327.141 380.492 346.867 380.492 371.201V401.186C380.493 420.269 372.438 438.464 358.311 451.293Z" fill="#F4DDB1"/>
<path d="M336.433 327.141H307.91C314.669 334.885 318.772 345.006 318.772 356.092V386.077C318.772 405.159 310.717 423.355 296.59 436.184L254.391 474.506L282.833 500.335C288.923 505.865 298.217 505.865 304.307 500.335L358.31 451.294C372.437 438.465 380.492 420.27 380.492 401.187V371.202C380.493 346.867 360.766 327.141 336.433 327.141Z" fill="#EFCB84"/>
<path d="M293.572 512C287.934 512 282.297 509.959 277.802 505.876L223.799 456.835C208.143 442.618 199.164 422.335 199.164 401.186V371.201C199.164 342.778 222.287 319.655 250.71 319.655H336.433C364.856 319.655 387.979 342.779 387.979 371.201V401.186C387.979 422.335 379 442.618 363.344 456.835L309.341 505.876C304.846 509.958 299.208 512 293.572 512ZM250.71 334.627C230.543 334.627 214.137 351.034 214.137 371.2V401.185C214.137 418.121 221.327 434.364 233.865 445.749L287.868 494.79C291.119 497.743 296.023 497.744 299.276 494.79L353.279 445.749C365.817 434.364 373.007 418.121 373.007 401.185V371.2C373.007 351.033 356.6 334.627 336.433 334.627H250.71Z" fill="#F9EFDA"/>
<path d="M321.853 352.546C311.489 352.546 302.232 357.265 296.1 364.668C294.782 366.259 292.361 366.259 291.043 364.668C284.911 357.265 275.654 352.546 265.29 352.546C246.822 352.546 231.851 367.517 231.851 385.985C231.851 416.592 274.043 453.125 288.658 464.862C291.53 467.168 295.613 467.168 298.485 464.862C313.1 453.125 355.292 416.592 355.292 385.985C355.292 367.517 340.321 352.546 321.853 352.546Z" fill="#9D6B6B"/>
<path d="M321.853 352.546C320.323 352.546 318.821 352.661 317.346 352.86C321.601 358.47 324.13 365.462 324.13 373.046C324.13 401.551 287.539 435.192 270.706 449.16C277.873 455.976 284.424 461.461 288.659 464.862C291.531 467.168 295.614 467.168 298.486 464.862C313.101 453.125 355.293 416.592 355.293 385.985C355.292 367.517 340.32 352.546 321.853 352.546Z" fill="#8B5E5E"/>
</svg>
