<svg width="512" height="290" viewBox="0 0 512 290" fill="none" xmlns="http://www.w3.org/2000/svg">
<path d="M502 96.853H10C4.477 96.853 0 92.376 0 86.853V10.577C0 5.05403 4.477 0.577026 10 0.577026H502C507.523 0.577026 512 5.05403 512 10.577V86.853C512 92.376 507.523 96.853 502 96.853Z" fill="#A298A5"/>
<path d="M502 0.578003H482.147V57C482.147 62.523 477.67 67 472.147 67H0V86.853C0 92.376 4.477 96.853 10 96.853H502C507.523 96.853 512 92.376 512 86.853V10.577C512 5.055 507.523 0.578003 502 0.578003Z" fill="#8B818E"/>
<path d="M415.887 64.07H96.113C87.633 64.07 80.759 57.196 80.759 48.716C80.759 40.236 87.633 33.362 96.113 33.362H133.417L256 50.721L378.583 33.361H415.887C424.367 33.361 431.241 40.235 431.241 48.715C431.241 57.196 424.367 64.07 415.887 64.07Z" fill="#756E78"/>
<path d="M417.919 33.511C416.603 40.654 410.355 46.07 402.831 46.07H83.057C82.366 46.07 81.691 46.009 81.025 45.92C80.858 46.827 80.759 47.759 80.759 48.715C80.759 57.195 87.633 64.069 96.113 64.069H415.887C424.367 64.069 431.241 57.195 431.241 48.715C431.241 40.926 425.436 34.507 417.919 33.511Z" fill="#665E66"/>
<path d="M343.582 289.422H168.417C149.087 289.422 133.417 273.752 133.417 254.422V33.395H378.582V254.422C378.582 273.752 362.912 289.422 343.582 289.422Z" fill="#E4989D"/>
<path d="M340.619 33.395V236.253C340.619 244.651 333.811 251.459 325.413 251.459H133.417V254.233C133.417 273.668 149.172 289.423 168.607 289.423H343.393C362.828 289.423 378.583 273.668 378.583 254.233V33.395H340.619Z" fill="#E28086"/>
<path d="M418.185 199.809C424.084 199.809 428.866 195.027 428.866 189.128C428.866 183.229 424.084 178.447 418.185 178.447C412.286 178.447 407.504 183.229 407.504 189.128C407.504 195.027 412.286 199.809 418.185 199.809Z" fill="#EFCB84"/>
<path d="M484.408 247.463C482.823 247.463 481.225 246.965 479.863 245.935C476.542 243.421 475.888 238.692 478.401 235.371C498.89 208.301 498.89 170.49 478.401 143.42C475.888 140.099 476.542 135.37 479.863 132.856C483.186 130.343 487.913 130.997 490.427 134.318C514.972 166.747 514.972 212.044 490.427 244.472C488.943 246.432 486.689 247.463 484.408 247.463Z" fill="#EFCB84"/>
<path d="M449.398 225.828C447.569 225.828 445.736 225.166 444.285 223.828C441.225 221.003 441.034 216.233 443.859 213.173C456.166 199.84 456.166 178.952 443.859 165.62C441.034 162.56 441.225 157.79 444.285 154.965C447.344 152.141 452.115 152.331 454.94 155.391C472.542 174.46 472.542 204.333 454.94 223.402C453.454 225.012 451.429 225.828 449.398 225.828Z" fill="#EFCB84"/>
<path d="M225.421 234.281H191.817C182.98 234.281 175.817 227.118 175.817 218.281V173.366C175.817 164.529 182.98 157.366 191.817 157.366H225.421C234.258 157.366 241.421 164.529 241.421 173.366V218.281C241.421 227.118 234.258 234.281 225.421 234.281Z" fill="#F9EFDA"/>
<path d="M225.421 157.367H223.375V200.235C223.375 209.071 216.212 216.235 207.375 216.235H175.818V218.281C175.818 227.117 182.981 234.281 191.818 234.281H225.422C234.259 234.281 241.422 227.117 241.422 218.281V173.366C241.421 164.53 234.258 157.367 225.421 157.367Z" fill="#F4DDB1"/>
<path d="M308.722 233.339C304.557 233.339 301.181 229.963 301.181 225.798V185.827C301.181 181.662 304.557 178.286 308.722 178.286C312.887 178.286 316.263 181.662 316.263 185.827V225.798C316.262 229.963 312.887 233.339 308.722 233.339Z" fill="#F9EFDA"/>
<path d="M308.722 153.223C304.557 153.223 301.181 149.847 301.181 145.682V105.711C301.181 101.546 304.557 98.17 308.722 98.17C312.887 98.17 316.263 101.546 316.263 105.711V145.682C316.262 149.847 312.887 153.223 308.722 153.223Z" fill="#F9EFDA"/>
<path d="M301.181 33.395V65.564C301.181 69.729 304.557 73.105 308.722 73.105C312.887 73.105 316.263 69.729 316.263 65.564V33.395H301.181Z" fill="#F9EFDA"/>
<path d="M180.084 39.51C180.084 55.27 192.86 68.045 208.619 68.045C224.378 68.045 237.154 55.269 237.154 39.51C237.154 37.41 236.921 35.366 236.49 33.395H180.747C180.318 35.366 180.084 37.411 180.084 39.51Z" fill="#DD636E"/>
</svg>
