<svg width="430" height="512" viewBox="0 0 430 512" fill="none" xmlns="http://www.w3.org/2000/svg">
<path d="M417.35 344.825C409.198 360.137 387.508 379.55 374.207 390.599C370.086 394.022 363.895 390.726 364.434 385.396C366.175 368.192 370.171 339.359 378.323 324.048C390.43 301.308 404.241 296.427 415.018 302.165C425.796 307.902 429.457 322.085 417.35 344.825Z" fill="#DD636E"/>
<path d="M415.019 302.164C411.178 300.119 406.951 299.432 402.554 300.413C406.602 307.981 405.881 319.721 397.382 335.684C391.383 346.953 378.053 360.439 366.129 371.181C365.414 376.363 364.858 381.223 364.436 385.395C363.897 390.725 370.087 394.021 374.209 390.598C387.51 379.549 409.2 360.136 417.352 344.824C429.457 322.085 425.796 307.902 415.019 302.164Z" fill="#DA4A54"/>
<path d="M416.046 315.495L406.212 316.122C400.453 316.489 395.255 312.69 393.855 307.092L380.77 254.747L425.79 247.383L427.236 303.257C427.401 309.68 422.459 315.086 416.046 315.495Z" fill="#E4989D"/>
<path d="M425.79 247.382L405.585 250.687L406.945 303.256C407.076 308.323 404.022 312.746 399.581 314.593C401.544 315.702 403.827 316.273 406.211 316.121L416.046 315.494C422.459 315.085 427.401 309.68 427.235 303.256L425.79 247.382Z" fill="#E28086"/>
<path d="M415.579 202.111L429.14 242.543C430.675 247.119 429.285 251.964 425.991 255.061C424.736 256.241 414.825 255.047 414.825 255.047L405.895 262.715L388.654 268.24C382.787 270.12 376.452 267.233 374.022 261.572L359.547 227.851L415.579 202.111Z" fill="#E4989D"/>
<path d="M429.141 242.543L415.58 202.111L397.39 210.467L403.418 228.438C405.537 234.757 402.08 241.588 395.733 243.622L369.876 251.909L374.024 261.572C376.454 267.233 382.789 270.12 388.656 268.24L421.457 257.728C427.803 255.694 431.26 248.862 429.141 242.543Z" fill="#E28086"/>
<path d="M279.02 220.539C277.109 220.539 275.196 219.809 273.737 218.351C270.82 215.433 270.82 210.703 273.737 207.785L284.719 196.803C292.64 188.883 303.173 184.52 314.376 184.52H327.914C332.041 184.52 335.385 187.864 335.385 191.991C335.385 196.118 332.041 199.462 327.914 199.462H314.376C307.164 199.462 300.384 202.27 295.285 207.37L284.303 218.352C282.844 219.809 280.931 220.539 279.02 220.539Z" fill="#DA4A54"/>
<path d="M304.741 235.382C302.83 235.382 300.917 234.652 299.458 233.194C296.541 230.276 296.541 225.546 299.458 222.628L310.44 211.646C318.363 203.725 328.895 199.362 340.097 199.362H353.636C357.763 199.362 361.107 202.706 361.107 206.833C361.107 210.959 357.763 214.304 353.636 214.304H340.097C332.887 214.304 326.107 217.112 321.005 222.213L310.024 233.195C308.565 234.653 306.652 235.382 304.741 235.382Z" fill="#DA4A54"/>
<path d="M334.376 245.921C332.465 245.921 330.552 245.191 329.094 243.733C326.176 240.816 326.176 236.085 329.093 233.168L340.075 222.185C347.996 214.264 358.529 209.901 369.732 209.901H383.27C387.396 209.901 390.741 213.245 390.741 217.372C390.741 221.499 387.397 224.843 383.27 224.843H369.732C362.52 224.843 355.74 227.651 350.641 232.751L339.659 243.733C338.2 245.192 336.288 245.921 334.376 245.921Z" fill="#DA4A54"/>
<path d="M401.507 157.476L423.233 200.187C425.893 205.416 424.328 211.624 419.917 215.047C419.108 215.675 409.904 215.532 409.904 215.532L401.648 223.167L365.864 238.206C360.198 240.587 353.65 238.284 350.723 232.881L330.486 195.529L401.507 157.476Z" fill="#E4989D"/>
<path d="M423.233 200.187L401.507 157.476L382.207 167.817L392.557 188.163C395.705 194.352 392.935 201.912 386.534 204.602L344.885 222.106L350.723 232.88C353.651 238.284 360.199 240.587 365.864 238.205L417.21 216.625C423.611 213.936 426.381 206.376 423.233 200.187Z" fill="#E28086"/>
<path d="M162.447 219.574C160.535 219.574 158.623 218.844 157.164 217.385C154.247 214.468 154.247 209.737 157.165 206.82L175.838 188.148C182.951 181.035 192.408 177.118 202.468 177.118H241.168C247.236 177.118 252.941 174.755 257.232 170.463L266.935 160.76C269.853 157.844 274.583 157.844 277.501 160.76C280.418 163.678 280.418 168.408 277.501 171.326L267.798 181.029C260.684 188.142 251.227 192.059 241.167 192.059H202.467C196.399 192.059 190.694 194.422 186.403 198.714L167.729 217.386C166.271 218.844 164.359 219.574 162.447 219.574Z" fill="#DA4A54"/>
<path d="M231.444 127.555H131.698C97.2271 127.555 69.1821 99.51 69.1821 65.039C69.1821 38.183 85.3201 14.45 110.296 4.579C136.511 -5.785 166.224 1.828 184.226 23.526L189.647 30.059C199.19 41.561 213.235 48.157 228.18 48.157C232.306 48.157 235.651 51.501 235.651 55.628C235.651 59.755 232.307 63.099 228.18 63.099C208.775 63.099 190.539 54.534 178.148 39.6L172.727 33.067C158.864 16.359 135.983 10.492 115.789 18.474C96.5531 26.077 84.1241 44.355 84.1241 65.039C84.1241 91.272 105.466 112.613 131.698 112.613H231.444C235.571 112.613 238.915 115.957 238.915 120.084C238.915 124.211 235.571 127.555 231.444 127.555Z" fill="#E28086"/>
<path d="M165.36 127.555H65.6141C31.1421 127.555 3.09711 99.51 3.09711 65.039C3.09711 38.183 19.2351 14.45 44.2111 4.579C70.4271 -5.785 100.139 1.828 118.141 23.526L123.562 30.059C133.105 41.561 147.15 48.157 162.096 48.157C166.223 48.157 169.567 51.501 169.567 55.628C169.567 59.755 166.223 63.099 162.096 63.099C142.69 63.099 124.455 54.534 112.063 39.6L106.643 33.067C92.7781 16.359 69.8991 10.492 49.7041 18.474C30.4681 26.077 18.0391 44.355 18.0391 65.039C18.0391 91.272 39.3821 112.613 65.6141 112.613H165.36C169.487 112.613 172.831 115.957 172.831 120.084C172.831 124.211 169.486 127.555 165.36 127.555Z" fill="#DA4A54"/>
<path d="M318.084 103.461L321.526 102.465C348.944 94.528 378.293 105.826 393.312 130.099L404.243 147.765C406.933 152.112 406.512 157.554 403.507 161.406C402.837 162.265 392.888 163.079 392.888 163.079L385.797 174.876L341.533 207.119C336.066 211.101 328.387 209.758 324.596 204.157L296.866 163.187L318.084 103.461Z" fill="#E4989D"/>
<path d="M404.243 147.764L393.312 130.097C381.405 110.853 360.49 99.777 338.672 99.964C348.29 105.121 356.651 112.78 362.691 122.542L373.622 140.208C376.912 145.525 375.549 152.478 370.495 156.159L317.995 194.402L324.596 204.155C328.387 209.756 336.066 211.099 341.533 207.117L401.116 163.715C406.17 160.035 407.533 153.081 404.243 147.764Z" fill="#E28086"/>
<path d="M134.126 271.746H173.971V403.701H134.126V271.746Z" fill="#B3E59F"/>
<path d="M156.748 271.746H173.97V403.701H156.748V271.746Z" fill="#95D6A4"/>
<path d="M282.56 298.67C277.367 288.969 265.292 285.316 255.594 290.509L233.205 302.496C196.876 321.945 168.807 354.064 154.19 392.251C139.573 354.064 111.505 321.945 75.1761 302.496L52.7861 290.51C43.0861 285.315 31.0121 288.97 25.8201 298.671C20.6261 308.371 24.2801 320.445 33.9811 325.637L56.3701 337.624C88.4081 354.776 112.077 384.773 121.308 419.924L122.748 425.407C123.898 429.786 127.856 432.838 132.383 432.838H176C180.527 432.838 184.485 429.785 185.635 425.407L187.075 419.924C196.306 384.774 219.974 354.776 252.012 337.624L274.401 325.637C284.1 320.444 287.754 308.37 282.56 298.67Z" fill="#B3E59F"/>
<path d="M282.56 298.67C277.367 288.969 265.292 285.316 255.594 290.509L252.541 292.144C254.801 293.835 256.748 296.017 258.168 298.67C263.362 308.37 259.708 320.444 250.007 325.636L227.618 337.623C195.58 354.775 171.911 384.772 162.68 419.923L159.289 432.838H175.998C180.525 432.838 184.483 429.785 185.633 425.407L187.073 419.924C196.304 384.774 219.972 354.776 252.01 337.624L274.399 325.637C284.1 320.444 287.754 308.37 282.56 298.67Z" fill="#95D6A4"/>
<path d="M298.473 304.931C293.868 297.05 286.521 291.955 278.45 290.013C274.238 289 271.918 284.56 273.298 280.453C274.732 276.183 275.525 271.619 275.564 266.875C275.758 242.724 255.967 222.766 231.815 222.767C224.282 222.767 217.198 224.676 211.011 228.031C207.514 229.928 203.14 228.808 201.125 225.377C191.614 209.183 174.023 198.308 153.885 198.308C134.606 198.308 117.66 208.275 107.904 223.335C106.004 226.267 102.284 227.328 99.0511 226.006C93.5901 223.772 87.5781 222.609 81.2721 222.785C58.4661 223.423 39.7431 241.908 38.8081 264.704C38.7191 266.878 38.7911 269.017 39.0121 271.112C39.4551 275.308 36.3751 279.128 32.1571 279.233C23.6321 279.444 15.1461 282.963 8.78109 289.893C-1.99991 301.63 -2.64791 319.782 7.24209 332.279C19.1581 347.336 41.0971 348.935 55.0521 336.229C61.1061 330.717 64.6161 323.458 65.5201 315.922C66.0321 311.656 69.9641 308.657 74.1821 309.473C76.8811 309.995 79.6691 310.268 82.5211 310.268C94.1721 310.268 104.752 305.708 112.59 298.281C115.192 295.816 119.119 295.526 122.033 297.614C131.007 304.043 142.003 307.829 153.885 307.829C167.319 307.829 179.62 302.988 189.146 294.958C192.179 292.401 196.672 292.865 199.329 295.81C207.334 304.686 218.921 310.267 231.815 310.267H231.915C236.246 310.257 239.742 313.851 239.368 318.165C238.752 325.264 240.509 332.611 244.875 338.933C255.015 353.619 275.316 357.113 289.807 346.489C302.799 336.965 306.6 318.842 298.473 304.931Z" fill="#CCF49F"/>
<path d="M298.473 304.931C293.868 297.05 286.521 291.955 278.45 290.014C274.238 289.001 271.918 284.561 273.298 280.454C274.732 276.184 275.525 271.62 275.564 266.876C275.758 242.725 255.967 222.767 231.815 222.768C224.282 222.768 217.198 224.677 211.011 228.032C207.514 229.929 203.14 228.809 201.125 225.378C191.614 209.184 174.023 198.309 153.885 198.309C134.606 198.309 117.66 208.276 107.904 223.336C107.842 223.432 107.772 223.521 107.706 223.614C116.218 218.158 126.339 214.994 137.201 214.994C157.339 214.994 174.931 225.869 184.441 242.063C186.456 245.494 190.829 246.614 194.327 244.717C200.514 241.362 207.598 239.453 215.131 239.453C239.283 239.453 259.074 259.41 258.88 283.561C258.842 288.305 258.049 292.869 256.614 297.139C255.235 301.246 257.554 305.686 261.766 306.699C269.838 308.64 277.185 313.735 281.789 321.616C286.983 330.507 287.297 341.115 283.461 350.103C285.659 349.164 287.79 347.969 289.806 346.491C302.799 336.965 306.6 318.842 298.473 304.931Z" fill="#B3E59F"/>
<path d="M295.735 512C354.287 512 401.753 464.534 401.753 405.982C401.753 347.43 354.287 299.964 295.735 299.964C237.183 299.964 189.717 347.43 189.717 405.982C189.717 464.534 237.183 512 295.735 512Z" fill="#DDEAFB"/>
<path d="M373.228 407.001L369.793 405.019L373.228 403.036C376.816 400.965 378.044 396.378 375.973 392.791C373.901 389.203 369.314 387.977 365.728 390.046L356.212 395.541C354.731 384.511 350.296 374.411 343.727 366.055L346.04 363.742C348.969 360.812 348.969 356.064 346.04 353.135C343.11 350.207 338.362 350.207 335.433 353.135L333.088 355.48C325.003 349.203 315.313 344.904 304.738 343.334L310.708 332.993C312.779 329.406 311.55 324.819 307.963 322.748C304.373 320.677 299.787 321.905 297.718 325.493L295.736 328.928L293.753 325.493C291.682 321.905 287.093 320.678 283.508 322.748C279.921 324.819 278.692 329.406 280.763 332.993L286.734 343.334C275.638 344.982 265.509 349.626 257.194 356.416L253.913 353.135C250.983 350.207 246.235 350.207 243.306 353.135C240.377 356.065 240.377 360.813 243.306 363.742L246.811 367.247C240.748 375.362 236.671 385.035 235.26 395.541L225.743 390.046C222.157 387.976 217.568 389.203 215.498 392.791C213.427 396.378 214.656 400.965 218.243 403.036L221.678 405.019L218.243 407.001C214.656 409.071 213.427 413.658 215.498 417.246C217.581 420.867 222.219 422.042 225.743 419.991L235.635 414.28C237.384 424.24 241.55 433.373 247.513 441.053L243.306 445.26C240.377 448.19 240.377 452.938 243.306 455.867C246.236 458.795 250.983 458.795 253.913 455.867L258.089 451.691C266.233 458.094 276.03 462.48 286.734 464.069L280.763 474.41C278.692 477.997 279.921 482.584 283.508 484.655C287.092 486.723 291.681 485.497 293.753 481.91L295.736 478.475L297.718 481.91C299.8 485.53 304.44 486.707 307.963 484.655C311.55 482.584 312.779 477.997 310.708 474.41L304.738 464.069C314.92 462.557 324.292 458.526 332.191 452.625L335.433 455.867C338.363 458.795 343.11 458.795 346.04 455.867C348.969 452.937 348.969 448.189 346.04 445.26L343.023 442.243C349.489 434.325 353.997 424.757 355.837 414.28L365.728 419.99C369.252 422.041 373.891 420.865 375.973 417.245C378.044 413.66 376.815 409.073 373.228 407.001ZM341.347 397.519H312.262L333.028 376.753C337.377 382.754 340.311 389.838 341.347 397.519ZM303.049 385.517V358.251C310.166 359.392 316.738 362.175 322.376 366.19L303.049 385.517ZM288.049 358.318V387.27L267.868 367.089C273.673 362.66 280.556 359.583 288.049 358.318ZM277.084 397.519H250.125C251.09 390.364 253.692 383.722 257.561 377.996L277.084 397.519ZM250.554 412.519H276.047L258.224 430.342C254.493 425.104 251.828 419.059 250.554 412.519ZM288.049 421.732V449.086C280.946 447.887 274.394 445.058 268.787 440.994L288.049 421.732ZM303.049 449.152V423.484L321.441 441.876C316.018 445.541 309.774 448.074 303.049 449.152ZM313.298 412.519H340.917C339.542 419.575 336.554 426.058 332.348 431.569L313.298 412.519Z" fill="#9DC6FB"/>
<path d="M361.606 322.912C375.497 340.842 383.77 363.344 383.77 387.781C383.77 446.333 336.304 493.798 277.752 493.798C252.858 493.798 229.972 485.214 211.882 470.851C231.274 495.883 261.621 512 295.735 512C354.287 512 401.753 464.534 401.753 405.982C401.753 372.324 386.065 342.333 361.606 322.912Z" fill="#CBE2FF"/>
<path d="M289.089 81.512C258.205 81.512 227.465 85.715 197.714 94.006L156.451 105.505C149.695 107.388 145.021 113.542 145.021 120.556C145.021 127.362 149.427 133.385 155.914 135.446L282.077 175.532C299.686 181.127 318.944 176.355 331.904 163.187C348.09 146.74 349.226 120.72 334.535 102.925C323.34 89.364 306.674 81.512 289.089 81.512Z" fill="#E4989D"/>
<path d="M334.535 102.924C323.34 89.364 306.674 81.511 289.089 81.511C280.816 81.511 272.554 81.823 264.317 82.424C277.998 84.845 290.511 92.04 299.497 102.924C314.188 120.719 313.052 146.739 296.866 163.186C291.808 168.325 285.788 172.179 279.283 174.643L282.076 175.531C299.685 181.126 318.943 176.354 331.903 163.186C348.09 146.74 349.226 120.719 334.535 102.924Z" fill="#E28086"/>
<path d="M217.333 131.424C222.88 131.424 227.376 126.928 227.376 121.381C227.376 115.834 222.88 111.338 217.333 111.338C211.787 111.338 207.29 115.834 207.29 121.381C207.29 126.928 211.787 131.424 217.333 131.424Z" fill="#756E78"/>
</svg>
