<svg width="512" height="408" viewBox="0 0 512 408" fill="none" xmlns="http://www.w3.org/2000/svg">
<path d="M316.119 45.354C353.838 83.076 367.637 135.66 357.517 184.257C356.946 187 351.719 188.172 351.719 188.172C351.719 188.172 353.984 198.082 353.065 200.871C346.579 220.546 335.977 239.162 321.258 255.371C319.597 257.2 312.721 256.516 312.721 256.516C312.721 256.516 312.556 264.242 310.727 265.902C250.948 320.194 158.44 318.481 100.726 260.763C93.832 253.869 87.738 246.478 82.442 238.706C80.808 236.308 83.933 230.155 82.452 227.688C81.248 225.683 75.411 227.377 74.308 225.33C56.53 192.365 51.783 154.23 60.067 118.504C60.645 116.01 65.545 115.828 66.25 113.36C66.962 110.869 63.481 106.091 64.323 103.632C70.85 84.553 81.272 66.512 95.587 50.747C97.248 48.918 101.61 49.594 103.375 47.828C105.14 46.063 104.289 41.876 106.118 40.215C121.887 25.894 139.933 15.47 159.016 8.94201C161.325 8.15201 166.85 11.66 169.187 10.984C171.799 10.229 171.228 5.30401 173.869 4.69201C209.593 -3.59299 247.726 1.15401 280.688 18.934C283.27 20.327 281.985 24.76 284.499 26.313C286.43 27.505 292.175 25.783 294.063 27.069C301.835 32.364 309.225 38.46 316.119 45.354Z" fill="#ECB780"/>
<path d="M316.119 45.354C309.225 38.459 301.829 32.375 294.057 27.078C334.452 86.363 328.367 167.834 275.782 220.423C223.197 273.012 141.732 279.097 82.451 238.699C87.747 246.472 93.831 253.868 100.726 260.762C158.44 318.48 250.948 320.193 310.727 265.901C312.556 264.24 312.721 256.515 312.721 256.515C312.721 256.515 319.597 257.198 321.258 255.37C335.977 239.161 346.579 220.546 353.065 200.87C353.996 198.047 351.719 188.171 351.719 188.171C351.719 188.171 356.953 186.964 357.517 184.256C367.637 135.66 353.838 83.075 316.119 45.354Z" fill="#E49542"/>
<path d="M312.166 159.974L353.056 200.867C354.858 195.402 356.339 189.855 357.506 184.254L322.697 149.443C306.953 133.697 286.019 125.025 263.752 125.025C243.988 125.025 225.283 131.871 210.315 144.419L193.296 127.399L293.791 26.897C289.529 24.006 285.154 21.354 280.683 18.943L182.765 116.868L165.508 99.609C178.054 84.64 184.9 65.934 184.9 46.168C184.9 31.378 181.054 17.186 173.872 4.70203C168.867 5.86303 163.909 7.27703 159.019 8.95003C166.163 19.937 170.008 32.754 170.008 46.168C170.008 61.951 164.694 76.912 154.93 89.03L106.121 40.218C104.292 41.879 102.492 43.588 100.726 45.354C98.96 47.12 97.251 48.921 95.59 50.75L144.397 99.561C121.281 118.146 88.816 119.497 64.33 103.635C62.655 108.531 61.239 113.495 60.077 118.507C72.56 125.69 86.751 129.536 101.54 129.536C121.304 129.536 140.01 122.69 154.977 110.142L172.234 127.401L74.316 225.325C76.727 229.796 79.379 234.172 82.27 238.434L182.765 137.932L199.784 154.952C187.237 169.921 180.391 188.627 180.391 208.393C180.391 230.661 189.063 251.596 204.807 267.342L239.616 302.154C245.216 300.988 250.762 299.506 256.228 297.704L215.338 256.811C202.405 243.878 195.283 226.683 195.283 208.393C195.283 192.61 200.598 177.649 210.363 165.531L310.724 265.899C312.553 264.238 314.353 262.529 316.119 260.763C317.885 258.997 319.594 257.197 321.255 255.368L220.894 154.999C233.01 145.234 247.97 139.919 263.752 139.919C282.042 139.919 299.234 147.041 312.166 159.974Z" fill="#A298A5"/>
<path d="M275.783 220.423C274.017 222.189 272.217 223.898 270.388 225.559L310.725 265.898C312.554 264.237 314.354 262.528 316.12 260.762C317.886 258.996 319.595 257.196 321.256 255.367L280.919 215.028C279.257 216.856 277.548 218.657 275.783 220.423Z" fill="#8B818E"/>
<path d="M357.506 184.255L322.697 149.444C320.894 147.641 319.016 145.943 317.083 144.328C315.93 149.789 314.478 155.198 312.721 160.53L353.056 200.868C354.858 195.402 356.34 189.855 357.506 184.255Z" fill="#8B818E"/>
<path d="M204.808 267.341L239.617 302.153C245.217 300.987 250.763 299.505 256.229 297.703L215.894 257.365C210.563 259.122 205.153 260.575 199.693 261.727C201.307 263.659 203.005 265.538 204.808 267.341Z" fill="#8B818E"/>
<path d="M327.25 294.54C327.25 294.54 320.256 288.483 316.767 287.897C308.696 286.541 300.657 284.978 292.659 283.202L245.607 272.755C224.029 267.964 201.991 265.547 179.887 265.547H22.249C9.961 265.547 0 275.509 0 287.798V341.959C0 354.248 9.961 364.21 22.249 364.21H179.886C201.99 364.21 224.027 361.793 245.606 357.002L292.658 346.555C300.656 344.779 308.695 343.216 316.766 341.86C320.255 341.274 327.249 335.217 327.249 335.217V294.54H327.25Z" fill="#AA8080"/>
<path d="M327.25 313.236C315.653 314.924 304.114 317.031 292.658 319.574L245.606 330.021C224.028 334.812 201.99 337.229 179.886 337.229H22.249C9.961 337.228 0 327.266 0 314.978V341.959C0 354.248 9.961 364.21 22.249 364.21H179.886C201.99 364.21 224.027 361.793 245.606 357.002L292.658 346.555C300.656 344.779 308.695 343.216 316.766 341.86C320.255 341.274 327.249 335.217 327.249 335.217V313.236H327.25Z" fill="#9D6B6B"/>
<path d="M316.767 287.897V341.86C342.868 337.464 369.304 335.243 395.801 335.243H490.525V294.514H395.801C369.304 294.514 342.868 292.293 316.767 287.897Z" fill="#F4DDB1"/>
<path d="M316.767 314.878V341.859C342.868 337.463 369.304 335.242 395.801 335.242H490.525V308.261H395.801C369.304 308.261 342.868 310.482 316.767 314.878Z" fill="#EFCB84"/>
<path d="M493.859 349.068C483.84 349.068 475.718 340.946 475.718 330.927V298.83C475.718 288.811 483.84 280.689 493.859 280.689C503.878 280.689 512 288.811 512 298.83V330.926C512 340.945 503.878 349.068 493.859 349.068Z" fill="#F9EFDA"/>
<path d="M493.859 280.689C493.174 280.689 492.5 280.735 491.835 280.809C494.359 283.926 495.877 287.891 495.877 292.214V324.31C495.877 333.644 488.825 341.324 479.76 342.332C483.086 346.439 488.163 349.068 493.859 349.068C503.878 349.068 512 340.946 512 330.927V298.83C512 288.811 503.878 280.689 493.859 280.689Z" fill="#F4DDB1"/>
<path d="M412.322 277.521L426.601 272.947L444.143 327.7L429.863 332.275L412.322 277.521Z" fill="#9DC6FB"/>
<path d="M351.662 328.045L369.204 273.29L383.483 277.865L365.941 332.619L351.662 328.045Z" fill="#9DC6FB"/>
<path d="M397.845 273.61L412.784 272.32L418.957 343.811L404.018 345.101L397.845 273.61Z" fill="#9DC6FB"/>
<path d="M376.584 343.87L382.757 272.379L397.696 273.669L391.523 345.16L376.584 343.87Z" fill="#9DC6FB"/>
<path d="M469.794 369.803C475.279 390.3 467.835 396.682 457.3 399.5C446.765 402.318 437.129 400.508 431.644 380.011C426.159 359.514 425.945 324.515 436.48 321.696C447.015 318.877 464.309 349.306 469.794 369.803Z" fill="#DDEAFB"/>
<path d="M469.794 369.803C464.309 349.306 447.015 318.877 436.481 321.696C435.571 321.94 434.743 322.428 433.99 323.122C441.699 333.255 449.137 348.955 452.398 361.145C457.883 381.642 450.439 388.024 439.904 390.843C438.658 391.176 437.425 391.442 436.209 391.623C441.755 401.097 449.265 401.652 457.301 399.501C467.835 396.682 475.279 390.3 469.794 369.803Z" fill="#CBE2FF"/>
<path d="M326.248 369.803C320.763 390.3 328.207 396.682 338.742 399.5C349.277 402.318 358.913 400.508 364.398 380.011C369.883 359.514 370.097 324.515 359.562 321.696C349.027 318.877 331.733 349.306 326.248 369.803Z" fill="#DDEAFB"/>
<path d="M359.561 321.696C358.306 321.36 356.955 321.501 355.54 322.036C357.199 334.681 355.805 352.116 352.526 364.369C347.041 384.866 337.405 386.677 326.87 383.858C326.033 383.634 325.218 383.384 324.425 383.11C324.85 393.371 330.946 397.415 338.741 399.501C349.276 402.32 358.912 400.509 364.397 380.012C369.882 359.514 370.096 324.515 359.561 321.696Z" fill="#CBE2FF"/>
<path d="M416.317 289.907H379.726C373.099 289.907 367.726 284.534 367.726 277.907V247.163C367.726 232.272 379.797 220.201 394.688 220.201H401.355C416.246 220.201 428.317 232.272 428.317 247.163V277.907C428.317 284.534 422.944 289.907 416.317 289.907Z" fill="#CBE2FF"/>
<path d="M407.514 220.916C408.182 223.265 408.548 225.742 408.548 228.306V245.282C408.548 259.513 397.011 271.05 382.78 271.05H367.725V277.907C367.725 284.534 373.098 289.907 379.725 289.907H416.317C422.944 289.907 428.317 284.534 428.317 277.907V247.163C428.317 234.392 419.435 223.703 407.514 220.916Z" fill="#BED8FB"/>
<path d="M360.875 379.795C358.777 400.909 367.155 406.003 378.007 407.081C388.859 408.159 398.075 404.814 400.173 383.699C402.271 362.585 396.822 328.012 385.97 326.933C375.118 325.854 362.973 358.68 360.875 379.795Z" fill="#DDEAFB"/>
<path d="M385.971 326.934C385.618 326.899 385.263 326.902 384.908 326.937C388.475 339.119 389.861 356.235 388.625 368.678C386.527 389.792 377.311 393.138 366.459 392.06C364.496 391.865 362.616 391.536 360.863 391.007C362.383 402.849 369.418 406.228 378.009 407.082C388.861 408.16 398.077 404.815 400.175 383.7C402.271 362.585 396.822 328.012 385.971 326.934Z" fill="#CBE2FF"/>
<path d="M435.027 379.795C437.125 400.909 428.747 406.003 417.895 407.081C407.043 408.159 397.827 404.814 395.729 383.699C393.631 362.585 399.08 328.012 409.932 326.933C420.784 325.854 432.929 358.68 435.027 379.795Z" fill="#DDEAFB"/>
<path d="M409.932 326.934C409.208 327.006 408.509 327.231 407.834 327.587C413.499 338.794 418 354.733 419.202 366.83C421.3 387.944 412.922 393.038 402.07 394.116C400.606 394.261 399.174 394.322 397.783 394.274C401.557 405.958 409.199 407.944 417.895 407.08C428.747 406.002 437.125 400.908 435.027 379.794C432.929 358.68 420.784 325.856 409.932 326.934Z" fill="#CBE2FF"/>
</svg>
