<svg width="512" height="438" viewBox="0 0 512 438" fill="none" xmlns="http://www.w3.org/2000/svg">
<path d="M90.362 183.234L87.362 188.834V234.772H159.641V188.834L156.641 183.234H90.362Z" fill="#CBE2FF"/>
<path d="M135.791 183.234V234.772H159.641V188.834L156.641 183.234H135.791Z" fill="#BED8FB"/>
<path d="M159.641 188.834V171.618C159.641 162.966 152.627 155.953 143.976 155.953H103.027C94.375 155.953 87.362 162.966 87.362 171.618V188.834H159.641Z" fill="#E4989D"/>
<path d="M143.976 155.953H120.126C128.778 155.953 135.791 162.966 135.791 171.618V188.834H159.641V171.618C159.641 162.967 152.627 155.953 143.976 155.953Z" fill="#E28086"/>
<path d="M360.187 8.49104L266.536 185.389C261.054 195.745 268.561 208.213 280.278 208.213H467.58C479.297 208.213 486.804 195.745 481.322 185.389L387.671 8.49104C381.83 -2.54096 366.027 -2.54096 360.187 8.49104Z" fill="#CBE2FF"/>
<path d="M481.322 185.389L387.671 8.49104C381.831 -2.54096 366.027 -2.54096 360.187 8.49104L354.142 19.91L441.748 185.389C447.23 195.745 439.723 208.213 428.006 208.213H467.58C479.297 208.213 486.804 195.745 481.322 185.389Z" fill="#BED8FB"/>
<path d="M294.475 295.307H453.383C477.433 295.307 496.93 275.81 496.93 251.76C496.93 227.71 477.433 208.213 453.383 208.213H294.475C270.425 208.213 250.928 227.71 250.928 251.76C250.928 275.811 270.424 295.307 294.475 295.307Z" fill="#B3E59F"/>
<path d="M467.126 210.439C468.563 214.761 469.352 219.378 469.352 224.182C469.352 248.232 449.855 267.729 425.805 267.729H266.898C262.094 267.729 257.476 266.939 253.154 265.503C258.91 282.816 275.229 295.307 294.475 295.307H453.383C477.433 295.307 496.93 275.81 496.93 251.76C496.93 232.514 484.439 216.196 467.126 210.439Z" fill="#95D6A4"/>
<path d="M267.647 400.312H480.21C497.767 400.312 512 386.079 512 368.522V327.097C512 309.54 497.767 295.307 480.21 295.307H267.647C250.09 295.307 235.857 309.54 235.857 327.097V368.522C235.857 386.079 250.09 400.312 267.647 400.312Z" fill="#ECB780"/>
<path d="M483.073 295.442C483.157 296.386 483.208 297.339 483.208 298.305V339.73C483.208 357.287 468.975 371.52 451.418 371.52H238.855C237.889 371.52 236.936 371.47 235.992 371.385C237.44 387.599 251.056 400.312 267.647 400.312H480.21C497.767 400.312 512 386.079 512 368.522V327.097C512 310.506 499.288 296.89 483.073 295.442Z" fill="#E49542"/>
<path d="M287.789 281.505H204.398V168.62H383.287L349.82 241.688C338.709 265.949 314.473 281.505 287.789 281.505Z" fill="#FFD064"/>
<path d="M346.426 168.62L312.959 241.688C301.847 265.949 277.612 281.505 250.927 281.505H287.788C314.472 281.505 338.708 265.949 349.82 241.688L383.287 168.62H346.426Z" fill="#FFC250"/>
<path d="M358.812 177.421L338.937 185.104H196.943C186.658 185.104 178.32 176.766 178.32 166.481C178.32 156.196 186.658 147.858 196.943 147.858H370.579C380.864 147.858 389.202 156.196 389.202 166.481C389.202 174.89 383.629 181.997 375.974 184.311C374.266 184.827 358.812 177.421 358.812 177.421Z" fill="#FFD064"/>
<path d="M379.214 149.99C378.155 159.27 370.285 166.482 360.722 166.482H187.086C183.967 166.482 181.033 165.706 178.451 164.351C178.371 165.051 178.32 165.761 178.32 166.482C178.32 176.767 186.658 185.105 196.943 185.105H370.579C380.864 185.105 389.202 176.767 389.202 166.482C389.202 159.315 385.148 153.104 379.214 149.99Z" fill="#FFC250"/>
<path d="M337.334 346.08H195.474V275.247H337.334C345.618 275.247 352.334 281.963 352.334 290.247V331.08C352.334 339.365 345.618 346.08 337.334 346.08Z" fill="#E4989D"/>
<path d="M337.334 275.248H316.584C324.868 275.248 331.584 281.964 331.584 290.248V331.081C331.584 339.365 324.868 346.081 316.584 346.081H337.334C345.618 346.081 352.334 339.365 352.334 331.081V290.248C352.334 281.964 345.618 275.248 337.334 275.248Z" fill="#E28086"/>
<path d="M288.13 437.783C329.196 437.783 362.486 404.493 362.486 363.427C362.486 322.361 329.196 289.071 288.13 289.071C247.064 289.071 213.774 322.361 213.774 363.427C213.774 404.493 247.064 437.783 288.13 437.783Z" fill="#A298A5"/>
<path d="M334.587 305.373C344.786 318.101 350.89 334.252 350.89 351.83C350.89 392.896 317.6 426.186 276.534 426.186C258.955 426.186 242.805 420.082 230.077 409.883C243.704 426.889 264.643 437.782 288.131 437.782C329.197 437.782 362.487 404.492 362.487 363.426C362.486 339.94 351.593 319 334.587 305.373Z" fill="#8B818E"/>
<path d="M288.13 406.381C311.853 406.381 331.084 387.15 331.084 363.427C331.084 339.704 311.853 320.473 288.13 320.473C264.407 320.473 245.176 339.704 245.176 363.427C245.176 387.15 264.407 406.381 288.13 406.381Z" fill="#FFD064"/>
<path d="M310.889 327.003C315.022 333.603 317.419 341.401 317.419 349.762C317.419 373.485 298.188 392.716 274.465 392.716C266.103 392.716 258.306 390.319 251.706 386.186C259.299 398.311 272.768 406.38 288.13 406.38C311.853 406.38 331.084 387.149 331.084 363.426C331.084 348.066 323.014 334.596 310.889 327.003Z" fill="#FFC250"/>
<path d="M288.13 375.665C294.889 375.665 300.368 370.186 300.368 363.427C300.368 356.668 294.889 351.189 288.13 351.189C281.371 351.189 275.892 356.668 275.892 363.427C275.892 370.186 281.371 375.665 288.13 375.665Z" fill="#756E78"/>
<path d="M23.65 309.221C36.7115 309.221 47.3 298.633 47.3 285.571C47.3 272.51 36.7115 261.921 23.65 261.921C10.5885 261.921 0 272.51 0 285.571C0 298.633 10.5885 309.221 23.65 309.221Z" fill="#FFD064"/>
<path d="M23.65 261.921C19.341 261.921 15.304 263.079 11.825 265.093C18.892 269.183 23.65 276.819 23.65 285.571C23.65 294.323 18.892 301.96 11.825 306.049C15.304 308.063 19.341 309.221 23.65 309.221C36.712 309.221 47.3 298.632 47.3 285.571C47.3 272.51 36.712 261.921 23.65 261.921Z" fill="#FFC250"/>
<path d="M204.398 346.08H37.974C31.611 346.08 26.453 340.922 26.453 334.559V290.735C26.453 277.344 32.425 264.65 42.742 256.112L66.905 236.117C75.54 228.972 86.396 225.062 97.604 225.062H189.037C197.521 225.062 204.399 231.94 204.399 240.424V346.08H204.398Z" fill="#E4989D"/>
<path d="M189.037 225.063H170.354C178.838 225.063 185.716 231.941 185.716 240.425V346.08H204.399V240.424C204.398 231.94 197.521 225.063 189.037 225.063Z" fill="#E28086"/>
<path d="M116.687 437.783C157.753 437.783 191.043 404.493 191.043 363.427C191.043 322.361 157.753 289.071 116.687 289.071C75.6213 289.071 42.331 322.361 42.331 363.427C42.331 404.493 75.6213 437.783 116.687 437.783Z" fill="#A298A5"/>
<path d="M163.144 305.373C173.343 318.101 179.447 334.252 179.447 351.83C179.447 392.896 146.157 426.186 105.091 426.186C87.512 426.186 71.362 420.082 58.634 409.883C72.261 426.889 93.2 437.782 116.688 437.782C157.754 437.782 191.044 404.492 191.044 363.426C191.043 339.94 180.15 319 163.144 305.373Z" fill="#8B818E"/>
<path d="M116.687 406.381C140.41 406.381 159.641 387.15 159.641 363.427C159.641 339.704 140.41 320.473 116.687 320.473C92.9642 320.473 73.733 339.704 73.733 363.427C73.733 387.15 92.9642 406.381 116.687 406.381Z" fill="#FFD064"/>
<path d="M139.446 327.003C143.579 333.603 145.976 341.401 145.976 349.762C145.976 373.485 126.745 392.716 103.022 392.716C94.66 392.716 86.863 390.319 80.263 386.186C87.856 398.311 101.325 406.38 116.687 406.38C140.41 406.38 159.641 387.149 159.641 363.426C159.641 348.066 151.571 334.596 139.446 327.003Z" fill="#FFC250"/>
<path d="M116.687 375.665C123.446 375.665 128.925 370.186 128.925 363.427C128.925 356.668 123.446 351.189 116.687 351.189C109.928 351.189 104.449 356.668 104.449 363.427C104.449 370.186 109.928 375.665 116.687 375.665Z" fill="#756E78"/>
<path d="M170.639 269.526H151.09C146.89 269.526 143.485 266.121 143.485 261.921C143.485 257.721 146.89 254.316 151.09 254.316H170.639C174.839 254.316 178.244 257.721 178.244 261.921C178.244 266.121 174.839 269.526 170.639 269.526Z" fill="#DA4A54"/>
</svg>
