<svg width="512" height="318" viewBox="0 0 512 318" fill="none" xmlns="http://www.w3.org/2000/svg">
<path d="M458.344 7.60901H53.656C28.111 7.60901 7.40302 28.317 7.40302 53.862V264.138C7.40302 289.683 28.111 310.391 53.656 310.391H458.345C483.89 310.391 504.598 289.683 504.598 264.138V53.862C504.597 28.317 483.889 7.60901 458.344 7.60901Z" fill="#F9EFDA"/>
<path d="M458.942 7.60901H452.765V212.902C452.765 238.117 432.324 258.558 407.109 258.558H7.40302V264.735C7.40302 289.95 27.844 310.391 53.059 310.391H458.942C484.157 310.391 504.598 289.95 504.598 264.735V53.265C504.597 28.05 484.157 7.60901 458.942 7.60901Z" fill="#F4DDB1"/>
<path d="M458.941 317.794H53.059C23.802 317.794 0 293.992 0 264.735V53.2651C0 24.0081 23.802 0.206055 53.059 0.206055H458.941C488.198 0.206055 512 24.0081 512 53.2651V264.735C512 293.992 488.198 317.794 458.941 317.794ZM53.059 15.0121C31.967 15.0121 14.806 32.1721 14.806 53.2651V264.735C14.806 285.827 31.966 302.988 53.059 302.988H458.941C480.033 302.988 497.194 285.828 497.194 264.735V53.2651C497.194 32.1731 480.034 15.0121 458.941 15.0121H53.059Z" fill="#E4989D"/>
<path d="M130.467 195.952C126.378 195.952 123.064 192.638 123.064 188.549V52.028C123.064 47.939 126.378 44.625 130.467 44.625C134.556 44.625 137.87 47.939 137.87 52.028V188.549C137.87 192.638 134.556 195.952 130.467 195.952Z" fill="#756E78"/>
<path d="M153.851 195.952C149.762 195.952 146.448 192.638 146.448 188.549V52.028C146.448 47.939 149.762 44.625 153.851 44.625C157.94 44.625 161.254 47.939 161.254 52.028V188.549C161.254 192.638 157.94 195.952 153.851 195.952Z" fill="#756E78"/>
<path d="M177.234 195.952C173.145 195.952 169.831 192.638 169.831 188.549V52.028C169.831 47.939 173.145 44.625 177.234 44.625C181.323 44.625 184.637 47.939 184.637 52.028V188.549C184.638 192.638 181.323 195.952 177.234 195.952Z" fill="#756E78"/>
<path d="M212.304 225.796C208.215 225.796 204.901 222.482 204.901 218.393V52.028C204.901 47.939 208.215 44.625 212.304 44.625C216.393 44.625 219.707 47.939 219.707 52.028V218.393C219.707 222.482 216.393 225.796 212.304 225.796Z" fill="#756E78"/>
<path d="M247.375 195.952C243.286 195.952 239.972 192.638 239.972 188.549V52.028C239.972 47.939 243.286 44.625 247.375 44.625C251.464 44.625 254.778 47.939 254.778 52.028V188.549C254.778 192.638 251.464 195.952 247.375 195.952Z" fill="#756E78"/>
<path d="M95.397 225.796C91.308 225.796 87.994 222.482 87.994 218.393V52.028C87.994 47.939 91.308 44.625 95.397 44.625C99.486 44.625 102.8 47.939 102.8 52.028V218.393C102.8 222.482 99.486 225.796 95.397 225.796Z" fill="#756E78"/>
<path d="M317.536 195.952C313.447 195.952 310.133 192.638 310.133 188.549V52.028C310.133 47.939 313.447 44.625 317.536 44.625C321.625 44.625 324.939 47.939 324.939 52.028V188.549C324.939 192.638 321.625 195.952 317.536 195.952Z" fill="#756E78"/>
<path d="M282.517 195.952C278.428 195.952 275.114 192.638 275.114 188.549V52.028C275.114 47.939 278.428 44.625 282.517 44.625C286.606 44.625 289.92 47.939 289.92 52.028V188.549C289.921 192.638 286.606 195.952 282.517 195.952Z" fill="#756E78"/>
<path d="M411.464 225.796C407.375 225.796 404.061 222.482 404.061 218.393V52.028C404.061 47.939 407.375 44.625 411.464 44.625C415.553 44.625 418.867 47.939 418.867 52.028V218.393C418.867 222.482 415.553 225.796 411.464 225.796Z" fill="#756E78"/>
<path d="M352.658 195.952C348.569 195.952 345.255 192.638 345.255 188.549V52.028C345.255 47.939 348.569 44.625 352.658 44.625C356.747 44.625 360.061 47.939 360.061 52.028V188.549C360.061 192.638 356.747 195.952 352.658 195.952Z" fill="#756E78"/>
<path d="M375.54 195.952C371.451 195.952 368.137 192.638 368.137 188.549V52.028C368.137 47.939 371.451 44.625 375.54 44.625C379.629 44.625 382.943 47.939 382.943 52.028V188.549C382.943 192.638 379.629 195.952 375.54 195.952Z" fill="#756E78"/>
<path d="M130.712 276.105C126.623 276.105 123.309 272.791 123.309 268.702V228.79H120.598C116.509 228.79 113.195 225.476 113.195 221.387C113.195 217.298 116.509 213.984 120.598 213.984H130.712C134.801 213.984 138.115 217.298 138.115 221.387V268.703C138.115 272.791 134.801 276.105 130.712 276.105Z" fill="#756E78"/>
<path d="M340.951 275.647C335.754 275.751 331.959 270.008 334.177 265.262L350.413 228.33H335.724C331.635 228.33 328.321 225.016 328.321 220.927C328.321 216.838 331.635 213.524 335.724 213.524H361.754C364.254 213.524 366.586 214.787 367.953 216.88C369.32 218.973 369.538 221.617 368.531 223.906L347.732 271.221C346.513 273.995 343.799 275.647 340.951 275.647Z" fill="#756E78"/>
<path d="M446.437 276.352C437.06 276.352 436.316 276.104 435.33 275.776C432.963 274.987 431.119 273.114 430.397 270.764C429.174 266.788 431.038 264.346 434.127 260.301C436.521 257.167 440.977 251.332 448.447 240.658C450.865 237.203 451.855 234.774 452.254 233.272C452.784 230.575 450.374 228.071 447.67 228.098C445.426 228.098 443.485 229.689 443.054 231.882C442.265 235.894 438.378 238.503 434.362 237.719C430.35 236.93 427.737 233.039 428.525 229.027C430.317 219.909 438.368 213.291 447.67 213.291C458.428 213.291 467.179 222.044 467.179 232.801C466.825 238.762 464.521 243.285 460.577 249.148C456.98 254.286 454.064 258.334 451.726 261.515C454.932 261.498 458.388 261.466 461.689 261.424C461.72 261.423 461.752 261.423 461.783 261.423C465.829 261.423 469.133 264.676 469.183 268.734C469.235 272.822 465.962 276.178 461.873 276.229C455.066 276.314 450.094 276.352 446.437 276.352Z" fill="#756E78"/>
<path d="M188.063 233.92C188.063 222.294 178.604 212.834 166.978 212.834C155.352 212.834 145.892 222.293 145.892 233.92C145.892 244.928 154.375 253.979 165.145 254.913C162.179 258.824 159.494 260.927 159.23 261.129C155.977 263.576 155.307 268.194 157.74 271.465C160.194 274.765 164.849 275.41 168.099 272.986C168.601 273.487 187.918 255.534 188.063 233.92ZM160.699 233.92C160.699 230.457 163.516 227.641 166.978 227.641C170.44 227.641 173.257 230.458 173.257 233.92C173.257 237.382 170.44 240.199 166.978 240.199C163.515 240.2 160.699 237.383 160.699 233.92Z" fill="#756E78"/>
<path d="M61.82 277.071C50.194 277.071 40.734 267.612 40.734 255.985V234.103C40.734 222.477 50.193 213.017 61.82 213.017C73.447 213.017 82.906 222.476 82.906 234.103V255.985C82.906 267.612 73.447 277.071 61.82 277.071ZM61.82 227.824C58.357 227.824 55.541 230.641 55.541 234.103V255.985C55.541 259.448 58.358 262.264 61.82 262.264C65.283 262.264 68.099 259.447 68.099 255.985V234.103C68.099 230.641 65.283 227.824 61.82 227.824Z" fill="#756E78"/>
<path d="M250.008 277.071C238.382 277.071 228.922 267.612 228.922 255.985V234.103C228.922 222.477 238.381 213.017 250.008 213.017C261.634 213.017 271.094 222.476 271.094 234.103V255.985C271.094 267.612 261.634 277.071 250.008 277.071ZM250.008 227.824C246.545 227.824 243.729 230.641 243.729 234.103V255.985C243.729 259.448 246.546 262.264 250.008 262.264C253.471 262.264 256.287 259.447 256.287 255.985V234.103C256.287 230.641 253.471 227.824 250.008 227.824Z" fill="#756E78"/>
<path d="M300.959 277.071C289.333 277.071 279.873 267.612 279.873 255.985V234.103C279.873 222.477 289.332 213.017 300.959 213.017C312.586 213.017 322.045 222.476 322.045 234.103V255.985C322.045 267.612 312.586 277.071 300.959 277.071ZM300.959 227.824C297.496 227.824 294.68 230.641 294.68 234.103V255.985C294.68 259.448 297.497 262.264 300.959 262.264C304.421 262.264 307.239 259.447 307.239 255.985V234.103C307.239 230.641 304.421 227.824 300.959 227.824Z" fill="#756E78"/>
<path d="M61.82 277.071C72.574 277.071 81.457 268.973 82.732 258.558H67.542C66.557 260.74 64.365 262.264 61.82 262.264C59.275 262.264 57.083 260.739 56.098 258.558H40.908C42.183 268.973 51.067 277.071 61.82 277.071Z" fill="#665E66"/>
<path d="M130.712 276.105C134.801 276.105 138.115 272.791 138.115 268.702V258.558H123.309V268.702C123.309 272.791 126.623 276.105 130.712 276.105Z" fill="#665E66"/>
<path d="M168.098 272.986C168.385 273.272 174.797 267.543 180.279 258.558H162.027C160.5 260.138 159.394 261.003 159.23 261.129C155.977 263.576 155.307 268.194 157.74 271.465C160.194 274.764 164.848 275.41 168.098 272.986Z" fill="#665E66"/>
<path d="M250.008 277.071C260.762 277.071 269.645 268.973 270.92 258.558H255.73C254.745 260.74 252.553 262.264 250.008 262.264C247.463 262.264 245.271 260.739 244.286 258.558H229.096C230.371 268.973 239.254 277.071 250.008 277.071Z" fill="#665E66"/>
<path d="M300.959 277.071C311.714 277.071 320.597 268.973 321.872 258.558H306.681C305.696 260.74 303.504 262.264 300.958 262.264C298.413 262.264 296.221 260.739 295.236 258.558H280.046C281.322 268.973 290.205 277.071 300.959 277.071Z" fill="#665E66"/>
<path d="M340.951 275.647C343.799 275.647 346.513 273.995 347.732 271.221L353.299 258.557H337.124L334.177 265.261C331.959 270.008 335.754 275.751 340.951 275.647Z" fill="#665E66"/>
<path d="M461.785 261.423C461.753 261.423 461.722 261.423 461.691 261.424C458.389 261.465 454.934 261.497 451.727 261.515C454.065 258.334 456.982 254.286 460.578 249.148C464.522 243.285 466.826 238.762 467.18 232.801C467.18 223.798 461.042 216.221 452.737 213.981C452.617 219.143 451.652 224.096 449.955 228.698C451.555 229.596 452.625 231.384 452.254 233.271C451.855 234.773 450.865 237.202 448.447 240.657C440.976 251.332 436.521 257.167 434.126 260.3C431.038 264.345 429.173 266.786 430.397 270.763C431.119 273.112 432.963 274.986 435.33 275.775C436.316 276.104 437.059 276.351 446.437 276.351C450.094 276.351 455.066 276.313 461.876 276.228C465.965 276.177 469.238 272.821 469.186 268.733C469.135 264.676 465.831 261.423 461.785 261.423Z" fill="#665E66"/>
</svg>
