<svg width="422" height="512" viewBox="0 0 422 512" fill="none" xmlns="http://www.w3.org/2000/svg">
<path d="M328.927 192.414L379.462 182.158C390.287 179.961 397.281 169.405 395.084 158.58L383.702 102.5C381.505 91.675 370.949 84.681 360.124 86.878L309.59 97.134L328.927 192.414Z" fill="#E4989D"/>
<path d="M395.086 158.587L383.702 102.494C381.506 91.6731 370.953 84.6811 360.132 86.8771L360.044 86.8951L373.249 151.959C374.255 156.917 371.052 161.752 366.093 162.759L324.616 171.177L328.926 192.415L379.468 182.157C390.291 179.96 397.283 169.408 395.086 158.587Z" fill="#E28086"/>
<path d="M168.772 277.449L202.804 270.542C221.18 266.813 233.053 248.893 229.323 230.518L221.141 190.203L153.837 203.863L168.772 277.449Z" fill="#DD636E"/>
<path d="M229.326 230.529L221.142 190.202L205.551 193.366L211.98 225.043C214.936 239.61 205.524 253.815 190.957 256.772L165.619 261.914L168.772 277.449L202.816 270.54C221.185 266.812 233.054 248.899 229.326 230.529Z" fill="#DA4A54"/>
<path d="M201.562 378.872L236.034 371.876C243.564 370.348 247.469 361.972 243.8 355.222L169.983 219.425L105.916 232.428L180.075 368.853C184.259 376.549 192.976 380.614 201.562 378.872Z" fill="#E4989D"/>
<path d="M227.246 373.659L236.034 371.875C243.564 370.347 247.469 361.971 243.8 355.221L169.983 219.424L146.047 224.282L227.246 373.659Z" fill="#E28086"/>
<path d="M146.245 132.909L170.301 123.027L171.556 122.772C200.394 116.919 226.047 102.154 245.377 81.2781C247.349 79.1481 251.801 82.5671 253.638 80.3131C255.913 77.5211 255.536 69.0251 257.593 66.0531C265.147 55.1381 271.185 43.0441 275.393 30.0521L279.845 16.3081C282.466 8.21706 289.242 2.16606 297.577 0.475055C310.332 -2.11394 322.77 6.12806 325.359 18.8821L375.579 266.33C378.168 279.085 369.926 291.523 357.172 294.112C348.837 295.804 340.238 292.873 334.671 286.444L325.214 275.523C316.274 265.2 305.999 256.417 294.787 249.31C291.888 247.473 287.735 238.967 284.718 237.356C281.993 235.901 280.414 241.32 277.603 240.053C251.664 228.365 222.285 224.768 193.447 230.621L192.192 230.876L168.136 230.758L146.245 132.909Z" fill="#A298A5"/>
<path d="M401.288 332.096H117.824C111.701 332.096 105.898 334.831 102.001 339.555L44.7142 408.995C38.4612 416.574 38.4612 427.523 44.7142 435.102L102.001 504.542C105.898 509.265 111.7 512.001 117.824 512.001H401.288C412.616 512.001 421.8 502.817 421.8 491.489V352.609C421.8 341.279 412.617 332.096 401.288 332.096ZM83.7732 433.224C77.6002 433.224 72.5972 428.22 72.5972 422.048C72.5972 415.875 77.6012 410.872 83.7732 410.872C89.9452 410.872 94.9492 415.876 94.9492 422.048C94.9502 428.22 89.9462 433.224 83.7732 433.224Z" fill="#F9EFDA"/>
<path d="M401.288 332.096H399.794V483.216C399.794 486.96 396.759 489.994 393.016 489.994H95.8182C93.4862 489.994 91.2022 489.595 89.0502 488.843L102.001 504.541C105.898 509.264 111.7 512 117.824 512H401.288C412.616 512 421.8 502.816 421.8 491.488V352.608C421.8 341.279 412.617 332.096 401.288 332.096Z" fill="#F4DDB1"/>
<path d="M236.102 379.597C236.076 379.528 236.049 379.459 236.021 379.391C234.594 375.923 231.252 373.685 227.503 373.685C227.501 373.685 227.497 373.685 227.494 373.685C223.742 373.688 220.399 375.934 218.978 379.407C218.955 379.464 218.932 379.521 218.91 379.578L190.519 454.122C189.045 457.992 190.987 462.323 194.857 463.797C198.727 465.272 203.058 463.328 204.532 459.459L209.764 445.723H245.03L250.206 459.438C251.664 463.351 256.094 465.259 259.868 463.806C263.742 462.344 265.697 458.018 264.236 454.144L236.102 379.597ZM215.474 430.728L227.477 399.212L239.37 430.728H215.474Z" fill="#DD636E"/>
<path d="M310.655 448.112C310.641 448.112 310.626 448.112 310.612 448.112C303.964 448.149 296.802 448.175 291.676 448.176V380.065C291.676 375.924 288.319 372.568 284.179 372.568C280.038 372.568 276.682 375.925 276.682 380.065V455.61C276.682 459.263 279.314 462.384 282.915 463C283.451 463.092 302.095 463.155 310.697 463.107C314.838 463.084 318.175 459.708 318.152 455.568C318.129 451.441 314.776 448.112 310.655 448.112Z" fill="#DD636E"/>
<path d="M371.055 448.175H346.985V425.711H368.727C372.868 425.711 376.224 422.354 376.224 418.214C376.224 414.074 372.867 410.717 368.727 410.717H346.985V388.253H371.055C375.196 388.253 378.552 384.896 378.552 380.756C378.552 376.616 375.195 373.259 371.055 373.259H339.487C335.346 373.259 331.99 376.616 331.99 380.756V455.674C331.99 459.815 335.347 463.171 339.487 463.171H371.055C375.196 463.171 378.552 459.814 378.552 455.674C378.552 451.534 375.196 448.175 371.055 448.175Z" fill="#DD636E"/>
<path d="M160.348 411.43C150.744 407.888 141.827 404.023 139.436 402.973C137.294 401.367 136.258 398.827 136.653 396.081C137.163 392.529 139.923 389.669 144.037 388.43C155.759 384.899 166.417 393.415 166.647 393.601C169.816 396.237 174.524 395.82 177.18 392.66C179.844 389.491 179.435 384.761 176.265 382.097C175.584 381.525 159.366 368.152 139.712 374.072C130.01 376.994 123.15 384.611 121.81 393.95C120.559 402.665 124.334 411.047 131.663 415.825C133.652 416.935 142.192 420.616 155.159 425.498C163.141 428.442 167.208 432.987 166.319 437.968C165.423 442.985 159.519 448.175 151.188 448.175C143.131 448.175 135.358 444.906 130.396 439.43C127.616 436.362 122.874 436.128 119.806 438.909C116.738 441.69 116.504 446.431 119.285 449.499C127.042 458.059 138.969 463.169 151.188 463.169C165.932 463.169 178.783 453.468 181.08 440.603C182.824 430.841 178.293 418.049 160.348 411.43Z" fill="#DD636E"/>
<path d="M135.542 286.927H103.126C81.5802 286.927 64.0512 304.456 64.0512 326.002C64.0512 339.28 53.2492 350.082 39.9712 350.082H39.2762C17.7302 350.082 0.201172 367.611 0.201172 389.157V390.531C0.201172 412.077 17.7302 429.606 39.2762 429.606H75.7342C79.8752 429.606 83.2312 426.249 83.2312 422.109C83.2312 417.968 79.8742 414.612 75.7342 414.612H39.2752C25.9972 414.612 15.1952 403.81 15.1952 390.532V389.158C15.1952 375.88 25.9972 365.078 39.2752 365.078H39.9702C61.5162 365.078 79.0452 347.549 79.0452 326.003C79.0452 312.725 89.8472 301.923 103.125 301.923H143.692L135.542 286.927Z" fill="#756E78"/>
<path d="M370.078 239.234C366.739 242.872 362.231 245.501 356.979 246.466C348.633 248 340.122 244.728 334.567 238.313L325.457 227.793C292.854 190.146 242.496 172.985 193.689 182.891L159.051 190.161L168.133 230.76L192.189 230.878L193.444 230.623C222.282 224.77 251.662 228.367 277.6 240.055C280.541 241.38 281.869 235.827 284.715 237.358C287.602 238.911 292.006 247.552 294.784 249.312C305.996 256.419 316.271 265.202 325.211 275.525L334.668 286.446C340.235 292.875 348.835 295.805 357.169 294.114C369.924 291.525 378.165 279.087 375.576 266.332L370.078 239.234Z" fill="#8B818E"/>
<path d="M115.458 246.449L153.86 238.655L163.731 231.062L177.655 233.825L192.189 230.875L170.3 123.026L93.5691 138.599C82.7441 140.796 75.7501 151.352 77.9471 162.177L91.8801 230.826C94.0761 241.652 104.633 248.646 115.458 246.449Z" fill="#E4989D"/>
<path d="M86.7081 205.344L91.8801 230.827C94.0771 241.652 104.633 248.646 115.458 246.449L153.86 238.655L163.731 231.062L177.655 233.825L192.189 230.875L182.909 185.151L86.7081 205.344Z" fill="#E28086"/>
<path d="M257.581 66.045C253.864 71.416 249.785 76.506 245.371 81.273L277.597 240.059C283.52 242.728 289.26 245.825 294.777 249.322L257.581 66.045Z" fill="#E4989D"/>
<path d="M277.598 240.059C283.521 242.728 289.261 245.825 294.778 249.322L283.793 195.194C278.364 192.428 272.766 190.027 267.034 188.006L277.598 240.059Z" fill="#E28086"/>
</svg>
