<svg width="512" height="348" viewBox="0 0 512 348" fill="none" xmlns="http://www.w3.org/2000/svg">
<path d="M397.564 117.554C393.422 117.554 390.064 114.196 390.064 110.054V58.458C390.064 54.316 393.422 50.958 397.564 50.958C401.706 50.958 405.064 54.316 405.064 58.458V110.054C405.064 114.196 401.706 117.554 397.564 117.554Z" fill="#A298A5"/>
<path d="M232.623 117.554C228.481 117.554 225.123 114.196 225.123 110.054V58.458C225.123 54.316 228.481 50.958 232.623 50.958C236.765 50.958 240.123 54.316 240.123 58.458V110.054C240.123 114.196 236.765 117.554 232.623 117.554Z" fill="#A298A5"/>
<path d="M412.035 66.253H218.153C215.773 66.253 213.844 64.324 213.844 61.944V37.86C213.844 17.306 230.506 0.64502 251.059 0.64502H379.128C399.682 0.64502 416.343 17.307 416.343 37.86V61.944C416.344 64.324 414.414 66.253 412.035 66.253Z" fill="#E4989D"/>
<path d="M379.128 0.644043H350.249C370.803 0.644043 387.464 17.306 387.464 37.859V61.943C387.464 64.323 385.535 66.252 383.155 66.252H412.034C414.414 66.252 416.343 64.323 416.343 61.943V37.859C416.344 17.306 399.682 0.644043 379.128 0.644043Z" fill="#E28086"/>
<path d="M490.122 313.891H140.066V280.913L145.444 238.308L140.066 201.762V126.281H490.122V201.762L478.625 241.338L490.122 280.913V313.891Z" fill="#F9EFDA"/>
<path d="M461.243 126.281V313.891H490.122V280.913L478.625 241.338L490.122 201.762V126.281H461.243Z" fill="#F4DDB1"/>
<path d="M140.066 170.294C127.983 170.294 118.188 160.499 118.188 148.416V112.641C118.188 104.357 124.904 97.6411 133.188 97.6411H161.945V148.416C161.944 160.498 152.149 170.294 140.066 170.294Z" fill="#DD636E"/>
<path d="M183.823 170.294C171.74 170.294 161.945 160.499 161.945 148.416V97.6411H205.702V148.416C205.701 160.498 195.906 170.294 183.823 170.294Z" fill="#F4DDB1"/>
<path d="M227.58 170.294C215.497 170.294 205.702 160.499 205.702 148.416V97.6411H249.459V148.416C249.458 160.498 239.663 170.294 227.58 170.294Z" fill="#DD636E"/>
<path d="M271.337 170.294C259.254 170.294 249.459 160.499 249.459 148.416V97.6411H293.216V148.416C293.215 160.498 283.42 170.294 271.337 170.294Z" fill="#F4DDB1"/>
<path d="M315.094 170.294C303.011 170.294 293.215 160.499 293.215 148.416V97.6411H336.972V148.416C336.972 160.498 327.177 170.294 315.094 170.294Z" fill="#DD636E"/>
<path d="M490.122 170.294C478.039 170.294 468.243 160.499 468.243 148.416V97.6411H497C505.284 97.6411 512 104.357 512 112.641V148.416C512 160.498 502.205 170.294 490.122 170.294Z" fill="#DD636E"/>
<path d="M358.851 170.294C346.768 170.294 336.973 160.499 336.973 148.416V97.6411H380.73V148.416C380.729 160.498 370.934 170.294 358.851 170.294Z" fill="#F4DDB1"/>
<path d="M402.608 170.294C390.525 170.294 380.729 160.499 380.729 148.416V97.6411H424.486V148.416C424.486 160.498 414.691 170.294 402.608 170.294Z" fill="#DD636E"/>
<path d="M446.365 170.294C434.282 170.294 424.487 160.499 424.487 148.416V97.6411H468.244V148.416C468.243 160.498 458.448 170.294 446.365 170.294Z" fill="#F4DDB1"/>
<path d="M145.069 97.641V141.878C145.069 153.543 135.939 163.073 124.436 163.719C128.407 167.775 133.941 170.294 140.066 170.294C152.149 170.294 161.944 160.499 161.944 148.415V97.64H145.069V97.641Z" fill="#DA4A54"/>
<path d="M188.826 97.641V141.878C188.826 153.543 179.696 163.073 168.193 163.719C172.164 167.775 177.698 170.294 183.823 170.294C195.906 170.294 205.701 160.499 205.701 148.415V97.64H188.826V97.641Z" fill="#EFCB84"/>
<path d="M232.583 97.641V141.878C232.583 153.543 223.453 163.073 211.95 163.719C215.921 167.775 221.455 170.294 227.58 170.294C239.663 170.294 249.458 160.499 249.458 148.415V97.64H232.583V97.641Z" fill="#DA4A54"/>
<path d="M276.34 97.641V141.878C276.34 153.543 267.21 163.073 255.707 163.719C259.678 167.775 265.212 170.294 271.337 170.294C283.42 170.294 293.215 160.499 293.215 148.415V97.64H276.34V97.641Z" fill="#EFCB84"/>
<path d="M320.097 97.641V141.878C320.097 153.543 310.967 163.073 299.464 163.719C303.435 167.775 308.969 170.294 315.094 170.294C327.177 170.294 336.972 160.499 336.972 148.415V97.64H320.097V97.641Z" fill="#DA4A54"/>
<path d="M497 97.6411H495.125V141.878C495.125 153.543 485.995 163.073 474.492 163.719C478.463 167.775 483.997 170.294 490.122 170.294C502.205 170.294 512 160.499 512 148.415V112.64C512 104.356 505.284 97.6411 497 97.6411Z" fill="#DA4A54"/>
<path d="M363.854 97.641V141.878C363.854 153.543 354.724 163.073 343.221 163.719C347.192 167.775 352.726 170.294 358.851 170.294C370.934 170.294 380.729 160.499 380.729 148.415V97.64H363.854V97.641Z" fill="#EFCB84"/>
<path d="M407.611 97.641V141.878C407.611 153.543 398.481 163.073 386.978 163.719C390.949 167.775 396.483 170.294 402.608 170.294C414.691 170.294 424.486 160.499 424.486 148.415V97.64H407.611V97.641Z" fill="#DA4A54"/>
<path d="M451.368 97.641V141.878C451.368 153.543 442.238 163.073 430.735 163.719C434.706 167.775 440.24 170.294 446.365 170.294C458.448 170.294 468.243 160.499 468.243 148.415V97.64H451.368V97.641Z" fill="#EFCB84"/>
<path d="M343.973 313.891H286.215V206.762C286.215 204.001 288.454 201.762 291.215 201.762H338.973C341.734 201.762 343.973 204.001 343.973 206.762V313.891Z" fill="#CBE2FF"/>
<path d="M338.973 201.762H320.66C323.421 201.762 325.66 204.001 325.66 206.762V313.89H343.973V206.762C343.973 204.001 341.734 201.762 338.973 201.762Z" fill="#BED8FB"/>
<path d="M490.122 280.913H375.469C372.708 280.913 370.469 278.674 370.469 275.913V206.762C370.469 204.001 372.708 201.762 375.469 201.762H490.122V280.913Z" fill="#CBE2FF"/>
<path d="M254.719 280.913H140.066V201.762H254.719C257.48 201.762 259.719 204.001 259.719 206.762V275.913C259.719 278.675 257.48 280.913 254.719 280.913Z" fill="#CBE2FF"/>
<path d="M502.688 347.356H9.312C4.169 347.356 0 343.187 0 338.044V319.544C0 314.401 4.169 310.232 9.312 310.232H502.687C507.83 310.232 511.999 314.401 511.999 319.544V338.044C512 343.187 507.831 347.356 502.688 347.356Z" fill="#A298A5"/>
<path d="M502.688 310.231H493.538V319.581C493.538 324.724 489.369 328.893 484.226 328.893H0V338.043C0 343.186 4.169 347.355 9.312 347.355H502.687C507.83 347.355 511.999 343.186 511.999 338.043V319.543C512 314.401 507.831 310.231 502.688 310.231Z" fill="#8B818E"/>
<path d="M86.639 253.145V226.005H62.767V253.146C62.767 271.862 61.227 290.546 58.164 309.009L56.908 316.581C56.504 319.018 58.383 321.236 60.854 321.236H88.552C91.023 321.236 92.902 319.019 92.498 316.581L91.242 309.009C88.178 290.546 86.639 271.861 86.639 253.145Z" fill="#9D6B6B"/>
<path d="M92.4979 316.581L91.2419 309.009C88.1779 290.545 86.6389 271.861 86.6389 253.145V226.005H69.8999V253.145C69.8999 271.861 71.4399 290.545 74.5029 309.009L75.7589 316.581C76.1629 319.018 74.2839 321.236 71.8129 321.236H88.5509C91.0229 321.236 92.9029 319.019 92.4979 316.581Z" fill="#8B5E5E"/>
<path d="M137.326 190.352C135.171 188.116 134.576 184.849 135.575 181.909C138.44 173.48 137.797 163.907 132.995 155.592C126.999 145.206 116.063 139.459 104.868 139.59C102.184 139.622 99.706 138.244 98.142 136.063C91.637 126.99 81.609 120.39 69.506 118.542C47.529 115.186 26.325 129.482 21.115 151.095C19.116 159.387 19.656 167.673 22.219 175.159C23.397 178.6 22.102 182.441 19.086 184.472C7.69596 192.14 0.15996 205.092 -3.95994e-05 219.818C-0.25804 243.682 19.298 263.459 43.163 263.459C53.163 263.459 62.364 260.054 69.68 254.344C72.628 252.044 76.774 252.044 79.721 254.344C87.844 260.683 98.291 264.182 109.574 263.333C131.072 261.716 148.248 244.082 149.345 222.552C149.987 210.034 145.286 198.612 137.326 190.352Z" fill="#B3E59F"/>
<path d="M137.326 190.352C135.171 188.116 134.576 184.85 135.575 181.909C138.44 173.48 137.797 163.907 132.995 155.592C127.849 146.679 119.062 141.195 109.598 139.898C110.267 144.849 109.761 149.855 108.178 154.513C107.179 157.453 107.774 160.72 109.929 162.956C117.889 171.216 122.59 182.637 121.951 195.155C120.854 216.686 103.677 234.319 82.1799 235.936C70.8959 236.785 60.4499 233.286 52.3269 226.947C49.3789 224.647 45.2329 224.647 42.2859 226.947C34.9699 232.657 25.7689 236.062 15.7689 236.062C11.0429 236.062 6.4899 235.276 2.2229 233.846C7.9609 250.957 24.1959 263.458 43.1649 263.458C53.1649 263.458 62.3659 260.053 69.6819 254.343C72.6299 252.043 76.7759 252.043 79.7229 254.343C87.8459 260.682 98.2929 264.18 109.576 263.332C131.074 261.715 148.25 244.081 149.347 222.551C149.987 210.034 145.286 198.612 137.326 190.352Z" fill="#95D6A4"/>
<path d="M422.795 201.763H437.795V280.914H422.795V201.763Z" fill="#9DC6FB"/>
<path d="M192.392 201.763H207.392V280.914H192.392V201.763Z" fill="#9DC6FB"/>
<path d="M308.202 262.35C312.008 262.35 315.094 259.264 315.094 255.458C315.094 251.652 312.008 248.566 308.202 248.566C304.396 248.566 301.31 251.652 301.31 255.458C301.31 259.264 304.396 262.35 308.202 262.35Z" fill="#9DC6FB"/>
<path d="M461.243 201.762H490.122V280.913H461.243V201.762Z" fill="#BED8FB"/>
<path d="M254.719 201.762H230.84V280.913H254.719C257.48 280.913 259.719 278.674 259.719 275.913V206.762C259.719 204.001 257.48 201.762 254.719 201.762Z" fill="#BED8FB"/>
<path d="M361.01 47.597C352.698 47.597 348.176 43.373 345.183 40.578C342.705 38.264 341.889 37.597 339.594 37.597C337.3 37.597 336.484 38.264 334.006 40.578C331.013 43.373 326.491 47.597 318.179 47.597C309.867 47.597 305.345 43.373 302.352 40.578C299.874 38.264 299.058 37.597 296.764 37.597C294.47 37.597 293.654 38.264 291.176 40.578C288.183 43.373 283.661 47.597 275.349 47.597C267.038 47.597 262.516 43.373 259.523 40.578C257.046 38.264 256.23 37.597 253.937 37.597C249.795 37.597 246.437 34.239 246.437 30.097C246.437 25.955 249.795 22.597 253.937 22.597C262.248 22.597 266.77 26.821 269.762 29.616C272.24 31.93 273.056 32.597 275.349 32.597C277.643 32.597 278.459 31.93 280.937 29.616C283.93 26.821 288.452 22.597 296.764 22.597C305.076 22.597 309.598 26.821 312.591 29.616C315.069 31.93 315.885 32.597 318.179 32.597C320.473 32.597 321.289 31.93 323.767 29.616C326.76 26.821 331.282 22.597 339.594 22.597C347.906 22.597 352.428 26.821 355.422 29.616C357.9 31.93 358.716 32.597 361.011 32.597C363.306 32.597 364.123 31.93 366.602 29.615C369.595 26.821 374.118 22.597 382.43 22.597C386.572 22.597 389.93 25.955 389.93 30.097C389.93 34.239 386.572 37.597 382.43 37.597C380.135 37.597 379.318 38.264 376.839 40.579C373.845 43.373 369.323 47.597 361.01 47.597Z" fill="#F9EFDA"/>
<path d="M389.929 30.097C389.929 26.602 387.535 23.674 384.299 22.842C386.054 26.814 387.137 31.148 387.398 35.705C388.948 34.33 389.929 32.33 389.929 30.097Z" fill="#F4DDB1"/>
</svg>
