<svg width="410" height="512" viewBox="0 0 410 512" fill="none" xmlns="http://www.w3.org/2000/svg">
<path d="M366.637 378.799C363.317 367.612 363.168 355.707 366.329 344.473C369.255 334.074 370.823 323.107 370.823 311.772V133.185C370.823 121.85 369.256 110.883 366.329 100.484C363.168 89.2511 363.317 77.3461 366.637 66.1581L382.816 11.6451C384.861 4.75406 378.448 -1.65895 371.557 0.386055L316.739 16.6561C305.607 19.9601 293.765 20.1161 282.576 17.0091C272.292 14.1531 261.457 12.6261 250.263 12.6261H132.815C121.702 12.6261 110.94 14.1311 100.722 16.9471C89.5586 20.0231 77.7536 19.8631 66.6526 16.5691L12.1316 0.386055C5.24063 -1.65895 -1.17237 4.75406 0.872627 11.6451L16.7386 65.104C20.0896 76.3941 20.2266 88.4181 16.9626 99.7331C13.8986 110.354 12.2546 121.577 12.2546 133.185V311.772C12.2546 323.38 13.8986 334.603 16.9626 345.224C20.2266 356.539 20.0896 368.563 16.7386 379.853L0.872627 433.312C-1.17237 440.203 5.24063 446.616 12.1316 444.571L66.6526 428.39C77.7536 425.095 89.5586 424.935 100.722 428.012C110.94 430.828 121.702 432.333 132.815 432.333H250.262C261.455 432.333 272.291 430.805 282.575 427.95C293.764 424.843 305.606 424.999 316.738 428.303L371.556 444.573C378.447 446.618 384.86 440.205 382.815 433.314L366.637 378.799Z" fill="#756E78"/>
<path d="M366.637 378.799C363.317 367.612 363.168 355.706 366.329 344.473C369.255 334.074 370.823 323.107 370.823 311.772V133.185C370.823 121.851 369.255 110.883 366.329 100.484C363.168 89.2511 363.317 77.3461 366.637 66.1581L382.816 11.6451C384.861 4.75406 378.448 -1.65895 371.557 0.386055L316.739 16.6561C314.921 17.1961 313.083 17.6421 311.234 18.0131L296.945 66.1581C293.625 77.345 293.476 89.2501 296.637 100.484C299.563 110.883 301.131 121.85 301.131 133.185V311.772C301.131 323.106 299.563 334.074 296.637 344.473C293.476 355.706 293.625 367.612 296.945 378.799L311.234 426.944C313.084 427.315 314.922 427.762 316.74 428.301L371.558 444.571C378.449 446.616 384.863 440.203 382.817 433.312L366.637 378.799Z" fill="#665E66"/>
<path d="M191.845 171.346C261.64 171.346 318.22 145.61 318.22 113.862C318.22 82.1145 261.64 56.3781 191.845 56.3781C122.05 56.3781 65.4696 82.1145 65.4696 113.862C65.4696 145.61 122.05 171.346 191.845 171.346Z" fill="#F9EFDA"/>
<path d="M326.711 430.357C347.244 460.271 357.725 488.753 334.436 504.739C311.147 520.725 275.622 509.433 255.088 479.519C234.555 449.605 236.788 412.395 260.077 396.41C283.367 380.424 306.177 400.443 326.711 430.357Z" fill="#FFD064"/>
<path d="M326.711 430.357C309.799 405.718 291.341 387.814 272.345 391.19C280.688 398.264 288.802 408.178 296.588 419.521C317.122 449.435 327.602 477.917 304.313 493.903C296.207 499.467 286.618 501.718 276.695 501.038C295.691 513.723 318.078 515.967 334.435 504.739C357.724 488.753 347.244 460.271 326.711 430.357Z" fill="#FFC250"/>
<path d="M351.018 288.455V312.694C351.018 315.367 348.851 317.533 346.179 317.533H321.941C306.822 317.533 295.467 331.855 299.491 346.429C301.336 353.113 304.713 359.179 309.681 364.147C328.701 383.167 363.809 378.898 388.096 354.611C412.383 330.324 416.653 295.216 397.633 276.196C392.665 271.228 386.599 267.851 379.915 266.006C365.34 261.982 351.018 273.336 351.018 288.455Z" fill="#FFD064"/>
<path d="M404.515 285.562C403.758 300.933 396.477 317.474 383.177 330.773C358.89 355.06 323.782 359.33 304.762 340.309C302.811 338.358 301.115 336.233 299.652 333.973C298.464 337.864 298.306 342.133 299.491 346.427C301.336 353.111 304.713 359.177 309.681 364.145C328.701 383.165 363.809 378.896 388.096 354.609C408.807 333.898 414.948 305.325 404.515 285.562Z" fill="#FFC250"/>
<path d="M224.243 105.491H159.447C155.299 105.491 151.937 102.129 151.937 97.9811C151.937 93.8331 155.299 90.4711 159.447 90.4711H224.243C228.391 90.4711 231.753 93.8331 231.753 97.9811C231.753 102.129 228.391 105.491 224.243 105.491Z" fill="#E28086"/>
<path d="M251.281 135.365H132.408C128.26 135.365 124.898 132.003 124.898 127.855C124.898 123.707 128.26 120.345 132.408 120.345H251.281C255.429 120.345 258.791 123.707 258.791 127.855C258.791 132.003 255.429 135.365 251.281 135.365Z" fill="#E28086"/>
<path d="M294.47 80.3141C294.076 87.0821 294.782 93.8981 296.636 100.484C299.562 110.883 301.13 121.85 301.13 133.185V142.741C311.992 134.255 318.22 124.389 318.22 113.861C318.22 101.34 309.413 89.7561 294.47 80.3141Z" fill="#F4DDB1"/>
<path d="M299.559 294.072L77.5696 400.412C75.4756 401.415 73.0156 400.066 72.7356 397.761L69.0746 367.625C68.7786 365.19 67.6996 362.917 65.9996 361.149L44.3886 338.678C42.7856 337.011 43.2826 334.265 45.3686 333.266L267.421 226.896C269.541 225.881 272.026 227.276 272.263 229.615L275.388 260.525C275.656 263.174 276.85 265.644 278.76 267.5L300.459 288.579C302.151 290.223 301.688 293.052 299.559 294.072Z" fill="#F4DDB1"/>
<path d="M172.522 217.855C165.442 219.937 159.486 223.999 155.074 229.258C152.836 231.926 149.177 232.824 145.841 231.827C137.892 229.451 129.195 229.787 121.174 233.414C113.056 237.084 107.008 243.5 103.56 251.158C102.122 254.352 99.0026 256.526 95.5016 256.402C88.5006 256.153 81.3546 257.932 74.9846 261.955C58.1206 272.605 53.0836 294.909 63.7326 311.773C74.3826 328.637 133.393 413.352 159.987 396.557C163.614 394.266 165.794 390.619 166.829 385.986C167.548 382.765 171.054 381.063 173.977 382.596C179.443 385.463 184.643 386.247 189.318 384.134C193.877 382.073 196.7 377.818 198.191 372.045C199 368.911 202.505 367.439 205.371 368.946C209.402 371.066 213.446 371.757 217.431 370.585C247.607 361.712 222.983 261.45 217.357 242.315C211.73 223.179 191.657 212.228 172.522 217.855Z" fill="#DD636E"/>
<path d="M132.344 266.404C129.484 266.404 126.751 264.761 125.496 261.986L106.538 220.058C100.466 206.628 106.452 190.763 119.882 184.69C133.312 178.616 149.177 184.604 155.25 198.034C156.958 201.813 155.28 206.263 151.501 207.971C147.72 209.682 143.272 208 141.564 204.222C138.903 198.339 131.954 195.716 126.07 198.376C120.186 201.036 117.565 207.986 120.224 213.87L139.182 255.798C140.89 259.577 139.212 264.026 135.433 265.735C134.428 266.188 133.377 266.404 132.344 266.404Z" fill="#B3E59F"/>
<path d="M155.919 255.223C159.095 262.248 152.288 272.184 140.714 277.417C129.14 282.65 117.184 281.197 114.008 274.172C110.832 267.147 129.213 251.978 129.213 251.978C129.213 251.978 152.743 248.198 155.919 255.223Z" fill="#B3E59F"/>
</svg>
