<svg width="406" height="512" viewBox="0 0 406 512" fill="none" xmlns="http://www.w3.org/2000/svg">
<path d="M371.646 355.742C371.646 340.427 379.524 326.96 391.442 319.148H130.483C110.273 319.148 93.8894 335.532 93.8894 355.742C93.8894 375.952 110.273 392.336 130.483 392.336H382.317C385.24 392.336 386.628 388.812 384.554 386.752C376.584 378.832 371.646 367.866 371.646 355.742Z" fill="#F9EFDA"/>
<path d="M371.647 355.741C371.647 340.427 379.525 326.959 391.443 319.147H361.49C349.572 326.959 341.694 340.427 341.694 355.741V355.88C341.717 363.125 336.007 369.072 328.762 369.072H96.4055C101.737 382.687 114.979 392.334 130.484 392.334H361.489H382.318C385.241 392.334 386.629 388.81 384.555 386.75C376.585 378.833 371.647 367.866 371.647 355.741Z" fill="#F4DDB1"/>
<path d="M393.054 0H123.893C107.322 0 93.8894 13.433 93.8894 30.004V355.741C93.8894 335.531 110.273 319.147 130.483 319.147H393.054C399.682 319.147 405.056 313.774 405.056 307.145V12.002C405.055 5.373 399.682 0 393.054 0V0Z" fill="#A298A5"/>
<path d="M393.054 0H361.049V216.805C361.049 247.918 335.827 273.141 304.713 273.141H93.8884V355.742C93.8884 335.532 110.272 319.148 130.482 319.148H393.053C399.681 319.148 405.055 313.775 405.055 307.146V12.002C405.055 5.373 399.682 0 393.054 0V0Z" fill="#8B818E"/>
<path d="M367.711 134.883H131.228C127.864 134.883 125.494 131.581 126.571 128.394L140.65 86.726C141.788 83.359 141.8 79.714 140.685 76.34L126.513 33.452C125.462 30.271 127.831 26.994 131.18 26.994H367.765C371.171 26.994 373.544 30.373 372.389 33.577L357.125 75.92C355.817 79.549 355.831 83.524 357.165 87.144L372.323 128.268C373.506 131.477 371.131 134.883 367.711 134.883Z" fill="#FFD064"/>
<path d="M372.323 128.267L361.049 97.681V134.883H367.711C371.131 134.883 373.506 131.477 372.323 128.267Z" fill="#FFC250"/>
<path d="M367.764 26.994H361.049V65.033L372.389 33.577C373.544 30.373 371.17 26.994 367.764 26.994Z" fill="#FFC250"/>
<path d="M278.7 475.406C278.7 460.091 286.578 446.624 298.496 438.812H37.5374C17.3274 438.812 0.943359 455.196 0.943359 475.406C0.943359 495.616 17.3274 512 37.5374 512H289.371C292.294 512 293.682 508.476 291.608 506.416C283.637 498.496 278.7 487.53 278.7 475.406Z" fill="#F9EFDA"/>
<path d="M278.701 475.406C278.701 460.092 286.579 446.624 298.497 438.812H268.544C256.626 446.624 248.747 460.092 248.747 475.406V475.545C248.77 482.79 243.061 488.737 235.816 488.737H3.4585C8.7895 502.353 22.0325 512 37.5365 512H268.542H268.542H289.372C292.295 512 293.683 508.476 291.609 506.416C283.639 498.497 278.701 487.53 278.701 475.406Z" fill="#F4DDB1"/>
<path d="M300.107 119.664H30.9474C14.3764 119.664 0.943359 133.097 0.943359 149.668V475.405C0.943359 455.195 17.3274 438.811 37.5374 438.811H300.108C306.736 438.811 312.11 433.438 312.11 426.809V319.602L292.09 223.875L312.11 134.625V131.666C312.109 125.038 306.736 119.664 300.107 119.664Z" fill="#B3E59F"/>
<path d="M300.107 119.664H268.102V336.469C268.102 367.582 242.88 392.805 211.766 392.805H0.941406V475.406C0.941406 455.196 17.3254 438.812 37.5354 438.812H300.106C306.734 438.812 312.108 433.439 312.108 426.81V131.666C312.109 125.038 306.736 119.664 300.107 119.664Z" fill="#95D6A4"/>
<path d="M97.4085 173.72H57.3365C53.1815 173.72 49.8135 170.352 49.8135 166.197C49.8135 162.042 53.1815 158.674 57.3365 158.674H97.4085C101.563 158.674 104.931 162.042 104.931 166.197C104.931 170.352 101.563 173.72 97.4085 173.72Z" fill="#F9EFDA"/>
<path d="M255.522 173.72H215.45C211.295 173.72 207.927 170.352 207.927 166.197C207.927 162.042 211.295 158.674 215.45 158.674H255.522C259.677 158.674 263.045 162.042 263.045 166.197C263.045 170.352 259.677 173.72 255.522 173.72Z" fill="#F9EFDA"/>
<path d="M176.562 173.72H136.49C132.335 173.72 128.967 170.352 128.967 166.197C128.967 162.042 132.335 158.674 136.49 158.674H176.562C180.717 158.674 184.085 162.042 184.085 166.197C184.085 170.352 180.717 173.72 176.562 173.72Z" fill="#F9EFDA"/>
<path d="M296.481 67.541H209.637C205.482 67.541 202.115 64.173 202.115 60.018C202.115 55.863 205.482 52.495 209.637 52.495H296.481C300.636 52.495 304.005 55.863 304.005 60.018C304.005 64.173 300.636 67.541 296.481 67.541Z" fill="#B3E59F"/>
<path d="M296.481 97.705H209.637C205.482 97.705 202.115 94.337 202.115 90.182C202.115 86.027 205.482 82.659 209.637 82.659H296.481C300.636 82.659 304.005 86.027 304.005 90.182C304.005 94.337 300.636 97.705 296.481 97.705Z" fill="#B3E59F"/>
<path d="M126.725 471.846H45.2054C41.0504 471.846 37.6824 468.478 37.6824 464.323C37.6824 460.168 41.0504 456.8 45.2054 456.8H126.725C130.88 456.8 134.248 460.168 134.248 464.323C134.248 468.479 130.879 471.846 126.725 471.846Z" fill="#EFCB84"/>
<path d="M209.636 496.327H97.4085C93.2535 496.327 89.8855 492.959 89.8855 488.804C89.8855 484.649 93.2535 481.281 97.4085 481.281H209.636C213.791 481.281 217.16 484.649 217.16 488.804C217.16 492.96 213.792 496.327 209.636 496.327Z" fill="#EFCB84"/>
<path d="M197.098 322.691H109.949C88.8345 322.691 71.7185 305.575 71.7185 284.461C71.7185 251.087 98.7735 224.032 132.147 224.032H174.899C208.273 224.032 235.329 251.087 235.329 284.461C235.328 305.575 218.211 322.691 197.098 322.691Z" fill="#F9EFDA"/>
<path d="M151.651 296.625C151.651 296.625 132.382 279.085 131.533 279.178C121.458 280.277 112.925 287.744 111.182 297.893C110.097 304.211 111.727 310.614 115.562 315.6L115.877 316.009C119.118 320.223 124.132 322.692 129.448 322.692H177.17C182.486 322.692 187.5 320.223 190.741 316.009C193.633 312.249 195.479 307.735 195.732 302.998C196.387 290.727 187.297 280.437 175.506 279.17C174.701 279.082 151.651 296.625 151.651 296.625Z" fill="#A298A5"/>
<path d="M136.854 367.879H170.192C177.418 367.879 183.081 361.671 182.421 354.476L175.507 279.17C174.701 279.083 173.882 279.038 173.054 279.038H134.11C133.242 279.038 132.386 279.101 131.537 279.194L124.626 354.476C123.965 361.672 129.629 367.879 136.854 367.879Z" fill="#F4DDB1"/>
</svg>
