<svg width="512" height="452" viewBox="0 0 512 452" fill="none" xmlns="http://www.w3.org/2000/svg">
<path d="M393.999 164.739C392.062 164.739 390.126 163.99 388.663 162.498L256 27.1909L123.337 162.498C120.447 165.446 115.716 165.491 112.77 162.603C109.823 159.714 109.776 154.983 112.665 152.036L250.664 11.2859C252.069 9.85192 253.993 9.04492 256 9.04492C258.007 9.04492 259.93 9.85292 261.336 11.2859L399.335 152.036C402.224 154.983 402.178 159.714 399.23 162.603C397.776 164.029 395.887 164.739 393.999 164.739Z" fill="#EFCB84"/>
<path d="M491.109 276.612L454.616 213.404C451.314 207.685 449.576 201.198 449.576 194.595V145.856C449.576 137.026 442.418 129.868 433.588 129.868H78.239C69.409 129.868 62.251 137.026 62.251 145.856V194.893C62.251 201.496 60.513 207.983 57.211 213.702L20.89 276.612C18.034 281.559 18.034 287.653 20.89 292.6L57.211 355.51C60.513 361.229 62.251 367.716 62.251 374.319V423.356C62.251 432.186 69.409 439.344 78.239 439.344H433.588C442.418 439.344 449.576 432.186 449.576 423.356V374.617C449.576 368.014 451.314 361.527 454.616 355.808L491.109 292.601C493.965 287.653 493.965 281.558 491.109 276.612Z" fill="#F9EFDA"/>
<path d="M256 50.445C269.811 50.445 281.008 39.2485 281.008 25.437C281.008 11.6254 269.811 0.428955 256 0.428955C242.188 0.428955 230.992 11.6254 230.992 25.437C230.992 39.2485 242.188 50.445 256 50.445Z" fill="#A298A5"/>
<path d="M265.766 2.40796C267.04 5.40896 267.746 8.70896 267.746 12.174C267.746 25.986 256.549 37.182 242.738 37.182C239.273 37.182 235.972 36.476 232.972 35.202C236.776 44.161 245.654 50.444 256.001 50.444C269.813 50.444 281.009 39.247 281.009 25.436C281.008 15.091 274.725 6.21196 265.766 2.40796Z" fill="#8B818E"/>
<path d="M491.109 276.612L454.616 213.405C451.314 207.686 449.576 201.199 449.576 194.596V145.857C449.576 137.027 442.418 129.869 433.588 129.869H379.945V194.596C379.945 201.199 381.683 207.687 384.985 213.406L421.478 276.613C424.334 281.56 424.334 287.654 421.478 292.601L384.985 355.809L384.93 355.905C381.338 362.149 374.683 365.997 367.48 365.997H61.2991C61.9171 368.718 62.2511 371.507 62.2511 374.32V423.357C62.2511 432.187 69.4091 439.345 78.2391 439.345H433.588C442.418 439.345 449.576 432.187 449.576 423.357V374.618C449.576 368.015 451.314 361.528 454.616 355.809L491.109 292.601C493.965 287.653 493.965 281.558 491.109 276.612Z" fill="#F4DDB1"/>
<path d="M428.342 187.482C428.342 201.001 431.915 214.336 438.675 226.044L472.486 284.606L438.675 343.168C431.915 354.876 428.343 368.211 428.343 381.73V408.952C428.343 412.315 425.617 415.041 422.254 415.041H89.562C86.199 415.041 83.473 412.315 83.473 408.952V381.41C83.473 367.872 79.909 354.572 73.14 342.848L39.515 284.607L73.14 226.366C79.909 214.642 83.473 201.342 83.473 187.804V160.262C83.473 156.899 86.199 154.173 89.562 154.173H422.254C425.617 154.173 428.343 156.899 428.343 160.262V187.482H428.342ZM447.623 117.64H64.192C54.664 117.64 46.941 125.364 46.941 134.891V187.803C46.941 194.928 45.066 201.928 41.503 208.099L2.31101 275.98C-0.770988 281.317 -0.770988 287.893 2.31101 293.231L41.503 361.112C45.066 367.283 46.941 374.283 46.941 381.408V434.32C46.941 443.847 54.665 451.571 64.192 451.571H447.622C457.15 451.571 464.873 443.847 464.873 434.32V381.729C464.873 374.604 466.749 367.604 470.311 361.433L509.688 293.231C512.77 287.893 512.77 281.317 509.688 275.98L470.311 207.778C466.748 201.607 464.873 194.608 464.873 187.482V134.891C464.874 125.364 457.15 117.64 447.623 117.64Z" fill="#E4989D"/>
<path d="M509.689 275.98L470.312 207.777C466.749 201.607 464.874 194.607 464.874 187.482V134.891C464.874 125.363 457.151 117.64 447.623 117.64H445.164V197.455C445.164 203.787 446.831 210.007 449.997 215.491L484.99 276.101C487.729 280.844 487.729 286.688 484.99 291.431L449.997 352.04C446.831 357.524 445.164 363.744 445.164 370.076V416.812C445.164 425.279 438.3 432.143 429.833 432.143H46.9409V434.319C46.9409 443.847 54.6649 451.57 64.1919 451.57H447.622C457.15 451.57 464.873 443.846 464.873 434.319V381.728C464.873 374.603 466.749 367.603 470.311 361.432L509.688 293.23C512.77 287.894 512.77 281.318 509.689 275.98Z" fill="#E28086"/>
<path d="M380.777 201.562C380.738 197.459 377.4 194.161 373.306 194.161C373.282 194.161 373.257 194.161 373.233 194.161C369.106 194.201 365.793 197.579 365.833 201.705L366.159 235.404L339.979 197.494C338.121 194.803 334.728 193.632 331.606 194.606C328.484 195.579 326.357 198.47 326.357 201.74V258.728C326.357 262.855 329.703 266.201 333.83 266.201C337.957 266.201 341.303 262.855 341.303 258.728V225.711L366.216 261.787C368.399 264.939 372.046 266.276 375.504 265.197C379.032 264.095 381.311 260.8 381.31 256.731L380.777 201.562Z" fill="#DA4A54"/>
<path d="M302.971 209.628C307.098 209.628 310.444 206.282 310.444 202.155C310.444 198.028 307.098 194.682 302.971 194.682H279.134C275.007 194.682 271.661 198.028 271.661 202.155V258.728C271.661 262.855 275.007 266.201 279.134 266.201H302.971C307.098 266.201 310.444 262.855 310.444 258.728C310.444 254.601 307.098 251.255 302.971 251.255H286.606V237.913H301.214C305.341 237.913 308.687 234.567 308.687 230.44C308.687 226.313 305.341 222.967 301.214 222.967H286.606V209.626H302.971V209.628Z" fill="#DA4A54"/>
<path d="M234.923 194.161H219.025C215.01 194.082 211.483 197.625 211.552 201.634V258.729C211.552 262.856 214.898 266.202 219.025 266.202C223.152 266.202 226.498 262.856 226.498 258.729V241.361C229.605 241.345 232.957 241.331 234.923 241.331C248.102 241.331 258.823 230.751 258.823 217.746C258.823 204.742 248.102 194.161 234.923 194.161ZM234.923 226.386C232.97 226.386 229.659 226.4 226.567 226.415C226.551 223.214 226.529 212.461 226.519 209.106H234.922C239.776 209.106 243.877 213.063 243.877 217.746C243.878 222.429 239.777 226.386 234.923 226.386Z" fill="#DA4A54"/>
<path d="M162.574 194.161C142.712 194.161 126.554 210.319 126.554 230.181C126.554 250.042 142.712 266.201 162.574 266.201C182.435 266.201 198.594 250.042 198.594 230.181C198.593 210.32 182.435 194.161 162.574 194.161ZM162.574 251.256C150.953 251.256 141.499 241.802 141.499 230.181C141.499 218.56 150.953 209.106 162.574 209.106C174.194 209.106 183.649 218.56 183.649 230.181C183.648 241.802 174.194 251.256 162.574 251.256Z" fill="#DA4A54"/>
<path d="M272.622 381.628C267.477 381.722 263.664 376.163 265.681 371.392L292.715 303.421C294.241 299.586 298.585 297.714 302.421 299.239C306.256 300.765 308.128 305.11 306.603 308.945L279.569 376.916C278.403 379.844 275.593 381.628 272.622 381.628Z" fill="#756E78"/>
<path d="M343.955 381.628C338.71 381.732 334.879 375.936 337.118 371.146L362.39 313.655H336.445C332.318 313.655 328.972 310.309 328.972 306.182C328.972 302.055 332.318 298.709 336.445 298.709H373.838C376.362 298.709 378.716 299.983 380.095 302.097C381.475 304.211 381.694 306.878 380.678 309.189L350.8 377.16C349.569 379.96 346.829 381.628 343.955 381.628Z" fill="#756E78"/>
<path d="M228.25 381.626C228.228 381.626 228.206 381.626 228.184 381.626C224.057 381.59 220.74 378.216 220.776 374.09C220.809 370.254 220.843 366 220.875 361.566H194.408C191.764 361.566 189.317 360.169 187.973 357.892C186.629 355.616 186.588 352.798 187.865 350.483C193.243 340.735 211.088 308.563 214.944 303.832C218.452 299.529 223.217 297.788 227.698 299.175C232.214 300.574 235.42 304.93 235.865 310.274C236.067 312.7 236.017 330.268 235.921 346.62H237.091C241.218 346.62 244.564 349.966 244.564 354.093C244.564 358.22 241.218 361.566 237.091 361.566H235.821C235.779 367.266 235.74 371.862 235.72 374.219C235.685 378.322 232.346 381.625 228.25 381.626ZM207.106 346.619H220.974C221.027 337.469 221.064 328.652 221.064 322.109C217.361 328.423 212.295 337.336 207.106 346.619Z" fill="#756E78"/>
<path d="M151.706 381.961C138.383 381.961 137.38 381.627 136.401 381.3C133.934 380.478 132.088 378.609 131.338 376.172C130.059 372.015 131.853 369.666 136.187 363.991C139.64 359.47 146.066 351.056 156.837 335.667C160.352 330.41 162.502 326.762 163.04 322.157C162.824 316.876 158.461 312.646 153.129 312.646C148.398 312.646 144.304 316.006 143.395 320.635C142.6 324.685 138.672 327.32 134.622 326.527C130.572 325.732 127.935 321.804 128.73 317.754C131.013 306.135 141.274 297.701 153.129 297.701C166.839 297.701 177.994 308.855 177.994 322.566C177.462 330.417 174.37 336.368 169.081 344.236C161.79 354.653 156.45 361.937 152.656 367.001C158.774 366.992 166.26 366.934 173.308 366.846C177.457 366.826 180.822 370.097 180.874 374.224C180.926 378.35 177.623 381.738 173.496 381.79C163.899 381.911 156.875 381.961 151.706 381.961Z" fill="#756E78"/>
</svg>
