<svg width="512" height="438" viewBox="0 0 512 438" fill="none" xmlns="http://www.w3.org/2000/svg">
<path d="M326.395 371.905C224.052 371.905 140.79 288.643 140.79 186.301C140.79 83.959 224.053 0.696045 326.395 0.696045C428.737 0.696045 512 83.958 512 186.301C512 288.644 428.738 371.905 326.395 371.905ZM326.395 44.593C248.258 44.593 184.687 108.163 184.687 186.301C184.687 264.439 248.257 328.009 326.395 328.009C404.533 328.009 468.103 264.439 468.103 186.301C468.103 108.163 404.533 44.593 326.395 44.593Z" fill="#B3E59F"/>
<path d="M448.1 46.2831C476.48 78.8911 493.687 121.466 493.687 167.987C493.687 270.33 410.425 353.591 308.083 353.591C261.562 353.591 218.986 336.384 186.379 308.004C220.433 347.131 270.574 371.904 326.396 371.904C428.738 371.905 512 288.643 512 186.301C512 130.479 487.226 80.3371 448.1 46.2831Z" fill="#95D6A4"/>
<path d="M388.686 182.499C397.464 172.868 402.66 159.918 402.151 145.746C401.187 118.88 379.37 96.9771 352.508 95.9161C328.821 94.9811 308.492 109.966 301.358 131.036C297.972 141.035 288.439 147.65 277.882 147.65H124.302C113.745 147.65 104.211 141.035 100.826 131.036C93.692 109.966 73.364 94.9811 49.676 95.9161C22.814 96.9771 0.99703 118.88 0.0330299 145.746C-0.47597 159.918 4.72003 172.868 13.498 182.499C15.544 184.744 15.544 188.125 13.498 190.369C4.72203 200 -0.47397 212.951 0.0340299 227.123C0.99803 253.989 22.815 275.892 49.677 276.953C73.364 277.888 93.693 262.903 100.827 241.833C104.213 231.834 113.746 225.219 124.303 225.219H277.883C288.44 225.219 297.974 231.834 301.359 241.833C308.493 262.903 328.821 277.888 352.509 276.953C379.371 275.892 401.188 253.989 402.152 227.123C402.661 212.951 397.465 200.001 388.687 190.37C386.641 188.125 386.641 184.743 388.686 182.499Z" fill="#F9EFDA"/>
<path d="M352.509 243.65C328.822 244.585 308.493 229.6 301.359 208.53C297.974 198.531 288.44 191.916 277.883 191.916H124.303C113.746 191.916 104.212 198.531 100.827 208.53C93.6931 229.6 73.3651 244.585 49.6771 243.65C27.9421 242.792 9.51511 228.286 2.76011 208.549C0.786113 214.348 -0.199887 220.603 0.0341131 227.123C0.998113 253.989 22.8151 275.892 49.6771 276.953C73.3641 277.888 93.6931 262.903 100.827 241.833C104.213 231.834 113.746 225.219 124.303 225.219H277.883C288.44 225.219 297.974 231.834 301.359 241.833C308.493 262.903 328.821 277.888 352.509 276.953C379.371 275.892 401.188 253.989 402.152 227.123C402.386 220.603 401.4 214.347 399.426 208.549C392.67 228.285 374.243 242.791 352.509 243.65Z" fill="#F4DDB1"/>
<path d="M308.912 359.373C308.912 367.192 307.761 374.742 305.618 381.863C304.87 384.348 300.249 383.027 299.266 385.401C298.171 388.046 300.688 394.372 299.32 396.861C292.183 409.845 281.453 420.575 268.469 427.712C266.108 429.01 260.298 425.693 257.796 426.745C255.294 427.797 256.098 433.22 253.471 434.01C246.35 436.153 238.8 437.304 230.981 437.304C187.941 437.304 153.05 402.413 153.05 359.373C153.05 351.554 154.201 344.004 156.344 336.883C157.135 334.256 162.792 335.309 163.844 332.807C164.896 330.305 161.344 324.247 162.642 321.885C169.779 308.901 180.51 298.171 193.493 291.034C195.679 289.832 201.052 291.189 203.359 290.198C206.036 289.047 205.669 285.586 208.491 284.736C215.612 282.593 223.162 281.442 230.981 281.442C274.021 281.442 308.912 316.333 308.912 359.373Z" fill="#E4989D"/>
<path d="M264.23 288.884C268.996 298.97 271.672 310.238 271.672 322.133C271.672 365.173 236.781 400.064 193.741 400.064C181.845 400.064 170.578 397.388 160.492 392.622C172.97 419.028 199.837 437.304 230.981 437.304C238.8 437.304 246.35 436.152 253.471 434.01C256.098 433.219 255.294 427.797 257.796 426.745C260.298 425.693 266.107 429.01 268.469 427.712C281.453 420.575 292.183 409.845 299.32 396.861C300.537 394.648 298.265 387.739 299.266 385.401C300.401 382.751 304.778 384.655 305.618 381.863C307.761 374.742 308.912 367.192 308.912 359.373C308.912 328.229 290.637 301.362 264.23 288.884Z" fill="#E28086"/>
<path d="M264.502 366.403C267.268 366.386 269.901 367.446 271.831 369.376L299.312 396.857C301.908 392.135 304.022 387.113 305.604 381.859L282.477 358.732C277.686 353.94 271.071 351.254 264.279 351.352L238.622 351.732L239.003 326.074C239.103 319.3 236.413 312.667 231.623 307.878L208.496 284.75C203.242 286.331 198.22 288.446 193.498 291.042L220.979 318.523C222.908 320.452 223.992 323.123 223.952 325.851L223.564 351.956L197.46 352.343C197.41 352.343 197.361 352.344 197.312 352.344C194.635 352.344 192.026 351.265 190.131 349.371L162.65 321.89C160.054 326.612 157.94 331.634 156.358 336.888L179.486 360.016C184.19 364.72 190.669 367.398 197.315 367.398C197.438 367.398 197.56 367.397 197.683 367.395L223.34 367.015L222.959 392.673C222.859 399.447 225.549 406.08 230.339 410.869L253.467 433.997C258.721 432.416 263.743 430.301 268.465 427.705L240.984 400.224C239.055 398.295 237.971 395.624 238.012 392.896L238.4 366.791L264.502 366.403Z" fill="#F9EFDA"/>
<path d="M253.467 433.996C258.721 432.415 263.743 430.3 268.465 427.704L240.984 400.223C239.055 398.294 237.971 395.623 238.012 392.895L238.112 386.188C233.423 389.442 228.361 392.191 223.001 394.365C223.332 400.541 225.951 406.479 230.341 410.869L253.467 433.996Z" fill="#F4DDB1"/>
<path d="M265.972 351.392C263.799 356.752 261.05 361.814 257.795 366.503L264.502 366.404C267.268 366.387 269.901 367.447 271.831 369.377L299.312 396.858C301.908 392.136 304.022 387.114 305.604 381.86L282.477 358.733C278.085 354.34 272.16 351.723 265.972 351.392Z" fill="#F4DDB1"/>
<path d="M30.341 223.576C26.184 223.576 22.814 220.206 22.814 216.049C22.814 205.871 27.504 200.372 30.928 196.357C33.743 193.056 35.442 191.063 35.442 186.433C35.442 181.803 33.743 179.81 30.928 176.509C27.504 172.494 22.814 166.995 22.814 156.818C22.814 152.661 26.183 149.291 30.341 149.291C34.499 149.291 37.868 152.661 37.868 156.818C37.868 161.448 39.567 163.44 42.382 166.741C45.806 170.756 50.496 176.255 50.496 186.433C50.496 196.611 45.806 202.11 42.382 206.125C39.567 209.426 37.868 211.419 37.868 216.049C37.867 220.207 34.498 223.576 30.341 223.576Z" fill="#F4DDB1"/>
<path d="M372.363 223.576C368.206 223.576 364.836 220.206 364.836 216.049C364.836 211.419 363.137 209.426 360.322 206.125C356.898 202.11 352.208 196.611 352.208 186.434C352.208 176.257 356.898 170.757 360.322 166.742C363.137 163.441 364.836 161.449 364.836 156.818C364.836 152.661 368.205 149.291 372.363 149.291C376.521 149.291 379.89 152.661 379.89 156.818C379.89 166.996 375.2 172.495 371.776 176.51C368.961 179.811 367.262 181.803 367.262 186.434C367.262 191.064 368.961 193.056 371.776 196.357C375.2 200.372 379.89 205.871 379.89 216.049C379.89 220.207 376.52 223.576 372.363 223.576Z" fill="#F4DDB1"/>
</svg>
