<svg width="512" height="468" viewBox="0 0 512 468" fill="none" xmlns="http://www.w3.org/2000/svg">
<path d="M256 144.33C251.837 144.33 248.463 140.956 248.463 136.793V88.909C248.463 80.687 254.219 73.461 262.15 71.726C275.67 68.768 285.101 56.548 284.573 42.671C284.01 27.841 271.952 15.783 257.122 15.219C249.262 14.94 241.821 17.752 236.172 23.19C230.519 28.632 227.406 35.949 227.406 43.792C227.406 47.955 224.031 51.329 219.869 51.329C215.707 51.329 212.332 47.955 212.332 43.792C212.332 31.814 217.086 20.64 225.717 12.33C234.345 4.023 245.701 -0.321999 257.695 0.155001C280.354 1.016 298.778 19.439 299.638 42.099C300.442 63.278 286.031 81.931 265.372 86.451C264.309 86.684 263.538 87.717 263.538 88.908V136.792C263.537 140.956 260.163 144.33 256 144.33Z" fill="#A298A5"/>
<path d="M506.975 278.771H477.806C475.031 278.771 472.781 276.521 472.781 273.746V253.001C472.781 249.547 469.981 246.748 466.528 246.748H434.774C418.711 246.748 402.907 242.436 389.071 234.279L270.081 164.136C261.396 159.015 250.606 159.015 241.921 164.136L122.929 234.28C109.082 242.443 93.302 246.748 77.228 246.748H45.472C42.019 246.748 39.219 249.548 39.219 253.001V273.747C39.219 276.522 36.969 278.772 34.194 278.772H5.025C2.25 278.772 0 276.522 0 273.747V253.002C0 227.888 20.359 207.529 45.473 207.529H77.227C86.29 207.529 95.207 205.097 103.013 200.495L222.004 130.35C242.973 117.99 269.027 117.988 289.997 130.35L408.987 200.494C416.794 205.097 425.711 207.529 434.774 207.529H466.528C491.642 207.529 512 227.888 512 253.001V273.747C512 276.522 509.75 278.771 506.975 278.771Z" fill="#AA8080"/>
<path d="M466.528 207.529H434.774C425.711 207.529 416.794 205.097 408.987 200.494L289.997 130.351C269.027 117.989 242.973 117.99 222.004 130.351L213.877 135.142C232.005 129.129 252.118 131.077 268.955 141.002L387.945 211.146C395.752 215.749 404.669 218.181 413.732 218.181H445.486C470.6 218.181 490.958 238.54 490.958 263.653V278.772H506.975C509.75 278.772 512 276.522 512 273.747V253.001C512 227.887 491.641 207.529 466.528 207.529Z" fill="#9D6B6B"/>
<path d="M142.345 310.352C139.18 310.352 136.233 308.342 135.188 305.172L98.295 193.241C96.992 189.288 99.141 185.026 103.094 183.723C107.048 182.421 111.309 184.569 112.612 188.522L149.505 300.453C150.808 304.406 148.659 308.668 144.706 309.971C143.923 310.23 143.127 310.352 142.345 310.352Z" fill="#E28086"/>
<path d="M369.655 310.352C368.872 310.352 368.077 310.229 367.294 309.971C363.34 308.668 361.191 304.406 362.495 300.453L399.388 188.522C400.691 184.568 404.956 182.422 408.906 183.723C412.86 185.026 415.009 189.288 413.705 193.241L376.812 305.172C375.767 308.342 372.819 310.352 369.655 310.352Z" fill="#E28086"/>
<path d="M400.962 321.19C400.962 284.224 367.723 254.257 326.72 254.257C302.357 254.257 280.739 264.839 267.204 281.181C261.339 288.262 250.537 288.262 244.672 281.181C231.137 264.838 209.519 254.257 185.156 254.257C142.982 254.247 108.99 286.002 111.004 324.384H110.914C110.914 346.024 114.242 367.536 120.78 388.165L144.97 464.486C145.61 466.506 147.486 467.879 149.605 467.879H362.199C364.343 467.879 366.232 466.481 366.85 464.428C378.704 425.039 403.025 364.307 400.96 324.384C400.962 324.384 400.962 322.261 400.962 321.19Z" fill="#E4989D"/>
<path d="M401.014 325.534C400.984 324.764 400.983 323.997 401.004 323.227C402.035 285.398 368.57 254.227 326.72 254.257C319.396 254.257 312.323 255.22 305.64 257.001C336.39 265.183 358.839 290.816 358.839 321.19C361.561 362.732 337.088 423.596 324.729 464.429C324.111 466.482 322.222 467.88 320.078 467.88H362.201C364.345 467.88 366.234 466.482 366.852 464.429C378.592 425.416 402.563 365.466 401.014 325.534Z" fill="#E28086"/>
<path d="M256 344.08C261.689 344.08 266.301 339.468 266.301 333.779C266.301 328.09 261.689 323.478 256 323.478C250.311 323.478 245.699 328.09 245.699 333.779C245.699 339.468 250.311 344.08 256 344.08Z" fill="#F9EFDA"/>
<path d="M256 391.001C261.689 391.001 266.301 386.389 266.301 380.7C266.301 375.011 261.689 370.399 256 370.399C250.311 370.399 245.699 375.011 245.699 380.7C245.699 386.389 250.311 391.001 256 391.001Z" fill="#F9EFDA"/>
<path d="M256 437.922C261.689 437.922 266.301 433.31 266.301 427.621C266.301 421.932 261.689 417.32 256 417.32C250.311 417.32 245.699 421.932 245.699 427.621C245.699 433.31 250.311 437.922 256 437.922Z" fill="#F9EFDA"/>
</svg>
