<svg width="512" height="506" viewBox="0 0 512 506" fill="none" xmlns="http://www.w3.org/2000/svg">
<path d="M132.232 463.052H39.149C34.979 463.052 31.598 459.672 31.598 455.501C31.598 451.33 34.979 447.95 39.149 447.95H127.662L183.487 341.356C185.422 337.661 189.986 336.234 193.68 338.17C197.375 340.104 198.801 344.668 196.866 348.362L138.921 459.004C137.618 461.493 135.041 463.052 132.232 463.052Z" fill="#756E78"/>
<path d="M192.811 390.69C166.291 390.69 144.793 369.192 144.793 342.672V281.393L240.829 342.672C240.829 369.191 219.331 390.69 192.811 390.69Z" fill="#756E78"/>
<path d="M219.701 329.19C216.261 352.333 196.312 370.09 172.212 370.09C164.26 370.09 156.766 368.145 150.161 364.723C158.151 380.144 174.245 390.69 192.812 390.69C219.332 390.69 240.83 369.192 240.83 342.672L219.701 329.19Z" fill="#665E66"/>
<path d="M48.018 457.542C48.018 482.157 29.496 502.447 5.629 505.234C2.634 505.584 0 503.243 0 500.228V414.857C0 411.842 2.634 409.501 5.629 409.851C29.496 412.638 48.018 432.927 48.018 457.542Z" fill="#756E78"/>
<path d="M24.171 416.043C27.728 422.748 29.754 430.39 29.754 438.51C29.754 458.563 17.461 475.742 0 482.929V500.228C0 503.243 2.634 505.583 5.629 505.234C29.496 502.447 48.018 482.158 48.018 457.543C48.018 439.836 38.434 424.369 24.171 416.043Z" fill="#665E66"/>
<path d="M130.45 485.805C147.836 485.805 161.93 471.711 161.93 454.325C161.93 436.939 147.836 422.845 130.45 422.845C113.064 422.845 98.97 436.939 98.97 454.325C98.97 471.711 113.064 485.805 130.45 485.805Z" fill="#A298A5"/>
<path d="M142.306 425.162C143.796 428.822 144.623 432.823 144.623 437.018C144.623 454.404 130.529 468.498 113.143 468.498C108.947 468.498 104.947 467.67 101.287 466.181C105.971 477.689 117.259 485.805 130.45 485.805C147.836 485.805 161.93 471.711 161.93 454.325C161.93 441.134 153.814 429.846 142.306 425.162Z" fill="#8B818E"/>
<path d="M192.811 358.283C203.399 358.283 211.983 349.699 211.983 339.111C211.983 328.523 203.399 319.939 192.811 319.939C182.223 319.939 173.639 328.523 173.639 339.111C173.639 349.699 182.223 358.283 192.811 358.283Z" fill="#F9EFDA"/>
<path d="M199.994 321.344C200.893 323.564 201.398 325.985 201.398 328.527C201.398 339.115 192.814 347.699 182.226 347.699C179.684 347.699 177.263 347.193 175.043 346.295C177.887 353.322 184.764 358.284 192.811 358.284C203.399 358.284 211.983 349.7 211.983 339.112C211.983 331.065 207.021 324.188 199.994 321.344Z" fill="#F4DDB1"/>
<path d="M444.259 305.693L474.21 322.985C494.099 334.468 500.914 359.9 489.431 379.79C477.948 399.679 452.516 406.494 432.626 395.011L402.675 377.719C399.327 375.786 398.18 371.505 400.113 368.157L434.697 308.256C436.63 304.907 440.911 303.76 444.259 305.693Z" fill="#DDEAFB"/>
<path d="M483.484 330.272C484.462 338.817 482.811 347.738 478.18 355.758C466.697 375.647 441.265 382.462 421.375 370.979L404.206 361.066L400.113 368.156C398.18 371.504 399.327 375.785 402.675 377.718L432.626 395.01C452.515 406.493 477.948 399.679 489.431 379.789C498.886 363.412 495.925 343.284 483.484 330.272Z" fill="#CBE2FF"/>
<path d="M388.876 243.065L468.13 288.822C476.507 293.658 479.377 304.37 474.541 312.747L424.715 399.047C419.879 407.424 409.167 410.294 400.79 405.458L321.536 359.701L388.876 243.065Z" fill="#756E78"/>
<path d="M468.13 288.822L462.055 285.315L409.849 375.738C408.252 378.504 404.715 379.452 401.948 377.855L333.777 338.497L321.535 359.701L400.789 405.459C409.166 410.295 419.878 407.425 424.714 399.048L474.54 312.748C479.377 304.37 476.507 293.659 468.13 288.822Z" fill="#665E66"/>
<path d="M315.615 395.982L57.043 246.695C40.303 237.03 34.567 215.624 44.232 198.884L90.899 118.054L410.092 302.34L363.425 383.17C353.761 399.911 332.355 405.647 315.615 395.982Z" fill="#A298A5"/>
<path d="M380.462 285.233L342.384 351.186C337.253 360.073 325.889 363.118 317.001 357.987L44.211 200.491C43.993 200.365 43.785 200.229 43.571 200.1C34.857 216.648 40.705 237.263 57.043 246.695L315.615 395.981C332.355 405.646 353.761 399.91 363.426 383.17L410.093 302.34L380.462 285.233Z" fill="#8B818E"/>
<path d="M381.633 319.399L96.043 154.514C85.194 148.25 81.476 134.377 87.74 123.527L120.717 66.409C131.679 47.422 155.957 40.917 174.943 51.879L505.799 242.899C515.739 248.638 513.205 263.641 501.93 265.796L490.309 268.017C461.707 273.484 435.169 286.738 413.616 306.32L401.579 317.257C396.104 322.233 388.04 323.098 381.633 319.399Z" fill="#756E78"/>
<path d="M505.799 242.899L490.269 233.933C461.682 239.404 435.159 252.655 413.617 272.228L401.58 283.165C396.104 288.14 388.04 289.006 381.633 285.307L96.043 120.421C94.358 119.448 92.845 118.291 91.514 116.99L87.74 123.527C81.476 134.376 85.193 148.25 96.043 154.514L381.633 319.399C388.04 323.098 396.104 322.232 401.58 317.257L413.617 306.32C435.169 286.738 461.708 273.484 490.31 268.017L501.931 265.796C513.205 263.641 515.74 248.638 505.799 242.899Z" fill="#665E66"/>
<path d="M333.609 234.555C339.517 234.555 344.306 229.766 344.306 223.858C344.306 217.95 339.517 213.161 333.609 213.161C327.701 213.161 322.912 217.95 322.912 223.858C322.912 229.766 327.701 234.555 333.609 234.555Z" fill="#BED8FB"/>
<path d="M367.842 253.433C373.75 253.433 378.539 248.644 378.539 242.736C378.539 236.828 373.75 232.039 367.842 232.039C361.934 232.039 357.145 236.828 357.145 242.736C357.145 248.644 361.934 253.433 367.842 253.433Z" fill="#E4989D"/>
<path d="M273.601 69.3081C279.509 69.3081 284.298 64.5189 284.298 58.6111C284.298 52.7033 279.509 47.9141 273.601 47.9141C267.693 47.9141 262.904 52.7033 262.904 58.6111C262.904 64.5189 267.693 69.3081 273.601 69.3081Z" fill="#9DC6FB"/>
<path d="M339.918 117.03C338.331 117.03 336.73 116.531 335.366 115.5C332.041 112.983 331.385 108.247 333.902 104.921C354.421 77.813 354.421 39.948 333.902 12.84C331.385 9.51504 332.04 4.77804 335.366 2.26104C338.692 -0.253962 343.428 0.401038 345.944 3.72504C370.525 36.2 370.525 81.561 345.944 114.036C344.46 115.997 342.202 117.03 339.918 117.03Z" fill="#9DC6FB"/>
<path d="M304.857 95.365C303.026 95.365 301.189 94.702 299.737 93.362C296.672 90.533 296.481 85.756 299.31 82.692C311.635 69.34 311.635 48.422 299.31 35.07C296.482 32.006 296.672 27.229 299.737 24.4C302.802 21.572 307.579 21.764 310.408 24.827C328.035 43.923 328.035 73.84 310.408 92.936C308.92 94.548 306.892 95.365 304.857 95.365Z" fill="#9DC6FB"/>
</svg>
