<svg width="512" height="406" viewBox="0 0 512 406" fill="none" xmlns="http://www.w3.org/2000/svg">
<path d="M168.648 268.264H23.3539C16.0959 268.264 10.2119 262.38 10.2119 255.122V194.151C10.2119 186.893 16.0959 181.009 23.3539 181.009H168.647C175.905 181.009 181.789 186.893 181.789 194.151V255.122C181.789 262.38 175.906 268.264 168.648 268.264Z" fill="#F9EFDA"/>
<path d="M169.377 181.047C169.39 181.29 169.414 181.53 169.414 181.777V242.748C169.414 250.006 163.53 255.89 156.272 255.89H10.979C10.733 255.89 10.492 255.866 10.249 255.853C10.63 262.77 16.342 268.265 23.354 268.265H168.647C175.905 268.265 181.789 262.381 181.789 255.123V194.152C181.789 187.14 176.294 181.427 169.377 181.047Z" fill="#F4DDB1"/>
<path d="M39.4081 249.649C35.2641 249.649 31.9041 246.29 31.9041 242.145V208.008C31.9041 203.863 35.2641 200.504 39.4081 200.504C43.5521 200.504 46.9121 203.863 46.9121 208.008V242.145C46.9121 246.29 43.5521 249.649 39.4081 249.649Z" fill="#756E78"/>
<path d="M66.1319 249.649C61.9879 249.649 58.6279 246.29 58.6279 242.145V208.008C58.6279 203.863 61.9879 200.504 66.1319 200.504C70.2759 200.504 73.6359 203.863 73.6359 208.008V242.145C73.6369 246.29 70.2769 249.649 66.1319 249.649Z" fill="#756E78"/>
<path d="M102.665 249.649C98.5209 249.649 95.1609 246.29 95.1609 242.145V208.008C95.1609 203.863 98.5209 200.504 102.665 200.504C106.809 200.504 110.169 203.863 110.169 208.008V242.145C110.169 246.29 106.809 249.649 102.665 249.649Z" fill="#756E78"/>
<path d="M126.949 249.649C122.805 249.649 119.445 246.29 119.445 242.145V208.008C119.445 203.863 122.805 200.504 126.949 200.504C131.093 200.504 134.453 203.863 134.453 208.008V242.145C134.453 246.29 131.093 249.649 126.949 249.649Z" fill="#756E78"/>
<path d="M150.806 249.649C146.662 249.649 143.302 246.29 143.302 242.145V208.008C143.302 203.863 146.662 200.504 150.806 200.504C154.95 200.504 158.31 203.863 158.31 208.008V242.145C158.311 246.29 154.951 249.649 150.806 249.649Z" fill="#756E78"/>
<path d="M366.886 248.463H310.054C297.642 248.463 287.58 238.401 287.58 225.989V157.773H366.886V248.463Z" fill="#FFD064"/>
<path d="M323.422 157.773V210.021C323.422 218.789 316.314 225.896 307.547 225.896H287.58V225.975C287.58 238.394 297.648 248.462 310.067 248.462H366.886V157.772H323.422V157.773Z" fill="#FFC250"/>
<path d="M343.053 398.225L320.716 372.792C314.462 365.671 313.593 355.301 318.575 347.239L334.34 321.728C341.716 309.792 345.622 296.039 345.622 282.008V138.527H436.675V294.544C436.675 326.415 422.948 356.741 399.002 377.772L373.471 400.195C364.526 408.051 350.908 407.168 343.053 398.225Z" fill="#756E78"/>
<path d="M404.329 138.527V294.545C404.329 326.415 390.602 356.742 366.656 377.773L343.199 398.375C351.075 407.171 364.579 408.005 373.47 400.196L399 377.773C422.946 356.742 436.673 326.415 436.673 294.545V138.527H404.329Z" fill="#665E66"/>
<path d="M396.983 166.977H199.092C188.04 166.977 179.08 158.018 179.08 146.965V123.402L189.874 82.706L179.08 44.02V20.456C179.08 9.40397 188.039 0.44397 199.092 0.44397H396.417C430.484 0.44397 462.791 15.574 484.603 41.743L505.828 67.209C514.109 77.145 514.051 91.595 505.689 101.464L484.57 126.389C471.616 141.678 455.057 153.122 436.676 159.896C432.039 161.605 424.214 152.399 419.374 153.5C413.457 154.846 410.481 166.346 404.355 166.74C401.91 166.897 399.451 166.977 396.983 166.977Z" fill="#756E78"/>
<path d="M505.828 67.21L493.939 52.946L464.745 87.401C441.841 114.433 408.204 130.02 372.773 130.02H179.081V146.965C179.081 158.017 188.04 166.977 199.093 166.977H396.984C430.726 166.977 462.759 152.133 484.571 126.39L505.69 101.465C514.051 91.596 514.109 77.146 505.828 67.21Z" fill="#665E66"/>
<path d="M14.883 144.797C11.642 144.797 8.652 142.681 7.688 139.414C2.587 122.118 0 104.151 0 86.011C0 67.871 2.587 49.904 7.688 32.608C8.861 28.632 13.036 26.361 17.009 27.534C20.984 28.707 23.256 32.879 22.084 36.855C17.389 52.771 15.009 69.31 15.009 86.011C15.009 102.712 17.389 119.251 22.084 135.167C23.256 139.143 20.984 143.315 17.009 144.488C16.3 144.698 15.586 144.797 14.883 144.797Z" fill="#E28086"/>
<path d="M58.8659 134.473C55.6789 134.473 52.7219 132.427 51.7119 129.226C47.3099 115.281 45.0769 100.742 45.0769 86.012C45.0769 71.281 47.3089 56.741 51.7119 42.798C52.9589 38.846 57.1729 36.652 61.1269 37.901C65.0789 39.149 67.2719 43.364 66.0239 47.317C62.0839 59.798 60.0859 72.817 60.0859 86.013C60.0859 99.208 62.0839 112.227 66.0239 124.709C67.2719 128.661 65.0799 132.877 61.1269 134.125C60.3749 134.36 59.6139 134.473 58.8659 134.473Z" fill="#E28086"/>
<path d="M101.328 124.505C98.2421 124.505 95.3501 122.587 94.2581 119.513C90.4351 108.763 88.4971 97.492 88.4971 86.011C88.4971 74.53 90.4351 63.259 94.2581 52.508C95.6461 48.602 99.9381 46.56 103.843 47.952C107.748 49.34 109.788 53.632 108.399 57.537C105.152 66.668 103.506 76.249 103.506 86.011C103.506 95.773 105.152 105.353 108.399 114.484C109.787 118.389 107.748 122.68 103.843 124.069C103.011 124.366 102.162 124.505 101.328 124.505Z" fill="#E28086"/>
<path d="M142.695 114.796C139.867 114.796 137.159 113.19 135.887 110.457C132.301 102.755 130.483 94.531 130.483 86.012C130.483 77.493 132.301 69.268 135.887 61.566C137.637 57.808 142.101 56.179 145.858 57.93C149.615 59.679 151.243 64.143 149.494 67.9C146.839 73.604 145.492 79.698 145.492 86.012C145.492 92.325 146.838 98.419 149.494 104.123C151.243 107.88 149.615 112.344 145.858 114.093C144.833 114.57 143.755 114.796 142.695 114.796Z" fill="#E28086"/>
<path d="M179.081 123.402H212.01C217.536 123.402 222.016 118.922 222.016 113.396V54.025C222.016 48.499 217.536 44.019 212.01 44.019H179.081V123.402Z" fill="#E4989D"/>
<path d="M212.01 44.019H203.451V100.57C203.451 102.926 201.541 104.837 199.184 104.837H179.08V123.402H212.009C217.535 123.402 222.015 118.922 222.015 113.396V54.025C222.016 48.499 217.536 44.019 212.01 44.019Z" fill="#E28086"/>
<path d="M404.371 217.888C409.732 217.888 414.077 213.542 414.077 208.182C414.077 202.821 409.732 198.476 404.371 198.476C399.011 198.476 394.665 202.821 394.665 208.182C394.665 213.542 399.011 217.888 404.371 217.888Z" fill="#B3E59F"/>
<path d="M404.371 286.237C400.226 286.237 396.867 282.878 396.867 278.733V242.144C396.867 237.999 400.227 234.64 404.371 234.64C408.515 234.64 411.875 237.999 411.875 242.144V278.733C411.876 282.878 408.516 286.237 404.371 286.237Z" fill="#9DC6FB"/>
</svg>
