<svg width="512" height="474" viewBox="0 0 512 474" fill="none" xmlns="http://www.w3.org/2000/svg">
<path d="M328.132 143.524C324.469 127.964 314.664 115.459 301.891 107.952C300.331 107.035 299.742 105.078 300.575 103.471C303.806 97.235 304.912 89.861 303.176 82.488C299.963 68.84 288.042 59.52 274.68 59.014C272.372 58.927 270.748 56.651 271.566 54.491C273.928 48.259 274.281 41.18 272.015 34.219C267.575 20.577 253.909 11.793 239.657 13.434C236.392 13.81 233.335 14.675 230.534 15.936C228.982 16.634 227.156 16.086 226.263 14.637C219.378 3.46497 205.709 -2.44503 192.24 1.24397C177.265 5.34497 167.653 20.389 170.26 35.695C171.244 41.476 173.763 46.559 177.307 50.63C179.116 52.707 177.901 55.932 175.165 56.252C174.013 56.387 172.857 56.588 171.701 56.861C158.481 59.973 149.325 71.256 148.303 84.105C148.142 86.125 146.183 87.514 144.205 87.071C136.178 85.271 127.634 85.206 119.089 87.217C102.204 91.192 88.915 102.399 81.709 116.783C80.85 118.497 78.779 119.181 77.09 118.275C70.7739 114.891 63.248 113.705 55.725 115.476C39.339 119.333 29.183 135.744 33.041 152.129C33.044 152.143 33.048 152.157 33.051 152.172C33.536 154.217 32.154 156.179 30.065 156.409C27.482 156.693 24.876 157.314 22.295 158.314C9.21596 163.381 1.22396 177.024 3.19896 190.911C5.01996 203.707 30.884 335.785 30.884 335.785H328.219C328.219 335.785 330.169 152.178 328.132 143.524Z" fill="#CCF49F"/>
<path d="M328.132 143.524C324.469 127.964 314.664 115.459 301.891 107.952C300.331 107.035 299.742 105.078 300.575 103.471C303.806 97.235 304.912 89.86 303.176 82.488C299.963 68.841 288.042 59.52 274.68 59.014C272.373 58.927 270.748 56.651 271.566 54.491C273.928 48.259 274.281 41.18 272.016 34.219C267.576 20.577 253.91 11.793 239.658 13.434C236.393 13.81 233.336 14.675 230.535 15.936C228.983 16.634 227.157 16.086 226.264 14.637C219.379 3.46497 205.71 -2.44503 192.241 1.24397C184.516 3.35897 178.225 8.38997 174.296 14.863C181.343 17.006 187.481 21.657 191.409 28.03C192.302 29.479 194.128 30.027 195.68 29.329C198.481 28.068 201.538 27.203 204.804 26.827C219.056 25.186 232.722 33.97 237.162 47.612C239.427 54.573 239.074 61.652 236.713 67.884C235.895 70.043 237.519 72.319 239.827 72.407C253.189 72.913 265.11 82.233 268.323 95.881C270.059 103.254 268.952 110.628 265.722 116.864C264.889 118.471 265.478 120.428 267.038 121.345C279.81 128.852 289.616 141.357 293.279 156.917C293.935 159.704 294.177 180.635 294.205 207.729C305.193 214.248 312.562 226.225 312.562 239.927C312.562 253.715 305.099 265.753 293.998 272.244C293.842 297.904 293.633 321.654 293.499 335.785H328.221C328.219 335.785 330.169 152.178 328.132 143.524Z" fill="#B3E59F"/>
<path d="M267.484 122.645C246.859 143.27 217.916 150.104 202.43 152.348C196.763 153.169 191.908 148.314 192.729 142.647C194.973 127.161 201.807 98.2179 222.432 77.5929C243.057 56.9679 272 50.1339 287.486 47.8909C293.153 47.0699 298.008 51.9249 297.187 57.5919C294.943 73.0769 288.109 102.021 267.484 122.645Z" fill="#B3E59F"/>
<path d="M294.77 50.308L195.147 149.931C196.967 151.75 199.597 152.759 202.431 152.348C217.917 150.104 246.86 143.27 267.485 122.645C288.11 102.02 294.944 73.077 297.188 57.591C297.597 54.758 296.589 52.128 294.77 50.308Z" fill="#95D6A4"/>
<path d="M287.486 47.8909C279.922 48.9869 269.144 51.1849 257.695 55.5439C254.212 71.6049 246.558 93.8609 229.797 110.623C219.247 121.173 206.523 128.108 194.534 132.673C193.731 136.375 193.15 139.748 192.73 142.648C191.909 148.315 196.763 153.17 202.431 152.349C217.917 150.105 246.86 143.271 267.485 122.646C288.11 102.021 294.944 73.0779 297.188 57.5919C298.008 51.9239 293.153 47.0699 287.486 47.8909Z" fill="#95D6A4"/>
<path d="M294.77 50.308L195.147 149.931C196.966 151.751 199.597 152.759 202.431 152.348C217.917 150.104 246.86 143.27 267.485 122.645C288.11 102.02 294.944 73.077 297.188 57.591C297.597 54.758 296.589 52.127 294.77 50.308Z" fill="#78C2A4"/>
<path d="M352.078 97.27C347.955 97.27 344.613 93.928 344.613 89.805V46.205C344.613 42.082 347.955 38.74 352.078 38.74C356.201 38.74 359.543 42.082 359.543 46.205V89.805C359.544 93.928 356.202 97.27 352.078 97.27Z" fill="#B3E59F"/>
<path d="M352.078 123.315C352.073 123.315 352.067 123.315 352.062 123.315C348.708 123.308 345.771 121.065 344.881 117.832L325.698 48.188C324.603 44.213 326.937 40.103 330.913 39.009C334.886 37.914 338.997 40.249 340.092 44.223L352.136 87.951L364.388 44.192C365.5 40.222 369.616 37.903 373.59 39.016C377.56 40.128 379.877 44.247 378.766 48.217L359.267 117.861C358.365 121.086 355.425 123.315 352.078 123.315Z" fill="#B3E59F"/>
<path d="M389.809 134.676C389.809 167.247 372.916 281.393 352.078 281.393C331.24 281.393 314.347 167.247 314.347 134.676C314.347 102.105 331.24 93.076 352.078 93.076C372.916 93.076 389.809 102.105 389.809 134.676Z" fill="#ECB780"/>
<path d="M352.078 93.076C346.871 93.076 341.91 93.6401 337.397 94.9941C350.942 99.0591 360.447 110.244 360.447 134.676C360.447 159.108 350.942 229.437 337.397 263.062C341.91 274.265 346.871 281.393 352.078 281.393C372.916 281.393 389.809 167.247 389.809 134.676C389.809 102.105 372.917 93.076 352.078 93.076Z" fill="#E49542"/>
<path d="M106.585 83.3939C99.0059 90.9729 94.9459 100.735 94.3909 110.657C84.4699 111.211 74.7079 115.272 67.1279 122.851C50.7729 139.206 50.7729 165.723 67.1279 182.078C83.4829 198.433 142.303 230.736 158.658 214.381C166.237 206.802 170.297 197.04 170.852 187.118C180.773 186.563 190.535 182.503 198.115 174.924C214.47 158.569 182.167 99.7489 165.812 83.3939C149.457 67.0389 122.94 67.0389 106.585 83.3939Z" fill="#DD636E"/>
<path d="M165.812 83.3939C149.457 67.0389 122.94 67.0389 106.585 83.3939C102.607 87.3719 99.608 91.9539 97.567 96.8419C112.773 90.4919 130.962 93.4949 143.336 105.87C156.865 119.399 181.307 161.986 180.091 185.557C186.691 183.665 192.917 180.123 198.115 174.925C214.47 158.569 182.167 99.7489 165.812 83.3939Z" fill="#DA4A54"/>
<path d="M459.915 98.844C458.005 98.844 456.094 98.115 454.636 96.657C451.721 93.742 451.721 89.015 454.636 86.1L485.466 55.27C488.382 52.355 493.108 52.355 496.024 55.27C498.939 58.185 498.939 62.912 496.024 65.827L465.194 96.657C463.736 98.115 461.825 98.844 459.915 98.844Z" fill="#B3E59F"/>
<path d="M441.502 117.26C439.564 117.26 437.647 116.507 436.209 115.062C433.843 112.686 433.351 109.023 435.008 106.107L470.689 43.2959C472.725 39.7119 477.285 38.4559 480.867 40.4929C484.452 42.5289 485.708 47.0859 483.671 50.6709L461.268 90.1089L500.874 67.8289C504.465 65.8059 509.019 67.0819 511.041 70.6749C513.062 74.2689 511.788 78.8199 508.194 80.8419L445.159 116.301C444.013 116.946 442.752 117.26 441.502 117.26Z" fill="#B3E59F"/>
<path d="M454.866 149.786C431.835 172.817 339.176 241.586 324.442 226.851C309.707 212.116 378.476 119.458 401.507 96.427C424.538 73.396 442.868 78.956 457.602 93.691C472.337 108.426 477.898 126.755 454.866 149.786Z" fill="#ECB780"/>
<path d="M457.602 93.6909C453.92 90.0089 450.013 86.8999 445.864 84.6659C452.568 97.1179 451.379 111.748 434.103 129.024C416.827 146.3 360.376 189.309 327.022 203.508C322.292 214.62 320.759 223.169 324.441 226.851C339.176 241.586 431.834 172.817 454.865 149.786C477.898 126.755 472.337 108.426 457.602 93.6909Z" fill="#E49542"/>
<path d="M445.832 219.933C466.498 219.933 483.252 203.18 483.252 182.513C483.252 161.847 466.498 145.093 445.832 145.093C425.166 145.093 408.412 161.847 408.412 182.513C408.412 203.18 425.166 219.933 445.832 219.933Z" fill="#CCF49F"/>
<path d="M445.832 145.093C442.226 145.093 438.743 145.613 435.444 146.565C451.054 151.069 462.476 165.452 462.476 182.513C462.476 199.574 451.055 213.957 435.444 218.461C438.744 219.413 442.226 219.933 445.832 219.933C466.498 219.933 483.252 203.179 483.252 182.513C483.252 161.847 466.498 145.093 445.832 145.093Z" fill="#B3E59F"/>
<path d="M218.999 276.736C257.881 276.736 289.401 245.216 289.401 206.334C289.401 167.452 257.881 135.932 218.999 135.932C180.117 135.932 148.597 167.452 148.597 206.334C148.597 245.216 180.117 276.736 218.999 276.736Z" fill="#E4989D"/>
<path d="M230.019 136.796C243.348 149.606 251.657 167.601 251.657 187.547C251.657 226.429 220.137 257.949 181.255 257.949C177.506 257.949 173.827 257.649 170.236 257.085C182.889 269.246 200.065 276.735 219 276.735C257.882 276.735 289.402 245.215 289.402 206.333C289.401 171.201 263.665 142.086 230.019 136.796Z" fill="#E28086"/>
<path d="M494.191 187.419H9.954C4.457 187.419 0 191.875 0 197.373V304.227C0 309.724 4.456 314.181 9.954 314.181H494.192C499.689 314.181 504.146 309.725 504.146 304.227V197.373C504.145 191.875 499.689 187.419 494.191 187.419ZM324.406 250.8C324.406 261.734 315.542 270.597 304.609 270.597H199.536C188.603 270.597 179.739 261.734 179.739 250.8C179.739 239.866 188.603 231.003 199.536 231.003H304.609C315.542 231.003 324.406 239.866 324.406 250.8Z" fill="#AA8080"/>
<path d="M494.145 440.941H10C4.477 440.941 0 436.464 0 430.941V324.18C0 318.657 4.477 314.18 10 314.18H494.145C499.668 314.18 504.145 318.657 504.145 324.18V430.941C504.145 436.464 499.668 440.941 494.145 440.941Z" fill="#AA8080"/>
<path d="M494.191 187.419H465.707V265.789C465.707 271.286 461.251 275.743 455.753 275.743H0V304.227C0 309.724 4.456 314.181 9.954 314.181H494.192C499.689 314.181 504.146 309.725 504.146 304.227V197.373C504.145 191.875 499.689 187.419 494.191 187.419Z" fill="#9D6B6B"/>
<path d="M494.145 314.18H465.708V392.504C465.708 398.027 461.231 402.504 455.708 402.504H0V430.941C0 436.464 4.477 440.941 10 440.941H494.145C499.668 440.941 504.145 436.464 504.145 430.941V324.18C504.145 318.657 499.668 314.18 494.145 314.18Z" fill="#9D6B6B"/>
<path d="M395.724 473.853H108.413C104.326 473.853 101.447 469.841 102.755 465.969L119.86 415.345C121.242 411.255 121.257 406.826 119.902 402.727L102.684 350.621C101.407 346.757 104.285 342.775 108.355 342.775H395.789C399.926 342.775 402.81 346.88 401.407 350.772L382.862 402.216C381.272 406.625 381.29 411.454 382.911 415.852L401.327 465.815C402.765 469.714 399.88 473.853 395.724 473.853Z" fill="#B3E59F"/>
<path d="M382.912 415.852C381.291 411.454 381.274 406.625 382.863 402.216L401.408 350.772C402.811 346.88 399.927 342.775 395.79 342.775H366.725C370.862 342.775 373.746 346.88 372.343 350.772L353.798 402.216C352.208 406.625 352.226 411.454 353.847 415.852L372.263 465.815C373.7 469.714 370.815 473.853 366.659 473.853H395.724C399.88 473.853 402.765 469.714 401.328 465.815L382.912 415.852Z" fill="#95D6A4"/>
<path d="M240.344 449.166C236.221 449.166 232.879 445.824 232.879 441.701V377.088C232.879 372.965 236.221 369.623 240.344 369.623C244.467 369.623 247.809 372.965 247.809 377.088V441.701C247.809 445.824 244.467 449.166 240.344 449.166Z" fill="#F9EFDA"/>
<path d="M201.721 404.549C204.18 400.961 205.622 396.625 205.622 391.956C205.622 379.642 195.603 369.623 183.289 369.623H164.52C160.397 369.623 157.055 372.965 157.055 377.088V441.701C157.055 443.687 157.846 445.591 159.254 446.991C160.653 448.384 162.546 449.166 164.521 449.166H164.554C164.554 449.166 181.811 449.089 186.568 449.089C200.274 449.089 211.425 437.938 211.425 424.232C211.425 416.227 207.617 409.098 201.721 404.549ZM183.29 384.553C187.372 384.553 190.692 387.874 190.692 391.956C190.692 396.038 187.372 399.358 183.29 399.358C181.914 399.358 171.986 399.375 171.986 399.375V384.553H183.29ZM186.568 434.159C183.894 434.159 177.282 434.183 171.987 434.204V414.322C173.458 414.316 186.568 414.305 186.568 414.305C192.042 414.305 196.495 418.758 196.495 424.232C196.494 429.706 192.042 434.159 186.568 434.159Z" fill="#F9EFDA"/>
<path d="M307.446 446.612C285.516 446.612 267.674 428.77 267.674 406.84C267.674 384.91 285.516 367.068 307.446 367.068C329.376 367.068 347.218 384.91 347.218 406.84C347.218 428.77 329.376 446.612 307.446 446.612ZM307.446 381.999C293.748 381.999 282.605 393.143 282.605 406.84C282.605 420.537 293.748 431.681 307.446 431.681C321.144 431.681 332.287 420.537 332.287 406.84C332.288 393.143 321.144 381.999 307.446 381.999Z" fill="#F9EFDA"/>
<path d="M96.547 120.006C95.903 120.006 95.253 119.923 94.615 119.752L77.637 115.202C73.655 114.135 71.292 110.041 72.359 106.059C73.425 102.077 77.518 99.715 81.502 100.78L85.99 101.983L84.788 97.495C83.721 93.513 86.084 89.419 90.066 88.352C94.05 87.288 98.143 89.648 99.209 93.631L103.758 110.609C104.448 113.185 103.712 115.934 101.826 117.82C100.407 119.238 98.501 120.006 96.547 120.006Z" fill="#8B5E5E"/>
</svg>
