<svg width="200" height="66" viewBox="0 0 200 66" fill="none" xmlns="http://www.w3.org/2000/svg">
<g clip-path="url(#clip0)">
<path d="M76.8023 57.5617C69.3603 52.7326 59.2605 51.8852 42.9725 56.4373C25.6083 60.5477 19.8188 63.1826 12.2156 57.8931C9.29455 55.2947 8.2473 51.111 9.0293 45.0847C10.8431 35.2608 15.7446 25.8067 24.451 15.32C29.3106 9.86481 33.8185 5.18326 39.7708 3.30334C44.3328 2.12401 43.9063 5.73553 43.3543 6.25203C42.7718 6.25203 41.7933 6.34445 41.037 6.84157C40.4233 7.32106 38.7385 8.86932 38.648 10.952C38.5175 14.1402 41.7928 13.4766 43.2055 11.7261C44.7283 9.7535 46.9788 5.97602 45.2085 2.45542C44.4665 1.20231 43.1845 0.336258 41.5928 0.0413635C36.1423 -0.272419 31.0663 2.34487 26.3813 5.23841C16.1358 12.4078 7.94005 22.3421 3.30255 33.2161C0.629051 39.7771 -1.78895 49.1754 1.8353 56.8248C4.6393 62.1324 10.4601 64.9517 17.4048 64.3622C22.2756 63.8467 28.1653 62.2609 32.1265 61.3034C36.088 60.3442 56.365 53.3231 63.0275 65.5432C63.0275 65.5432 65.243 61.211 70.7798 61.1186C75.3318 60.6955 81.8988 62.446 86.6808 65.9839C85.0875 63.5704 80.5705 60.0133 76.8023 57.5617Z" fill="#E61A27"/>
<path d="M45.04 16.5545C41.2475 14.048 33.625 18.8398 27.5197 27.0594C21.9367 34.4322 19.526 43.0013 22.1497 46.9639C26.0522 51.6265 33.2975 44.8445 36.3785 41.2143L36.776 40.79C38.8712 38.523 40.4897 35.7952 42.0567 33.1776C42.0567 33.1776 43.4967 30.7817 43.5655 30.6709C44.4555 30.5057 45.5275 30.2476 46.7355 29.8973C46.7182 29.9522 42.1137 37.7484 42.5835 41.618C42.7297 42.7986 42.6182 47.1112 46.798 48.4195C52.369 49.3601 56.8175 45.0099 60.742 41.1395C60.742 41.1395 61.4107 40.4951 61.789 40.1272C61.6932 40.513 61.5685 41.028 61.5685 41.028C59.9375 46.7415 62.136 47.9405 63.5112 48.3827C67.6675 49.6001 72.6327 43.5176 72.649 43.5176C72.52 45.4335 72.1437 47.0183 74.1487 48.2903C76.041 48.9727 77.9562 47.9322 79.4122 46.9553C84.656 43.2327 88.8805 37.4059 92.2925 32.3695H90.116C90.0902 32.3695 84.7455 40.1733 81.2747 41.8693C81.2692 41.8693 80.6375 42.196 80.2737 41.9376C79.823 41.5505 80.0007 40.7454 80.279 40.1753C80.2965 40.1382 93.68 16.7559 93.68 16.7559H87.361C87.361 16.7559 86.6707 17.8809 86.6145 17.9547C86.572 17.9179 86.4707 17.7245 86.4007 17.6318C82.4857 12.1766 73.62 20.5677 66.9452 30.2984C64.3755 34.0401 61.1037 38.253 57.7112 41.2939C57.7112 41.2939 52.6852 45.9347 50.538 42.6004C49.753 41.1995 49.9945 39.1513 50.4372 37.8063C52.9375 30.6366 57.2457 24.1301 62.1485 20.2043C63.5322 19.1176 65.0367 18.8033 65.783 19.2642C66.4945 19.6888 66.6092 20.7384 66.1592 21.4574C65.0175 21.4206 64.1025 21.7702 63.359 22.5443C61.894 24.0926 61.385 25.5857 61.8507 26.9866C64.1135 30.2302 68.6262 23.8163 68.408 19.9091C68.33 18.5082 67.5882 17.1815 66.4807 16.5358C64.8305 15.5411 62.313 15.7987 60.6837 16.5917C58.5025 17.4208 55.0502 20.3141 53.035 22.5629C50.498 25.3832 46.1467 28.516 44.7862 28.1652C45.231 26.967 48.9062 19.3924 45.04 16.5545ZM75.5052 27.76C76.7345 26.0463 80.3122 21.4569 81.1845 20.683C84.118 18.0833 85.2905 19.2272 85.392 20.0376C82.6542 24.9767 79.423 30.6351 76.385 35.7221C76.3912 35.704 75.4342 37.178 75.4342 37.178C74.0925 39.2415 72.7415 41.0111 70.5377 42.2456C70.2235 42.3385 69.7055 42.3755 69.3607 42.1164C68.9457 41.8399 68.782 41.379 68.8287 40.8998C68.961 39.3153 70.5625 34.469 75.5052 27.76ZM41.129 30.7271C41.129 30.7271 41.0737 30.8935 41.0467 30.9479C41.0397 30.9479 38.2915 35.4627 38.2915 35.4627C36.633 37.6932 34.5622 40.4953 31.9737 41.8401C31.2065 42.098 30.1457 42.2645 29.6052 41.583C28.4595 40.2004 29.05 38.2835 29.5297 36.7357L29.6997 36.1827C31.0752 32.4234 33.2575 29.1053 35.382 26.0274C35.4085 26.0092 35.468 25.9909 35.4895 25.9909C35.4947 26.0092 35.5032 26.0092 35.5067 26.0463C36.8397 28.626 39.3392 29.8235 41.2085 30.3773C41.2197 30.3773 41.232 30.3956 41.232 30.4327C41.2322 30.4876 41.2017 30.5618 41.129 30.7271ZM43.7325 25.4013C43.7202 25.4381 42.5085 28.2395 42.5085 28.2395C42.3332 28.3868 42.0562 28.3132 41.7387 28.2395L41.1947 28.1468C39.4865 27.6127 38.198 26.4698 37.8007 25.1062C37.253 22.4521 39.5037 20.3695 40.4952 19.6142C41.4467 18.9501 42.926 18.6001 43.785 19.2823C44.3147 19.9091 44.5155 20.7198 44.5155 21.605C44.5157 22.8024 44.1487 24.1477 43.7325 25.4013ZM123.617 33.9523C123.008 32.6256 121.562 31.7777 120.02 31.8696C115.014 32.3307 110.118 36.4774 107.547 42.4299C106.198 45.4897 105.462 48.0143 104.979 52.032C106.536 50.2264 109.711 47.2593 113.314 45.6372C113.314 45.6372 113.804 41.7855 116.304 38.3573C117.25 36.9377 119.143 34.6526 121.269 35.2605C123.126 35.8873 122.473 41.0665 120.005 46.0784C118.178 49.765 115.383 53.4521 112.555 55.9948C110.055 58.1326 106.356 60.7129 103.119 58.7227C101.081 57.5068 100.041 54.9626 100.261 51.6822C101.235 42.3753 105.441 34.4501 111.459 25.4195C117.665 17.0337 124.506 8.42687 133.722 3.83699C135.602 2.87877 137.343 2.65766 138.847 3.24745C138.847 3.24745 130.196 8.0393 126.073 16.9045C125.024 19.1534 123.565 22.1935 125.034 24.8846C125.802 26.285 127.165 26.3958 128.262 26.322C133.317 25.1422 136.583 20.3874 139.251 16.0382C140.798 12.7392 142.173 9.45862 142.173 5.80933C142.173 5.36711 142.15 4.77758 142.113 4.33486C144.528 3.04523 149.48 5.3301 149.48 5.3301C153.35 6.62073 161.59 12.9795 164.369 14.1953C165.725 12.6105 167.953 10.2149 169.208 9.01666L167.392 7.89223C164.484 6.10448 161.411 4.40864 158.386 2.7317C151.516 -1.04603 145.924 0.280622 143.079 1.31288C141.96 1.71808 140.938 2.06837 140.938 2.06837C138.826 -0.253765 135.362 -0.0331603 132.81 0.5939C123.631 3.2477 115.11 9.7165 105.973 20.9409C99.2565 29.7323 95.09 37.3258 92.8692 44.8266C91.1575 49.8763 90.6372 57.3036 94.8152 61.7086C98.3675 65.4491 103.078 64.6387 106.404 63.2939C113.61 59.7184 120.088 52.0141 123.315 43.1489C124.094 40.5137 124.958 36.7909 123.617 33.9523ZM140.189 6.17826C139.235 17.1997 130.73 23.6692 128.626 24.1845C127.351 24.4421 125.175 23.8712 127.117 19.2458C129.978 13.0157 134.862 7.72678 140.102 5.01732C140.23 5.47817 140.227 5.77231 140.189 6.17826ZM190.639 7.57845C186.064 10.196 181.321 11.8911 175.581 11.3015C173.99 13.1082 172.441 14.9694 171.013 16.8859C179.07 18.9501 187.612 14.361 192.376 9.99351C197.416 5.58847 200 0.0413818 200 0.0413818C200 0.0413818 196.222 4.39051 190.639 7.57845ZM104.182 16.7564H98.1812L94.7962 22.2967H100.796L104.182 16.7564Z" fill="#E61A27"/>
<path d="M175.557 58.0748C174.912 58.517 174.005 58.177 174.344 57.1637C175.189 54.5834 178.545 49.3251 178.545 49.3251L187.894 32.6222H181.49C181.186 33.1258 180.535 34.2822 180.535 34.2822C180.239 33.7851 179.353 32.6798 178.988 32.4408C177.424 31.4449 175.128 31.9158 173.545 32.8186C166.66 36.8738 161.637 44.8859 157.675 51.1341C157.675 51.1341 153.505 58.0796 151.19 58.5961C149.383 58.7436 149.569 56.2913 149.648 55.7199C150.346 51.5909 151.969 47.6656 153.604 44.1085C156.929 41.7863 160.724 38.7455 164.173 35.4097C171.657 28.2028 177.967 20.0381 178.889 18.2136C178.889 18.2136 177.891 18.4166 176.712 18.4531C170.954 26.544 159.171 38.303 155.599 40.0535C157.182 36.2191 167.406 17.9185 176.107 9.16431L177.476 7.83691C179.593 5.75426 181.787 3.61646 183.496 3.26617C183.677 3.24778 183.909 3.26617 184.11 3.69075C184.186 5.3123 183.587 6.51051 182.899 7.87418L181.936 9.86491C181.936 9.86491 183.301 9.60678 184.197 9.31113C185.237 7.34005 186.389 5.12771 185.964 2.49279C185.823 1.64488 185.213 0.999935 184.417 0.852362C181.821 0.354743 178.993 2.28931 176.717 3.85646L176.625 3.91136C164.924 13.145 155.045 26.4518 146.407 44.6242C145.781 45.1027 143.362 45.6746 142.951 45.3978C143.804 43.629 144.878 41.2509 145.415 38.6707C145.508 37.933 145.595 37.1781 145.595 36.4409C145.595 34.8547 145.217 33.3623 143.806 32.3308C142.152 31.5013 140.108 31.8886 138.729 32.5146C132.555 35.0949 127.94 41.4723 124.61 46.7242C122.819 50.061 121.033 53.6347 120.539 57.727C120.191 60.9333 120.9 62.9978 122.71 64.0301C124.571 64.9878 126.913 63.9923 127.833 63.5136C134.089 60.196 138.459 53.5431 141.904 47.4608C142.041 47.4427 143.922 47.3878 145.345 47.0186C145.364 47.0186 145.372 47.0186 145.404 47.0378C145.322 47.3133 144.587 49.5256 144.587 49.5256C142.403 55.9755 141.394 60.3624 143.456 62.9608C146.403 66.6285 151.283 62.8324 155.252 57.8184C154.4 63.8264 157.491 64.767 159.848 64.3066C162.554 63.5697 165.571 60.6571 166.97 59.1647C166.521 60.9152 166.643 64.049 169.105 64.3618C170.793 64.676 172.056 63.7513 173.517 62.9585C178.76 60.0831 185.035 50.5017 186.664 47.7316H184.528C182.212 51.258 179.264 55.8806 175.557 58.0748ZM128.503 57.4331C128.17 56.9352 128.06 56.3913 128.049 55.803C127.985 52.189 131.845 45.7174 134.569 42.1918H134.575C135.717 44.7101 138.302 46.3289 139.863 47.0111C137.925 51.361 131.276 60.6767 128.503 57.4331ZM140.957 45.0664C140.773 45.1964 137.512 44.0898 136.882 41.049C136.348 38.4309 138.137 36.3853 139.869 35.3543C140.612 34.764 141.732 34.562 142.553 34.8557C143.315 35.3727 143.522 36.2949 143.522 37.2884C143.522 37.8978 143.441 38.5238 143.371 39.095L143.355 39.2244C142.809 41.2677 142.003 43.2313 140.957 45.0664ZM167.106 56.2722C167.104 56.2722 166.488 56.8249 166.488 56.8249C165.608 57.6172 164.703 58.4649 163.611 58.0408C163.309 57.9305 163.097 57.5253 163.046 57.211C162.996 54.944 164.009 52.8435 164.992 50.7979L165.244 50.2632C168.071 45.5084 171.357 39.9056 176.183 36.0174C176.996 35.4263 177.879 34.9297 178.81 35.317C179.025 35.5195 179.274 35.8698 179.274 36.2196C179.274 36.3306 179.176 36.6253 179.12 36.7172C177.772 38.9114 176.488 41.2147 175.24 43.4262C172.801 47.7943 170.27 52.3088 167.106 56.2722Z" fill="#E61A27"/>
</g>
<defs>
<clipPath id="clip0">
<rect width="200" height="66" fill="white"/>
</clipPath>
</defs>
</svg>
