<svg width="200" height="90" viewBox="0 0 200 90" fill="none" xmlns="http://www.w3.org/2000/svg">
<path d="M100.014 2.57544C132.448 2.57544 157.766 9.34105 175.441 15.3713C188.591 19.8583 186.675 26.3863 185.674 29.8687C184.759 33.0659 183.7 34.505 187.581 35.5708C190.806 36.4578 190.387 36.2904 192.17 36.804C195.695 37.8154 199.035 38.673 196.671 47.018C195.963 49.5161 188.449 75.3589 187.311 78.7281C184.919 85.8128 185.539 87.4194 175.266 87.4194C173.697 87.4194 26.3027 87.4248 24.734 87.4248C14.4607 87.4248 15.0783 85.8182 12.6869 78.7313C11.5509 75.3621 4.03638 49.5193 3.32865 47.0212C0.964301 38.6785 4.30684 37.8254 7.8297 36.8072C9.61254 36.2913 9.19106 36.461 12.4209 35.5762C16.2976 34.5105 15.2405 33.0691 14.3255 29.8741C13.3247 26.3895 11.4089 19.8637 24.5582 15.3767C42.2356 9.34422 67.5515 2.57861 99.9852 2.57861L100.015 2.5768" fill="white"/>
<path d="M173.988 81.2035C178.52 81.2035 180.193 80.4794 181.378 77.2233C182.433 74.3292 188.755 51.9145 189.627 48.9005C190.881 44.5515 190.38 42.8296 186.226 41.7887C184.606 41.3814 181.536 40.6347 179.62 40.1527C176.78 39.44 177.075 36.3242 177.643 34.6769C178.008 33.6202 179.099 29.6943 179.703 27.7959C180.677 24.748 179.208 23.8089 177.42 23.0984C175.033 22.1458 146.463 9.63961 100.001 9.0083H99.9845C53.5248 9.63961 24.952 22.1458 22.5651 23.0984C20.7777 23.8089 19.3105 24.748 20.2819 27.7959C20.8882 29.6943 21.9791 33.6202 22.342 34.6769C22.9122 36.3242 23.2007 39.4287 20.3653 40.1527C18.3368 40.6709 15.3796 41.3814 13.7591 41.7887C9.60738 42.8296 9.10476 44.5515 10.3602 48.9005C11.2302 51.9145 17.5547 74.3292 18.6072 77.2233C19.7928 80.4794 21.4652 81.2035 25.9978 81.2035C28.2382 81.2035 171.747 81.2035 173.987 81.2035" fill="#EE2722"/>
<path d="M149.136 45.9815C149.76 45.7303 151.602 45.3524 152.327 45.3524C152.327 45.3524 157.009 44.9474 158.528 45.6647C159.718 46.2304 155.325 50.8079 150.741 55.9353C148.167 58.8158 145.478 61.8772 143.812 64.4862C142.987 65.7782 143.449 67.3214 145.44 67.5884C151.408 68.3826 162.477 67.9301 162.477 67.9301C166.775 67.7129 168.36 67.5024 170.656 64.3617C170.656 64.3617 178.358 55.4533 177.145 50.8441C176.354 47.7419 171.366 45.7077 169.861 48.4546C169.311 49.4593 167.544 51.6519 168.567 51.8714C172.513 52.7086 173.411 54.9917 172.617 56.4376C171.296 58.8452 168.986 58.7434 167.733 58.9968C166.48 59.2457 157.755 59.6643 155.627 59.1642C154.739 58.9538 155.668 56.9829 156.919 55.3922C161.379 49.7263 169.651 39.4218 169.613 38.6886C169.577 38.0732 169.834 37.1907 167.983 36.9916C161.472 36.2992 154.518 36.6771 154.518 36.6771C153.157 36.6771 151.895 37.2224 150.831 38.4646C149.717 39.768 147.883 42.6484 147.569 45.4158C147.569 45.4158 147.306 46.7169 149.136 45.9815ZM108.579 33.0318C109.787 33.8079 114.41 32.5136 115.868 31.2713C116.242 30.95 117.038 29.9838 117.322 29.1625C117.944 27.3794 118.156 26.6169 118.028 25.4244C117.886 24.103 117.031 23.8541 116.306 23.7251C114.985 23.4943 110.173 24.5103 108.933 26.7029C106.846 30.3911 107.72 32.6516 108.579 33.0318ZM103.19 39.4218C102.029 40.1458 101.98 41.2659 102.692 41.8542C103.56 42.5738 103.799 43.3454 103.316 45.0809C102.467 48.1333 98.9911 58.2614 98.2563 61.0084C97.5981 63.4589 96.5704 67.2762 98.7657 68.007C100.573 69.023 107.554 66.5996 109.037 65.6583C110.599 64.665 110.583 64.0766 110.184 63.4589C109.839 62.9249 109.001 62.1737 108.87 61.9202C108.336 60.8816 108.669 59.3882 109.215 56.9513L114.338 40.8496C114.714 39.4625 115.244 37.5482 114.004 36.8241C112.249 35.7968 105.176 38.1863 103.19 39.4218ZM145.313 43.0422C145.074 44.2188 140.682 56.8268 140.479 57.612C140.305 58.2795 139.239 61.7618 140.479 62.719C140.704 62.8955 141.2 63.1218 141.464 63.3164C142.232 63.8843 142.606 64.889 141.105 66.052C139.548 67.2558 132.885 68.8171 130.8 67.9391C128.605 67.2105 129.403 62.9702 130.018 60.7685C130.354 59.5806 131.319 55.8086 132.572 52.299C133.667 49.233 134.472 46.1602 134.623 45.3049C134.905 43.7006 134.623 42.6168 132.964 42.6665C131.1 43.0422 129.295 44.6645 127.906 48.2759C126.182 52.7539 125.008 57.7658 124.994 57.8179C123.68 62.814 123.991 63.6467 123.662 64.984C123.376 66.1584 122.88 66.1471 121.925 66.5996C121.257 66.9209 116.572 69.023 114.302 67.8758C112.783 66.853 114.065 62.7643 114.676 60.5671C115.226 58.6031 118.913 47.1355 119.233 44.7234C119.484 42.8362 119.154 42.9811 117.996 41.8814C116.732 40.6798 118.388 39.6842 118.717 39.4761C120.676 38.2316 128.362 35.9869 129.423 36.7246C130.832 37.6998 129.284 40.0101 130.537 40.0101C132.462 40.0101 136.309 36.9011 140.118 36.4576C146.848 35.6701 145.784 40.7296 145.313 43.0422ZM89.7388 47.459C91.3661 45.9815 93.4352 40.6934 92.0873 40.1345C89.4255 39.0348 86.4503 47.9319 86.8876 48.4026C87.1423 48.88 88.6749 48.3687 89.7388 47.459ZM87.14 61.2573C88.6096 61.7913 90.5457 61.6329 92.1504 61.1327C93.6132 60.6756 93.8093 60.5964 94.8732 60.3159C94.8732 60.3159 97.0549 60.4471 95.7184 62.5786C94.1226 65.1219 92.7455 65.5949 90.2707 66.7918C87.832 67.9685 84.5976 68.4097 81.8794 68.2355C75.8975 67.9911 74.899 63.4271 75.2416 58.4287C75.4986 54.7133 76.5624 51.1766 76.8689 50.3507C78.1401 46.9317 79.373 43.7503 82.0056 41.5803C87.8252 36.781 95.5696 36.4484 96.2819 36.4258C98.1143 36.3693 99.6672 37.1544 100.289 38.8447C101.292 42.4605 99.2255 49.8484 85.7629 52.3329C85.7629 52.3329 82.8824 59.7185 87.14 61.2572V61.2573ZM47.3698 63.3615C50.922 61.2526 52.5831 58.965 54.3569 54.2494C55.0308 52.4551 55.6214 49.9004 56.2051 48.622C56.5477 47.8662 56.9422 47.9183 57.4583 47.8029C58.1773 47.6467 62.2479 47.7734 62.7482 47.8367C63.2508 47.9001 63.5596 48.2689 63.4064 48.9047C62.6513 52.0364 61.0893 57.3923 60.3365 60.9131C59.8249 63.323 58.991 67.104 60.9338 67.9842C64.4251 69.5681 71.5768 66.3505 72.2034 65.2192C72.6023 64.4973 73.2695 63.771 71.5159 62.8297C70.096 62.0671 70.7316 59.3722 71.0471 57.2339C71.0471 57.2339 72.6429 49.6899 76.7134 37.3693C76.7134 37.3548 77.5248 34.9391 78.5594 32.3709C79.781 29.3433 81.2528 26.0827 81.2528 26.0827C81.7847 25.3066 81.2212 24.7635 81.2212 24.7635C80.908 24.0417 73.9276 24.2906 73.9276 24.2906C70.8262 24.2611 69.7624 27.1213 68.5723 30.8616C68.5723 30.8616 65.3154 42.5555 65.0337 42.87C64.6054 43.3474 64.4094 43.5307 63.625 43.6235C61.9639 43.8226 59.6243 43.9086 58.3328 43.6869C57.5192 43.6235 57.8009 42.775 57.8325 42.241C57.8009 42.241 61.9887 27.5671 61.7475 25.4242C61.5897 24.0417 60.4199 23.8539 58.991 23.8539C50.9445 23.4421 42.7493 24.5146 39.9229 25.4876C37.6329 26.3995 34.4121 27.9721 33.035 30.7055C32.3588 32.0473 30.9478 34.6313 32.627 40.9829C33.035 42.5238 34.1552 44.4879 34.3828 44.7232C36.4789 46.9248 41.4037 44.1937 41.3023 44.2525C41.8951 43.9063 42.1069 43.0827 41.6449 42.1459C40.9958 40.8335 39.986 38.1974 39.7651 36.0795C38.9222 27.8748 44.877 27.119 45.9994 26.9652C48.0415 26.6801 48.4066 26.8249 49.4727 26.9968C50.2548 27.1214 50.94 27.2978 51.2578 27.8748C51.9159 29.0695 50.7146 33.5633 50.2233 35.7333C49.6282 38.3739 47.0317 48.0245 45.3729 52.5206C43.4458 57.7385 41.7486 63.0017 38.521 64.2054C37.4256 64.6127 36.8711 64.5697 35.663 64.2847C34.5699 64.029 33.1544 62.8071 32.4422 62.0604C30.5083 60.0375 29.6834 57.0145 29.4332 53.6521C29.1492 49.8122 30.1522 47.5223 28.7142 47.3345C26.7736 47.2371 23.0907 48.8845 21.495 50.3372C20.6024 51.145 19.8248 52.0908 20.6971 56.0415C22.2388 62.9927 26.6203 75.6618 47.3698 63.3615Z" fill="white"/>
</svg>
