<svg width="130" height="38" viewBox="0 0 130 38" fill="none" xmlns="http://www.w3.org/2000/svg">
<g clip-path="url(#clip0)">
<path d="M37.9121 37.3575H45.0437C45.7722 37.3575 46.4709 37.0681 46.986 36.5529C47.5011 36.0378 47.7905 35.3391 47.7905 34.6106V34.0042C48.4949 35.057 49.4525 35.9158 50.5755 36.5018C51.6985 37.0877 52.9508 37.382 54.2172 37.3575H60.2966C61.0251 37.3575 61.7238 37.0681 62.239 36.5529C62.7541 36.0378 63.0435 35.3391 63.0435 34.6106V34.3722C65.5202 36.5312 68.693 37.7238 71.9786 37.7307C73.8233 37.7296 75.6495 37.3625 77.3514 36.6508C79.0532 35.9391 80.597 34.8969 81.8933 33.5844V34.621C81.8926 34.9821 81.9632 35.3399 82.1009 35.6738C82.2387 36.0076 82.4409 36.311 82.696 36.5667C82.9512 36.8223 83.2542 37.0251 83.5878 37.1635C83.9214 37.3018 84.279 37.373 84.6402 37.373H92.1397C92.5379 37.3699 92.9306 37.2796 93.2903 37.1087C93.6512 37.2814 94.046 37.3716 94.446 37.373H101.92C102.285 37.3772 102.648 37.3082 102.987 37.17C103.325 37.0318 103.633 36.8272 103.891 36.5684C104.15 36.3095 104.354 36.0016 104.491 35.6627C104.629 35.3238 104.697 34.9608 104.692 34.5951V34.0768C106.469 35.8407 108.719 37.0506 111.17 37.5594C113.622 38.0682 116.168 37.854 118.499 36.9429C118.923 37.2067 119.41 37.3484 119.909 37.3523H127.269C127.999 37.3523 128.699 37.0624 129.215 36.5462C129.731 36.0301 130.021 35.3301 130.021 34.6002V12.5215C130.021 11.8298 129.761 11.1634 129.291 10.6559C128.821 10.1484 128.176 9.83733 127.486 9.78503H127.212V9.58808C127.23 9.11769 127.153 8.64847 126.985 8.20854C126.818 7.7686 126.563 7.367 126.237 7.02779C125.91 6.68858 125.519 6.41873 125.086 6.2344C124.653 6.05008 124.187 5.95507 123.716 5.95507C123.245 5.95507 122.779 6.05008 122.346 6.2344C121.913 6.41873 121.521 6.68858 121.195 7.02779C120.869 7.367 120.614 7.7686 120.446 8.20854C120.279 8.64847 120.202 9.11769 120.22 9.58808C120.22 9.65028 120.22 9.71247 120.22 9.77466H119.925C119.35 9.7773 118.79 9.95841 118.323 10.2929C116.863 9.6778 115.295 9.35555 113.71 9.34449C110.33 9.36157 107.092 10.7053 104.692 13.0865V2.8349C104.692 2.47175 104.621 2.11218 104.481 1.77693C104.341 1.44167 104.137 1.13736 103.879 0.881536C103.621 0.625711 103.315 0.423429 102.979 0.28635C102.643 0.149271 102.283 0.0801061 101.92 0.0828418H94.446C94.0462 0.0860981 93.6518 0.17629 93.2903 0.347164C92.9294 0.174523 92.5346 0.0842393 92.1345 0.0828418H84.6402C83.9103 0.0828418 83.2103 0.37279 82.6942 0.888902C82.1781 1.40501 81.8881 2.10501 81.8881 2.8349V12.7444C80.5976 11.4227 79.0566 10.3717 77.3551 9.65262C75.6536 8.93358 73.8258 8.56101 71.9786 8.55671C68.753 8.55619 65.6315 9.6983 63.1679 11.7804C63.0141 11.2003 62.6722 10.6876 62.1957 10.3228C61.7192 9.9579 61.1352 9.76148 60.535 9.7643H59.0424V5.09979C59.0416 4.65148 58.9314 4.21015 58.7212 3.81417C58.511 3.41819 58.2073 3.07955 57.8364 2.8277C57.4655 2.57585 57.0387 2.41841 56.5931 2.36909C56.1475 2.31976 55.6967 2.38004 55.2797 2.54467L48.0963 5.3952C47.5855 5.5993 47.1475 5.95182 46.8389 6.40727C46.5304 6.86272 46.3654 7.40019 46.3653 7.95032V9.7643H46.2305C46.0279 9.76447 45.8261 9.78883 45.6293 9.83686C45.4371 9.79342 45.2407 9.77083 45.0437 9.76948H36.3573C35.9588 9.77008 35.5655 9.86042 35.2067 10.0338C34.8438 9.86172 34.4474 9.77148 34.0458 9.76948H24.7167C24.1861 9.76947 23.6668 9.92315 23.2217 10.212C22.7765 10.5008 22.4245 10.9123 22.2083 11.3969C20.9609 10.4678 19.5305 9.81405 18.0116 9.47901C16.4927 9.14396 14.92 9.13521 13.3975 9.45333C12.6905 9.651 11.9978 9.89689 11.3244 10.1893C10.8887 9.91799 10.3864 9.77268 9.87322 9.76948H2.75206C2.39027 9.76811 2.03179 9.83836 1.69727 9.97618C1.36276 10.114 1.05883 10.3167 0.803003 10.5725C0.547177 10.8283 0.344514 11.1322 0.206695 11.4668C0.0688768 11.8013 -0.00137198 12.1598 -1.54576e-06 12.5215V34.5951C-0.0118082 34.9504 0.0479296 35.3046 0.175663 35.6364C0.303397 35.9683 0.496521 36.271 0.743564 36.5268C0.990607 36.7825 1.28653 36.986 1.61375 37.1252C1.94098 37.2643 2.29283 37.3363 2.64841 37.3368H12.0033C12.4032 37.3335 12.7976 37.2433 13.1591 37.0724C13.5229 37.242 13.9187 37.3321 14.3201 37.3368H22.996C23.3581 37.3368 23.7166 37.2654 24.051 37.1267C24.3854 36.9879 24.6891 36.7846 24.9448 36.5282C25.178 36.2914 25.366 36.0139 25.4993 35.7094C26.7517 36.6426 28.1881 37.299 29.7133 37.635C31.2386 37.971 32.8178 37.9788 34.3464 37.6581C35.0548 37.4649 35.7478 37.2189 36.4195 36.9221C36.8689 37.1986 37.3845 37.349 37.9121 37.3575Z" fill="white"/>
<path fill-rule="evenodd" clip-rule="evenodd" d="M49.1017 29.2775V18.6216H46.2305V12.7184H49.1017V8.15759L56.2851 5.2915V12.7184H60.5298V18.6268H56.2747V27.3339C56.2747 28.6763 56.9485 29.1635 58.6173 29.1635H60.2966V34.8645H54.2172C50.9727 34.8645 49.1017 32.3871 49.1017 29.3034" fill="#E2001A"/>
<path d="M92.1656 3.03186H84.6609V34.8231H92.1656V3.03186Z" fill="#E2001A"/>
<path fill-rule="evenodd" clip-rule="evenodd" d="M94.4875 3.02661L101.961 3.03179V34.823H94.4875V3.02661Z" fill="#E2001A"/>
<path fill-rule="evenodd" clip-rule="evenodd" d="M68.1848 20.8503C68.1848 19.5079 69.7707 17.7406 71.9682 17.7406C74.3523 17.7406 75.8346 19.7412 75.8346 20.8503H68.1848ZM83.0905 26.2093C82.5234 28.74 81.1188 31.0051 79.104 32.6381C77.0892 34.271 74.5822 35.176 71.9889 35.2066C65.6867 35.2066 60.7216 29.9254 60.7216 23.3743C60.7216 16.8233 65.6867 11.485 71.9889 11.485C78.2912 11.485 83.3911 16.8025 83.3911 23.3536C83.3953 23.9837 83.3468 24.613 83.246 25.2349H67.9723C68.0588 26.2223 68.5167 27.14 69.2535 27.8028C69.9904 28.4656 70.9514 28.8241 71.9423 28.8059C72.7538 28.8033 73.5451 28.5533 74.2109 28.0894C74.8767 27.6255 75.3852 26.9696 75.6687 26.2093H83.0905Z" fill="#E2001A"/>
<path fill-rule="evenodd" clip-rule="evenodd" d="M37.8914 12.7185H45.0281V34.8387H37.8966V32.693C36.1655 34.367 35.5591 34.6936 33.7503 35.2326C31.0605 35.8856 27.6191 34.6521 26.3182 32.864C25.274 31.5002 24.7109 29.829 24.7167 28.1114V12.7185H31.8223V25.6755C31.8223 27.9093 33.0455 29.4175 34.8905 29.4175C36.5801 29.4175 37.8914 27.9248 37.8914 25.6755V12.7185Z" fill="#E2001A"/>
<path fill-rule="evenodd" clip-rule="evenodd" d="M9.84732 34.8075H2.68988V12.7184H9.84732V14.8745C11.5784 13.1953 12.1848 12.8687 13.9936 12.3246C16.6731 11.6663 20.1041 12.905 21.4205 14.6983C22.4457 16.0708 23.0099 17.7327 23.0323 19.4457V34.8075H15.8853V21.8505C15.8853 19.6219 14.6829 18.1189 12.8222 18.1189C11.143 18.1189 9.83177 19.6064 9.83177 21.8505V34.8075" fill="#1A171B"/>
<path fill-rule="evenodd" clip-rule="evenodd" d="M110.394 23.7423C110.419 22.7775 110.728 21.8416 111.283 21.0517C111.837 20.2618 112.613 19.6529 113.511 19.3012C114.41 18.9495 115.393 18.8706 116.336 19.0744C117.279 19.2782 118.142 19.7555 118.815 20.4468C119.489 21.1381 119.944 22.0126 120.123 22.961C120.302 23.9094 120.197 24.8895 119.822 25.7788C119.447 26.6681 118.819 27.4272 118.014 27.961C117.21 28.4948 116.267 28.7796 115.302 28.78C113.983 28.7622 112.725 28.2216 111.805 27.277C110.885 26.3324 110.377 25.061 110.394 23.7423ZM103.138 23.7993C103.138 17.44 107.901 12.2883 113.793 12.2883C116.064 12.3475 118.251 13.1567 120.013 14.5895V12.7185H127.341V34.8335H119.951V33.0506C118.396 34.6054 116.131 35.2999 113.731 35.2999C107.88 35.3258 103.101 30.1431 103.101 23.7993H103.138Z" fill="#E2001A"/>
<path fill-rule="evenodd" clip-rule="evenodd" d="M123.35 8.43231H123.506C123.77 8.43231 124.071 8.45822 124.071 8.76919C124.071 9.08015 123.77 9.13198 123.506 9.13198H123.35V8.43231ZM122.832 10.6194H123.35V9.54142H123.501C123.739 9.54142 123.786 9.61916 123.869 9.80575L124.174 10.6194H124.776L124.346 9.6088C124.299 9.48959 124.206 9.34966 124.071 9.33929C124.222 9.32617 124.362 9.25621 124.463 9.14361C124.564 9.031 124.618 8.88418 124.615 8.73291C124.615 8.01768 123.941 8.03323 123.376 8.03323H122.858L122.832 10.6194Z" fill="#1A171B"/>
<path d="M123.693 7.12623C123.258 7.12623 122.833 7.25511 122.472 7.49657C122.11 7.73804 121.829 8.08124 121.662 8.48278C121.496 8.88432 121.452 9.32617 121.537 9.75244C121.622 10.1787 121.831 10.5703 122.139 10.8776C122.446 11.1849 122.838 11.3942 123.264 11.479C123.69 11.5638 124.132 11.5203 124.533 11.354C124.935 11.1876 125.278 10.906 125.52 10.5446C125.761 10.1832 125.89 9.75836 125.89 9.32373C125.891 9.03496 125.834 8.7489 125.724 8.48197C125.614 8.21505 125.452 7.97253 125.248 7.76834C125.044 7.56414 124.801 7.4023 124.534 7.29211C124.267 7.18192 123.981 7.12554 123.693 7.12623ZM123.693 11.3036C123.301 11.3036 122.918 11.1874 122.593 10.9699C122.267 10.7524 122.013 10.4431 121.863 10.0814C121.714 9.71961 121.674 9.32153 121.751 8.93749C121.827 8.55344 122.016 8.20067 122.293 7.92378C122.569 7.6469 122.922 7.45834 123.306 7.38195C123.69 7.30555 124.088 7.34476 124.45 7.49461C124.812 7.64446 125.121 7.89822 125.339 8.2238C125.556 8.54938 125.672 8.93216 125.672 9.32373C125.672 9.84881 125.464 10.3524 125.092 10.7237C124.721 11.095 124.218 11.3036 123.693 11.3036Z" fill="#1A171B"/>
</g>
<defs>
<clipPath id="clip0">
<rect width="130" height="38" fill="white"/>
</clipPath>
</defs>
</svg>
