<svg width="200" height="100" viewBox="0 0 200 100" fill="none" xmlns="http://www.w3.org/2000/svg">
<path d="M129.167 84.275C129.167 89.6083 126.167 92.275 120.667 92.275C115.167 92.275 112.333 89.4416 112.333 84.275V74.9416H118.333V83.9416C118.333 86.4416 119 87.6083 120.667 87.6083C122.333 87.6083 123 86.6083 123 83.775V74.9416H129L129.167 84.275ZM47.33 74.9416V79.275H42.33V91.9416H36.1633V79.275H30.9967V74.9416H47.33ZM57.6633 78.775L56.1633 84.6083H59.1633L57.6633 78.775ZM61.6633 91.9416L60.6633 88.775H54.83L53.6633 91.9416H47.4967L53.6633 74.9416H61.4967L67.6633 91.9416H61.6633ZM148.837 90.6083L147.003 86.1083C145.837 87.1083 144.503 87.6083 143.003 87.6083C140.67 87.6083 139.003 85.6083 139.003 83.4416V83.275C138.837 81.1083 140.337 79.1083 142.67 78.775H143.003C144.503 78.775 146.003 79.4416 147.003 80.4416L148.837 76.1083C146.67 74.9416 144.337 74.4416 142.003 74.4416C137.17 74.275 133.003 78.1083 132.837 82.9416C132.67 87.775 136.503 91.9416 141.337 92.1083H142.17C144.503 92.4416 146.837 91.775 148.837 90.6083ZM169.003 74.9416L163.503 83.275L169.67 91.9416H162.67L158.837 85.775V91.9416H152.837V74.9416H158.837V81.1083L162.337 74.9416H169.003ZM20.66 92.275C24.4933 92.275 28.4933 90.9416 28.4933 86.6083C28.4933 82.775 25.16 81.6083 22.4933 81.1083C20.4933 80.775 19.66 80.4416 19.66 79.775C19.66 78.775 20.9933 78.6083 21.66 78.6083C23.3267 78.6083 24.9933 79.275 26.4933 80.1083L28.16 76.275C25.9933 75.275 23.66 74.775 21.16 74.6083C17.16 74.6083 13.9933 76.6083 13.9933 80.4416C13.9933 83.6083 16.4933 84.9416 18.9933 85.4416C20.8267 85.9416 21.9933 86.1083 21.9933 86.9416C21.9933 87.775 21.16 88.1083 20.16 88.1083C18.3267 88.1083 16.4933 87.4416 15.16 86.275L13.3267 89.9416C15.8267 91.4416 18.16 92.1083 20.66 92.275ZM178.837 92.2766C182.67 92.2766 186.67 90.9433 186.67 86.61C186.67 82.7766 183.337 81.61 180.67 81.11C178.67 80.7766 177.837 80.4433 177.837 79.7766C177.837 78.7766 179.17 78.61 179.837 78.61C181.503 78.61 183.17 79.2766 184.67 80.11L186.337 76.2766C184.17 75.2766 181.837 74.7766 179.337 74.61C175.337 74.61 172.17 76.61 172.17 80.4433C172.17 83.61 174.503 84.9433 177.337 85.4433C179.17 85.9433 180.337 86.11 180.337 86.9433C180.337 87.7766 179.337 88.11 178.503 88.11C176.67 88.11 174.837 87.4433 173.503 86.2766L171.503 89.9433C173.837 91.4433 176.337 92.11 178.837 92.2766ZM83.8317 85.61C85.8317 84.7766 86.9983 82.9433 86.9983 80.7766C86.9983 76.7766 84.165 74.9433 80.3317 74.9433H71.165V91.9433H77.165V86.9433H78.665L81.665 91.9433H87.9983L83.8317 85.61ZM81.165 80.7766C81.165 81.7766 80.4983 82.4433 79.665 82.61H77.3317V78.9433H79.4983C80.3317 78.7766 81.165 79.4433 81.3317 80.4433C81.165 80.61 81.165 80.61 81.165 80.7766ZM104.498 83.2766C106.498 83.11 107.998 81.4433 107.832 79.4433C107.832 76.61 105.665 74.9433 101.832 74.9433H92.165V91.9433H101.498C105.998 91.9433 108.165 90.2766 108.165 87.11C108.332 85.11 106.665 83.4433 104.498 83.2766ZM97.9983 78.61H100.165C101.332 78.61 101.998 79.11 101.998 80.11C101.998 81.11 101.332 81.61 100.165 81.61H97.9983V78.61ZM101.998 86.61C101.998 87.61 101.332 88.11 99.9983 88.11H97.8317V84.9433H100C101.333 85.11 102 85.61 102 86.61H101.998Z" fill="#231815"/>
<path d="M130.417 38.0166C130.417 54.7383 116.845 68.31 100.123 68.31C83.4017 68.31 69.8284 54.7416 69.8284 38.0166C69.8284 21.2916 83.4 7.72498 100.122 7.72498C116.843 7.72498 130.417 21.2966 130.417 38.0166Z" fill="white"/>
<path d="M103.11 20.8116C101.09 20.4883 99.0717 20.4883 97.0517 20.8116C96.89 20.8116 96.81 20.7316 96.9717 20.57L100.138 18.1466L103.305 20.57C103.385 20.7316 103.305 20.8116 103.143 20.8116H103.11ZM97.9734 35.8366C97.8934 35.8366 97.8117 35.9166 97.8117 35.9983C98.4584 36.4816 98.8617 37.615 100.235 37.615C101.608 37.615 102.012 36.4816 102.658 35.9983C102.658 35.9183 102.578 35.8366 102.497 35.8366C100.963 36.0783 99.4267 36.0783 97.9734 35.8366ZM100.157 33.9783C99.7534 33.9783 99.6734 33.8166 99.43 33.8166C99.1067 33.8166 98.8634 33.9783 98.6217 34.22C98.6217 34.3 98.7017 34.3816 98.7017 34.4616C99.2684 34.5416 99.51 34.865 100.075 34.865C100.64 34.865 100.963 34.5416 101.448 34.4616C101.528 34.3816 101.528 34.3 101.528 34.22C101.287 33.9783 101.045 33.8966 100.72 33.8166C100.64 33.8166 100.558 33.9783 100.153 33.9783H100.157ZM130.333 39.7166C130.333 40.4433 130.253 41.17 130.172 41.9C126.778 42.4666 125.488 39.395 122.013 39.5566C122.252 40.292 122.414 41.0498 122.498 41.8183C125.407 41.8183 126.537 44.485 129.768 44.1616C129.607 44.97 129.365 45.7783 129.122 46.585C126.538 46.8266 125.648 44.3233 122.738 44.4016V46.4216C125.243 46.4216 126.05 48.6833 128.472 48.605L127.502 51.0283C125.805 50.9483 125.158 48.7666 122.573 48.9283L122.25 50.625C124.512 50.4633 124.997 52.5633 126.612 52.725C126.208 53.4516 125.723 54.2583 125.238 54.9083C124.268 54.425 123.462 52.8083 121.605 52.725L122.088 50.9483C120.23 50.8683 118.455 50.14 117.08 48.8483C117.563 45.94 113.122 43.015 113.122 40.9316C113.122 38.67 114.255 37.3766 114.255 34.3083C114.175 31.885 113.205 29.5416 111.508 27.845C111.194 27.5317 110.842 27.2601 110.458 27.0366C112.149 28.8693 113.124 31.2493 113.205 33.7416C113.205 36.65 111.832 38.185 111.832 40.85C111.832 43.515 115.71 45.8583 115.71 48.605C115.71 49.655 115.387 50.7883 114.257 52.805C115.71 54.3383 117.65 55.31 119.75 55.5516C120.153 55.6316 120.477 55.39 120.638 54.985C120.8 54.6616 120.962 54.3383 121.042 54.015C122.658 54.095 123.385 55.5483 124.275 56.115L122.742 57.9733C122.175 57.3266 121.368 56.1966 120.158 55.8733C119.917 56.2766 119.755 56.6816 119.512 57.085C120.482 57.3266 121.208 58.3783 121.695 59.0233L119.918 60.72C119.515 59.9933 118.948 59.4266 118.222 58.9433C117.98 59.2666 117.738 59.59 117.413 59.9133C117.98 60.3966 118.463 60.9633 118.787 61.61L116.525 63.2266C116.122 60.1566 111.92 58.0566 113.052 54.5016C112.568 55.2283 112.325 56.035 112.243 56.845C112.243 59.4283 114.99 61.45 115.232 64.035L113.45 65C113.37 62.1733 110.462 59.1033 110.462 56.76C110.462 54.1766 113.855 51.59 113.855 48.52C113.855 45.45 109.977 43.3333 109.977 40.6833C109.977 38.0333 111.673 36.4833 111.673 33.0083C111.671 31.7362 111.395 30.4795 110.865 29.3229C110.336 28.1663 109.565 27.1366 108.603 26.3033L107.553 25.5766C109.33 27.6766 110.3 29.535 110.3 32.4433C110.3 35.6766 108.442 37.4516 108.442 40.6016C108.442 43.7516 112.238 45.53 112.238 48.4383C112.238 51.3466 108.683 53.85 108.683 56.9216C108.683 59.6683 111.85 62.415 111.85 65.7266C111.164 66.0311 110.463 66.3009 109.75 66.535C110.153 63.2233 106.583 59.83 106.583 57.165C106.583 54.1766 110.3 51.6716 110.3 48.5216C110.3 45.3716 106.503 43.8383 106.503 40.605C106.503 37.3716 108.847 35.515 108.847 31.9616C108.838 30.6349 108.527 29.3276 107.94 28.1381C107.352 26.9487 106.502 25.9081 105.453 25.095L105.292 25.015C105.13 24.8533 104.968 25.015 105.05 25.1766C106.503 26.9533 107.312 29.215 107.233 31.4766C107.233 34.7883 104.567 37.455 104.567 40.605C104.567 44.4016 108.122 45.4516 108.122 48.5216C108.122 51.5916 104.325 54.095 104.325 57.4083C104.325 60.4783 107.958 63.7916 107.313 67.345L105.13 67.8283C105.777 63.4666 102.222 60.315 102.222 57.4883C102.222 54.4183 106.18 51.655 106.18 48.6016C106.18 45.775 103.353 44.805 102.947 41.8966C102.947 41.4933 102.623 41.25 102.22 41.25H102.14C101.324 41.4967 100.484 41.6592 99.635 41.735C98.7868 41.6516 97.9481 41.4892 97.13 41.25C96.7267 41.17 96.4034 41.4116 96.3217 41.8166V41.8966C95.9184 44.805 93.0884 45.775 93.0884 48.6016C93.0884 51.6716 97.0467 54.435 97.0467 57.4883C97.0467 60.315 93.4917 63.4666 94.1384 67.8283L91.955 67.345C91.3884 63.8716 95.025 60.4783 95.025 57.4083C95.025 54.0966 91.2284 51.675 91.2284 48.5216C91.2284 45.3683 94.7834 44.3216 94.7834 40.605C94.7834 37.3716 92.1167 34.7083 92.1167 31.4766C92.0367 29.215 92.8434 26.9533 94.3 25.1766C94.4617 25.015 94.3 24.8533 94.0584 25.015L93.8967 25.095C92.8484 25.9081 91.9982 26.9487 91.4105 28.1381C90.8227 29.3276 90.5125 30.6349 90.5034 31.9616C90.5034 35.595 92.8467 37.3733 92.8467 40.605C92.8467 43.8366 89.05 45.3716 89.05 48.5216C89.05 51.6716 92.7667 54.255 92.7667 57.165C92.7667 59.8316 89.2117 63.305 89.6 66.535L87.5 65.7266C87.58 62.4933 90.7334 59.7483 90.7334 56.9216C90.7334 53.8516 87.1784 51.4283 87.1784 48.4383C87.1784 45.4483 91.4617 43.8333 91.4617 40.6833C91.4617 37.5333 89.6034 35.755 89.6034 32.525C89.6034 29.6166 90.5734 27.7583 92.35 25.6583C91.9467 25.82 91.6234 26.0616 91.3 26.385C89.3617 28.0816 88.3117 30.505 88.23 33.09C88.23 36.4833 89.9267 38.0983 89.9267 40.765C89.9267 43.4316 86.0484 45.6116 86.0484 48.6016C86.0484 51.5916 89.4417 54.2566 89.4417 56.8416C89.4417 59.185 86.5334 62.2533 86.4534 65.0816L84.6767 64.1116C84.9184 61.5283 87.665 59.5066 87.665 56.9216C87.585 56.1133 87.3417 55.225 86.8567 54.5783C87.99 58.1333 83.7867 60.2333 83.3834 63.3033L81.1217 61.6866C81.445 61.04 81.93 60.475 82.495 59.99C82.2534 59.6666 81.9284 59.3433 81.6867 59.02C81.04 59.5033 80.475 60.07 79.99 60.7966L78.2134 59.1C78.78 58.4533 79.425 57.4033 80.3967 57.1616C80.155 56.7583 79.9134 56.3533 79.75 55.95C78.6167 56.2733 77.8117 57.3233 77.1667 58.05L75.6334 56.1916C76.5217 55.625 77.25 54.1716 78.8667 54.0916C79.0284 54.415 79.1084 54.7383 79.27 55.0616C79.4317 55.465 79.7534 55.6283 80.1584 55.6283C82.2584 55.3866 84.1967 54.4166 85.6517 52.9616C84.5184 50.8616 84.1984 49.795 84.1984 48.7616C84.1984 46.015 88.0767 43.6716 88.0767 41.0066C88.0767 38.3416 86.7034 36.8066 86.7034 33.8983C86.7834 31.3933 87.7534 28.97 89.45 27.115C89.0669 27.3384 88.714 27.61 88.4 27.9233C86.7034 29.62 85.7334 31.9616 85.6534 34.3866C85.6534 37.4566 86.7867 38.7483 86.7867 41.01C86.7867 43.11 82.3434 46.0183 82.8284 48.9266C81.455 50.22 79.6617 50.9466 77.82 50.9466L78.3034 52.7233C76.445 52.8033 75.6367 54.42 74.67 54.9066L73.2967 52.7233C74.9134 52.5616 75.3967 50.4616 77.6584 50.6233L77.335 48.9266C74.7517 48.765 74.1017 50.9466 72.4067 51.0266C72.0034 50.2183 71.68 49.41 71.4367 48.6033C73.86 48.6833 74.67 46.42 77.17 46.42V44.4C74.1817 44.32 73.2917 46.8233 70.7867 46.5833L70.14 44.16C73.3734 44.5633 74.5017 41.8166 77.41 41.8166L77.8934 39.555C74.42 39.3933 73.1267 42.4633 69.735 41.8983L69.5734 39.715C73.5317 40.1183 75.0667 36.8883 78.7017 37.2916C79.025 36.4033 79.51 35.595 79.9134 34.7866C75.39 33.9783 73.855 37.775 69.5734 37.21C70.0567 20.4883 83.9534 7.31997 100.673 7.80497C116.748 8.2883 129.673 21.1333 130.078 37.21C125.878 37.7766 124.245 33.9766 119.738 34.7866C120.222 35.595 120.547 36.4033 120.95 37.2916C124.828 36.8083 126.362 40.1183 130.32 39.715L130.333 39.7166ZM87.1167 26.95C84.6934 25.98 82.0267 26.3033 79.8467 27.7583C79.5234 25.6583 78.3934 23.8 76.68 22.5883C76.6 22.5083 76.3567 22.5083 76.2767 22.5883C76.1967 22.6683 76.1967 22.75 76.1967 22.83C76.52 27.3533 73.935 31.3133 70.6234 34.785C74.0167 35.755 76.8434 31.4733 81.2067 33.0083C82.74 30.585 84.7617 28.565 87.1034 26.95H87.1167ZM100.11 24.2033C97.2834 24.2033 94.94 25.82 94.2767 27.8366C94.1967 27.9983 94.2767 28.0783 94.4384 27.9983C95.005 27.7566 95.5717 27.675 96.135 27.675C97.185 27.595 98.155 28.0783 98.8817 28.8083C99.1234 29.7783 99.1234 30.7466 98.8817 31.635C98.3984 31.555 98.235 31.1516 97.7484 31.1516C97.2617 31.1516 96.94 31.475 96.1317 31.475C95.3234 31.475 95.2434 31.0716 94.7584 31.0716C94.2734 31.0716 94.0317 31.7183 94.0317 32.365C94.0317 35.5316 96.94 39.7983 99.9284 39.7983C102.917 39.7983 105.825 35.515 105.825 32.365C105.825 31.6383 105.663 31.0716 105.017 30.9916C104.613 31.315 104.208 31.475 103.723 31.395C102.915 31.395 102.753 31.0716 102.27 31.0716C101.787 31.0716 101.787 32.2833 101.137 32.2833C100.733 31.15 100.653 29.86 101.057 28.65C101.783 27.8416 102.753 27.4383 103.803 27.5166C104.37 27.5166 104.937 27.5966 105.5 27.84C105.662 27.92 105.742 27.84 105.662 27.6783C105.178 25.82 102.835 24.205 100.088 24.205L100.11 24.2033ZM104.45 28.7283C103.723 28.7283 102.997 28.97 102.512 29.455C102.432 29.6166 102.432 29.7783 102.512 30.0216C103.723 29.6183 104.773 29.6183 105.338 30.1833C105.58 30.0216 105.662 29.7 105.662 29.4566C105.662 28.9733 105.258 28.73 104.45 28.73V28.7283ZM94.675 30.1833C95.2417 29.6166 96.5334 29.6166 97.8417 30.1033C97.9217 29.4566 96.7917 28.73 95.58 28.73C94.7717 28.73 94.3684 28.9716 94.3684 29.3766C94.3684 29.7 94.4484 30.0233 94.6917 30.185L94.675 30.1833ZM114.08 19.5216C111.98 19.6833 110.042 20.41 108.425 21.705C109.072 19.9283 109.958 18.15 111.008 16.615C108.425 16.7766 106 17.9083 104.062 19.685L102.768 16.2116L105.757 13.545L101.718 13.2216L100.102 9.50497L98.485 13.2216L94.4467 13.545L97.435 16.2116L96.0617 19.7666C94.2034 17.9083 91.7784 16.8583 89.115 16.6966C90.165 18.3133 91.0534 20.0083 91.6984 21.7866C90.0817 20.4933 88.065 19.6866 85.965 19.6033C87.3384 21.3 88.47 23.1583 89.3584 25.0966C89.4384 25.2583 89.6817 25.42 89.8417 25.3383H89.9217C96.305 22.1716 103.735 22.1716 110.117 25.3383C110.278 25.4183 110.52 25.4183 110.6 25.2583V25.1783C111.57 23.0783 112.7 21.22 114.073 19.5233L114.08 19.5216ZM118.92 32.9333C123.282 31.4 126.11 35.76 129.503 34.71C126.27 31.2366 123.607 27.36 123.93 22.755C123.93 22.5933 123.85 22.4316 123.688 22.4316C123.608 22.4316 123.527 22.4316 123.447 22.5116C121.75 23.7233 120.62 25.6783 120.28 27.6816C118.097 26.2283 115.433 25.905 113.01 26.8733C115.353 28.57 117.372 30.59 118.907 32.9316" fill="#006241"/>
</svg>
