<svg width="295" height="300" viewBox="0 0 295 300" fill="none" xmlns="http://www.w3.org/2000/svg">
<g style="mix-blend-mode:multiply">
<path d="M0 289.177C0 295.153 50.9002 300 113.683 300C176.466 300 227.366 295.153 227.366 289.177C227.366 283.201 176.466 278.337 113.683 278.337C50.9002 278.337 0 283.184 0 289.177Z" fill="#DFDFDF"/>
</g>
<path d="M179.923 94.7142C183.519 102.219 180.044 127.148 153.674 127.148C135.45 127.148 128.554 105.798 130.378 97.8586C132.41 88.9293 143.459 86.254 156.627 86.254C169.795 86.254 177.126 88.8598 179.923 94.7142Z" fill="#E30613"/>
<g style="mix-blend-mode:multiply">
<path d="M152.388 112.642C146.95 109.168 141.965 103.261 141.721 96.4687C141.559 93.4027 142.087 90.3392 143.268 87.5047C136.545 89.0509 131.663 92.1952 130.377 97.8238C128.64 105.763 135.45 127.113 153.673 127.113C171.202 127.113 178.602 116.099 180.548 106.51C173.287 114.466 162.603 119.261 152.388 112.642Z" fill="#DADADA"/>
</g>
<g style="mix-blend-mode:multiply">
<path d="M144.97 117.854C142.005 115.819 139.57 113.105 137.865 109.938C136.161 106.771 135.238 103.243 135.172 99.648C134.892 96.6653 134.992 93.6591 135.468 90.7014C132.904 92.3265 131.087 94.8992 130.412 97.8587C128.675 105.798 135.485 127.148 153.708 127.148C164.965 127.148 172.036 122.597 176.188 116.812C166.737 122.51 154.282 124.021 144.97 117.854Z" fill="#DADADA"/>
</g>
<path d="M157.183 89.9542H155.22C155.22 89.9542 154.056 81.2681 155.22 79.4267C156.384 77.5853 160.223 76.8556 158.607 78.6623C156.692 82.1009 156.181 86.1475 157.183 89.9542Z" fill="#3AAA35"/>
<path d="M153.674 86.3583C159.198 86.3583 162.36 79.4095 162.36 79.4095C162.36 79.4095 161.769 88.2866 154.924 89.9544C154.021 88.3214 154.49 88.912 153.674 86.3583Z" fill="#3AAA35"/>
<path d="M156.609 86.8096C151.294 85.2982 150.078 77.7066 150.078 77.7066C150.078 77.7066 148.34 86.3927 154.386 89.8671C155.741 88.5642 155.133 89.0506 156.609 86.8096Z" fill="#3AAA35"/>
<path d="M157.27 86.1843C161.891 89.207 168.423 85.1767 168.423 85.1767C168.423 85.1767 163.037 92.2298 156.401 89.8498C156.505 87.9736 156.54 88.7554 157.27 86.1843Z" fill="#3AAA35"/>
<path d="M158.955 88.599C160.31 93.9322 167.849 95.3915 167.849 95.3915C167.849 95.3915 159.163 96.9549 155.828 90.7184C157.183 89.3981 156.679 90.0582 158.955 88.599Z" fill="#3AAA35"/>
<path d="M153.952 85.2809C149.331 88.3037 142.781 84.2733 142.781 84.2733C142.781 84.2733 148.184 91.3438 154.82 88.9464C154.716 87.0703 154.681 87.852 153.952 85.2809Z" fill="#3AAA35"/>
<path d="M152.718 86.8618C151.346 92.2124 143.806 93.6542 143.806 93.6542C143.806 93.6542 152.492 95.2177 155.828 88.9811C154.49 87.6609 154.994 88.321 152.718 86.8618Z" fill="#3AAA35"/>
<path d="M157.565 89.4677C155.202 94.4535 160.084 100.377 160.084 100.377C160.084 100.377 152.353 96.017 153.795 89.1202C155.062 89.005 156.34 89.1227 157.565 89.4677Z" fill="#3AAA35"/>
<path opacity="0.15" d="M175.128 92.23C178.985 95.4091 180.792 99.5958 179.159 101.576C177.526 103.557 174.816 99.4221 170.959 96.243C167.102 93.0639 163.558 92.0563 165.191 90.0759C166.824 88.0955 171.272 89.0683 175.128 92.23Z" fill="white"/>
<path d="M196.617 57.8853C203.253 62.8885 211.609 86.5841 188.244 98.7445C172.071 107.135 156.123 91.3614 154.073 83.4744C151.78 74.6147 160.344 67.1447 172.036 61.0992C183.727 55.0537 191.423 53.9766 196.617 57.8853Z" fill="#E30613"/>
<g style="mix-blend-mode:multiply">
<path d="M180.427 86.5838C173.999 85.9758 166.807 83.1094 163.523 77.1334C161.953 74.4862 161.008 71.5153 160.761 68.4473C155.55 72.9119 152.614 77.9499 154.073 83.5437C156.123 91.4306 172.071 107.204 188.244 98.8137C203.879 90.7357 205.303 77.5503 202.611 68.152C199.814 78.4884 192.5 87.6609 180.427 86.5838Z" fill="#DADADA"/>
</g>
<g style="mix-blend-mode:multiply">
<path d="M176.188 94.4535C172.627 94.0197 169.221 92.7441 166.251 90.7321C163.282 88.7201 160.834 86.0297 159.111 82.8837C157.495 80.3703 156.205 77.6617 155.272 74.823C154.511 76.1211 154.014 77.5563 153.808 79.0467C153.602 80.5372 153.692 82.0535 154.073 83.5091C156.123 91.396 172.071 107.17 188.244 98.7791C198.233 93.5675 202.42 86.306 203.427 79.2529C197.712 88.6338 187.289 95.7217 176.188 94.4535Z" fill="#DADADA"/>
</g>
<path d="M174.242 64.1217L172.505 65.025C172.505 65.025 167.45 57.833 167.658 55.6788C167.867 53.5247 170.907 51.11 170.316 53.4552C170.182 57.387 171.591 61.2154 174.242 64.1217Z" fill="#3AAA35"/>
<path d="M169.465 62.5584C174.346 59.9873 173.999 52.3262 173.999 52.3262C173.999 52.3262 177.473 60.4738 172.262 65.0947C170.664 64.1045 171.358 64.452 169.465 62.5584Z" fill="#3AAA35"/>
<path d="M172.262 61.6028C166.859 62.7146 162.273 56.5475 162.273 56.5475C162.273 56.5475 164.705 65.0946 171.654 65.3378C172.314 63.5659 171.984 64.2608 172.262 61.6028Z" fill="#3AAA35"/>
<path d="M172.575 60.7341C178.064 61.3074 182.008 54.706 182.008 54.706C182.008 54.706 180.462 63.392 173.495 64.3996C172.714 62.6798 173.096 63.3573 172.575 60.7341Z" fill="#3AAA35"/>
<path d="M175.128 62.1065C178.811 66.2237 186.177 64.0348 186.177 64.0348C186.177 64.0348 179.124 69.4549 173.356 65.4246C173.964 63.6353 173.808 64.3996 175.128 62.1065Z" fill="#3AAA35"/>
<path d="M169.204 61.464C166.494 66.276 158.781 65.7201 158.781 65.7201C158.781 65.7201 166.824 69.5073 171.602 64.3304C170.716 62.7148 171.028 63.4097 169.204 61.464Z" fill="#3AAA35"/>
<path d="M168.839 63.4442C170.09 68.8122 164.062 73.5721 164.062 73.5721C164.062 73.5721 172.54 70.9316 172.574 63.8959C170.785 63.34 171.497 63.6353 168.839 63.4442Z" fill="#3AAA35"/>
<path d="M174.329 63.5312C174.538 69.0381 181.608 72.0609 181.608 72.0609C181.608 72.0609 172.731 71.7308 170.837 64.9557C172.436 64.0002 171.828 64.4171 174.329 63.5312Z" fill="#3AAA35"/>
<path opacity="0.15" d="M191.215 57.8853C196.096 58.9276 199.64 61.8114 199.102 64.313C198.563 66.8146 194.255 64.313 189.356 63.3575C184.457 62.4021 180.861 63.0448 181.399 60.5433C181.938 58.0417 186.333 56.8604 191.215 57.8853Z" fill="white"/>
<path d="M156.349 89.4158C156.488 97.737 142.955 118.948 118.982 107.969C102.426 100.378 105.084 78.1065 110 71.6267C115.559 64.3652 126.73 66.5367 138.682 72.0089C150.634 77.4811 156.245 82.9186 156.349 89.4158Z" fill="#E30613"/>
<g style="mix-blend-mode:multiply">
<path d="M123.828 94.2625C120.354 88.825 118.2 81.3724 120.875 75.1532C122.019 72.2879 123.802 69.7213 126.087 67.6484C119.312 66.2587 113.579 67.0752 110.07 71.6614C105.101 78.1412 102.495 100.412 119.051 108.004C134.999 115.3 146.308 108.369 152.058 100.464C142.121 104.599 130.378 104.512 123.828 94.2625Z" fill="#DADADA"/>
</g>
<g style="mix-blend-mode:multiply">
<path d="M114.969 95.8087C113.121 92.7367 112.032 89.2689 111.79 85.6923C111.548 82.1156 112.161 78.5328 113.579 75.2402C114.562 72.4135 115.898 69.7226 117.557 67.2316C114.56 67.652 111.847 69.2298 110 71.6268C105.032 78.1066 102.426 100.378 118.982 107.969C129.214 112.66 137.535 111.444 143.719 107.969C132.792 109.168 120.823 105.381 114.969 95.8087Z" fill="#DADADA"/>
</g>
<path d="M137.674 75.6046L135.937 74.7881C135.937 74.7881 138.49 66.3626 140.314 65.2161C142.138 64.0695 145.926 64.9729 143.702 65.9283C140.507 68.2432 138.343 71.7159 137.674 75.6046Z" fill="#3AAA35"/>
<path d="M135.954 70.949C140.992 73.2247 146.829 68.2215 146.829 68.2215C146.829 68.2215 142.59 76.039 135.676 74.7187C135.54 73.4557 135.634 72.1784 135.954 70.949Z" fill="#3AAA35"/>
<path d="M138.438 72.5127C134.252 68.9167 136.284 61.5161 136.284 61.5161C136.284 61.5161 131.072 68.6735 135.155 74.3715C136.909 73.7461 136.18 73.9198 138.438 72.5127Z" fill="#3AAA35"/>
<path d="M139.307 72.2172C142.243 76.8903 149.869 75.9522 149.869 75.9522C149.869 75.9522 142.017 80.1215 136.996 75.1878C137.865 73.5201 137.57 74.2497 139.307 72.2172Z" fill="#3AAA35"/>
<path d="M139.828 75.1008C138.838 80.5383 145.04 85.0029 145.04 85.0029C145.04 85.0029 136.441 82.7793 136.058 75.7436C137.882 75.1008 137.188 75.4309 139.828 75.1008Z" fill="#3AAA35"/>
<path d="M136.666 70.011C131.212 70.8449 126.938 64.4519 126.938 64.4519C126.938 64.4519 128.901 73.138 135.919 73.7113C136.614 71.9567 136.25 72.6863 136.666 70.011Z" fill="#3AAA35"/>
<path d="M134.877 70.9491C131.403 75.24 123.95 73.4159 123.95 73.4159C123.95 73.4159 131.264 78.4886 136.84 74.1803C136.163 72.4083 136.371 73.1553 134.877 70.9491Z" fill="#3AAA35"/>
<path d="M138.195 75.3267C133.974 78.8011 135.954 86.3059 135.954 86.3059C135.954 86.3059 130.742 79.0965 134.929 73.4332C136.701 74.0759 135.954 73.8848 138.195 75.3267Z" fill="#3AAA35"/>
<path opacity="0.15" d="M153.031 85.1596C155.22 89.659 155.115 94.2105 152.822 95.3223C150.529 96.4341 149.765 91.5525 147.611 87.0705C145.456 82.5885 142.625 80.1217 144.935 79.062C147.246 78.0023 150.807 80.6602 153.031 85.1596Z" fill="white"/>
<path d="M118.443 67.8048C118.599 76.126 105.049 97.3373 81.0756 86.3582C64.52 78.7666 67.178 56.4955 72.0943 50.0157C77.6533 42.7716 88.8236 44.9257 100.776 50.4153C112.728 55.9049 118.339 61.3076 118.443 67.8048Z" fill="#E30613"/>
<g style="mix-blend-mode:multiply">
<path d="M85.9225 72.6862C82.4481 67.2314 80.2939 59.7787 82.9692 53.5769C84.1131 50.7065 85.8954 48.1342 88.1809 46.0548C81.4057 44.665 75.673 45.4989 72.1638 50.0677C67.1954 56.5475 64.5896 78.8186 81.1452 86.4102C97.0928 93.7064 108.402 86.775 114.152 78.8707C104.181 83.0052 92.4718 82.901 85.9225 72.6862Z" fill="#DADADA"/>
</g>
<g style="mix-blend-mode:multiply">
<path d="M77.0626 74.1978C75.2066 71.1193 74.1122 67.6423 73.8705 64.0557C73.6288 60.4692 74.2467 56.8767 75.6729 53.5771C76.6415 50.7789 77.9545 48.112 79.5816 45.638C76.5953 46.0824 73.9048 47.6867 72.0942 50.1027C67.1258 56.5824 64.52 78.8535 81.0756 86.4451C91.3078 91.1355 99.629 89.9195 105.813 86.4451C94.8864 87.5916 82.917 83.7698 77.0626 74.1978Z" fill="#DADADA"/>
</g>
<path d="M99.7677 54.0114L98.0305 53.1775C98.0305 53.1775 100.584 44.7521 102.408 43.6055C104.232 42.4589 108.019 43.3623 105.883 44.3351C102.661 46.6406 100.467 50.1124 99.7677 54.0114Z" fill="#3AAA35"/>
<path d="M98.0483 49.286C103.086 51.5444 108.923 46.5586 108.923 46.5586C108.923 46.5586 104.684 54.376 97.7703 53.0384C97.6346 51.7811 97.7287 50.5096 98.0483 49.286Z" fill="#3AAA35"/>
<path d="M100.532 50.9017C96.3458 47.323 98.3783 39.9225 98.3783 39.9225C98.3783 39.9225 93.1667 47.0625 97.2491 52.7605C99.0211 52.1351 98.2741 52.3262 100.532 50.9017Z" fill="#3AAA35"/>
<path d="M101.401 50.6064C104.337 55.2795 111.963 54.3414 111.963 54.3414C111.963 54.3414 104.111 58.5107 99.0906 53.5944C99.9592 51.8398 99.6638 52.639 101.401 50.6064Z" fill="#3AAA35"/>
<path d="M101.922 53.577C100.932 58.9971 107.134 63.4617 107.134 63.4617C107.134 63.4617 98.4477 61.2381 98.1523 54.2024C99.9764 53.577 99.2815 53.8376 101.922 53.577Z" fill="#3AAA35"/>
<path d="M98.6908 48.3654C93.2359 49.1993 88.9624 42.8237 88.9624 42.8237C88.9624 42.8237 90.9254 51.5098 97.9438 52.0657C98.6908 50.3459 98.3433 51.0407 98.6908 48.3654Z" fill="#3AAA35"/>
<path d="M96.9537 49.3209C93.4793 53.5771 86.0441 51.8399 86.0441 51.8399C86.0441 51.8399 93.3577 56.8951 98.9342 52.5869C98.2566 50.7975 98.4651 51.5445 96.9537 49.3209Z" fill="#3AAA35"/>
<path d="M100.289 53.716C96.0679 57.2772 98.0483 64.6951 98.0483 64.6951C98.0483 64.6951 92.8367 57.5031 97.0234 51.8398C98.7953 52.4652 98.0483 52.2914 100.289 53.716Z" fill="#3AAA35"/>
<path opacity="0.15" d="M115.125 63.5487C117.314 68.0481 117.227 72.5996 114.916 73.7288C112.606 74.8579 111.859 69.959 109.705 65.4596C107.551 60.9603 104.719 58.5108 107.029 57.4511C109.34 56.3914 112.936 59.0667 115.125 63.5487Z" fill="white"/>
<path d="M158.937 197.505C156.356 193.838 154.765 189.568 154.318 185.106C153.871 180.645 154.582 176.143 156.383 172.037L162.429 167.086C162.429 167.086 182.615 165.071 186.646 173.323C176.57 183.347 167.762 179.351 167.762 179.351C167.762 179.351 164.444 196.028 158.937 197.505Z" fill="#81B9C4"/>
<path d="M156.384 172.037C156.384 172.037 122.647 147.491 107.637 129.18C102.628 122.735 98.3678 115.742 94.9384 108.334C90.2306 98.3276 105.64 84.013 116.497 90.6492C124.697 95.4832 132.065 101.607 138.317 108.786C152.84 126.488 162.429 167.121 162.429 167.121L163.159 174.07L156.384 172.037Z" fill="#A1D2D9"/>
<path d="M116.497 90.6317C105.64 83.9608 96.9538 81.9804 93.3056 81.8066C92.2459 81.8066 92.1938 85.0205 92.1938 85.0205C92.1938 85.0205 90.6998 83.0053 90.4566 84.1345C88.8757 90.0236 90.3002 98.2928 95.0081 108.299C99.2194 108.456 103.35 107.114 106.665 104.512C112.953 100.013 116.497 90.6317 116.497 90.6317Z" fill="#81B9C4"/>
<g style="mix-blend-mode:soft-light" opacity="0.6">
<path d="M103.364 94.3667C105.265 94.4052 107.114 93.7432 108.559 92.5067C110.004 91.2702 110.943 89.5455 111.199 87.6611C105.719 84.6027 99.7041 82.6213 93.4792 81.824C93.4792 87.1225 97.2837 94.2451 103.364 94.3667Z" fill="#AFC1B0"/>
</g>
<g style="mix-blend-mode:multiply">
<path d="M116.497 90.6316C115.577 90.0583 114.76 89.5372 113.787 89.0507C112.797 94.2624 109.74 99.1787 104.441 101.003C96.2067 103.852 92.4022 95.3394 89.779 88.7033C89.6748 94.0365 91.3425 100.655 94.9906 108.299C99.2019 108.456 103.332 107.114 106.647 104.512C112.953 100.013 116.497 90.6316 116.497 90.6316Z" fill="#EDEDED"/>
</g>
<path d="M132.706 138.44C127.554 134.521 122.763 130.149 118.391 125.376C115.47 121.39 113.9 116.576 113.909 111.634L123.412 119.487L132.706 138.44Z" fill="#81B9C4"/>
<g style="mix-blend-mode:multiply">
<path d="M132.706 138.44C131.961 136.966 131.039 135.59 129.961 134.34C129.648 134.096 130.412 136.685 129.961 136.372C129.509 136.06 128.745 133.211 128.328 132.898C127.911 132.585 128.05 134.844 127.685 134.531C127.32 134.218 126.816 131.751 126.66 131.578C126.504 131.404 126.66 133.523 126.347 133.228C126.035 132.933 124.992 130.518 124.61 130.205C124.228 129.892 124.315 131.439 123.811 130.987C123.307 130.535 122.699 128.225 122.334 127.877C121.97 127.53 121.9 129.18 121.535 128.815C121.17 128.451 121.17 125.827 120.719 125.341C120.267 124.855 119.607 126.8 119.364 126.522C119.121 126.244 119.468 123.534 119.138 123.152C118.808 122.77 117.8 124.646 117.557 124.281C117.314 123.916 118.2 120.946 118.113 120.807C117.731 120.199 116.567 122.666 116.254 122.04C114.706 118.782 113.894 115.224 113.874 111.617L123.377 119.469L132.706 138.44Z" fill="#EDEDED"/>
</g>
<g style="mix-blend-mode:soft-light" opacity="0.5">
<path d="M157.548 159.095C156.436 160.016 143.98 124.16 132.844 110.575C126.816 103.209 117.731 95.4262 118.947 94.5054C120.163 93.5847 131.507 102.375 137.552 109.741C146.117 120.303 158.677 158.174 157.548 159.095Z" fill="white"/>
</g>
<path d="M110.417 95.513C109.929 95.9151 109.333 96.1634 108.704 96.2266C108.075 96.2898 107.441 96.1651 106.883 95.8682C106.325 95.5713 105.867 95.1155 105.568 94.5585C105.269 94.0015 105.142 93.3684 105.203 92.7391C105.263 92.1098 105.509 91.5126 105.909 91.0232C106.31 90.5337 106.846 90.1738 107.45 89.9891C108.055 89.8045 108.701 89.8032 109.306 89.9856C109.912 90.1679 110.449 90.5257 110.851 91.0137C111.386 91.6697 111.64 92.5102 111.559 93.3526C111.477 94.195 111.067 94.9713 110.417 95.513Z" fill="#8F6338" stroke="#0A0901" stroke-width="0.42" stroke-miterlimit="10"/>
<path d="M109.253 94.0887C108.977 94.3068 108.627 94.4088 108.276 94.3731C107.926 94.3374 107.604 94.1669 107.377 93.8976C107.17 93.6144 107.08 93.2628 107.125 92.9151C107.169 92.5674 107.345 92.2499 107.616 92.0277C107.887 91.8055 108.233 91.6954 108.583 91.7201C108.932 91.7448 109.259 91.9023 109.496 92.1604C109.61 92.302 109.693 92.4648 109.742 92.6392C109.791 92.8137 109.805 92.9962 109.782 93.176C109.76 93.3557 109.701 93.5292 109.61 93.6859C109.519 93.8427 109.398 93.9797 109.253 94.0887Z" fill="#0A0901"/>
<path d="M110.851 94.0368C110.753 94.1166 110.64 94.1764 110.519 94.2126C110.398 94.2488 110.271 94.2608 110.145 94.2479C110.019 94.235 109.897 94.1974 109.786 94.1374C109.675 94.0773 109.576 93.9959 109.496 93.8978C109.416 93.7997 109.357 93.6868 109.321 93.5657C109.284 93.4445 109.272 93.3173 109.285 93.1915C109.298 93.0657 109.336 92.9436 109.396 92.8323C109.456 92.721 109.537 92.6226 109.635 92.5428C109.733 92.4629 109.846 92.4032 109.967 92.367C110.089 92.3307 110.216 92.3187 110.342 92.3316C110.467 92.3445 110.589 92.3821 110.701 92.4422C110.812 92.5022 110.91 92.5837 110.99 92.6818C111.07 92.7798 111.13 92.8927 111.166 93.0139C111.202 93.1351 111.214 93.2622 111.201 93.388C111.189 93.5139 111.151 93.6359 111.091 93.7472C111.031 93.8585 110.949 93.9569 110.851 94.0368Z" fill="white"/>
<path d="M36.794 112.156L34.414 112.868C34.414 112.868 29.6714 102.219 30.3837 99.4218C31.0959 96.6249 35.4216 94.3492 34.1708 97.2329C33.1914 102.361 34.1246 107.669 36.794 112.156Z" fill="#683C11"/>
<path d="M58.3008 115.926C54.4095 108.751 46.5746 108.039 36.1514 111.2C25.7281 114.362 19.4742 119.261 20.169 127.391C20.5165 132.742 30.6618 147.473 39.6258 150.965C42.1448 151.938 44.2468 147.074 46.5746 146.379C48.9025 145.684 53.315 148.585 54.8785 146.379C60.4723 138.509 60.8545 120.651 58.3008 115.926Z" fill="#E52A12"/>
<g style="mix-blend-mode:multiply">
<path d="M51.7861 141.497C49.7646 141.228 47.7855 140.703 45.897 139.934C42.4226 138.961 38.6702 140.524 35.1436 139.239C29.6193 137.241 26.1449 130.014 24.5988 124.802C23.8819 122.504 23.5417 120.104 23.5912 117.697C22.3095 118.94 21.3297 120.46 20.7274 122.14C20.1251 123.821 19.9162 125.617 20.1168 127.391C20.5163 132.741 30.6616 147.473 39.6256 150.965C42.1446 151.938 44.2466 147.073 46.5745 146.379C48.9023 145.684 53.3149 148.585 54.8783 146.379C56.1299 144.555 57.0964 142.552 57.7447 140.437C55.8511 141.191 53.8237 141.552 51.7861 141.497Z" fill="#D8CDC5"/>
</g>
<path opacity="0.1" d="M54.6873 115.457C58.735 122.127 58.735 135.452 51.6819 137.571C44.6289 139.691 33.5107 137.432 29.2024 123.066C27.9864 119.053 32.6768 114.102 39.7473 111.982C46.8177 109.863 52.481 111.895 54.6873 115.457Z" fill="white"/>
<path d="M42.9612 96.2256C42.8245 98.8368 41.8498 101.335 40.1816 103.348C38.2859 105.178 35.8473 106.342 33.2328 106.666C33.4087 104.039 34.4329 101.539 36.1513 99.5436C38.0101 97.7408 40.3958 96.5783 42.9612 96.2256Z" fill="#3AAA35"/>
<path d="M42.9612 96.2256C42.8245 98.8368 41.8498 101.335 40.1816 103.348C38.2859 105.178 35.8473 106.342 33.2328 106.666C35.1022 105.218 36.8456 103.614 38.4444 101.872C40.1141 100.127 41.6256 98.2375 42.9612 96.2256Z" fill="#328E2C"/>
<path d="M79.2342 83.4743C98.3436 133.645 104.875 177.77 93.7399 182.026C82.6044 186.282 58.0577 149.123 38.9136 98.866C19.7696 48.6085 13.2724 4.58762 24.4079 0.331459C35.5434 -3.92471 60.0902 33.3037 79.2342 83.4743Z" fill="#D98F52"/>
<g style="mix-blend-mode:soft-light" opacity="0.3">
<path d="M47.5126 95.6001C32.7637 56.9471 23.9908 21.6644 22.9484 1.20006C13.9149 8.77429 20.6727 51.0754 38.9134 98.866C57.1541 146.657 80.2937 182.704 92.072 182.339C79.1472 166.496 62.2094 134.236 47.5126 95.6001Z" fill="#BAA297"/>
</g>
<g style="mix-blend-mode:multiply">
<path d="M24.4079 0.331471C23.8301 0.554381 23.2996 0.884448 22.8444 1.30431C35.6997 11.328 54.9306 44.7693 70.8956 86.5839C86.8605 128.399 94.817 166.235 91.8984 182.269C92.4911 182.265 93.0786 182.159 93.6357 181.957C104.771 177.701 98.2914 133.575 79.13 83.4048C59.9685 33.2342 35.5434 -3.90732 24.4079 0.331471Z" fill="#EADBDA"/>
</g>
<path d="M42.857 17.2692C42.857 17.2692 44.4378 28.7696 37.2632 34.016C32.8164 37.1986 28.1748 40.0996 23.3655 42.702C23.3655 42.702 24.3209 35.9616 31.4261 25.66C35.3696 20.1183 42.857 17.2692 42.857 17.2692Z" fill="#FADDB5"/>
<path d="M42.8569 17.2692C42.8569 17.2692 34.8484 25.3994 32.4337 28.0052C28.5611 32.3264 25.5324 37.3349 23.5044 42.7715C23.5044 42.7715 24.4599 36.0311 31.565 25.7295C35.3695 20.1183 42.8569 17.2692 42.8569 17.2692Z" fill="#F5BB8E"/>
<g style="mix-blend-mode:soft-light">
<g style="mix-blend-mode:soft-light">
<path d="M37.4718 28.4049C37.2633 28.2138 36.8464 28.6655 37.0549 28.8566C37.2633 29.0476 37.6629 28.596 37.4718 28.4049Z" fill="#FFFACC"/>
</g>
<g style="mix-blend-mode:soft-light">
<path d="M36.7769 29.9163C36.6379 29.4298 36.0472 29.2909 35.5435 29.9163C35.0397 30.5417 35.2134 31.0454 35.7172 31.1323C36.1515 31.1323 36.8985 30.3853 36.7769 29.9163Z" fill="#FFFACC"/>
</g>
<g style="mix-blend-mode:soft-light">
<path d="M37.767 31.1149C37.5412 30.8891 37.0721 31.4103 37.298 31.6187C37.5238 31.8272 38.0102 31.3234 37.767 31.1149Z" fill="#FFFACC"/>
</g>
<g style="mix-blend-mode:soft-light">
<path d="M39.4522 29.2561C39.209 29.0303 38.7399 29.5514 38.9831 29.7599C39.2264 29.9684 39.6259 29.4993 39.4522 29.2561Z" fill="#FFFACC"/>
</g>
<g style="mix-blend-mode:soft-light">
<path d="M38.6009 22.62C38.3577 22.4115 37.8887 22.9153 38.1145 23.1411C38.3403 23.367 38.8268 22.8458 38.6009 22.62Z" fill="#FFFACC"/>
</g>
<g style="mix-blend-mode:soft-light">
<path d="M40.4772 26.7024C40.0082 26.2855 39.0875 27.2931 39.5565 27.71C40.0256 28.1269 40.9289 27.1193 40.4772 26.7024Z" fill="#FFFACC"/>
</g>
<g style="mix-blend-mode:soft-light">
<path d="M41.7105 19.7188C41.2588 19.3019 40.3381 20.3095 40.7898 20.7264C41.2415 21.1433 42.1622 20.1358 41.7105 19.7188Z" fill="#FFFACC"/>
</g>
<g style="mix-blend-mode:soft-light">
<path d="M37.7671 25.7817C37.4544 25.4864 36.8117 26.1813 37.1244 26.4766C37.4371 26.7719 38.0798 26.1118 37.7671 25.7817Z" fill="#FFFACC"/>
</g>
<g style="mix-blend-mode:soft-light">
<path d="M33.8062 29.3777C34.1536 28.5091 32.6944 28.8392 32.8333 29.5862C32.9549 30.0205 33.5977 29.8815 33.8062 29.3777Z" fill="#FFFACC"/>
</g>
<g style="mix-blend-mode:soft-light">
<path d="M35.7694 26.2334C36.1168 25.3648 34.6749 25.6948 34.8139 26.4418C34.9181 26.8761 35.5609 26.7372 35.7694 26.2334Z" fill="#FFFACC"/>
</g>
<g style="mix-blend-mode:soft-light">
<path d="M31.6346 34.1898C31.1656 33.7555 30.2101 34.7978 30.6792 35.2321C31.1482 35.6664 32.1211 34.6241 31.6346 34.1898Z" fill="#FFFACC"/>
</g>
<g style="mix-blend-mode:soft-light">
<path d="M29.498 37.421C29.3069 37.2473 28.942 37.6468 29.1331 37.8206C29.3242 37.9943 29.6717 37.5773 29.498 37.421Z" fill="#FFFACC"/>
</g>
<g style="mix-blend-mode:soft-light">
<path d="M26.0756 40.3048C26.3361 39.94 25.9713 39.6099 25.6239 39.8878C25.0159 40.3743 25.6239 40.9475 26.0929 40.3221L26.0756 40.3048Z" fill="#FFFACC"/>
</g>
<g style="mix-blend-mode:soft-light">
<path d="M32.5729 36.7782C32.6076 36.7032 32.6144 36.6183 32.5922 36.5387C32.5699 36.4591 32.5199 36.39 32.4513 36.3439C32.2255 36.066 31.878 36.2397 31.6348 36.535C31.3916 36.8303 31.2179 37.1778 31.5132 37.3515C31.5761 37.3981 31.6522 37.4232 31.7304 37.4232C31.8086 37.4232 31.8847 37.3981 31.9475 37.3515C32.0901 37.3131 32.2213 37.241 32.3302 37.1412C32.439 37.0414 32.5223 36.9169 32.5729 36.7782Z" fill="#FFFACC"/>
</g>
<g style="mix-blend-mode:soft-light">
<path d="M34.5532 33.2691C34.171 32.9216 33.424 33.7555 33.7888 34.1029C34.1537 34.4504 34.9354 33.6165 34.5532 33.2691Z" fill="#FFFACC"/>
</g>
<g style="mix-blend-mode:soft-light">
<path d="M27.344 36.8477C26.8054 36.3439 25.7284 37.5426 26.2669 38.029C26.8054 38.5154 27.8825 37.3341 27.344 36.8477Z" fill="#FFFACC"/>
</g>
<g style="mix-blend-mode:soft-light">
<path d="M28.6467 32.9564C28.2645 32.6089 27.5175 33.4428 27.8823 33.7902C28.2472 34.1377 29.0115 33.3038 28.6467 32.9564Z" fill="#FFFACC"/>
</g>
<g style="mix-blend-mode:soft-light">
<path d="M30.9397 31.3234C30.627 31.0281 29.9843 31.7229 30.297 32.0183C30.6097 32.3136 31.1829 31.6187 30.9397 31.3234Z" fill="#FFFACC"/>
</g>
<g style="mix-blend-mode:soft-light">
<path d="M32.2776 32.0356C32.0343 31.8098 31.5479 32.3483 31.7911 32.5742C32.0343 32.8 32.5208 32.2615 32.2776 32.0356Z" fill="#FFFACC"/>
</g>
<g style="mix-blend-mode:soft-light">
<path d="M41.0678 23.8013C40.8246 23.5754 40.3382 24.114 40.5814 24.3398C40.8246 24.5657 41.3632 24.0445 41.0678 23.8013Z" fill="#FFFACC"/>
</g>
<g style="mix-blend-mode:soft-light">
<path d="M40.1471 22.3073C39.9386 22.1162 39.5217 22.5679 39.7302 22.7589C39.9386 22.95 40.3382 22.4984 40.1471 22.3073Z" fill="#FFFACC"/>
</g>
<g style="mix-blend-mode:soft-light">
<path d="M36.4468 32.939C36.221 32.7305 35.7693 33.2343 35.9951 33.4254C36.221 33.6165 36.6553 33.1475 36.4468 32.939Z" fill="#FFFACC"/>
</g>
<g style="mix-blend-mode:soft-light">
<path d="M36.0299 23.8881C35.8388 23.697 35.4566 24.1313 35.6477 24.3051C35.8388 24.4788 36.1515 24.0445 36.0299 23.8881Z" fill="#FFFACC"/>
</g>
<g style="mix-blend-mode:soft-light">
<path d="M31.0788 29.4993C30.714 29.1693 29.9496 29.9857 30.3318 30.3332C30.714 30.6806 31.461 29.8468 31.0788 29.4993Z" fill="#FFFACC"/>
</g>
<g style="mix-blend-mode:soft-light">
<path d="M32.6769 27.3104C32.4858 27.1367 32.0863 27.5536 32.2947 27.7274C32.5032 27.9011 32.7812 27.5189 32.6769 27.3104Z" fill="#FFFACC"/>
</g>
</g>
<path d="M56.6853 37.7162C56.6853 37.7162 58.9089 53.3511 49.3369 60.4911C43.4667 64.8176 37.3214 68.7579 30.9398 72.2867C30.9398 72.2867 32.1732 63.1316 41.5889 49.1297C46.6789 41.5207 56.6853 37.7162 56.6853 37.7162Z" fill="#FADDB5"/>
<path d="M56.6853 37.7162C56.6853 37.7162 46.0188 48.7302 42.7876 52.2567C37.6132 58.1284 33.5936 64.9241 30.9398 72.2867C30.9398 72.2867 32.1732 63.1316 41.5889 49.1297C46.6789 41.5207 56.6853 37.7162 56.6853 37.7162Z" fill="#F5BB8E"/>
<g style="mix-blend-mode:soft-light">
<g style="mix-blend-mode:soft-light">
<path d="M49.5624 52.8474C49.3018 52.5868 48.7459 53.1948 49.0239 53.4554C49.3018 53.716 49.8404 53.1079 49.5624 52.8474Z" fill="#FFFACC"/>
</g>
<g style="mix-blend-mode:soft-light">
<path d="M48.6417 54.8973C48.4506 54.2371 47.6341 54.046 46.9045 54.793C46.1749 55.54 46.4876 56.3391 47.1477 56.5302C47.9121 56.5476 48.8154 55.54 48.6417 54.8973Z" fill="#FFFACC"/>
</g>
<g style="mix-blend-mode:soft-light">
<path d="M50.049 56.5302C49.719 56.2349 49.0936 56.9298 49.4063 57.2251C49.719 57.5204 50.327 56.8256 50.049 56.5302Z" fill="#FFFACC"/>
</g>
<g style="mix-blend-mode:soft-light">
<path d="M52.2378 54.0634C51.9251 53.7681 51.2997 54.463 51.6124 54.7583C51.9251 55.0536 52.5505 54.3587 52.2378 54.0634Z" fill="#FFFACC"/>
</g>
<g style="mix-blend-mode:soft-light">
<path d="M51.0219 44.9778C50.7092 44.6825 50.0838 45.3774 50.3965 45.6727C50.7092 45.968 51.3346 45.2731 51.0219 44.9778Z" fill="#FFFACC"/>
</g>
<g style="mix-blend-mode:soft-light">
<path d="M53.5233 50.5542C52.9153 49.981 51.6819 51.336 52.3073 51.9093C52.9327 52.4825 54.2008 51.1275 53.5233 50.5542Z" fill="#FFFACC"/>
</g>
<g style="mix-blend-mode:soft-light">
<path d="M55.2604 41.0343C54.6523 40.461 53.4189 41.8161 54.0443 42.4067C54.6697 42.9974 55.7989 41.625 55.2604 41.0343Z" fill="#FFFACC"/>
</g>
<g style="mix-blend-mode:soft-light">
<path d="M49.9448 49.3382C49.5278 48.9386 48.6766 49.8767 49.1109 50.2763C49.5452 50.6758 50.3791 49.7378 49.9448 49.3382Z" fill="#FFFACC"/>
</g>
<g style="mix-blend-mode:soft-light">
<path d="M44.6636 54.1329C45.1152 52.9516 43.1696 53.3685 43.3607 54.3935C43.5344 54.9841 44.403 54.8104 44.6636 54.1329Z" fill="#FFFACC"/>
</g>
<g style="mix-blend-mode:soft-light">
<path d="M47.2693 49.8594C47.721 48.6781 45.7753 49.095 45.9664 50.1199C46.1401 50.728 47.0087 50.5369 47.2693 49.8594Z" fill="#FFFACC"/>
</g>
<g style="mix-blend-mode:soft-light">
<path d="M41.8145 60.6822C41.1717 60.0742 39.8862 61.4987 40.5289 62.0893C41.1717 62.68 42.4572 61.2728 41.8145 60.6822Z" fill="#FFFACC"/>
</g>
<g style="mix-blend-mode:soft-light">
<path d="M38.9655 65.0599C38.7223 64.8167 38.2359 65.3726 38.4791 65.5985C38.7223 65.8243 39.2088 65.2858 38.9655 65.0599Z" fill="#FFFACC"/>
</g>
<g style="mix-blend-mode:soft-light">
<path d="M34.4141 68.9687C34.7442 68.4649 34.2404 68.0132 33.7887 68.378C33.007 69.0208 33.7887 69.8199 34.4315 68.9687H34.4141Z" fill="#FFFACC"/>
</g>
<g style="mix-blend-mode:soft-light">
<path d="M43.1 64.2087C43.1423 64.1067 43.1499 63.9937 43.1216 63.887C43.0934 63.7803 43.0308 63.6858 42.9437 63.6181C42.6484 63.2532 42.1793 63.4965 41.8666 63.896C41.5539 64.2956 41.3107 64.7473 41.6929 65.0078C41.7637 65.0914 41.8615 65.1476 41.9694 65.1667C42.0773 65.1857 42.1884 65.1664 42.2835 65.1121C42.4917 65.0552 42.6793 64.94 42.824 64.7799C42.9687 64.6198 43.0645 64.4216 43.1 64.2087Z" fill="#FFFACC"/>
</g>
<g style="mix-blend-mode:soft-light">
<path d="M45.7059 59.4488C45.2021 58.9797 44.1945 60.0915 44.6983 60.5606C45.2021 61.0296 46.2097 59.9178 45.7059 59.4488Z" fill="#FFFACC"/>
</g>
<g style="mix-blend-mode:soft-light">
<path d="M36.1512 64.2435C35.4216 63.5659 33.9797 65.1815 34.7093 65.8591C35.4389 66.5366 36.8113 64.9383 36.1512 64.2435Z" fill="#FFFACC"/>
</g>
<g style="mix-blend-mode:soft-light">
<path d="M37.7841 58.9623C37.263 58.4933 36.2554 59.6051 36.7765 60.0915C37.2977 60.5779 38.2879 59.4487 37.7841 58.9623Z" fill="#FFFACC"/>
</g>
<g style="mix-blend-mode:soft-light">
<path d="M40.7375 56.7561C40.3206 56.3565 39.4693 57.2946 39.9036 57.6942C40.3379 58.0937 41.1718 57.1556 40.7375 56.7561Z" fill="#FFFACC"/>
</g>
<g style="mix-blend-mode:soft-light">
<path d="M42.6484 57.7463C42.3183 57.4336 41.6582 58.1632 41.9883 58.4585C42.3183 58.7539 42.9785 58.0416 42.6484 57.7463Z" fill="#FFFACC"/>
</g>
<g style="mix-blend-mode:soft-light">
<path d="M54.3745 46.6281C54.0444 46.3154 53.3843 47.0451 53.7143 47.3578C54.0444 47.6705 54.7046 46.9061 54.3745 46.6281Z" fill="#FFFACC"/>
</g>
<g style="mix-blend-mode:soft-light">
<path d="M53.089 44.5435C52.8284 44.3003 52.2725 44.8909 52.5505 45.1515C52.8284 45.4121 53.367 44.8909 53.089 44.5435Z" fill="#FFFACC"/>
</g>
<g style="mix-blend-mode:soft-light">
<path d="M48.3118 59.0145C47.9991 58.7365 47.4085 59.3966 47.7038 59.6746C47.9991 59.9525 48.5376 59.2924 48.3118 59.0145Z" fill="#FFFACC"/>
</g>
<g style="mix-blend-mode:soft-light">
<path d="M47.5995 46.6281C47.3389 46.3849 46.8178 46.9582 47.0783 47.2014C47.3389 47.4446 47.8601 46.9061 47.5995 46.6281Z" fill="#FFFACC"/>
</g>
<g style="mix-blend-mode:soft-light">
<path d="M41.0155 54.2892C40.5117 53.8028 39.5041 54.932 40.0079 55.4011C40.5117 55.8701 41.5367 54.7583 41.0155 54.2892Z" fill="#FFFACC"/>
</g>
<g style="mix-blend-mode:soft-light">
<path d="M43.1002 51.3012C42.8397 51.058 42.3185 51.6313 42.5791 51.8745C42.8397 52.1177 43.274 51.5445 43.1002 51.3012Z" fill="#FFFACC"/>
</g>
</g>
<path d="M67.5602 61.0992C67.5602 61.0992 69.7838 76.7341 60.2118 83.8741C54.33 88.2064 48.1731 92.1524 41.78 95.6871C41.78 95.6871 42.9961 86.5146 52.4291 72.5301C57.5365 64.9211 67.5602 61.0992 67.5602 61.0992Z" fill="#FADDB5"/>
<path d="M67.5602 61.0992C67.5602 61.0992 56.8938 72.1131 53.6626 75.657C48.49 81.527 44.4758 88.3234 41.8322 95.6871C41.8322 95.6871 43.0482 86.5146 52.4813 72.5301C57.5365 64.9211 67.5602 61.0992 67.5602 61.0992Z" fill="#F5BB8E"/>
<g style="mix-blend-mode:soft-light">
<g style="mix-blend-mode:soft-light">
<path d="M60.4722 76.2474C60.1943 75.9868 59.6557 76.5948 59.9163 76.838C60.1769 77.0812 60.6981 76.4906 60.4722 76.2474Z" fill="#FFFACC"/>
</g>
<g style="mix-blend-mode:soft-light">
<path d="M59.5166 78.2973C59.3255 77.6198 58.5264 77.4287 57.7794 78.1757C57.0324 78.9227 57.3624 79.7218 58.04 79.9129C58.7348 79.9476 59.6903 78.9227 59.5166 78.2973Z" fill="#FFFACC"/>
</g>
<g style="mix-blend-mode:soft-light">
<path d="M60.8718 79.9303C60.5591 79.6349 59.9337 80.3298 60.2464 80.6252C60.5591 80.9205 61.1845 80.2256 60.8718 79.9303Z" fill="#FFFACC"/>
</g>
<g style="mix-blend-mode:soft-light">
<path d="M63.0954 77.4634C62.7827 77.1681 62.1573 77.863 62.47 78.1583C62.7827 78.4536 63.4081 77.7588 63.0954 77.4634Z" fill="#FFFACC"/>
</g>
<g style="mix-blend-mode:soft-light">
<path d="M61.8794 68.3605C61.5667 68.0651 60.9413 68.76 61.254 69.0553C61.5667 69.3507 62.2095 68.6558 61.8794 68.3605Z" fill="#FFFACC"/>
</g>
<g style="mix-blend-mode:soft-light">
<path d="M64.4504 73.9543C63.825 73.381 62.609 74.736 63.217 75.3093C63.825 75.8826 65.0584 74.5276 64.4504 73.9543Z" fill="#FFFACC"/>
</g>
<g style="mix-blend-mode:soft-light">
<path d="M66.0485 64.4344C65.4231 63.8611 64.2071 65.2161 64.8151 65.7894C65.4232 66.3627 66.6566 65.0076 66.0485 64.4344Z" fill="#FFFACC"/>
</g>
<g style="mix-blend-mode:soft-light">
<path d="M60.8023 72.6861C60.3854 72.3039 59.5341 73.2246 59.9684 73.6242C60.4027 74.0238 61.2366 73.1204 60.8023 72.6861Z" fill="#FFFACC"/>
</g>
<g style="mix-blend-mode:soft-light">
<path d="M55.5212 77.5155C55.5212 77.5155 55.5212 77.5156 55.5212 77.4287C55.9729 76.2648 54.0272 76.6817 54.2357 77.7066C54.392 78.3842 55.2606 78.2104 55.5212 77.5155Z" fill="#FFFACC"/>
</g>
<g style="mix-blend-mode:soft-light">
<path d="M58.127 73.242C58.5787 72.0781 56.633 72.495 56.8415 73.52C56.9978 74.1106 57.8665 73.9369 58.127 73.242Z" fill="#FFFACC"/>
</g>
<g style="mix-blend-mode:soft-light">
<path d="M52.6721 84.0822C52.0294 83.4742 50.7438 84.8813 51.3866 85.4893C52.0294 86.0974 53.3149 84.6729 52.6721 84.0822Z" fill="#FFFACC"/>
</g>
<g style="mix-blend-mode:soft-light">
<path d="M49.8232 88.4426C49.58 88.2168 49.0936 88.7553 49.3368 88.9985C49.58 89.2417 50.049 88.6858 49.8232 88.4426Z" fill="#FFFACC"/>
</g>
<g style="mix-blend-mode:soft-light">
<path d="M45.2716 92.3513C45.6017 91.8649 45.1153 91.3959 44.6462 91.778C43.8645 92.4208 44.6462 93.2199 45.289 92.3687L45.2716 92.3513Z" fill="#FFFACC"/>
</g>
<g style="mix-blend-mode:soft-light">
<path d="M53.9402 87.6087C53.989 87.5078 54.0001 87.3928 53.9714 87.2845C53.9427 87.1761 53.8762 87.0816 53.7839 87.0181C53.5059 86.6533 53.0195 86.8965 52.7068 87.2787C52.3941 87.6609 52.1509 88.1473 52.5331 88.4079C52.6039 88.4915 52.7017 88.5477 52.8096 88.5667C52.9175 88.5858 53.0286 88.5664 53.1237 88.5121C53.3309 88.4534 53.5174 88.3375 53.6618 88.1778C53.8062 88.018 53.9027 87.8208 53.9402 87.6087Z" fill="#FFFACC"/>
</g>
<g style="mix-blend-mode:soft-light">
<path d="M56.5635 82.8488C56.0597 82.3624 55.0521 83.4916 55.5559 83.9606C56.0597 84.4296 57.0846 83.3178 56.5635 82.8488Z" fill="#FFFACC"/>
</g>
<g style="mix-blend-mode:soft-light">
<path d="M46.9392 87.6435C46.2095 86.966 44.7677 88.5642 45.4973 89.2417C46.2269 89.9192 47.6688 88.321 46.9392 87.6435Z" fill="#FFFACC"/>
</g>
<g style="mix-blend-mode:soft-light">
<path d="M48.6418 82.3624C48.138 81.8933 47.1305 83.0051 47.6343 83.4742C48.138 83.9432 49.1456 82.8314 48.6418 82.3624Z" fill="#FFFACC"/>
</g>
<g style="mix-blend-mode:soft-light">
<path d="M51.6125 80.1561C51.1782 79.7566 50.327 80.6946 50.7613 81.0942C51.1956 81.4938 52.0294 80.5557 51.6125 80.1561Z" fill="#FFFACC"/>
</g>
<g style="mix-blend-mode:soft-light">
<path d="M53.5235 81.1289C53.1934 80.8336 52.5506 81.5632 52.8807 81.8586C53.2108 82.1539 53.8362 81.3722 53.5235 81.1289Z" fill="#FFFACC"/>
</g>
<g style="mix-blend-mode:soft-light">
<path d="M65.232 69.9934C64.902 69.6807 64.2418 70.4104 64.5719 70.7231C64.902 71.0358 65.5621 70.3061 65.232 69.9934Z" fill="#FFFACC"/>
</g>
<g style="mix-blend-mode:soft-light">
<path d="M63.9466 67.9435C63.6686 67.6829 63.1301 68.291 63.3907 68.5515C63.6513 68.8121 64.2419 68.2041 63.9466 67.9435Z" fill="#FFFACC"/>
</g>
<g style="mix-blend-mode:soft-light">
<path d="M59.0998 82.4145C58.7871 82.1365 58.1964 82.7967 58.4917 83.0746C58.7871 83.3526 59.3951 82.6924 59.0998 82.4145Z" fill="#FFFACC"/>
</g>
<g style="mix-blend-mode:soft-light">
<path d="M58.457 70.0455C58.1964 69.8023 57.6926 70.3756 57.9532 70.6188C58.2138 70.862 58.735 70.2888 58.457 70.0455Z" fill="#FFFACC"/>
</g>
<g style="mix-blend-mode:soft-light">
<path d="M51.8904 77.6719C51.3866 77.2028 50.3617 78.332 50.8829 78.8011C51.404 79.2701 52.3942 78.1583 51.8904 77.6719Z" fill="#FFFACC"/>
</g>
<g style="mix-blend-mode:soft-light">
<path d="M53.871 74.7013C53.6104 74.4581 53.0892 75.0313 53.3672 75.2746C53.6452 75.5178 54.1316 74.9445 53.871 74.7013Z" fill="#FFFACC"/>
</g>
</g>
<path d="M76.2463 84.6211C76.2463 84.6211 78.4699 100.256 68.8979 107.396C63.016 111.728 56.8592 115.674 50.4661 119.209C50.4661 119.209 51.6821 110.036 61.1152 96.052C66.2226 88.443 76.2463 84.6211 76.2463 84.6211Z" fill="#FADDB5"/>
<path d="M76.2463 84.6211C76.2463 84.6211 65.5798 95.635 62.3486 99.1789C57.176 105.049 53.1618 111.845 50.5182 119.209C50.5182 119.209 51.7342 110.036 61.1673 96.052C66.2226 88.443 76.2463 84.6211 76.2463 84.6211Z" fill="#F5BB8E"/>
<g style="mix-blend-mode:soft-light">
<g style="mix-blend-mode:soft-light">
<path d="M69.1582 99.7693C68.8802 99.5087 68.3417 100.117 68.6022 100.36C68.8628 100.603 69.384 100.012 69.1582 99.7693Z" fill="#FFFACC"/>
</g>
<g style="mix-blend-mode:soft-light">
<path d="M68.2027 101.819C68.0117 101.142 67.2125 100.951 66.4655 101.698C65.7185 102.445 66.0486 103.244 66.7261 103.435C67.421 103.47 68.3765 102.445 68.2027 101.819Z" fill="#FFFACC"/>
</g>
<g style="mix-blend-mode:soft-light">
<path d="M69.5577 103.452C69.245 103.157 68.6196 103.852 68.9323 104.147C69.245 104.442 69.8704 103.747 69.5577 103.452Z" fill="#FFFACC"/>
</g>
<g style="mix-blend-mode:soft-light">
<path d="M71.7814 100.985C71.4687 100.69 70.8433 101.385 71.156 101.68C71.4687 101.976 72.0941 101.281 71.7814 100.985Z" fill="#FFFACC"/>
</g>
<g style="mix-blend-mode:soft-light">
<path d="M70.5655 91.8824C70.2528 91.587 69.6274 92.2819 69.9401 92.5772C70.2528 92.8726 70.8955 92.1777 70.5655 91.8824Z" fill="#FFFACC"/>
</g>
<g style="mix-blend-mode:soft-light">
<path d="M73.1366 97.4762C72.5112 96.9029 71.2951 98.2579 71.9031 98.8312C72.5112 99.4045 73.7446 98.0494 73.1366 97.4762Z" fill="#FFFACC"/>
</g>
<g style="mix-blend-mode:soft-light">
<path d="M74.7347 87.9563C74.1093 87.383 72.8933 88.738 73.5013 89.3113C74.1093 89.8846 75.3427 88.5295 74.7347 87.9563Z" fill="#FFFACC"/>
</g>
<g style="mix-blend-mode:soft-light">
<path d="M69.4883 96.2427C69.0714 95.8606 68.2202 96.7813 68.6545 97.1808C69.0888 97.5804 69.9226 96.6423 69.4883 96.2427Z" fill="#FFFACC"/>
</g>
<g style="mix-blend-mode:soft-light">
<path d="M64.2072 101.037C64.6589 99.8735 62.7132 100.29 62.9217 101.315C63.078 101.906 63.9467 101.732 64.2072 101.037Z" fill="#FFFACC"/>
</g>
<g style="mix-blend-mode:soft-light">
<path d="M66.8131 96.7639C67.2647 95.6 65.3364 96.0169 65.5275 97.0419C65.6839 97.6325 66.5525 97.4588 66.8131 96.7639Z" fill="#FFFACC"/>
</g>
<g style="mix-blend-mode:soft-light">
<path d="M61.3581 107.587C60.7153 106.996 59.4298 108.403 60.0899 109.011C60.7501 109.619 62.0008 108.195 61.3581 107.587Z" fill="#FFFACC"/>
</g>
<g style="mix-blend-mode:soft-light">
<path d="M58.5092 111.964C58.266 111.739 57.7796 112.277 58.0228 112.52C58.266 112.764 58.7351 112.208 58.5092 111.964Z" fill="#FFFACC"/>
</g>
<g style="mix-blend-mode:soft-light">
<path d="M53.9576 115.873C54.2876 115.387 53.8012 114.918 53.3322 115.3C52.5504 115.943 53.3322 116.742 53.9749 115.891L53.9576 115.873Z" fill="#FFFACC"/>
</g>
<g style="mix-blend-mode:soft-light">
<path d="M62.6435 111.113C62.6827 111.012 62.6869 110.901 62.6554 110.797C62.6239 110.693 62.5586 110.602 62.4698 110.54C62.1918 110.175 61.7054 110.418 61.3927 110.801C61.08 111.183 60.8368 111.669 61.219 111.93C61.2898 112.013 61.3876 112.07 61.4955 112.089C61.6034 112.108 61.7145 112.088 61.8097 112.034C62.0195 111.971 62.2082 111.852 62.3552 111.69C62.5022 111.528 62.6019 111.328 62.6435 111.113Z" fill="#FFFACC"/>
</g>
<g style="mix-blend-mode:soft-light">
<path d="M65.2495 106.371C64.7458 105.884 63.7382 107.013 64.2593 107.482C64.7805 107.952 65.7707 106.84 65.2495 106.371Z" fill="#FFFACC"/>
</g>
<g style="mix-blend-mode:soft-light">
<path d="M55.6253 111.165C54.8957 110.488 53.4538 112.086 54.1834 112.764C54.9131 113.441 56.3549 111.843 55.6253 111.165Z" fill="#FFFACC"/>
</g>
<g style="mix-blend-mode:soft-light">
<path d="M57.328 105.884C56.8242 105.415 55.8166 106.527 56.3204 106.996C56.8242 107.465 57.8318 106.353 57.328 105.884Z" fill="#FFFACC"/>
</g>
<g style="mix-blend-mode:soft-light">
<path d="M60.2984 103.678C59.8641 103.278 59.0302 104.217 59.4471 104.616C59.8641 105.016 60.7153 104.078 60.2984 103.678Z" fill="#FFFACC"/>
</g>
<g style="mix-blend-mode:soft-light">
<path d="M62.2093 104.651C61.8793 104.356 61.2365 105.068 61.5492 105.38C61.8619 105.693 62.522 104.964 62.2093 104.651Z" fill="#FFFACC"/>
</g>
<g style="mix-blend-mode:soft-light">
<path d="M73.9182 93.5327C73.5881 93.22 72.928 93.9496 73.258 94.2623C73.5881 94.575 74.2483 93.828 73.9182 93.5327Z" fill="#FFFACC"/>
</g>
<g style="mix-blend-mode:soft-light">
<path d="M72.6326 91.4654C72.3547 91.2048 71.8161 91.8129 72.0767 92.0734C72.3373 92.334 72.928 91.7955 72.6326 91.4654Z" fill="#FFFACC"/>
</g>
<g style="mix-blend-mode:soft-light">
<path d="M67.7858 105.936C67.4905 105.658 66.8825 106.319 67.1952 106.597C67.5079 106.874 68.0812 106.214 67.7858 105.936Z" fill="#FFFACC"/>
</g>
<g style="mix-blend-mode:soft-light">
<path d="M67.1431 93.5327C66.8826 93.2895 66.3788 93.8628 66.6394 94.106C66.8999 94.3492 67.4211 93.8106 67.1431 93.5327Z" fill="#FFFACC"/>
</g>
<g style="mix-blend-mode:soft-light">
<path d="M60.5765 101.194C60.0727 100.725 59.0652 101.837 59.5689 102.323C60.0727 102.809 61.0803 101.68 60.5765 101.194Z" fill="#FFFACC"/>
</g>
<g style="mix-blend-mode:soft-light">
<path d="M62.5569 98.2232C62.2963 97.9799 61.7925 98.5532 62.0531 98.7964C62.3136 99.0396 62.8174 98.4664 62.5569 98.2232Z" fill="#FFFACC"/>
</g>
</g>
<path d="M87.1211 110.644C87.1211 110.644 89.3448 126.279 79.7727 133.419C73.8859 137.744 67.7295 141.69 61.3409 145.232C61.3409 145.232 62.557 136.06 71.99 122.058C77.1148 114.466 87.1211 110.644 87.1211 110.644Z" fill="#FADDB5"/>
<path d="M87.1211 110.644C87.1211 110.644 76.4547 121.658 73.2235 125.185C68.0311 131.056 63.999 137.859 61.3409 145.232C61.3409 145.232 62.557 136.06 71.99 122.058C77.1148 114.466 87.1211 110.644 87.1211 110.644Z" fill="#F5BB8E"/>
<g style="mix-blend-mode:soft-light">
<g style="mix-blend-mode:soft-light">
<path d="M79.9985 125.775C79.7206 125.532 79.1821 126.123 79.46 126.383C79.738 126.644 80.2765 126.036 79.9985 125.775Z" fill="#FFFACC"/>
</g>
<g style="mix-blend-mode:soft-light">
<path d="M79.0777 127.825C78.904 127.148 78.0875 126.957 77.3405 127.704C76.5935 128.451 76.9236 129.25 77.6011 129.441C78.3481 129.476 79.2515 128.468 79.0777 127.825Z" fill="#FFFACC"/>
</g>
<g style="mix-blend-mode:soft-light">
<path d="M80.4328 129.476C80.1201 129.18 79.4947 129.875 79.8074 130.171C80.1201 130.466 80.7455 129.771 80.4328 129.476Z" fill="#FFFACC"/>
</g>
<g style="mix-blend-mode:soft-light">
<path d="M82.6563 126.992C82.3436 126.714 81.7182 127.391 82.0309 127.686C82.3436 127.982 83.0558 127.287 82.6563 126.992Z" fill="#FFFACC"/>
</g>
<g style="mix-blend-mode:soft-light">
<path d="M81.4578 117.854C81.1451 117.558 80.5197 118.253 80.8324 118.549C81.1451 118.844 81.7705 118.201 81.4578 117.854Z" fill="#FFFACC"/>
</g>
<g style="mix-blend-mode:soft-light">
<path d="M84.0115 123.5C83.3861 122.909 82.17 124.281 82.7954 124.855C83.4208 125.428 84.6369 124.073 84.0115 123.5Z" fill="#FFFACC"/>
</g>
<g style="mix-blend-mode:soft-light">
<path d="M85.6098 113.98C84.9844 113.389 83.7684 114.762 84.3764 115.335C84.9844 115.908 86.2352 114.553 85.6098 113.98Z" fill="#FFFACC"/>
</g>
<g style="mix-blend-mode:soft-light">
<path d="M80.3806 122.266C79.9463 121.867 79.1125 122.805 79.5294 123.204C79.9463 123.604 80.7976 122.666 80.3806 122.266Z" fill="#FFFACC"/>
</g>
<g style="mix-blend-mode:soft-light">
<path d="M75.0822 127.061C75.5339 125.88 73.6056 126.314 73.7967 127.339C73.953 127.93 74.8217 127.756 75.0822 127.061Z" fill="#FFFACC"/>
</g>
<g style="mix-blend-mode:soft-light">
<path d="M77.7054 122.787C78.1571 121.624 76.2288 122.04 76.4199 123.065C76.5588 123.656 77.4274 123.482 77.7054 122.787Z" fill="#FFFACC"/>
</g>
<g style="mix-blend-mode:soft-light">
<path d="M72.2331 133.61C71.5903 133.02 70.3222 134.427 70.9649 135.035C71.6077 135.643 72.8932 134.218 72.2331 133.61Z" fill="#FFFACC"/>
</g>
<g style="mix-blend-mode:soft-light">
<path d="M69.4016 137.988C69.141 137.762 68.6546 138.301 68.8978 138.527C69.141 138.752 69.6448 138.214 69.4016 137.988Z" fill="#FFFACC"/>
</g>
<g style="mix-blend-mode:soft-light">
<path d="M64.8501 141.897C65.1628 141.41 64.6764 140.941 64.2247 141.323C63.4256 141.984 64.2247 142.783 64.8501 141.914V141.897Z" fill="#FFFACC"/>
</g>
<g style="mix-blend-mode:soft-light">
<path d="M73.5186 137.137C73.5554 137.034 73.5602 136.923 73.5323 136.817C73.5044 136.712 73.4451 136.617 73.3622 136.546C73.0669 136.181 72.5805 136.407 72.2678 136.807C71.9551 137.206 71.7293 137.675 72.1115 137.936C72.1776 138.025 72.2745 138.087 72.3835 138.11C72.4925 138.132 72.606 138.114 72.7021 138.058C72.9078 137.991 73.0919 137.87 73.2354 137.708C73.3789 137.546 73.4767 137.349 73.5186 137.137Z" fill="#FFFACC"/>
</g>
<g style="mix-blend-mode:soft-light">
<path d="M76.107 132.377C75.5858 131.908 74.5782 133.02 75.0994 133.506C75.6206 133.992 76.6455 132.863 76.107 132.377Z" fill="#FFFACC"/>
</g>
<g style="mix-blend-mode:soft-light">
<path d="M66.5004 137.189C65.7881 136.511 64.3288 138.11 65.0585 138.787C65.7881 139.465 67.23 137.866 66.5004 137.189Z" fill="#FFFACC"/>
</g>
<g style="mix-blend-mode:soft-light">
<path d="M68.2027 131.908C67.6989 131.421 66.6914 132.551 67.1952 133.02C67.699 133.489 68.7065 132.377 68.2027 131.908Z" fill="#FFFACC"/>
</g>
<g style="mix-blend-mode:soft-light">
<path d="M71.1735 129.702C70.7392 129.302 69.9053 130.24 70.3222 130.622C70.7392 131.004 71.5904 130.101 71.1735 129.702Z" fill="#FFFACC"/>
</g>
<g style="mix-blend-mode:soft-light">
<path d="M73.0669 130.674C72.7369 130.362 72.0941 131.091 72.4242 131.404C72.7542 131.717 73.397 130.987 73.0669 130.674Z" fill="#FFFACC"/>
</g>
<g style="mix-blend-mode:soft-light">
<path d="M84.7931 119.591C84.4631 119.278 83.8203 120.008 84.1504 120.303C84.4804 120.599 85.1232 119.834 84.7931 119.591Z" fill="#FFFACC"/>
</g>
<g style="mix-blend-mode:soft-light">
<path d="M83.5252 117.489C83.2472 117.228 82.7087 117.836 82.9866 118.097C83.2646 118.358 83.8031 117.75 83.5252 117.489Z" fill="#FFFACC"/>
</g>
<g style="mix-blend-mode:soft-light">
<path d="M78.6609 131.96C78.3655 131.665 77.7575 132.342 78.0702 132.62C78.3829 132.898 78.9736 132.238 78.6609 131.96Z" fill="#FFFACC"/>
</g>
<g style="mix-blend-mode:soft-light">
<path d="M78.0354 119.591C77.7748 119.348 77.2537 119.921 77.5143 120.164C77.7748 120.407 78.296 119.834 78.0354 119.591Z" fill="#FFFACC"/>
</g>
<g style="mix-blend-mode:soft-light">
<path d="M71.4514 127.217C70.9476 126.748 69.94 127.86 70.4438 128.329C70.9476 128.798 71.9552 127.686 71.4514 127.217Z" fill="#FFFACC"/>
</g>
<g style="mix-blend-mode:soft-light">
<path d="M73.4491 124.247C73.1885 124.003 72.6674 124.577 72.928 124.82C73.1885 125.063 73.7097 124.49 73.4491 124.247Z" fill="#FFFACC"/>
</g>
</g>
<path d="M91.5683 137.484C91.5683 137.484 93.3055 149.645 86.0787 155.065C81.6128 158.382 76.9356 161.406 72.0768 164.116C72.0768 164.116 72.9628 157.028 80.0853 146.257C83.9419 140.438 91.5683 137.484 91.5683 137.484Z" fill="#FADDB5"/>
<path d="M91.5683 137.484C91.5683 137.484 83.4903 145.962 81.006 148.672C77.0836 153.212 74.0541 158.451 72.0768 164.116C72.0768 164.116 72.9628 157.028 80.0853 146.257C83.9419 140.438 91.5683 137.484 91.5683 137.484Z" fill="#F5BB8E"/>
<g style="mix-blend-mode:soft-light">
<g style="mix-blend-mode:soft-light">
<path d="M86.2179 149.124C85.992 148.932 85.5925 149.401 85.8009 149.593C86.0094 149.784 86.4263 149.367 86.2179 149.124Z" fill="#FFFACC"/>
</g>
<g style="mix-blend-mode:soft-light">
<path d="M85.5229 150.739C85.3839 150.235 84.7585 150.079 84.2547 150.739C83.7509 151.399 83.942 151.938 84.4632 152.042C84.967 152.025 85.6619 151.243 85.5229 150.739Z" fill="#FFFACC"/>
</g>
<g style="mix-blend-mode:soft-light">
<path d="M86.5307 152.025C86.2875 151.799 85.8184 152.32 86.0616 152.563C86.3048 152.806 86.8086 152.251 86.5307 152.025Z" fill="#FFFACC"/>
</g>
<g style="mix-blend-mode:soft-light">
<path d="M88.2679 150.131C88.0247 149.888 87.5556 150.426 87.7988 150.652C88.042 150.878 88.4937 150.357 88.2679 150.131Z" fill="#FFFACC"/>
</g>
<g style="mix-blend-mode:soft-light">
<path d="M87.2775 143.078C87.0343 142.852 86.5653 143.391 86.8085 143.617C87.0517 143.842 87.5207 143.304 87.2775 143.078Z" fill="#FFFACC"/>
</g>
<g style="mix-blend-mode:soft-light">
<path d="M89.258 147.386C88.7889 146.935 87.8509 147.977 88.3373 148.429C88.8237 148.88 89.727 147.855 89.258 147.386Z" fill="#FFFACC"/>
</g>
<g style="mix-blend-mode:soft-light">
<path d="M90.4392 140.055C89.9528 139.604 89.032 140.663 89.5011 141.098C89.9701 141.532 90.9082 140.437 90.4392 140.055Z" fill="#FFFACC"/>
</g>
<g style="mix-blend-mode:soft-light">
<path d="M86.5306 146.448C86.2005 146.136 85.5751 146.865 85.8878 147.178C86.2005 147.491 86.8086 146.761 86.5306 146.448Z" fill="#FFFACC"/>
</g>
<g style="mix-blend-mode:soft-light">
<path d="M82.4654 150.131C82.7954 149.228 81.3188 149.54 81.4751 150.34C81.6141 150.861 82.2743 150.67 82.4654 150.131Z" fill="#FFFACC"/>
</g>
<g style="mix-blend-mode:soft-light">
<path d="M84.4458 146.848C84.7932 145.944 83.3166 146.257 83.4555 147.056C83.5772 147.508 84.2373 147.386 84.4458 146.848Z" fill="#FFFACC"/>
</g>
<g style="mix-blend-mode:soft-light">
<path d="M80.3287 155.186C79.8423 154.717 78.8695 155.812 79.3733 156.281C79.877 156.75 80.8325 155.655 80.3287 155.186Z" fill="#FFFACC"/>
</g>
<g style="mix-blend-mode:soft-light">
<path d="M78.1918 158.557C78.0007 158.383 77.6186 158.8 77.8097 158.974C78.0007 159.147 78.3655 158.73 78.1918 158.557Z" fill="#FFFACC"/>
</g>
<g style="mix-blend-mode:soft-light">
<path d="M74.735 161.562C74.9782 161.18 74.596 160.815 74.2485 161.11C73.6405 161.614 74.2485 162.239 74.735 161.562Z" fill="#FFFACC"/>
</g>
<g style="mix-blend-mode:soft-light">
<path d="M81.3188 157.914C81.3547 157.836 81.3621 157.748 81.3399 157.666C81.3177 157.583 81.2672 157.511 81.1972 157.462C80.9713 157.167 80.6065 157.358 80.3807 157.653C80.1549 157.949 79.9638 158.331 80.2591 158.522C80.3234 158.573 80.403 158.6 80.4849 158.6C80.5669 158.6 80.6464 158.573 80.7108 158.522C80.857 158.484 80.9903 158.407 81.0972 158.3C81.2041 158.193 81.2805 158.06 81.3188 157.914Z" fill="#FFFACC"/>
</g>
<g style="mix-blend-mode:soft-light">
<path d="M83.2993 154.335C82.8997 153.97 82.1527 154.839 82.5349 155.204C82.9171 155.569 83.6815 154.63 83.2993 154.335Z" fill="#FFFACC"/>
</g>
<g style="mix-blend-mode:soft-light">
<path d="M75.9856 157.931C75.4297 157.393 74.2484 158.626 74.8911 159.147C75.5339 159.668 76.5415 158.452 75.9856 157.931Z" fill="#FFFACC"/>
</g>
<g style="mix-blend-mode:soft-light">
<path d="M77.2539 153.849C76.8543 153.467 76.09 154.335 76.4895 154.7C76.8891 155.065 77.6361 154.214 77.2539 153.849Z" fill="#FFFACC"/>
</g>
<g style="mix-blend-mode:soft-light">
<path d="M79.5818 152.146C79.2517 151.834 78.6263 152.563 78.939 152.876C79.2517 153.189 79.825 152.459 79.5818 152.146Z" fill="#FFFACC"/>
</g>
<g style="mix-blend-mode:soft-light">
<path d="M80.9541 152.928C80.7109 152.685 80.2071 153.241 80.4503 153.484C80.6935 153.727 81.2147 153.154 80.9541 152.928Z" fill="#FFFACC"/>
</g>
<g style="mix-blend-mode:soft-light">
<path d="M89.8314 144.364C89.5881 144.12 89.0844 144.676 89.3449 144.92C89.6055 145.163 90.0919 144.589 89.8314 144.364Z" fill="#FFFACC"/>
</g>
<g style="mix-blend-mode:soft-light">
<path d="M88.8583 142.765C88.6498 142.574 88.2329 143.026 88.4413 143.234C88.6498 143.443 89.0667 142.974 88.8583 142.765Z" fill="#FFFACC"/>
</g>
<g style="mix-blend-mode:soft-light">
<path d="M85.2276 153.936C84.9844 153.71 84.5327 154.231 84.7759 154.439C85.0192 154.648 85.4535 154.161 85.2276 153.936Z" fill="#FFFACC"/>
</g>
<g style="mix-blend-mode:soft-light">
<path d="M84.6717 144.364C84.4806 144.172 84.081 144.624 84.2895 144.815C84.498 145.006 84.8801 144.555 84.6717 144.364Z" fill="#FFFACC"/>
</g>
<g style="mix-blend-mode:soft-light">
<path d="M79.7031 150.235C79.3035 149.871 78.5392 150.722 78.9387 151.104C79.3383 151.486 80.0853 150.6 79.7031 150.235Z" fill="#FFFACC"/>
</g>
<g style="mix-blend-mode:soft-light">
<path d="M81.1974 147.942C81.0063 147.751 80.6068 148.185 80.8152 148.377C81.0237 148.568 81.4059 148.133 81.1974 147.942Z" fill="#FFFACC"/>
</g>
</g>
<path d="M157.096 196.289L102.339 180.932L105.883 142.435L174.086 161.562L157.096 196.289Z" fill="#F9B233"/>
<path d="M174.086 161.562L105.883 142.453C103.573 141.81 106.839 128.242 109.635 129.024L177.838 148.133C181.295 149.124 177.404 162.483 174.086 161.562Z" fill="#3AAA35"/>
<g style="mix-blend-mode:soft-light" opacity="0.3">
<path d="M174.155 152.91L110.348 135.017C108.193 134.427 108.906 130.049 111.546 130.778L175.337 148.672C175.634 148.731 175.916 148.852 176.165 149.025C176.414 149.199 176.625 149.422 176.784 149.68C176.943 149.939 177.046 150.228 177.089 150.528C177.131 150.829 177.111 151.135 177.029 151.427C176.948 151.72 176.807 151.992 176.615 152.228C176.423 152.463 176.185 152.656 175.916 152.796C175.646 152.935 175.35 153.017 175.047 153.037C174.745 153.056 174.441 153.013 174.155 152.91Z" fill="white"/>
</g>
<g style="mix-blend-mode:multiply">
<path d="M175.128 157.653L106.925 138.544C105.935 138.284 105.97 135.66 106.543 132.794C105.119 136.633 104.389 142.053 105.831 142.453L174.034 161.562C176.031 162.118 178.238 157.48 178.915 153.501C177.96 156.073 176.518 158.036 175.128 157.653Z" fill="#C8D3D9"/>
</g>
<path d="M133.626 134.809L129.474 149.61C128.918 151.556 150.321 157.202 150.825 155.586L154.89 141.098L133.626 134.809Z" fill="#DADADA"/>
<g style="mix-blend-mode:soft-light" opacity="0.5">
<path d="M135.068 135.226L132.48 144.468C132.132 145.684 150.651 150.635 150.929 149.679L153.465 140.629L135.068 135.226Z" fill="white"/>
</g>
<path d="M148.914 152.598C148.864 152.776 148.779 152.942 148.664 153.086C148.55 153.231 148.407 153.351 148.245 153.44C148.084 153.529 147.906 153.585 147.722 153.604C147.539 153.624 147.353 153.607 147.176 153.554L133.574 149.749C133.396 149.699 133.23 149.614 133.086 149.5C132.941 149.385 132.821 149.243 132.732 149.081C132.643 148.919 132.587 148.741 132.568 148.558C132.548 148.374 132.566 148.189 132.619 148.012C132.669 147.834 132.753 147.668 132.868 147.524C132.983 147.379 133.125 147.259 133.287 147.17C133.449 147.081 133.626 147.025 133.81 147.006C133.993 146.986 134.179 147.003 134.356 147.056L147.958 150.878C148.136 150.928 148.302 151.013 148.446 151.128C148.591 151.242 148.711 151.385 148.8 151.547C148.889 151.708 148.945 151.886 148.964 152.07C148.984 152.253 148.967 152.439 148.914 152.615V152.598Z" fill="white"/>
<path d="M118.201 153.675L112.795 172.961L152.271 184.028L157.678 164.741L118.201 153.675Z" fill="#EDEDED"/>
<path d="M103.92 181.375L102.954 184.821L154.14 199.17L155.105 195.724L103.92 181.375Z" fill="#F9B233"/>
<g style="mix-blend-mode:soft-light" opacity="0.3">
<path d="M124.992 169.032C125.253 177.961 134.686 182.548 142.225 184.667C147.693 186.282 153.412 186.871 159.094 186.404L170.733 162.604L138.647 153.675C131.698 156.281 124.749 161.701 124.992 169.032Z" fill="white"/>
</g>
<g style="mix-blend-mode:multiply">
<path d="M133.869 186.334C124.401 182.026 117.001 174.174 120.805 163.334C123.19 157.441 127.804 152.728 133.643 150.218L105.848 142.435L102.374 180.932L157.131 196.289L159.563 191.303C150.723 191.736 141.91 190.032 133.869 186.334Z" fill="#E6DCD9"/>
</g>
<g style="mix-blend-mode:multiply">
<path d="M118.252 145.91L105.883 142.435L102.408 180.932L116.862 184.997C106.196 174.209 107.377 155.603 118.252 145.91Z" fill="#E6DCD9"/>
</g>
<path d="M169.173 98.3435L142.827 186.33L184.631 198.848L210.978 110.862L169.173 98.3435Z" fill="#F6F6F6"/>
<path d="M191.093 174.608C189.981 170.491 188.696 165.14 184.804 162.674C181.33 160.433 177.56 160.658 173.773 159.425C171.506 158.843 169.48 157.561 167.983 155.761C166.486 153.962 165.595 151.737 165.434 149.401C164.896 145.597 166.077 141.584 165.104 137.814C164.724 136.263 164.042 134.802 163.097 133.514C162.153 132.226 160.963 131.137 159.597 130.309L142.833 186.317L184.631 198.842L191.475 176.015C191.336 175.546 191.215 175.077 191.093 174.608Z" fill="#1F95C5"/>
<path d="M185.187 175.685C181.087 169.258 175.389 170.474 169.552 167.277C161.074 162.76 162.603 147.803 155.758 143.356L142.903 186.317L184.7 198.842L188.366 186.682C188.28 182.802 187.184 179.012 185.187 175.685Z" fill="#0084B4"/>
<g style="mix-blend-mode:multiply">
<path d="M163.141 170.526C157.495 159.182 160.883 146.205 164.323 134.739C166.548 127.348 169.589 120.228 173.391 113.511C175.508 109.351 178.108 105.456 181.139 101.906L169.187 98.3275L142.851 186.317L184.648 198.842L189.217 183.607C179.714 186.578 168.353 180.967 163.141 170.526Z" fill="#D9E5EC"/>
</g>
<path d="M210.979 110.868L184.632 198.854L201.474 203.897L227.821 115.911L210.979 110.868Z" fill="#DADADA"/>
<path d="M226.011 92.473L184.196 79.9477L169.17 98.3274L210.984 110.853L226.011 92.473Z" fill="#DADADA"/>
<g style="mix-blend-mode:multiply">
<path d="M188.47 81.2159L184.196 79.9477L169.17 98.3274L210.984 110.905L216.335 104.356C201.673 113.372 180.34 93.7064 188.47 81.2159Z" fill="#D9E5EC"/>
</g>
<path d="M226.011 92.4729L227.835 115.908L210.984 110.853L226.011 92.4729Z" fill="#9D9D9C"/>
<g style="mix-blend-mode:multiply">
<path d="M196.061 192.519L201.482 203.898L184.631 198.842L196.061 192.519Z" fill="#C6C6C6"/>
</g>
<path d="M226.011 92.4559L227.244 88.3214C227.466 87.7769 227.467 87.1673 227.246 86.6223C227.026 86.0773 226.601 85.6399 226.063 85.4029L188.122 74.0415C187.55 73.9429 186.962 74.0684 186.48 74.3919C185.998 74.7154 185.659 75.212 185.534 75.7787L184.318 79.8612L226.011 92.4559Z" fill="#C2C2C2"/>
<path d="M179.054 137.814C178.955 137.784 178.848 137.795 178.757 137.844C178.666 137.893 178.598 137.976 178.568 138.075C178.538 138.174 178.549 138.281 178.597 138.372C178.646 138.463 178.729 138.531 178.828 138.561C178.927 138.591 179.034 138.581 179.126 138.532C179.217 138.483 179.285 138.4 179.315 138.301C179.345 138.202 179.334 138.095 179.285 138.004C179.236 137.912 179.153 137.844 179.054 137.814Z" fill="#1F95C5"/>
<path d="M179.349 140.038C179.208 139.885 179.028 139.772 178.828 139.71C178.629 139.649 178.416 139.642 178.213 139.689C178.01 139.737 177.822 139.838 177.671 139.981C177.519 140.124 177.408 140.305 177.349 140.506C177.29 140.706 177.285 140.919 177.335 141.121C177.384 141.324 177.487 141.51 177.632 141.66C177.777 141.811 177.96 141.92 178.161 141.976C178.362 142.033 178.574 142.036 178.776 141.984C178.977 141.937 179.163 141.838 179.313 141.697C179.463 141.555 179.573 141.376 179.632 141.178C179.69 140.98 179.695 140.77 179.645 140.57C179.595 140.37 179.493 140.186 179.349 140.038Z" fill="#1F95C5"/>
<path d="M182.077 141.115C181.971 141.102 181.864 141.126 181.775 141.184C181.685 141.242 181.619 141.329 181.588 141.431C181.557 141.533 181.563 141.642 181.604 141.74C181.646 141.838 181.721 141.918 181.816 141.966C181.922 141.98 182.029 141.955 182.118 141.898C182.208 141.84 182.274 141.752 182.305 141.65C182.336 141.549 182.33 141.439 182.289 141.341C182.247 141.243 182.172 141.163 182.077 141.115Z" fill="#1F95C5"/>
<path d="M182.911 138.04C182.805 138.027 182.698 138.051 182.609 138.109C182.519 138.167 182.453 138.254 182.422 138.356C182.391 138.458 182.397 138.567 182.439 138.665C182.48 138.763 182.555 138.843 182.65 138.891C182.756 138.905 182.863 138.88 182.952 138.823C183.042 138.765 183.108 138.677 183.139 138.575C183.17 138.474 183.165 138.364 183.123 138.266C183.081 138.168 183.006 138.088 182.911 138.04Z" fill="#1F95C5"/>
<path d="M182.077 134.288C181.847 134.219 181.598 134.244 181.386 134.358C181.175 134.472 181.017 134.665 180.948 134.896C180.879 135.126 180.904 135.375 181.018 135.586C181.132 135.798 181.325 135.956 181.556 136.025C181.786 136.094 182.035 136.069 182.246 135.955C182.458 135.841 182.616 135.647 182.685 135.417C182.754 135.187 182.729 134.938 182.615 134.726C182.501 134.515 182.307 134.357 182.077 134.288Z" fill="#1F95C5"/>
<path d="M177.161 134.409C177.009 134.363 176.844 134.379 176.704 134.454C176.564 134.529 176.46 134.657 176.414 134.809C176.367 134.961 176.384 135.125 176.459 135.265C176.534 135.405 176.661 135.51 176.813 135.556C176.965 135.602 177.129 135.586 177.269 135.511C177.409 135.436 177.514 135.308 177.56 135.156C177.606 135.004 177.59 134.84 177.515 134.7C177.44 134.56 177.313 134.455 177.161 134.409Z" fill="#1F95C5"/>
<path d="M174.26 140.698C174.261 140.669 174.261 140.64 174.26 140.611C173.999 139.36 172.053 140.42 172.957 141.306C173.063 141.429 173.207 141.514 173.366 141.548C173.525 141.583 173.691 141.564 173.838 141.495C173.986 141.426 174.107 141.311 174.183 141.167C174.259 141.023 174.286 140.859 174.26 140.698Z" fill="#1F95C5"/>
<path d="M175.337 147.803C175.12 147.772 174.899 147.819 174.713 147.936C174.528 148.053 174.39 148.233 174.325 148.442C174.261 148.651 174.272 148.877 174.359 149.078C174.446 149.28 174.601 149.444 174.798 149.541C175.015 149.572 175.236 149.525 175.421 149.408C175.607 149.291 175.744 149.111 175.809 148.902C175.874 148.693 175.862 148.467 175.776 148.265C175.689 148.064 175.533 147.9 175.337 147.803Z" fill="#1F95C5"/>
<path d="M181.121 150.861C181.032 150.833 180.935 150.842 180.851 150.886C180.768 150.93 180.706 151.005 180.679 151.095C180.651 151.185 180.66 151.282 180.704 151.365C180.748 151.448 180.823 151.511 180.913 151.538C181.003 151.566 181.1 151.557 181.183 151.513C181.266 151.469 181.328 151.394 181.356 151.304C181.384 151.214 181.374 151.117 181.331 151.034C181.287 150.951 181.211 150.888 181.121 150.861Z" fill="#1F95C5"/>
<path d="M177.63 157.219C177.627 157.09 177.584 156.964 177.506 156.861C177.428 156.758 177.319 156.683 177.195 156.646C177.071 156.61 176.938 156.613 176.817 156.657C176.695 156.7 176.59 156.782 176.518 156.889C176.049 157.775 177.56 158.227 177.647 157.236C177.612 157.254 177.63 157.236 177.63 157.219Z" fill="#1F95C5"/>
<path d="M185.291 146.605C185.252 146.477 185.177 146.363 185.076 146.277C184.974 146.191 184.85 146.136 184.717 146.118C184.607 146.071 184.488 146.051 184.368 146.059C184.249 146.067 184.133 146.102 184.03 146.163C183.927 146.224 183.839 146.308 183.775 146.409C183.71 146.51 183.67 146.624 183.658 146.744C183.601 146.851 183.571 146.97 183.569 147.092C183.568 147.214 183.596 147.334 183.65 147.442C183.704 147.551 183.784 147.645 183.882 147.717C183.98 147.789 184.094 147.836 184.214 147.855C184.334 147.912 184.468 147.934 184.6 147.919C184.732 147.903 184.857 147.851 184.961 147.769C185.156 147.655 185.3 147.471 185.362 147.253C185.423 147.036 185.398 146.803 185.291 146.605Z" fill="#1F95C5"/>
<path d="M178.985 145.302C178.808 145.269 178.625 145.302 178.471 145.396C178.317 145.49 178.204 145.637 178.152 145.809C178.1 145.982 178.114 146.167 178.191 146.33C178.268 146.493 178.402 146.622 178.568 146.692C178.745 146.725 178.928 146.691 179.082 146.597C179.235 146.504 179.349 146.357 179.401 146.184C179.452 146.012 179.439 145.826 179.362 145.663C179.285 145.5 179.151 145.372 178.985 145.302Z" fill="#1F95C5"/>
<path d="M171.115 153.102C170.854 153.035 170.577 153.072 170.342 153.205C170.107 153.338 169.933 153.557 169.857 153.816C169.78 154.075 169.807 154.353 169.932 154.593C170.056 154.832 170.269 155.014 170.525 155.1C170.786 155.167 171.063 155.13 171.298 154.997C171.533 154.863 171.707 154.644 171.783 154.386C171.86 154.127 171.833 153.848 171.708 153.609C171.584 153.369 171.371 153.188 171.115 153.102Z" fill="#1F95C5"/>
<path d="M169.569 147.577C169.383 147.522 169.182 147.543 169.011 147.636C168.84 147.729 168.712 147.886 168.657 148.072C168.602 148.259 168.623 148.46 168.716 148.631C168.809 148.802 168.966 148.929 169.152 148.984C169.339 149.04 169.54 149.019 169.711 148.926C169.882 148.833 170.009 148.676 170.064 148.489C170.119 148.303 170.098 148.102 170.006 147.931C169.913 147.76 169.756 147.633 169.569 147.577Z" fill="#1F95C5"/>
<path d="M171.515 144.503C171.363 144.465 171.203 144.487 171.067 144.565C170.931 144.642 170.831 144.769 170.786 144.919C170.741 145.069 170.756 145.23 170.827 145.369C170.898 145.508 171.02 145.615 171.167 145.667C171.319 145.704 171.479 145.682 171.615 145.604C171.751 145.527 171.851 145.4 171.896 145.25C171.941 145.101 171.926 144.939 171.855 144.8C171.784 144.661 171.662 144.554 171.515 144.503Z" fill="#1F95C5"/>
<path d="M174.347 144.763C174.287 144.745 174.225 144.739 174.163 144.744C174.101 144.75 174.041 144.768 173.986 144.797C173.932 144.826 173.883 144.866 173.843 144.914C173.804 144.961 173.774 145.017 173.756 145.076C173.738 145.135 173.731 145.198 173.737 145.259C173.743 145.321 173.761 145.381 173.79 145.436C173.819 145.491 173.859 145.539 173.906 145.579C173.954 145.619 174.009 145.648 174.069 145.667C174.188 145.703 174.318 145.691 174.429 145.633C174.539 145.574 174.622 145.474 174.659 145.354C174.696 145.234 174.684 145.105 174.625 144.994C174.567 144.883 174.466 144.8 174.347 144.763Z" fill="#1F95C5"/>
<path d="M190.763 140.438C190.664 140.408 190.557 140.418 190.466 140.467C190.375 140.516 190.307 140.599 190.277 140.698C190.247 140.797 190.257 140.904 190.306 140.995C190.355 141.087 190.438 141.155 190.537 141.185C190.636 141.215 190.743 141.204 190.834 141.155C190.926 141.106 190.994 141.023 191.024 140.924C191.054 140.825 191.043 140.718 190.994 140.627C190.945 140.536 190.862 140.468 190.763 140.438Z" fill="#1F95C5"/>
<path d="M188.435 142.922C188.335 142.912 188.235 142.938 188.152 142.994C188.069 143.051 188.007 143.134 187.979 143.23C187.95 143.327 187.956 143.43 187.994 143.522C188.033 143.615 188.103 143.691 188.192 143.738C188.292 143.748 188.392 143.722 188.476 143.666C188.559 143.61 188.62 143.526 188.649 143.43C188.678 143.334 188.672 143.23 188.633 143.138C188.594 143.045 188.524 142.969 188.435 142.922Z" fill="#1F95C5"/>
<path d="M187.618 138.37C187.524 138.343 187.422 138.354 187.336 138.401C187.25 138.448 187.186 138.528 187.158 138.622C187.13 138.717 187.141 138.818 187.189 138.905C187.236 138.991 187.316 139.055 187.41 139.083C187.862 139.204 188.088 138.492 187.618 138.37Z" fill="#1F95C5"/>
<path d="M170.195 142.175C170.018 142.142 169.835 142.175 169.681 142.269C169.527 142.363 169.413 142.51 169.362 142.682C169.31 142.855 169.324 143.04 169.401 143.203C169.477 143.366 169.612 143.495 169.778 143.565C169.955 143.598 170.138 143.564 170.291 143.47C170.445 143.377 170.559 143.229 170.611 143.057C170.662 142.885 170.648 142.699 170.572 142.536C170.495 142.373 170.361 142.245 170.195 142.175Z" fill="#1F95C5"/>
<path d="M170.507 138.7C170.413 138.673 170.311 138.684 170.225 138.731C170.139 138.778 170.075 138.858 170.047 138.952C170.019 139.047 170.03 139.148 170.078 139.235C170.125 139.321 170.204 139.385 170.299 139.413C170.346 139.426 170.395 139.431 170.443 139.425C170.491 139.42 170.538 139.405 170.581 139.382C170.624 139.359 170.662 139.327 170.692 139.289C170.723 139.251 170.745 139.207 170.759 139.161C170.773 139.114 170.777 139.065 170.772 139.017C170.767 138.968 170.752 138.921 170.729 138.878C170.705 138.836 170.674 138.798 170.636 138.767C170.598 138.737 170.554 138.714 170.507 138.7Z" fill="#1F95C5"/>
<g style="mix-blend-mode:soft-light">
<g style="mix-blend-mode:soft-light">
<path d="M163.263 166.913C163.164 166.883 163.057 166.893 162.966 166.942C162.875 166.991 162.807 167.074 162.777 167.173C162.747 167.272 162.757 167.379 162.806 167.47C162.855 167.562 162.938 167.63 163.037 167.66C163.136 167.69 163.243 167.679 163.334 167.63C163.426 167.581 163.494 167.498 163.524 167.399C163.554 167.3 163.543 167.193 163.494 167.102C163.445 167.011 163.362 166.943 163.263 166.913Z" fill="white"/>
</g>
<g style="mix-blend-mode:soft-light">
<path d="M163.576 169.136C163.435 168.983 163.256 168.869 163.057 168.807C162.858 168.745 162.646 168.736 162.443 168.782C162.24 168.829 162.052 168.928 161.9 169.07C161.747 169.212 161.635 169.392 161.574 169.591C161.514 169.791 161.507 170.003 161.555 170.205C161.603 170.408 161.703 170.595 161.847 170.746C161.99 170.898 162.171 171.009 162.371 171.067C162.57 171.126 162.782 171.131 162.985 171.082C163.187 171.038 163.375 170.941 163.527 170.8C163.679 170.66 163.792 170.481 163.852 170.283C163.912 170.084 163.918 169.873 163.87 169.672C163.821 169.47 163.719 169.285 163.576 169.136Z" fill="white"/>
</g>
<g style="mix-blend-mode:soft-light">
<path d="M166.216 170.196C166.159 170.179 166.099 170.173 166.04 170.179C165.981 170.185 165.923 170.203 165.871 170.231C165.819 170.259 165.772 170.298 165.735 170.344C165.697 170.39 165.669 170.443 165.652 170.5C165.635 170.557 165.629 170.617 165.635 170.676C165.641 170.735 165.659 170.793 165.687 170.845C165.715 170.898 165.753 170.944 165.799 170.982C165.846 171.019 165.899 171.047 165.956 171.065C166.071 171.099 166.195 171.087 166.301 171.03C166.407 170.972 166.486 170.876 166.52 170.761C166.555 170.645 166.542 170.521 166.485 170.415C166.428 170.309 166.331 170.231 166.216 170.196Z" fill="white"/>
</g>
<g style="mix-blend-mode:soft-light">
<path d="M167.137 167.121C167.022 167.087 166.898 167.099 166.792 167.156C166.686 167.213 166.607 167.31 166.572 167.425C166.538 167.54 166.551 167.664 166.608 167.77C166.665 167.876 166.761 167.955 166.876 167.99C166.934 168.007 166.993 168.013 167.053 168.007C167.112 168.001 167.169 167.983 167.222 167.955C167.274 167.926 167.321 167.888 167.358 167.842C167.396 167.796 167.424 167.743 167.441 167.686C167.458 167.629 167.464 167.569 167.458 167.51C167.452 167.45 167.434 167.393 167.406 167.34C167.378 167.288 167.339 167.242 167.293 167.204C167.247 167.166 167.194 167.138 167.137 167.121Z" fill="white"/>
</g>
<g style="mix-blend-mode:soft-light">
<path d="M166.442 163.386C166.212 163.319 165.964 163.347 165.754 163.462C165.544 163.578 165.388 163.772 165.322 164.003C165.255 164.233 165.282 164.481 165.398 164.691C165.514 164.901 165.708 165.057 165.938 165.123C166.052 165.156 166.172 165.167 166.29 165.154C166.408 165.141 166.522 165.104 166.626 165.047C166.73 164.99 166.822 164.913 166.896 164.82C166.97 164.727 167.026 164.621 167.059 164.507C167.092 164.393 167.102 164.273 167.089 164.155C167.076 164.037 167.04 163.923 166.982 163.819C166.925 163.715 166.848 163.623 166.755 163.549C166.663 163.474 166.556 163.419 166.442 163.386Z" fill="white"/>
</g>
<g style="mix-blend-mode:soft-light">
<path d="M161.37 163.49C161.218 163.453 161.058 163.475 160.922 163.553C160.786 163.63 160.686 163.757 160.641 163.907C160.596 164.056 160.611 164.218 160.682 164.357C160.753 164.496 160.875 164.603 161.022 164.654C161.174 164.692 161.334 164.67 161.47 164.592C161.606 164.515 161.706 164.388 161.751 164.238C161.796 164.088 161.781 163.927 161.71 163.788C161.639 163.649 161.517 163.542 161.37 163.49Z" fill="white"/>
</g>
<g style="mix-blend-mode:soft-light">
<path d="M158.486 169.779C158.225 168.528 156.28 169.588 157.183 170.491C157.277 170.664 157.437 170.792 157.625 170.848C157.814 170.903 158.018 170.881 158.19 170.787C158.363 170.692 158.491 170.533 158.547 170.344C158.602 170.155 158.58 169.952 158.486 169.779Z" fill="white"/>
</g>
<g style="mix-blend-mode:soft-light">
<path d="M159.493 176.919C159.278 176.894 159.061 176.945 158.88 177.064C158.699 177.182 158.566 177.361 158.503 177.569C158.441 177.776 158.454 177.999 158.54 178.198C158.625 178.397 158.779 178.559 158.972 178.656C159.187 178.682 159.404 178.63 159.585 178.512C159.766 178.393 159.9 178.214 159.962 178.006C160.024 177.799 160.011 177.576 159.926 177.377C159.84 177.178 159.687 177.016 159.493 176.919Z" fill="white"/>
</g>
<g style="mix-blend-mode:soft-light">
<path d="M165.33 179.942C165.24 179.916 165.144 179.928 165.063 179.973C164.981 180.019 164.921 180.095 164.896 180.185C164.871 180.275 164.882 180.371 164.928 180.452C164.973 180.534 165.049 180.594 165.139 180.619C165.229 180.645 165.325 180.633 165.407 180.588C165.488 180.542 165.548 180.466 165.573 180.376C165.599 180.286 165.587 180.19 165.542 180.108C165.496 180.027 165.42 179.967 165.33 179.942Z" fill="white"/>
</g>
<g style="mix-blend-mode:soft-light">
<path d="M161.838 186.3C161.839 186.171 161.798 186.045 161.721 185.942C161.643 185.838 161.534 185.763 161.41 185.728C161.286 185.692 161.154 185.698 161.033 185.745C160.913 185.792 160.811 185.877 160.744 185.987C160.696 186.067 160.667 186.157 160.659 186.249C160.652 186.342 160.665 186.435 160.699 186.522C160.733 186.608 160.786 186.686 160.855 186.749C160.923 186.811 161.006 186.857 161.095 186.884C161.184 186.91 161.278 186.915 161.37 186.899C161.461 186.883 161.548 186.846 161.623 186.792C161.698 186.737 161.76 186.666 161.803 186.584C161.847 186.501 161.871 186.41 161.873 186.317L161.838 186.3Z" fill="white"/>
</g>
<g style="mix-blend-mode:soft-light">
<path d="M169.5 175.703C169.465 175.575 169.394 175.459 169.296 175.37C169.197 175.28 169.075 175.221 168.944 175.199C168.834 175.148 168.713 175.125 168.592 175.131C168.472 175.137 168.354 175.172 168.25 175.233C168.145 175.295 168.058 175.381 167.994 175.484C167.93 175.587 167.893 175.704 167.884 175.825C167.823 175.929 167.788 176.047 167.784 176.168C167.779 176.288 167.805 176.409 167.858 176.517C167.911 176.626 167.991 176.719 168.09 176.789C168.188 176.859 168.303 176.904 168.423 176.919C168.544 176.973 168.679 176.992 168.811 176.974C168.943 176.955 169.067 176.9 169.17 176.815C169.355 176.705 169.492 176.53 169.553 176.324C169.615 176.117 169.595 175.896 169.5 175.703Z" fill="white"/>
</g>
<g style="mix-blend-mode:soft-light">
<path d="M163.211 174.4C163.034 174.367 162.851 174.4 162.697 174.494C162.543 174.588 162.43 174.735 162.378 174.908C162.326 175.08 162.34 175.266 162.417 175.428C162.494 175.591 162.628 175.72 162.794 175.79C162.971 175.823 163.154 175.789 163.308 175.696C163.462 175.602 163.575 175.455 163.627 175.282C163.679 175.11 163.665 174.924 163.588 174.761C163.511 174.599 163.377 174.47 163.211 174.4Z" fill="white"/>
</g>
<g style="mix-blend-mode:soft-light">
<path d="M155.341 182.131C155.076 182.05 154.79 182.078 154.546 182.208C154.302 182.339 154.119 182.561 154.038 182.825C153.958 183.09 153.986 183.377 154.116 183.621C154.246 183.865 154.468 184.048 154.733 184.128C154.998 184.209 155.284 184.181 155.529 184.051C155.773 183.92 155.956 183.698 156.036 183.434C156.117 183.169 156.089 182.882 155.959 182.638C155.828 182.394 155.606 182.211 155.341 182.131Z" fill="white"/>
</g>
<g style="mix-blend-mode:soft-light">
<path d="M153.795 176.676C153.618 176.643 153.435 176.676 153.281 176.77C153.128 176.864 153.014 177.011 152.962 177.183C152.91 177.356 152.924 177.541 153.001 177.704C153.078 177.867 153.212 177.996 153.378 178.066C153.555 178.099 153.738 178.065 153.892 177.971C154.046 177.878 154.159 177.73 154.211 177.558C154.263 177.386 154.249 177.2 154.172 177.037C154.095 176.874 153.961 176.746 153.795 176.676Z" fill="white"/>
</g>
<g style="mix-blend-mode:soft-light">
<path d="M155.724 173.601C155.572 173.563 155.412 173.586 155.276 173.663C155.14 173.741 155.04 173.867 154.995 174.017C154.95 174.167 154.965 174.328 155.036 174.467C155.107 174.607 155.229 174.713 155.376 174.765C155.528 174.802 155.688 174.78 155.824 174.703C155.96 174.625 156.06 174.498 156.105 174.349C156.15 174.199 156.135 174.038 156.064 173.898C155.993 173.759 155.871 173.653 155.724 173.601Z" fill="white"/>
</g>
<g style="mix-blend-mode:soft-light">
<path d="M158.555 173.861C158.435 173.827 158.307 173.841 158.198 173.902C158.089 173.962 158.008 174.063 157.973 174.183C157.939 174.303 157.953 174.431 158.013 174.54C158.074 174.65 158.175 174.73 158.295 174.765C158.414 174.799 158.543 174.785 158.652 174.725C158.761 174.664 158.842 174.563 158.877 174.443C158.911 174.324 158.897 174.195 158.836 174.086C158.776 173.977 158.675 173.896 158.555 173.861Z" fill="white"/>
</g>
<g style="mix-blend-mode:soft-light">
<path d="M175.007 169.536C174.908 169.514 174.805 169.531 174.718 169.582C174.631 169.634 174.567 169.716 174.538 169.813C174.509 169.91 174.519 170.014 174.564 170.104C174.609 170.195 174.686 170.265 174.781 170.3C174.879 170.322 174.983 170.305 175.069 170.254C175.156 170.202 175.221 170.12 175.249 170.023C175.278 169.926 175.269 169.822 175.224 169.732C175.179 169.641 175.101 169.571 175.007 169.536Z" fill="white"/>
</g>
<g style="mix-blend-mode:soft-light">
<path d="M172.661 172.003C172.551 171.97 172.432 171.983 172.331 172.039C172.23 172.094 172.155 172.187 172.123 172.298C172.09 172.409 172.103 172.527 172.159 172.628C172.214 172.729 172.307 172.804 172.418 172.837C172.473 172.852 172.53 172.858 172.587 172.851C172.643 172.845 172.698 172.828 172.748 172.8C172.798 172.773 172.842 172.736 172.878 172.691C172.914 172.647 172.94 172.596 172.956 172.541C172.972 172.486 172.977 172.429 172.971 172.372C172.965 172.316 172.948 172.261 172.92 172.211C172.893 172.161 172.856 172.117 172.811 172.081C172.767 172.045 172.716 172.019 172.661 172.003Z" fill="white"/>
</g>
<g style="mix-blend-mode:soft-light">
<path d="M171.845 167.451C171.758 167.443 171.671 167.465 171.598 167.513C171.525 167.561 171.471 167.633 171.444 167.716C171.418 167.799 171.421 167.889 171.453 167.971C171.484 168.052 171.543 168.12 171.619 168.163C171.706 168.172 171.793 168.15 171.866 168.102C171.939 168.053 171.993 167.982 172.019 167.898C172.046 167.815 172.043 167.725 172.011 167.644C171.979 167.563 171.921 167.495 171.845 167.451Z" fill="white"/>
</g>
<g style="mix-blend-mode:soft-light">
<path d="M154.421 171.186C154.244 171.153 154.061 171.187 153.907 171.28C153.753 171.374 153.639 171.521 153.588 171.694C153.536 171.866 153.55 172.052 153.627 172.215C153.703 172.377 153.838 172.506 154.004 172.576C154.181 172.609 154.364 172.576 154.517 172.482C154.671 172.388 154.785 172.241 154.837 172.068C154.888 171.896 154.874 171.71 154.798 171.548C154.721 171.385 154.587 171.256 154.421 171.186Z" fill="white"/>
</g>
<g style="mix-blend-mode:soft-light">
<path d="M154.716 167.712C154.621 167.684 154.52 167.695 154.434 167.742C154.347 167.79 154.283 167.869 154.256 167.964C154.228 168.058 154.239 168.16 154.286 168.246C154.333 168.332 154.413 168.396 154.507 168.424C154.554 168.438 154.603 168.442 154.652 168.437C154.7 168.432 154.747 168.417 154.79 168.393C154.833 168.37 154.87 168.338 154.901 168.3C154.931 168.262 154.954 168.219 154.968 168.172C154.981 168.125 154.986 168.076 154.981 168.028C154.975 167.979 154.961 167.933 154.937 167.89C154.914 167.847 154.882 167.809 154.844 167.779C154.806 167.748 154.763 167.725 154.716 167.712Z" fill="white"/>
</g>
</g>
<path d="M177.439 121.467L181.4 112.885L174.955 120.72L172.227 119.904L175.319 111.009L169.291 119.018L167.693 118.549L176.865 106.388C175.833 106.382 174.829 106.721 174.011 107.35C173.193 107.979 172.608 108.864 172.349 109.863C172.17 110.327 172.127 110.834 172.227 111.322C170.924 110.94 170.229 110.193 170.629 108.872C171.393 106.319 175.528 104.547 178.568 105.398C179.088 105.553 179.577 105.8 180.01 106.128L176.396 116.551L183.936 107.344L186.82 108.195L180.34 122.318L177.439 121.467Z" fill="#1F95C5"/>
<path d="M189.304 114.136L185.83 120.494C185.714 120.686 185.621 120.89 185.552 121.102C185.395 121.676 185.552 121.919 186.16 122.093C186.623 122.149 187.092 122.063 187.505 121.846C187.918 121.628 188.254 121.29 188.47 120.877L189.321 121.12C187.202 124.038 185.1 123.882 184.11 123.569C183.798 123.49 183.509 123.343 183.261 123.138C183.014 122.934 182.815 122.677 182.678 122.386C182.542 122.095 182.472 121.778 182.473 121.457C182.474 121.136 182.547 120.819 182.685 120.529C182.818 120.094 182.999 119.674 183.224 119.278L186.507 113.268L189.304 114.136ZM189.669 109.602C189.941 109.6 190.209 109.662 190.453 109.783C190.697 109.903 190.909 110.08 191.072 110.297C191.235 110.515 191.345 110.768 191.393 111.036C191.44 111.303 191.424 111.579 191.346 111.839C191.268 112.1 191.129 112.338 190.942 112.535C190.755 112.733 190.523 112.883 190.267 112.975C190.011 113.067 189.737 113.097 189.467 113.063C189.197 113.029 188.939 112.933 188.713 112.781C188.506 112.72 188.313 112.618 188.146 112.481C187.978 112.344 187.84 112.176 187.738 111.985C187.636 111.794 187.573 111.585 187.553 111.37C187.532 111.155 187.555 110.938 187.619 110.731C187.758 110.321 188.046 109.979 188.425 109.77C188.804 109.561 189.248 109.501 189.669 109.602Z" fill="#1F95C5"/>
<path d="M196.687 112L191.163 122.093C191.047 122.284 190.954 122.488 190.885 122.701C190.728 123.257 190.885 123.517 191.493 123.691C191.956 123.747 192.425 123.661 192.838 123.444C193.251 123.227 193.587 122.889 193.803 122.475L194.654 122.718C192.535 125.637 190.433 125.48 189.338 125.168C189.029 125.086 188.741 124.938 188.495 124.732C188.25 124.527 188.053 124.27 187.918 123.979C187.784 123.689 187.715 123.372 187.718 123.052C187.72 122.732 187.793 122.416 187.931 122.127C188.064 121.692 188.245 121.272 188.47 120.877L193.681 111.513L196.687 112Z" fill="#1F95C5"/>
<path d="M205.165 118.879L200.335 120.46C200.564 120.483 200.79 120.524 201.013 120.581C201.32 120.659 201.607 120.802 201.854 121.001C202.101 121.2 202.302 121.449 202.444 121.733C202.586 122.017 202.665 122.327 202.675 122.644C202.686 122.961 202.629 123.277 202.507 123.569C202.439 123.829 202.339 124.08 202.211 124.316L201.69 125.237C201.574 125.431 201.476 125.634 201.395 125.845C201.35 125.945 201.33 126.053 201.336 126.162C201.341 126.271 201.372 126.377 201.426 126.472C201.48 126.567 201.556 126.647 201.647 126.707C201.738 126.768 201.842 126.805 201.951 126.818C202.437 126.974 202.524 126.939 202.68 126.818C202.599 127.124 202.455 127.409 202.257 127.657C202.06 127.904 201.813 128.108 201.533 128.256C201.253 128.403 200.945 128.491 200.629 128.514C200.313 128.537 199.996 128.494 199.698 128.388C199.399 128.282 199.126 128.115 198.895 127.899C198.664 127.682 198.481 127.42 198.356 127.129C198.232 126.838 198.169 126.524 198.172 126.207C198.174 125.891 198.243 125.578 198.372 125.289C198.486 124.946 198.632 124.615 198.806 124.299L199.206 123.569C199.331 123.337 199.43 123.093 199.501 122.839C199.675 122.266 199.588 121.832 199.067 121.676C198.471 121.571 197.857 121.675 197.33 121.971L194.828 126.592L191.944 125.723L198.893 113.024L201.968 113.493L198.372 120.077L203.132 118.201L205.165 118.879Z" fill="#1F95C5"/>
<path d="M30.5749 136.963H28.1081C28.1081 136.963 26.6314 125.341 28.1081 122.926C29.5847 120.511 34.3794 119.452 32.3469 121.919C29.9341 126.547 29.3036 131.9 30.5749 136.963Z" fill="#683C11"/>
<path d="M50.0489 146.778C48.3117 138.805 41.1196 135.869 30.1057 135.869C19.0918 135.869 11.8303 138.805 10.1973 146.778C9.10286 151.99 14.5403 169.05 22.2014 174.991C24.3382 176.728 27.7431 172.593 30.1405 172.593C32.5378 172.593 35.9601 176.641 38.0795 174.991C45.7406 169.05 51.1955 152.042 50.0489 146.778Z" fill="#E52A12"/>
<g style="mix-blend-mode:multiply">
<path d="M36.4814 169.397C34.6122 168.57 32.86 167.501 31.2697 166.217C28.1428 164.254 24.1819 164.689 21.1592 162.448C16.4513 158.973 15.2179 151.034 15.2353 145.597C15.2134 143.193 15.5711 140.801 16.295 138.509C14.7063 139.324 13.3268 140.493 12.2633 141.928C11.1998 143.362 10.481 145.021 10.1626 146.778C9.0682 151.99 14.5057 169.049 22.1668 174.99C24.3035 176.728 27.7085 172.593 30.1058 172.593C32.5032 172.593 35.9255 176.641 38.0449 174.99C39.7719 173.584 41.2719 171.92 42.4921 170.057C40.4645 170.252 38.4184 170.027 36.4814 169.397Z" fill="#D8CDC5"/>
</g>
<path opacity="0.1" d="M46.7656 145.284C48.7982 152.858 44.8721 165.61 37.541 165.61C30.21 165.61 20.1689 160.242 20.1689 145.284C20.1689 141.097 26.1276 137.71 33.476 137.71C40.8244 137.71 45.6886 141.254 46.7656 145.284Z" fill="white"/>
<path d="M41.0678 123.5C40.1877 125.963 38.5368 128.077 36.36 129.528C34.0356 130.73 31.3854 131.15 28.8031 130.726C29.6832 128.263 31.3341 126.149 33.5109 124.698C35.8353 123.496 38.4855 123.076 41.0678 123.5Z" fill="#3AAA35"/>
<path d="M41.0678 123.5C40.1877 125.963 38.5368 128.077 36.36 129.528C34.0356 130.73 31.3854 131.15 28.8031 130.726C31.0366 129.891 33.1931 128.862 35.2481 127.652C37.3036 126.437 39.2507 125.048 41.0678 123.5Z" fill="#328E2C"/>
<path d="M57.5713 142.383L55.2608 143.095C55.2608 143.095 50.5009 132.377 51.2305 129.649C51.9601 126.922 56.2684 124.577 55.0002 127.461C54.0053 132.582 54.9199 137.89 57.5713 142.383Z" fill="#683C11"/>
<path d="M79.078 146.153C75.204 138.978 67.4039 138.266 56.8417 141.428C46.2795 144.589 40.1645 149.488 40.8768 157.618C41.3632 163.021 51.439 177.701 60.4725 181.192C62.9914 182.165 65.1108 177.301 67.4213 176.606C69.7318 175.911 74.1443 178.812 75.7078 176.606C81.319 168.737 81.6491 150.861 79.078 146.153Z" fill="#E52A12"/>
<g style="mix-blend-mode:multiply">
<path d="M72.6326 171.707C70.6146 171.449 68.64 170.923 66.7609 170.144C63.2864 169.171 59.5341 170.734 56.0075 169.449C50.4832 167.451 47.0262 160.224 45.48 155.013C44.7661 152.713 44.4201 150.315 44.4551 147.908C43.1723 149.149 42.1918 150.669 41.5894 152.35C40.987 154.031 40.7788 155.827 40.9807 157.601C41.3629 163.021 51.4387 177.701 60.4722 181.192C62.9911 182.165 65.1105 177.301 67.421 176.606C69.7315 175.911 74.144 178.813 75.7075 176.606C76.9505 174.762 77.9108 172.741 78.5565 170.613C76.6759 171.373 74.6609 171.746 72.6326 171.707Z" fill="#D8CDC5"/>
</g>
<path opacity="0.1" d="M75.4644 145.649C79.5816 152.355 79.5816 165.679 72.4591 167.798C65.3365 169.918 54.3052 167.659 49.9969 153.327C48.7983 149.314 53.4714 144.363 60.5592 142.244C67.647 140.125 73.2756 142.175 75.4644 145.649Z" fill="white"/>
<path d="M63.738 126.54C63.7451 129.177 62.7525 131.718 60.9602 133.653C59.1678 135.587 56.709 136.77 54.0791 136.963C54.072 134.326 55.0647 131.784 56.857 129.85C58.6493 127.916 61.1082 126.733 63.738 126.54Z" fill="#3AAA35"/>
<path d="M63.7382 126.54C63.7453 129.177 62.7527 131.718 60.9604 133.653C59.168 135.587 56.7092 136.77 54.0793 136.963C57.8917 134.089 61.1623 130.56 63.7382 126.54Z" fill="#328E2C"/>
<path d="M294.162 33.3906C294.162 35.9827 293.393 38.5166 291.952 40.6714C290.511 42.8261 288.463 44.505 286.068 45.4954C283.672 46.4857 281.037 46.7431 278.495 46.2349C275.953 45.7266 273.619 44.4757 271.789 42.6403C269.958 40.805 268.714 38.4678 268.212 35.9246C267.711 33.3815 267.975 30.7467 268.972 28.3539C269.968 25.961 271.653 23.9177 273.811 22.4826C275.97 21.0475 278.506 20.2851 281.098 20.292C282.816 20.2943 284.516 20.6349 286.103 21.2944C287.689 21.9539 289.13 22.9194 290.343 24.1357C291.556 25.352 292.517 26.7953 293.173 28.3833C293.828 29.9713 294.164 31.6727 294.162 33.3906Z" fill="#C62120"/>
<path d="M290.114 33.3907C290.114 35.1815 289.583 36.9321 288.588 38.4209C287.592 39.9097 286.178 41.0697 284.523 41.7543C282.868 42.4388 281.047 42.617 279.291 42.2664C277.535 41.9157 275.922 41.052 274.657 39.7844C273.392 38.5169 272.532 36.9026 272.184 35.1458C271.837 33.3889 272.019 31.5685 272.706 29.915C273.394 28.2615 274.557 26.8492 276.048 25.8567C277.538 24.8643 279.29 24.3364 281.081 24.3398C282.268 24.3398 283.445 24.5741 284.542 25.0291C285.639 25.4842 286.635 26.1511 287.474 26.9918C288.314 27.8325 288.979 28.8304 289.432 29.9284C289.884 31.0264 290.116 32.2029 290.114 33.3907Z" fill="#AD1F1A"/>
<path d="M131.038 71.4529C122.873 110.714 117.453 150.479 109.896 189.844" stroke="#C6C6C6" stroke-width="3.25" stroke-linecap="round" stroke-linejoin="round"/>
<path d="M40.7027 183.694L203.288 207.911C203.288 207.911 196.339 252.105 179.471 252.105H17.7542" stroke="#9F9F9F" stroke-width="6.34" stroke-linecap="round" stroke-linejoin="round"/>
<path d="M60.316 273.195C60.316 276.315 59.3909 279.365 57.6577 281.959C55.9244 284.553 53.4609 286.574 50.5786 287.768C47.6963 288.962 44.5247 289.275 41.4649 288.666C38.405 288.057 35.5944 286.555 33.3884 284.349C31.1824 282.143 29.68 279.332 29.0714 276.273C28.4628 273.213 28.7751 270.041 29.969 267.159C31.1629 264.277 33.1847 261.813 35.7787 260.08C38.3727 258.346 41.4224 257.421 44.5422 257.421C46.6143 257.419 48.6665 257.825 50.5813 258.617C52.4961 259.409 54.2359 260.571 55.7011 262.036C57.1663 263.501 58.3281 265.241 59.12 267.156C59.9119 269.071 60.3183 271.123 60.316 273.195Z" fill="#2D2B29"/>
<path d="M51.8904 273.195C51.8904 274.648 51.4594 276.069 50.652 277.278C49.8445 278.486 48.6969 279.428 47.3541 279.984C46.0114 280.54 44.5339 280.686 43.1084 280.402C41.683 280.119 40.3736 279.419 39.3459 278.391C38.3182 277.363 37.6183 276.054 37.3348 274.629C37.0513 273.203 37.1968 271.726 37.753 270.383C38.3092 269.04 39.251 267.892 40.4595 267.085C41.6679 266.278 43.0886 265.847 44.542 265.847C46.4909 265.847 48.36 266.621 49.7381 267.999C51.1162 269.377 51.8904 271.246 51.8904 273.195Z" fill="#B2B2B2"/>
<path d="M43.2913 70.5669C40.2511 105.311 38.0796 140.299 35.8386 175.199" stroke="#C6C6C6" stroke-width="3.25" stroke-linecap="round" stroke-linejoin="round"/>
<path d="M69.8705 70.3061C64.9716 106.388 63.825 142.852 59.4473 178.969" stroke="#C6C6C6" stroke-width="3.25" stroke-linecap="round" stroke-linejoin="round"/>
<path d="M98.3435 72.7732C94.8691 110.193 88.4588 147.247 84.3242 184.597" stroke="#C6C6C6" stroke-width="3.25" stroke-linecap="round" stroke-linejoin="round"/>
<path d="M159.858 70.5669C153.17 110.94 142.59 150.479 135.068 190.73" stroke="#C6C6C6" stroke-width="3.25" stroke-linecap="round" stroke-linejoin="round"/>
<path d="M186.854 72.7732C177.369 113.146 168.77 153.727 158.746 193.978" stroke="#C6C6C6" stroke-width="3.25" stroke-linecap="round" stroke-linejoin="round"/>
<path d="M221.251 69.5244C209.09 111.217 197.208 153.119 185.325 194.968" stroke="#C6C6C6" stroke-width="3.25" stroke-linecap="round" stroke-linejoin="round"/>
<path d="M281.098 33.3906C281.098 33.3906 261.989 32.4699 257.246 46.715L206.589 199.503C206.589 199.503 31.4436 174.852 23.8867 173.149C16.3298 171.447 13.9325 167.938 13.9499 162.952C14.0367 141.376 14.2278 83.596 13.9499 78.4712C13.5156 72.1651 17.6501 68.9513 24.5816 68.9513L249.828 69.2119" stroke="#9F9F9E" stroke-width="6.34" stroke-linecap="round" stroke-linejoin="round"/>
<path d="M14.0713 96.4512L239.109 101.368" stroke="#9F9F9E" stroke-width="3.25" stroke-linecap="round" stroke-linejoin="round"/>
<path d="M13.9152 120.842L227.036 137.797" stroke="#9F9F9E" stroke-width="3.25" stroke-linecap="round" stroke-linejoin="round"/>
<path d="M11.2223 145.701L216.23 170.335" stroke="#9F9F9E" stroke-width="3.25" stroke-linecap="round" stroke-linejoin="round"/>
<path d="M49.4932 273.195C49.4932 278.407 43.0828 281.482 39.5563 273.195C36.5336 266.073 29.6368 252.105 29.6368 252.105H49.4932V273.195Z" fill="#9F9F9F"/>
<path d="M47.3044 273.039C47.3044 273.585 47.1424 274.119 46.8389 274.573C46.5353 275.027 46.1039 275.382 45.5992 275.591C45.0945 275.8 44.5391 275.854 44.0033 275.748C43.4675 275.641 42.9753 275.378 42.5891 274.992C42.2028 274.606 41.9397 274.113 41.8331 273.578C41.7265 273.042 41.7812 272.486 41.9903 271.982C42.1994 271.477 42.5534 271.046 43.0076 270.742C43.4619 270.439 43.9959 270.277 44.5422 270.277C45.2748 270.277 45.9773 270.568 46.4953 271.086C47.0133 271.604 47.3044 272.306 47.3044 273.039Z" fill="#6D6D6C"/>
<path d="M183.623 273.195C183.623 276.315 182.698 279.365 180.965 281.959C179.232 284.553 176.768 286.574 173.886 287.768C171.003 288.962 167.832 289.275 164.772 288.666C161.712 288.057 158.902 286.555 156.696 284.349C154.489 282.143 152.987 279.332 152.379 276.273C151.77 273.213 152.082 270.041 153.276 267.159C154.47 264.277 156.492 261.813 159.086 260.08C161.68 258.346 164.73 257.421 167.849 257.421C169.921 257.419 171.974 257.825 173.888 258.617C175.803 259.409 177.543 260.571 179.008 262.036C180.473 263.501 181.635 265.241 182.427 267.156C183.219 269.071 183.625 271.123 183.623 273.195Z" fill="#2D2B29"/>
<path d="M175.128 273.195C175.128 274.648 174.697 276.069 173.89 277.278C173.082 278.486 171.935 279.428 170.592 279.984C169.249 280.54 167.772 280.686 166.346 280.402C164.921 280.119 163.611 279.419 162.584 278.391C161.556 277.363 160.856 276.054 160.572 274.629C160.289 273.203 160.434 271.726 160.991 270.383C161.547 269.04 162.489 267.892 163.697 267.085C164.906 266.278 166.326 265.847 167.78 265.847C169.729 265.847 171.598 266.621 172.976 267.999C174.354 269.377 175.128 271.246 175.128 273.195Z" fill="#B2B2B2"/>
<path d="M172.8 273.195C172.8 278.407 166.39 281.482 162.864 273.195C159.841 266.073 152.944 252.105 152.944 252.105H172.8V273.195Z" fill="#9F9F9F"/>
<path d="M170.611 273.039C170.611 273.585 170.449 274.119 170.146 274.573C169.842 275.027 169.411 275.382 168.906 275.591C168.402 275.8 167.846 275.854 167.31 275.748C166.775 275.641 166.282 275.378 165.896 274.992C165.51 274.606 165.247 274.113 165.14 273.578C165.034 273.042 165.088 272.486 165.297 271.982C165.506 271.477 165.861 271.046 166.315 270.742C166.769 270.439 167.303 270.277 167.849 270.277C168.212 270.277 168.571 270.348 168.906 270.487C169.241 270.626 169.546 270.829 169.802 271.086C170.059 271.342 170.262 271.647 170.401 271.982C170.54 272.317 170.611 272.676 170.611 273.039Z" fill="#6D6D6C"/>
</svg>
