<svg width="16" height="16" viewBox="0 0 16 16" fill="none" xmlns="http://www.w3.org/2000/svg">
<g opacity="0.8">
<path fill-rule="evenodd" clip-rule="evenodd" d="M4.21841 5.565L4.62041 10.3463C4.64974 10.7143 4.95041 10.9903 5.31774 10.9903H5.32041H12.5944H12.5957C12.9431 10.9903 13.2397 10.7317 13.2891 10.3883L13.9224 6.01566C13.9371 5.91166 13.9111 5.80766 13.8477 5.72366C13.7851 5.639 13.6931 5.58433 13.5891 5.56966C13.4497 5.575 7.66774 5.567 4.21841 5.565ZM5.31644 11.9903C4.43844 11.9903 3.6951 11.305 3.62377 10.4283L3.0131 3.16566L2.00844 2.99232C1.73577 2.94432 1.55377 2.68632 1.60044 2.41366C1.64844 2.14099 1.91177 1.96366 2.17844 2.00632L3.5651 2.24632C3.78844 2.28566 3.95844 2.47099 3.97777 2.69766L4.13444 4.56499C13.6518 4.56899 13.6824 4.57366 13.7284 4.57899C14.0998 4.63299 14.4264 4.82699 14.6491 5.12566C14.8718 5.42366 14.9651 5.79099 14.9118 6.15899L14.2791 10.531C14.1598 11.363 13.4371 11.9903 12.5971 11.9903H12.5938H5.32177H5.31644Z" fill="#252626"/>
<path fill-rule="evenodd" clip-rule="evenodd" d="M11.525 8.0293H9.677C9.40034 8.0293 9.177 7.8053 9.177 7.5293C9.177 7.2533 9.40034 7.0293 9.677 7.0293H11.525C11.801 7.0293 12.025 7.2533 12.025 7.5293C12.025 7.8053 11.801 8.0293 11.525 8.0293Z" fill="#252626"/>
<path fill-rule="evenodd" clip-rule="evenodd" d="M5.02965 13.8013C5.23032 13.8013 5.39232 13.9633 5.39232 14.1639C5.39232 14.3646 5.23032 14.5273 5.02965 14.5273C4.82832 14.5273 4.66632 14.3646 4.66632 14.1639C4.66632 13.9633 4.82832 13.8013 5.02965 13.8013Z" fill="#252626"/>
<mask id="mask0" mask-type="alpha" maskUnits="userSpaceOnUse" x="4" y="13" width="2" height="2">
<path fill-rule="evenodd" clip-rule="evenodd" d="M4.66602 14.1637C4.66602 14.365 4.82802 14.5277 5.03002 14.5277C5.23068 14.5277 5.39268 14.365 5.39268 14.1637C5.39268 13.963 5.23068 13.801 5.03002 13.801C4.82802 13.801 4.66602 13.963 4.66602 14.1637Z" fill="white"/>
</mask>
<g mask="url(#mask0)">
<path fill-rule="evenodd" clip-rule="evenodd" d="M1.33337 17.8604H8.72604V10.4678H1.33337V17.8604Z" fill="#252626"/>
</g>
<path fill-rule="evenodd" clip-rule="evenodd" d="M5.02899 14.0273C4.95366 14.0273 4.89233 14.0886 4.89233 14.1639C4.89233 14.3153 5.16633 14.3153 5.16633 14.1639C5.16633 14.0886 5.10433 14.0273 5.02899 14.0273ZM5.02899 15.0273C4.55299 15.0273 4.16632 14.6399 4.16632 14.1639C4.16632 13.6879 4.55299 13.3013 5.02899 13.3013C5.50499 13.3013 5.89232 13.6879 5.89232 14.1639C5.89232 14.6399 5.50499 15.0273 5.02899 15.0273Z" fill="#252626"/>
<path fill-rule="evenodd" clip-rule="evenodd" d="M12.5499 13.8013C12.7505 13.8013 12.9132 13.9633 12.9132 14.1639C12.9132 14.3646 12.7505 14.5273 12.5499 14.5273C12.3485 14.5273 12.1865 14.3646 12.1865 14.1639C12.1865 13.9633 12.3485 13.8013 12.5499 13.8013Z" fill="#252626"/>
<mask id="mask1" mask-type="alpha" maskUnits="userSpaceOnUse" x="12" y="13" width="1" height="2">
<path fill-rule="evenodd" clip-rule="evenodd" d="M12.1867 14.1637C12.1867 14.365 12.3487 14.5277 12.55 14.5277C12.75 14.5277 12.9134 14.365 12.9134 14.1637C12.9134 13.963 12.75 13.801 12.55 13.801C12.3487 13.801 12.1867 13.963 12.1867 14.1637Z" fill="white"/>
</mask>
<g mask="url(#mask1)">
<path fill-rule="evenodd" clip-rule="evenodd" d="M8.85333 17.8604H16.2467V10.4678H8.85333V17.8604Z" fill="#252626"/>
</g>
<path fill-rule="evenodd" clip-rule="evenodd" d="M12.5491 14.0273C12.4745 14.0273 12.4131 14.0886 12.4131 14.1639C12.4138 14.3166 12.6871 14.3153 12.6865 14.1639C12.6865 14.0886 12.6245 14.0273 12.5491 14.0273ZM12.5491 15.0273C12.0731 15.0273 11.6865 14.6399 11.6865 14.1639C11.6865 13.6879 12.0731 13.3013 12.5491 13.3013C13.0258 13.3013 13.4131 13.6879 13.4131 14.1639C13.4131 14.6399 13.0258 15.0273 12.5491 15.0273Z" fill="#252626"/>
</g>
</svg>
