<svg width="30" height="30" viewBox="0 0 30 30" fill="none" xmlns="http://www.w3.org/2000/svg">
<g clip-path="url(#clip0)">
<path d="M0.408451 15.0389C0.0859621 15.1577 -0.0802626 15.5151 0.0372138 15.8389L0.42972 16.9188L3.41831 13.9302L0.408451 15.0389Z" fill="#52B059"/>
<path d="M3.23779 24.6382L5.03773 29.588C5.09398 29.7443 5.21145 29.8718 5.36145 29.9405C5.44518 29.9792 5.53517 29.9993 5.62517 29.9993C5.69894 29.9993 5.77141 29.9868 5.84143 29.9605L7.82763 29.2281L3.23779 24.6382Z" fill="#52B059"/>
<path d="M29.9616 20.4123L27.9017 14.7488L22.9581 19.6923L25.408 18.7898C25.7293 18.6673 26.0917 18.8348 26.2105 19.1599C26.3305 19.4836 26.1642 19.8436 25.8405 19.9623L22.7281 21.1098C22.6568 21.136 22.5843 21.1485 22.5118 21.1485C22.258 21.1485 22.0181 20.9923 21.9256 20.7398C21.9244 20.736 21.9256 20.7323 21.9244 20.7285L16.6858 25.9671L29.5903 21.2123C29.9141 21.0936 30.0803 20.736 29.9616 20.4123Z" fill="#52B059"/>
<path d="M29.8171 10.183L19.8174 0.183294C19.5736 -0.0604471 19.1774 -0.0604471 18.9336 0.183294L0.184271 18.9326C-0.0594706 19.1764 -0.0594706 19.5726 0.184271 19.8164L10.184 29.816C10.3052 29.9386 10.4652 29.9998 10.6252 29.9998C10.7852 29.9998 10.9452 29.9386 11.0677 29.8173L29.8171 11.0679C30.0608 10.823 30.0608 10.4279 29.8171 10.183ZM7.31782 17.3177L4.81788 19.8176C4.69537 19.9388 4.53541 20.0001 4.3754 20.0001C4.21538 20.0001 4.05543 19.9389 3.93291 19.8176C3.68917 19.5739 3.68917 19.1776 3.93291 18.9339L6.43285 16.4339C6.67659 16.1902 7.07284 16.1902 7.31659 16.4339C7.56033 16.6777 7.56156 17.0727 7.31782 17.3177ZM18.1112 18.1114C17.6687 18.5539 17.0675 18.7664 16.3987 18.7664C15.2937 18.7664 14.0026 18.1877 12.9226 17.1064C12.1326 16.3165 11.5776 15.3715 11.3614 14.4466C11.1214 13.4153 11.3189 12.5179 11.9176 11.9179C12.5164 11.3179 13.4138 11.1204 14.4463 11.3617C15.3713 11.578 16.3162 12.1317 17.1062 12.9229C18.8424 14.6578 19.2849 16.9377 18.1112 18.1114ZM26.0672 11.0679L23.5672 13.5679C23.4447 13.6891 23.2848 13.7504 23.1248 13.7504C22.9647 13.7504 22.8048 13.6891 22.6823 13.5679C22.4385 13.3241 22.4385 12.9279 22.6823 12.6841L25.1822 10.1842C25.4259 9.94045 25.8222 9.94045 26.0659 10.1842C26.3097 10.4279 26.3109 10.823 26.0672 11.0679Z" fill="#52B059"/>
</g>
<defs>
<clipPath id="clip0">
<rect width="30" height="30" fill="white"/>
</clipPath>
</defs>
</svg>
