<svg width="100" height="100" viewBox="0 0 100 100" fill="none" xmlns="http://www.w3.org/2000/svg">
<path d="M50 0C22.4289 0 0 22.4289 0 50C0 77.5711 22.4289 100 50 100C77.5711 100 100 77.5711 100 50C100 22.4289 77.5711 0 50 0Z" fill="#52B059"/>
<path d="M75.3417 39.4042L48.2581 66.487C47.4456 67.2995 46.379 67.7085 45.3124 67.7085C44.2458 67.7085 43.1792 67.2995 42.3667 66.487L28.8253 52.9456C27.1956 51.3167 27.1956 48.683 28.8253 47.0542C30.4541 45.4245 33.087 45.4245 34.7167 47.0542L45.3124 57.6499L69.4503 33.5128C71.0791 31.8831 73.712 31.8831 75.3417 33.5128C76.9706 35.1416 76.9706 37.7745 75.3417 39.4042Z" fill="#FAFAFA"/>
</svg>
