<svg width="20" height="18" viewBox="0 0 20 18" fill="none" xmlns="http://www.w3.org/2000/svg">
<path d="M14.6094 0.532166C12.9457 0.532166 11.4873 1.274 10.3918 2.67752C10.2457 2.8647 10.1154 3.05197 10 3.23334C9.88457 3.05193 9.75434 2.8647 9.60824 2.67752C8.51273 1.274 7.0543 0.532166 5.39062 0.532166C2.24781 0.532166 0 3.16369 0 6.32139C0 9.93205 2.95926 13.3349 9.59519 17.355C9.71961 17.4303 9.85981 17.468 10 17.468C10.1402 17.468 10.2804 17.4304 10.4048 17.355C17.0407 13.335 20 9.93209 20 6.32142C20 3.16537 17.754 0.532166 14.6094 0.532166ZM16.3733 10.8173C14.9918 12.3588 12.9041 13.9819 10 15.7713C7.0959 13.9819 5.0082 12.3588 3.62668 10.8173C2.2377 9.26748 1.5625 7.79685 1.5625 6.32142C1.5625 4.04783 3.09898 2.09467 5.39062 2.09467C6.55766 2.09467 7.55273 2.60209 8.34824 3.60287C8.98434 4.40322 9.25234 5.22967 9.25422 5.23556C9.35598 5.56193 9.65816 5.78424 10 5.78424C10.3419 5.78424 10.6441 5.56197 10.7459 5.23556C10.7483 5.22767 11.0083 4.42701 11.6235 3.63888C12.4233 2.6142 13.4279 2.09463 14.6094 2.09463C16.9034 2.09463 18.4375 4.04967 18.4375 6.32139C18.4375 7.79681 17.7623 9.26744 16.3733 10.8173Z" fill="#7B8794"/>
</svg>
