<svg width="14" height="14" viewBox="0 0 14 14" fill="none" xmlns="http://www.w3.org/2000/svg">
<path d="M7.00004 1.66665C4.05452 1.66665 1.66671 4.05446 1.66671 6.99998C1.66671 9.9455 4.05452 12.3333 7.00004 12.3333C9.94556 12.3333 12.3334 9.9455 12.3334 6.99998C12.3334 4.05446 9.94556 1.66665 7.00004 1.66665ZM0.333374 6.99998C0.333374 3.31808 3.31814 0.333313 7.00004 0.333313C10.6819 0.333313 13.6667 3.31808 13.6667 6.99998C13.6667 10.6819 10.6819 13.6666 7.00004 13.6666C3.31814 13.6666 0.333374 10.6819 0.333374 6.99998ZM4.1953 4.19524C4.45565 3.93489 4.87776 3.93489 5.13811 4.19524L7.00004 6.05717L8.86197 4.19524C9.12232 3.93489 9.54443 3.93489 9.80478 4.19524C10.0651 4.45559 10.0651 4.8777 9.80478 5.13805L7.94285 6.99998L9.80478 8.86191C10.0651 9.12226 10.0651 9.54437 9.80478 9.80472C9.54443 10.0651 9.12232 10.0651 8.86197 9.80472L7.00004 7.94279L5.13811 9.80472C4.87776 10.0651 4.45565 10.0651 4.1953 9.80472C3.93495 9.54437 3.93495 9.12226 4.1953 8.86191L6.05723 6.99998L4.1953 5.13805C3.93495 4.8777 3.93495 4.45559 4.1953 4.19524Z" fill="#FF7A29"/>
</svg>
