<svg width="32" height="32" viewBox="0 0 32 32" fill="none" xmlns="http://www.w3.org/2000/svg">
<path d="M5.52276 5.33335L8.01213 21.5143C8.03024 21.6478 8.06814 21.7751 8.12276 21.893C8.28719 22.2481 8.60324 22.5186 8.9878 22.6215C9.10528 22.6531 9.2284 22.6688 9.35433 22.6667H24C24.5888 22.6667 25.1079 22.2805 25.2771 21.7165L29.2771 8.38315C29.3982 7.97945 29.3213 7.54226 29.0697 7.20411C28.8181 6.86597 28.4214 6.66669 28 6.66669H8.42593L7.9874 3.81628C7.97098 3.6971 7.9388 3.58295 7.89304 3.47599C7.80998 3.28123 7.6828 3.11252 7.52568 2.98028C7.37992 2.85735 7.20743 2.76512 7.01819 2.71352C6.89908 2.6809 6.7741 2.66457 6.64622 2.66669H3.99996C3.26358 2.66669 2.66663 3.26364 2.66663 4.00002C2.66663 4.7364 3.26358 5.33335 3.99996 5.33335H5.52276ZM10.4772 20L8.83618 9.33335H26.2079L23.0079 20H10.4772Z" fill="#FF7A29"/>
<path d="M13.3333 26.6667C13.3333 28.1394 12.1394 29.3334 10.6666 29.3334C9.19387 29.3334 7.99996 28.1394 7.99996 26.6667C7.99996 25.1939 9.19387 24 10.6666 24C12.1394 24 13.3333 25.1939 13.3333 26.6667Z" fill="#FF7A29"/>
<path d="M25.3333 26.6667C25.3333 28.1394 24.1394 29.3334 22.6666 29.3334C21.1939 29.3334 20 28.1394 20 26.6667C20 25.1939 21.1939 24 22.6666 24C24.1394 24 25.3333 25.1939 25.3333 26.6667Z" fill="#FF7A29"/>
</svg>
