<svg width="30" height="30" viewBox="0 0 30 30" fill="none" xmlns="http://www.w3.org/2000/svg">
<path d="M15 5C9.47715 5 5 9.47715 5 15C5 20.5228 9.47715 25 15 25C20.5228 25 25 20.5228 25 15C25 9.47715 20.5228 5 15 5ZM2.5 15C2.5 8.09644 8.09644 2.5 15 2.5C21.9036 2.5 27.5 8.09644 27.5 15C27.5 21.9036 21.9036 27.5 15 27.5C8.09644 27.5 2.5 21.9036 2.5 15ZM9.74112 9.74112C10.2293 9.25296 11.0207 9.25296 11.5089 9.74112L15 13.2322L18.4911 9.74112C18.9793 9.25296 19.7707 9.25296 20.2589 9.74112C20.747 10.2293 20.747 11.0207 20.2589 11.5089L16.7678 15L20.2589 18.4911C20.747 18.9793 20.747 19.7707 20.2589 20.2589C19.7707 20.747 18.9793 20.747 18.4911 20.2589L15 16.7678L11.5089 20.2589C11.0207 20.747 10.2293 20.747 9.74112 20.2589C9.25296 19.7707 9.25296 18.9793 9.74112 18.4911L13.2322 15L9.74112 11.5089C9.25296 11.0207 9.25296 10.2293 9.74112 9.74112Z" fill="#888583"/>
</svg>
