<svg width="230" height="230" viewBox="0 0 230 230" fill="none" xmlns="http://www.w3.org/2000/svg">
<rect width="230" height="230" fill="#ABABAB" fill-opacity="0.18"/>
<path fill-rule="evenodd" clip-rule="evenodd" d="M127.667 81.8803C131.876 83.5553 133.163 89.3886 134.884 91.2636C136.605 93.1386 139.067 93.7761 140.43 93.7761C147.672 93.7761 153.542 99.6469 153.542 106.884V131.03C153.542 140.739 145.667 148.614 135.959 148.614H94.0424C84.3299 148.614 76.4591 140.739 76.4591 131.03V106.884C76.4591 99.6469 82.3299 93.7761 89.5716 93.7761C90.9299 93.7761 93.3924 93.1386 95.1174 91.2636C96.8383 89.3886 98.1216 83.5553 102.33 81.8803C106.542 80.2053 123.459 80.2053 127.667 81.8803Z" stroke="white" stroke-width="4" stroke-linecap="round" stroke-linejoin="round"/>
<path d="M137.898 104.583H137.935" stroke="white" stroke-width="4" stroke-linecap="round" stroke-linejoin="round"/>
<path fill-rule="evenodd" clip-rule="evenodd" d="M128.245 119.7C128.245 112.383 122.316 106.454 114.999 106.454C107.683 106.454 101.754 112.383 101.754 119.7C101.754 127.017 107.683 132.946 114.999 132.946C122.316 132.946 128.245 127.017 128.245 119.7Z" stroke="white" stroke-width="4" stroke-linecap="round" stroke-linejoin="round"/>
</svg>
